<svg xmlns="http://www.w3.org/2000/svg" width="60" height="60" fill="none" viewBox="0 0 60 60"><path fill="#0f62fe" d="M50.728 40.091c-1.455-.546-3.092-.364-4.546.545l-8.727 5.273c-.364-.273-.727-.545-1.091-.636l-13.182-4.728c-1-.363-2.09-.363-3 .091 0 0-.09 0-.09.091l-5.274 3.182v-.273c0-1-.818-1.818-1.818-1.818H8.637c-1 0-1.819.819-1.819 1.819v13.636c0 1 .819 1.818 1.819 1.818h4.272c1 0 1.818-.818 1.818-1.818v-.455c2-1.09 2.819-2.09 4.182-1.909l14.546 3.182c1.181.364 2.454.09 3.545-.636l14.818-11.728c2-1.363 1.819-4.545-1.09-5.636M8.636 57.273V43.636h4.272v13.637zm42.09-13C35.638 55.727 36 56.909 33.91 56.273L19.273 53.09h-.091c-2.09-.364-3.545 1.09-4.454 1.545V45.91l6.181-3.727a2.52 2.52 0 0 1 1.637 0l13.182 4.727c1.181.455 1.636 1.91.908 2.91-.545.726-1.454 1-2.363.636l-7.818-3c-.455-.182-1 .09-1.182.545s.09 1 .545 1.182l7.818 3A3.65 3.65 0 0 0 38.092 51c.727-1 1-2.182.455-3.545l8.636-5.182c.91-.546 2-.728 3-.364 1.364.455 1.454 1.727.545 2.364"/><path fill="#0f62fe" d="M28.455 31c.818.545 1.363 1.454 1.545 2.363-.818.455-1.273 1.364-1.273 2.273 0 1.273.91 2.364 2.182 2.636l.364 2.91c.09.454.454.818.909.818h7.09c.455 0 .819-.364.91-.819l.363-3c1.091-.363 2-1.363 2-2.545 0-1-.545-1.818-1.272-2.273.09-.909.636-1.818 1.545-2.454 3.364-2.364 5.455-6.182 5.455-10.273 0-7.09-5.91-12.818-13.091-12.455-6.455.273-11.818 5.819-11.91 12.273C23 24.727 25 28.636 28.456 31m4.454 9.272-.182-1.818h5.91l-.182 1.818zm6.727-3.636h-8.272a.91.91 0 0 1-.91-.91.91.91 0 0 1 .91-.908h8.272a.91.91 0 0 1 .91.909.91.91 0 0 1-.91.909M35 10.09c6.091-.272 11.182 4.637 11.182 10.637a10.66 10.66 0 0 1-4.637 8.818c-1.272.818-2.09 2.091-2.272 3.545h-7.455c-.182-1.363-1-2.636-2.273-3.545-2.909-2-4.636-5.364-4.636-8.909C25 15.091 29.546 10.363 35 10.091"/><path fill="#0f62fe" d="M35.273 14.636c3.454-.182 6.363 2.637 6.363 6.091 0 .546.364.91.91.91.545 0 .908-.364.908-.91 0-4.454-3.727-8.09-8.272-7.909a.91.91 0 0 0-.91.91c0 .545.455.908 1 .908m.274-8.363c.545 0 .909-.364.909-.91V1.819c0-.545-.364-.909-.91-.909-.545 0-.908.364-.908.91v3.545c0 .545.363.909.909.909m-6.456.453q.273.546.819.546c.09 0 .273 0 .363-.091C30.727 7 31 6.455 30.727 6l-1.364-3.273c-.181-.454-.727-.727-1.181-.454-.455.182-.728.727-.455 1.182zm-4.544 3.455a.88.88 0 0 0 1.272 0 .88.88 0 0 0 0-1.273l-2.545-2.545a.88.88 0 0 0-1.273 0 .88.88 0 0 0 0 1.272zm21.909.272L49 7.91a.88.88 0 0 0 0-1.273.88.88 0 0 0-1.273 0l-2.545 2.455a.88.88 0 0 0 0 1.272c.273.364.909.364 1.273.091m-5.728-3.091c.091.09.273.09.364.09.364 0 .727-.181.818-.545l1.364-3.273c.182-.454 0-1-.455-1.182-.454-.181-1 0-1.182.455l-1.363 3.273c-.182.454 0 1 .454 1.182"/></svg>