<svg xmlns="http://www.w3.org/2000/svg" width="60" height="60" fill="none" viewBox="0 0 60 60"><path fill="#0f62fe" d="M19.82 32.28c4.698 0 8.52-3.821 8.52-8.52 0-4.697-3.824-8.519-8.52-8.519-4.697 0-8.52 3.823-8.52 8.52s3.821 8.52 8.52 8.52m0-15.634a7.12 7.12 0 0 1 7.113 7.114 7.12 7.12 0 0 1-7.113 7.113c-3.923 0-7.114-3.191-7.114-7.113a7.12 7.12 0 0 1 7.114-7.114M53.013 1.758H32.397a3.88 3.88 0 0 0-3.874 3.874v10.784a3.88 3.88 0 0 0 3.874 3.874h1.882l-.913 6.25a.705.705 0 0 0 .695.806c.17 0 .339-.061.47-.18l7.65-6.876h10.83a3.88 3.88 0 0 0 3.874-3.874V5.632a3.875 3.875 0 0 0-3.872-3.874m2.468 14.658a2.47 2.47 0 0 1-2.468 2.468h-11.1a.7.7 0 0 0-.47.18l-6.402 5.755.75-5.13a.704.704 0 0 0-.696-.805H32.4a2.47 2.47 0 0 1-2.468-2.468V5.632A2.47 2.47 0 0 1 32.4 3.164h20.614a2.47 2.47 0 0 1 2.468 2.468zM45.273 43.293l-5.871-1.24-2.993-5.201a.703.703 0 0 0-1.22 0l-2.992 5.2-.019.004a16.7 16.7 0 0 0-12.357-5.492c-9.212 0-16.708 7.495-16.708 16.707v.824A4.15 4.15 0 0 0 7.26 58.24h25.124a4.15 4.15 0 0 0 4.146-4.146v-.632l4.75 2.123a.7.7 0 0 0 .7-.074.7.7 0 0 0 .287-.644l-.636-5.966 4.021-4.453a.701.701 0 0 0-.378-1.156M32.382 56.836H7.258c-1.51 0-2.74-1.23-2.74-2.74v-.824c0-8.437 6.864-15.3 15.302-15.3 4.026 0 7.876 1.6 10.737 4.428l-4.231.893a.703.703 0 0 0-.378 1.16l4.021 4.453-.635 5.966a.702.702 0 0 0 .986.716l4.8-2.145v.654a2.74 2.74 0 0 1-2.738 2.739m7.991-8.64a.7.7 0 0 0-.177.546l.54 5.064-4.65-2.078a.7.7 0 0 0-.575 0l-4.65 2.078.539-5.064a.7.7 0 0 0-.177-.546l-3.412-3.78 4.982-1.052a.7.7 0 0 0 .464-.337l2.541-4.415 2.54 4.415c.1.173.269.296.465.337l4.983 1.052zM33.969 7.274c0-.388.315-.703.703-.703h8.76a.704.704 0 0 1 0 1.406h-8.76a.704.704 0 0 1-.703-.703m17.472 3.75a.704.704 0 0 1-.703.703H34.672a.704.704 0 0 1 0-1.406h16.065c.39 0 .704.315.704.703m0 3.75a.704.704 0 0 1-.703.703H34.672a.704.704 0 0 1 0-1.406h16.065c.39 0 .704.315.704.703"/></svg>