<svg xmlns="http://www.w3.org/2000/svg" width="60" height="60" fill="none" viewBox="0 0 60 60"><path fill="#0f62fe" d="M29.063 2.138h1.875v4.425h-1.875zm20.625 23.175h4.424v1.875h-4.425zm-43.8 0h4.425v1.875H5.888zM43.25 40.834l1.326-1.326 3.129 3.13-1.326 1.325zM12.285 9.863l1.326-1.326 3.129 3.13-1.326 1.325zm30.968 1.806 3.129-3.129 1.326 1.326-3.13 3.129zm2.685 14.581a15.937 15.937 0 1 0-27.51 10.962 14.5 14.5 0 0 1 4.057 9.663.937.937 0 0 0-.922.937v5.625a1.875 1.875 0 0 0 1.875 1.875h2.93a3.75 3.75 0 0 0 7.264 0h2.93a1.875 1.875 0 0 0 1.876-1.875v-5.625a.94.94 0 0 0-.922-.937 14.86 14.86 0 0 1 4.14-9.75 15.88 15.88 0 0 0 4.282-10.875M32.812 53.437a.94.94 0 0 0-.937.938 1.875 1.875 0 1 1-3.75 0 .937.937 0 0 0-.937-.938h-3.75V48.75h13.125v4.687zm2.073-26.35L29.72 32.25c0-1.759.297-4.291 1.852-5.846 1.989-1.989 5.594-1.93 7.107-1.804.126 1.511.188 5.119-1.803 7.107-1.546 1.546-4.058 1.85-5.813 1.853l5.152-5.151zm.74 19.788h-4.031a28.6 28.6 0 0 1-1.73-11.438c.175.006.353.014.512.014s.332 0 .48-.009h.162c2.089 0 5.163-.393 7.18-2.41 3.232-3.232 2.292-9.182 2.25-9.433a.94.94 0 0 0-.773-.773c-.251-.041-6.2-.98-9.433 2.25a6.6 6.6 0 0 0-.702.844c-2.907-2.187-7.2-1.705-7.396-1.681a.94.94 0 0 0-.819.818c-.025.211-.593 5.21 2.257 8.071a8.2 8.2 0 0 0 4.421 2.122 30.5 30.5 0 0 0 1.601 11.625h-5.229a16.38 16.38 0 0 0-4.583-10.953 14.062 14.062 0 0 1 8.606-23.64 14.063 14.063 0 0 1 11.887 23.565 16.74 16.74 0 0 0-4.66 11.028m-7.781-14.793a17 17 0 0 0 .029 1.213 6.07 6.07 0 0 1-2.958-1.485c-1.63-1.637-1.792-4.406-1.764-5.746 1.268-.034 3.831.134 5.487 1.552a10.7 10.7 0 0 0-.572 2.038l-1.82-1.82-1.33 1.322zM12.281 42.634l3.13-3.13 1.325 1.327-3.129 3.129z"/></svg>