<svg xmlns="http://www.w3.org/2000/svg" width="60" height="60" fill="none" viewBox="0 0 60 60"><path fill="#0f62fe" fill-rule="evenodd" d="M53.667 34.476c-1.606 2.174-5.549 5.665-10.045 8.892-4.6 3.302-8.624 5.524-10.5 5.794-4.17.594-6.094.121-7.64-.264-2.337-.574-3.938-.796-8.498 1.33l-4.48-9.493 9.66-5.206a2.61 2.61 0 0 1 2.405-.08l8.047 3.66c.656.296.993.992.818 1.694l-.048.189c-.17.687-.9 1.373-1.598 1.12l-5.57-2.025a.8.8 0 0 0-.39-.04l-2.629.385a.805.805 0 0 0-.676.911.8.8 0 0 0 .91.675l2.427-.358 5.38 1.958c1.38.505 2.846-.313 3.477-1.62l.637.007a5.2 5.2 0 0 0 2.966-.844c.556-.358 1.415-.946 2.409-1.628 1.917-1.31 4.541-3.105 6.88-4.544 3.587-2.2 4.715-2.444 5.034-2.444.96-.007 1.383.068 1.761.527-.003.094-.063.493-.737 1.404m-37.53 18.4a.97.97 0 0 0-.032-.757l-5.802-12.295c-.239-.51-.85-.73-1.343-.493l-2.78 1.29a1.01 1.01 0 0 0-.491 1.336l5.801 12.296c.24.506.842.729 1.343.493l2.78-1.29a1 1 0 0 0 .524-.58m5.938-19.048v-5.267a.05.05 0 0 0-.048-.047h-2.494a.05.05 0 0 0-.048.047v6.59l1.92-1.033a4.3 4.3 0 0 1 .67-.29m8.543 2.613V23.767c0-.02-.023-.047-.048-.047h-2.494c-.026 0-.049.027-.049.047V35.26zm8.543 2.221V19.345a.05.05 0 0 0-.049-.047h-2.494a.05.05 0 0 0-.048.047v20.89c.3-.094.59-.236.883-.425a74 74 0 0 0 1.707-1.148M15.845 6.152v30.964l2.037-1.1v-7.454c0-.912.74-1.655 1.65-1.655h2.495c.91 0 1.65.743 1.65 1.655v5.043a4.3 4.3 0 0 1 1.555.385l1.193.54V23.768c0-.912.74-1.648 1.65-1.648h2.495c.91 0 1.65.736 1.65 1.648V37.17l1.059.48a3.07 3.07 0 0 1 1.688 1.978V19.345c0-.912.74-1.648 1.65-1.648h2.495c.91 0 1.651.736 1.651 1.648v18.224c.69-.466 1.37-.932 2.038-1.378V12.228h-4.474a2.593 2.593 0 0 1-2.59-2.593v-4.47H16.832a.985.985 0 0 0-.987.986M37.34 6.3l4.328 4.321h-3.34a.985.985 0 0 1-.988-.986zm18.348 25.813c-.87-1.1-1.943-1.182-3.058-1.175-1.46.014-4.54 1.783-8.227 4.193V11.425a.82.82 0 0 0-.235-.568l-7.063-7.062a.8.8 0 0 0-.566-.236H16.832a2.593 2.593 0 0 0-2.59 2.592v31.823l-2.423 1.31-.066-.142a2.617 2.617 0 0 0-3.468-1.263l-2.78 1.29c-1.3.606-1.88 2.172-1.265 3.47l5.801 12.296a2.62 2.62 0 0 0 3.468 1.262l2.78-1.29a2.617 2.617 0 0 0 1.366-3.227c4.288-1.998 5.564-1.688 7.445-1.222 1.68.412 3.77.925 8.248.29 2.814-.404 8.292-3.882 12.48-7.008 4.192-3.126 9.015-7.333 9.981-9.763.377-.946.143-1.533-.12-1.864M24.095 9.953c1.26 0 2.404.513 3.236 1.33l-3.662 3.666-1.556-1.56a.803.803 0 0 0-1.133 1.134l2.122 2.121a.796.796 0 0 0 1.134 0l4.034-4.03c1.421 3.03-.79 6.562-4.175 6.562a4.615 4.615 0 0 1-4.61-4.611 4.62 4.62 0 0 1 4.61-4.612m0 10.823a6.22 6.22 0 0 1-6.212-6.212 6.22 6.22 0 0 1 6.212-6.211 6.2 6.2 0 0 1 4.37 1.802L30 8.615a.806.806 0 0 1 1.133 0 .803.803 0 0 1 0 1.135l-1.68 1.681c.542.919.854 1.992.854 3.133a6.22 6.22 0 0 1-6.213 6.212" clip-rule="evenodd"/></svg>