<svg xmlns="http://www.w3.org/2000/svg" width="20" height="20" fill="none" viewBox="0 0 20 20"><path fill="#050d20" fill-rule="evenodd" d="M2.5 12.5h15a1.25 1.25 0 0 0 1.25-1.25v-7.5A1.253 1.253 0 0 0 17.5 2.5h-15a1.253 1.253 0 0 0-1.25 1.25v7.5A1.253 1.253 0 0 0 2.5 12.5m0-8.75h15v7.5h-15zm6.111 5.829A2.5 2.5 0 1 0 11.39 5.42a2.5 2.5 0 0 0-2.78 4.16m.695-3.118a1.25 1.25 0 1 1 1.388 2.078 1.25 1.25 0 0 1-1.388-2.078M15 6.25a1.25 1.25 0 1 0 0 2.5 1.25 1.25 0 0 0 0-2.5m-13.75 7.5h17.5V15H1.25zm0 2.5h17.5v1.25H1.25zM5 6.25a1.25 1.25 0 1 0 0 2.5 1.25 1.25 0 0 0 0-2.5" clip-rule="evenodd"/></svg>