<svg xmlns="http://www.w3.org/2000/svg" width="20" height="20" fill="none" viewBox="0 0 20 20"><path fill="#525252" d="M7.5 18.125a.63.63 0 0 1-.575-.387l-2.969-7.113H1.25v-1.25h3.125a.63.63 0 0 1 .575.387L7.5 15.8l5.038-13.519a.625.625 0 0 1 .587-.406.625.625 0 0 1 .581.425l2.369 7.075h2.675v1.25h-3.125a.625.625 0 0 1-.594-.425l-1.906-5.825-5.037 13.344a.625.625 0 0 1-.588.406"/><path fill="#000" fill-opacity=".8" d="M7.5 18.125a.63.63 0 0 1-.575-.387l-2.969-7.113H1.25v-1.25h3.125a.63.63 0 0 1 .575.387L7.5 15.8l5.038-13.519a.625.625 0 0 1 .587-.406.625.625 0 0 1 .581.425l2.369 7.075h2.675v1.25h-3.125a.625.625 0 0 1-.594-.425l-1.906-5.825-5.037 13.344a.625.625 0 0 1-.588.406"/></svg>