<svg xmlns="http://www.w3.org/2000/svg" width="20" height="20" fill="none" viewBox="0 0 20 20"><path fill="#050d20" fill-rule="evenodd" d="M16.875 6.875V3.75h-6.25v3.125zM10.625 2.5h6.25a1.25 1.25 0 0 1 1.25 1.25v3.125a1.25 1.25 0 0 1-1.25 1.25h-6.25a1.25 1.25 0 0 1-1.25-1.25V3.75a1.25 1.25 0 0 1 1.25-1.25M10 15.625v-5H3.75v5zm-6.25-6.25H10a1.25 1.25 0 0 1 1.25 1.25v5a1.25 1.25 0 0 1-1.25 1.25H3.75a1.25 1.25 0 0 1-1.25-1.25v-5a1.25 1.25 0 0 1 1.25-1.25m13.125 1.25v3.125H13.75v-3.125zm0-1.25H13.75a1.25 1.25 0 0 0-1.25 1.25v3.125A1.25 1.25 0 0 0 13.75 15h3.125a1.25 1.25 0 0 0 1.25-1.25v-3.125a1.25 1.25 0 0 0-1.25-1.25m-10-2.5V3.75H3.75v3.125zM3.75 2.5h3.125a1.25 1.25 0 0 1 1.25 1.25v3.125a1.25 1.25 0 0 1-1.25 1.25H3.75a1.25 1.25 0 0 1-1.25-1.25V3.75A1.25 1.25 0 0 1 3.75 2.5" clip-rule="evenodd"/></svg>