<svg xmlns="http://www.w3.org/2000/svg" width="20" height="20" fill="none" viewBox="0 0 20 20"><path fill="#050d20" fill-rule="evenodd" d="M7.222 10.407a5 5 0 1 0 5.556-8.313 5 5 0 0 0-5.556 8.313m.695-7.275a3.75 3.75 0 1 1 4.166 6.236 3.75 3.75 0 0 1-4.166-6.236m3.958 4.11-1.25-1.25V3.75h-1.25v2.759l1.616 1.616zM2.5 18.75h15a1.25 1.25 0 0 0 1.25-1.25v-3.75a1.25 1.25 0 0 0-1.25-1.25h-15a1.25 1.25 0 0 0-1.25 1.25v3.75a1.25 1.25 0 0 0 1.25 1.25m0-1.25v-3.75h15v3.75zM5 15.625a.625.625 0 1 1-1.25 0 .625.625 0 0 1 1.25 0" clip-rule="evenodd"/></svg>