<svg xmlns="http://www.w3.org/2000/svg" width="20" height="20" fill="none" viewBox="0 0 20 20"><path fill="#505155" fill-rule="evenodd" d="M6.042 2.816a1.875 1.875 0 1 0-2.084 3.118 1.875 1.875 0 0 0 2.084-3.118m-2.778-1.04a3.125 3.125 0 1 1 3.472 5.197 3.125 3.125 0 0 1-3.472-5.196m12.778 6.04a1.875 1.875 0 1 0-2.084 3.118 1.875 1.875 0 0 0 2.084-3.118m-2.778-1.04a3.125 3.125 0 1 1 3.472 5.197 3.125 3.125 0 0 1-3.472-5.196m4.861 11.974h1.25v-1.875a3.125 3.125 0 0 0-3.125-3.125h-2.5a3.125 3.125 0 0 0-3.125 3.125v1.875h1.25v-1.875A1.875 1.875 0 0 1 13.75 15h2.5a1.875 1.875 0 0 1 1.875 1.875zm-8.75-5h-1.25v-1.875A1.875 1.875 0 0 0 6.25 10h-2.5a1.875 1.875 0 0 0-1.875 1.875v1.875H.625v-1.875A3.125 3.125 0 0 1 3.75 8.75h2.5a3.125 3.125 0 0 1 3.125 3.125z" clip-rule="evenodd"/><path fill="#000" fill-opacity=".8" fill-rule="evenodd" d="M6.042 2.816a1.875 1.875 0 1 0-2.084 3.118 1.875 1.875 0 0 0 2.084-3.118m-2.778-1.04a3.125 3.125 0 1 1 3.472 5.197 3.125 3.125 0 0 1-3.472-5.196m12.778 6.04a1.875 1.875 0 1 0-2.084 3.118 1.875 1.875 0 0 0 2.084-3.118m-2.778-1.04a3.125 3.125 0 1 1 3.472 5.197 3.125 3.125 0 0 1-3.472-5.196m4.861 11.974h1.25v-1.875a3.125 3.125 0 0 0-3.125-3.125h-2.5a3.125 3.125 0 0 0-3.125 3.125v1.875h1.25v-1.875A1.875 1.875 0 0 1 13.75 15h2.5a1.875 1.875 0 0 1 1.875 1.875zm-8.75-5h-1.25v-1.875A1.875 1.875 0 0 0 6.25 10h-2.5a1.875 1.875 0 0 0-1.875 1.875v1.875H.625v-1.875A3.125 3.125 0 0 1 3.75 8.75h2.5a3.125 3.125 0 0 1 3.125 3.125z" clip-rule="evenodd"/></svg>