<svg xmlns="http://www.w3.org/2000/svg" width="20" height="20" fill="none" viewBox="0 0 20 20"><path fill="#050d20" fill-rule="evenodd" d="M17.134 2.866c.234.235.366.552.366.884V7.5h-1.25V3.75h-2.5V5H12.5V3.75h-5V5H6.25V3.75h-2.5v12.5h2.5v1.25h-2.5a1.25 1.25 0 0 1-1.25-1.25V3.75A1.25 1.25 0 0 1 3.75 2.5h2.5V1.25H7.5V2.5h5V1.25h1.25V2.5h2.5c.331 0 .65.132.884.366m-2.416 9.595-1.593-3.086-1.5 3.086-3.5.495 2.5 2.402L10 18.75l3.125-1.601 3.125 1.601-.625-3.392 2.5-2.402z" clip-rule="evenodd"/></svg>