<svg xmlns="http://www.w3.org/2000/svg" width="20" height="20" fill="none" viewBox="0 0 20 20"><path fill="#050d20" fill-rule="evenodd" d="M16.042 2.816a1.875 1.875 0 1 0-2.084 3.118 1.875 1.875 0 0 0 2.084-3.118m-2.778-1.04a3.125 3.125 0 1 1 3.472 5.197 3.125 3.125 0 0 1-3.472-5.196M15 8.75h1.25a3.13 3.13 0 0 1 3.125 3.125v2.5h-1.25v-2.5A1.877 1.877 0 0 0 16.25 10H15zm-.625 10h-1.25V17.5a1.877 1.877 0 0 0-1.875-1.875h-2.5A1.877 1.877 0 0 0 6.875 17.5v1.25h-1.25V17.5a3.13 3.13 0 0 1 3.125-3.125h2.5a3.13 3.13 0 0 1 3.125 3.125zM11.042 8.441a1.875 1.875 0 1 0-2.084 3.118 1.875 1.875 0 0 0 2.084-3.118m-2.778-1.04a3.125 3.125 0 1 1 3.472 5.197 3.125 3.125 0 0 1-3.472-5.196M5 8.75H3.75a3.13 3.13 0 0 0-3.125 3.125v2.5h1.25v-2.5A1.877 1.877 0 0 1 3.75 10H5zm1.042-5.934a1.875 1.875 0 1 0-2.084 3.118 1.875 1.875 0 0 0 2.084-3.118m-2.778-1.04a3.125 3.125 0 1 1 3.472 5.197 3.125 3.125 0 0 1-3.472-5.196" clip-rule="evenodd"/></svg>