<svg xmlns="http://www.w3.org/2000/svg" width="20" height="20" fill="none" viewBox="0 0 20 20"><path fill="#505155" fill-rule="evenodd" d="M7.762 15.928 11.024 3.75l1.208.323L8.969 16.25zM.625 10 5 5.625l.881.882L2.394 10l3.487 3.494-.881.881zm18.75 0L15 14.375l-.881-.88L17.606 10 14.12 6.507l.88-.882z" clip-rule="evenodd"/><path fill="#000" fill-opacity=".8" fill-rule="evenodd" d="M7.762 15.928 11.024 3.75l1.208.323L8.969 16.25zM.625 10 5 5.625l.881.882L2.394 10l3.487 3.494-.881.881zm18.75 0L15 14.375l-.881-.88L17.606 10 14.12 6.507l.88-.882z" clip-rule="evenodd"/></svg>