<svg xmlns="http://www.w3.org/2000/svg" width="291" height="137" fill="none" viewBox="0 0 291 137"><path fill="#deecff" d="M189.932 123.308c-1.394 2.383-4.469 3.2-6.745 1.635a68.51 68.51 0 0 1-26.948-75.62A68.5 68.5 0 0 1 224.608.05a68.5 68.5 0 0 1 64.422 54.334 68.5 68.5 0 0 1-32.625 73.349c-2.388 1.387-5.392.339-6.601-2.144l-10.618-21.801c-1.209-2.483-.15-5.447 2.13-7.005a34.25 34.25 0 0 0 14.199-35.341 34.25 34.25 0 0 0-32.211-27.167 34.25 34.25 0 0 0-34.185 24.637 34.255 34.255 0 0 0 11.468 36.32c2.156 1.726 2.986 4.762 1.592 7.145z"/><circle cx="222" cy="68.5" r="28.632" stroke="#fff" stroke-dasharray="5 5" stroke-opacity=".1"/><path fill="#0f62fe" d="M189.932 123.308c-1.394 2.383-4.469 3.2-6.744 1.635a68.5 68.5 0 0 1-18.752-19.313 68.5 68.5 0 0 1-10.564-29.996 68.51 68.51 0 0 1 22.038-57.809 68.5 68.5 0 0 1 88.497-3.12 68.5 68.5 0 0 1 17.453 20.494c1.343 2.413.239 5.396-2.265 6.56L257.6 51.97c-2.505 1.163-5.449.049-6.964-2.26a34.25 34.25 0 1 0-50.049 45.52c2.156 1.727 2.986 4.763 1.592 7.146z"/><path fill="#5e7dff" d="M189.932 123.308c-1.394 2.383-4.469 3.2-6.745 1.635a68.505 68.505 0 0 1-27.605-73.205c.676-2.678 3.525-4.095 6.146-3.225l23.017 7.633c2.621.869 4.002 3.697 3.523 6.417a34.26 34.26 0 0 0 12.319 32.668c2.155 1.727 2.986 4.763 1.592 7.146z"/><path fill="#fff" d="M202.709 21.556v-1.26l3.709-5.854h1.043v1.793h-.639l-2.496 3.95v.07h5.174v1.3zm4.16 1.617v-1.998l.023-.569v-6.164h1.489v8.73zm6.773.117q-1.06 0-1.816-.527-.75-.534-1.149-1.53-.398-1.001-.398-2.42 0-1.417.398-2.42.399-1.007 1.149-1.535.756-.533 1.816-.533 1.055 0 1.811.533.756.534 1.154 1.536.399 1.002.399 2.42t-.399 2.42q-.398.995-1.148 1.529-.75.527-1.817.527m0-1.324q.569 0 .961-.37.399-.368.604-1.072.21-.709.211-1.71 0-1.009-.211-1.717-.205-.71-.604-1.078a1.34 1.34 0 0 0-.961-.375q-.855 0-1.318.832-.457.825-.457 2.338 0 1.001.205 1.71.205.704.604 1.073.397.369.966.369m9-.434v-.457q0-.51.211-.937a1.66 1.66 0 0 1 .627-.686q.417-.258 1.008-.258.603 0 1.014.258.41.258.615.686.211.42.211.937v.457q0 .51-.211.938a1.67 1.67 0 0 1-.621.685q-.411.258-1.008.258t-1.014-.258a1.66 1.66 0 0 1-.627-.685 2.15 2.15 0 0 1-.205-.938m1.108-.457v.457q0 .34.164.621.164.282.574.282.405 0 .563-.282a1.25 1.25 0 0 0 .158-.62v-.458q0-.34-.153-.62-.146-.282-.568-.282-.404 0-.574.281-.165.282-.164.621m-5.543-4.535v-.457q0-.516.217-.937.216-.428.627-.686.41-.258.996-.258.61 0 1.019.258.411.258.621.685.211.422.205.938v.457q.006.51-.211.938a1.7 1.7 0 0 1-.627.685q-.41.252-1.007.252-.599 0-1.008-.258a1.66 1.66 0 0 1-.621-.685 2.1 2.1 0 0 1-.211-.932m1.119-.457v.457q0 .34.158.621.158.282.563.275.415.007.568-.275a1.25 1.25 0 0 0 .158-.621v-.457q0-.34-.152-.621-.147-.287-.574-.287-.399 0-.563.287a1.3 1.3 0 0 0-.158.621m-.639 7.09 6-8.73h1.073l-6 8.73zm-57.556 60.626v-1.137l3.035-2.977q.428-.438.715-.779.293-.34.44-.656.146-.322.146-.686 0-.41-.187-.708a1.2 1.2 0 0 0-.516-.458 1.66 1.66 0 0 0-.738-.158q-.433 0-.756.176a1.26 1.26 0 0 0-.504.498q-.176.322-.176.768h-1.5q0-.827.375-1.436.381-.615 1.049-.955t1.529-.34q.885 0 1.547.328t1.031.903q.369.568.369 1.3 0 .492-.187.967-.188.469-.662 1.049-.47.575-1.318 1.389l-1.5 1.529v.065h3.796v1.318zm10.061.117q-.856 0-1.53-.316-.667-.323-1.066-.885a2.33 2.33 0 0 1-.416-1.29h1.535q.036.534.457.874.427.34 1.02.34.469 0 .826-.211.357-.217.562-.592.211-.381.211-.867 0-.498-.211-.88a1.54 1.54 0 0 0-.58-.603 1.6 1.6 0 0 0-.849-.222q-.399 0-.774.152a1.6 1.6 0 0 0-.597.387l-1.436-.235.457-4.5h5.068v1.325h-3.755l-.252 2.314h.046q.247-.292.686-.475.445-.187.979-.187a2.66 2.66 0 0 1 2.39 1.394q.357.65.358 1.495 0 .861-.399 1.54-.399.674-1.101 1.061-.703.381-1.629.381m8.771-1.758v-.457q0-.51.211-.937a1.66 1.66 0 0 1 .627-.686q.416-.258 1.008-.258.603 0 1.014.258.41.257.615.686.21.42.211.937v.457q0 .51-.211.938a1.67 1.67 0 0 1-.621.685q-.411.258-1.008.258-.598 0-1.014-.258a1.66 1.66 0 0 1-.627-.685 2.1 2.1 0 0 1-.205-.938m1.108-.457v.457q0 .34.164.621.163.282.574.282.404 0 .562-.282a1.24 1.24 0 0 0 .159-.62V81.7q0-.34-.153-.62-.146-.282-.568-.282-.405 0-.574.281-.165.282-.164.621m-5.543-4.535v-.457q0-.516.216-.937.218-.428.627-.686.411-.258.996-.258.61 0 1.02.258.41.257.621.686.211.42.205.937v.457q.006.51-.211.938a1.7 1.7 0 0 1-.627.685q-.41.252-1.008.252-.597 0-1.007-.258a1.66 1.66 0 0 1-.621-.685 2.1 2.1 0 0 1-.211-.932m1.119-.457v.457q0 .34.158.621.158.282.562.275.417.006.569-.275a1.25 1.25 0 0 0 .158-.621v-.457q0-.34-.152-.621-.147-.287-.575-.287-.398 0-.562.287a1.26 1.26 0 0 0-.158.621m-.639 7.09 6-8.73h1.072l-6 8.73z"/><path fill="#0f62fe" d="M265.048 77.617q-.921 0-1.635-.31a2.76 2.76 0 0 1-1.131-.88 2.25 2.25 0 0 1-.428-1.3h1.594q.018.357.229.621.216.258.574.404.357.141.797.141.468 0 .826-.164a1.4 1.4 0 0 0 .568-.457q.205-.293.205-.674 0-.399-.211-.703a1.34 1.34 0 0 0-.597-.475q-.393-.17-.944-.17h-.779v-1.218h.779q.446 0 .791-.159.346-.157.539-.439.194-.287.194-.668 0-.368-.17-.644a1.1 1.1 0 0 0-.469-.428 1.6 1.6 0 0 0-.715-.153 1.9 1.9 0 0 0-.744.147q-.34.14-.551.404a1.06 1.06 0 0 0-.217.633h-1.517q.012-.732.416-1.29.41-.556 1.096-.866a3.6 3.6 0 0 1 1.535-.317q.867 0 1.511.329.651.321 1.002.873.358.55.358 1.212 0 .74-.434 1.237t-1.142.656v.064q.914.13 1.4.68.492.55.492 1.371 0 .733-.416 1.313-.416.573-1.142.902-.727.328-1.664.328m7.277 0q-.855 0-1.529-.316a2.73 2.73 0 0 1-1.067-.885 2.34 2.34 0 0 1-.416-1.289h1.535q.036.533.457.873.428.34 1.02.34.469 0 .826-.211.357-.217.563-.592.21-.381.211-.867a1.8 1.8 0 0 0-.211-.879 1.54 1.54 0 0 0-.58-.603 1.6 1.6 0 0 0-.85-.223q-.399 0-.774.152-.375.147-.597.387l-1.436-.235.457-4.5h5.069v1.325h-3.756l-.252 2.314h.047q.246-.292.685-.474.445-.188.979-.188a2.66 2.66 0 0 1 2.39 1.395q.358.65.358 1.494 0 .861-.399 1.54a2.84 2.84 0 0 1-1.101 1.061q-.704.381-1.629.381m8.771-1.758v-.457q0-.51.211-.937a1.66 1.66 0 0 1 .627-.686q.417-.257 1.008-.257.603 0 1.014.257.41.257.615.686.211.422.211.937v.457q0 .51-.211.938a1.67 1.67 0 0 1-.621.685q-.41.258-1.008.258-.597 0-1.014-.258a1.65 1.65 0 0 1-.626-.685 2.1 2.1 0 0 1-.206-.938m1.108-.457v.457q0 .34.164.622.164.28.574.28.404 0 .563-.28a1.25 1.25 0 0 0 .158-.622v-.457q0-.34-.153-.62-.146-.282-.568-.282-.404 0-.574.281a1.2 1.2 0 0 0-.164.621m-5.543-4.535v-.457q0-.516.217-.937.216-.428.627-.686.41-.258.996-.258.61 0 1.019.258.411.258.621.686.211.42.205.937v.457q.006.51-.211.938a1.7 1.7 0 0 1-.626.685q-.411.252-1.008.252-.599 0-1.008-.258a1.66 1.66 0 0 1-.621-.685 2.1 2.1 0 0 1-.211-.932m1.119-.457v.457q0 .34.158.621.159.282.563.276.416.006.568-.276a1.24 1.24 0 0 0 .158-.62v-.458q0-.34-.152-.62-.147-.288-.574-.288-.399 0-.563.287a1.3 1.3 0 0 0-.158.621m-.639 7.09 6-8.73h1.073l-6 8.73z"/><path fill="#fff" d="M.844 12V.36H5.21q1.344 0 2.25.468.914.469 1.383 1.313.468.835.469 1.945 0 1.117-.477 1.937-.47.821-1.39 1.266-.922.445-2.266.445H2.078V5.992h2.813q.788 0 1.289-.219.507-.218.742-.64.242-.43.242-1.047T6.922 3.03a1.54 1.54 0 0 0-.742-.672q-.5-.234-1.297-.234h-1.93V12zm6.539 0-2.82-5.281h2.296L9.742 12zm6.93.172q-1.313 0-2.266-.547a3.73 3.73 0 0 1-1.469-1.562q-.507-1.008-.508-2.376 0-1.35.508-2.367a3.83 3.83 0 0 1 1.43-1.593q.921-.57 2.172-.57.804 0 1.523.257.727.258 1.281.797.563.54.883 1.375.32.827.32 1.976v.641h-7.156V6.82h6.133l-.96.407q0-.743-.227-1.29a1.9 1.9 0 0 0-.672-.867q-.446-.312-1.11-.312-.663 0-1.133.312-.468.313-.71.844-.243.524-.243 1.172v.96q0 .798.274 1.368.281.563.781.86.508.296 1.18.296.437 0 .797-.125.367-.124.625-.375.265-.258.406-.633l1.922.227a3.1 3.1 0 0 1-.696 1.328 3.3 3.3 0 0 1-1.289.875q-.78.305-1.797.305m12.492-8.906L23.695 12h-2.28l-3.102-8.734h2.195l2.023 6.492h.094l2.008-6.492zm4.398 8.906q-1.312 0-2.265-.547a3.73 3.73 0 0 1-1.47-1.562q-.507-1.008-.507-2.376 0-1.35.508-2.367a3.83 3.83 0 0 1 1.43-1.593q.921-.57 2.171-.57.805 0 1.524.257.726.258 1.281.797.563.54.883 1.375.32.827.32 1.976v.641h-7.156V6.82h6.133l-.961.407q0-.743-.227-1.29a1.9 1.9 0 0 0-.672-.867q-.445-.312-1.11-.312-.664 0-1.132.312-.469.313-.71.844Q29 6.438 29 7.086v.96q0 .798.273 1.368.281.563.782.86.508.296 1.18.296.437 0 .796-.125.367-.124.625-.375.266-.258.407-.633l1.921.227a3.1 3.1 0 0 1-.695 1.328 3.3 3.3 0 0 1-1.289.875q-.78.305-1.797.305M38.25 6.89V12h-2.055V3.266h2.016v1.492h.102q.295-.735.93-1.164.64-.438 1.624-.438.906 0 1.578.383.672.382 1.04 1.125.375.734.374 1.781V12h-2.054V6.766q0-.876-.453-1.368-.454-.5-1.25-.5-.54 0-.961.235a1.7 1.7 0 0 0-.657.68q-.234.436-.234 1.078m12.695 1.445v-5.07H53V12h-1.992v-1.555h-.094q-.296.734-.969 1.203-.672.47-1.656.461-.86 0-1.516-.375a2.67 2.67 0 0 1-1.023-1.117q-.367-.742-.367-1.789V3.266h2.054v5.25q0 .82.454 1.312.46.492 1.203.485.453 0 .875-.22.429-.218.703-.655t.273-1.102m7.446 3.836q-1.312 0-2.266-.547a3.73 3.73 0 0 1-1.469-1.562q-.508-1.008-.508-2.376 0-1.35.508-2.367a3.83 3.83 0 0 1 1.43-1.593q.922-.57 2.172-.57.804 0 1.523.257.727.258 1.282.797.562.54.882 1.375.32.827.32 1.976v.641H55.11V6.82h6.133l-.96.407q0-.743-.227-1.29a1.9 1.9 0 0 0-.672-.867q-.445-.312-1.11-.312-.663 0-1.132.312-.47.313-.711.844-.242.524-.242 1.172v.96q0 .798.273 1.368.281.563.781.86.508.296 1.18.296.438 0 .797-.125.367-.124.625-.375a1.7 1.7 0 0 0 .406-.633l1.922.227a3.1 3.1 0 0 1-.695 1.328 3.3 3.3 0 0 1-1.29.875q-.781.305-1.796.305m13.554-.016q-1.6 0-2.82-.726-1.21-.727-1.89-2.063-.68-1.335-.68-3.172 0-1.875.695-3.218.703-1.344 1.906-2.055 1.203-.72 2.727-.719.969 0 1.797.281a4.8 4.8 0 0 1 1.484.805q.649.516 1.063 1.227.42.71.562 1.562h-2.148a3 3 0 0 0-.391-.828 2.4 2.4 0 0 0-.594-.625q-.344-.266-.781-.398a3.3 3.3 0 0 0-.969-.133 3 3 0 0 0-1.664.476q-.735.47-1.156 1.383-.414.906-.414 2.219 0 1.32.414 2.234.414.915 1.156 1.39.743.47 1.719.47.882 0 1.531-.336.649-.344 1-.97.352-.624.352-1.476l.484.079h-3.164V5.914h4.727v1.39q0 1.5-.633 2.587a4.33 4.33 0 0 1-1.758 1.68q-1.117.585-2.555.585M78.242 12V3.266h1.992v1.468h.094q.235-.765.82-1.171.586-.415 1.336-.415a5 5 0 0 1 .735.055v1.89a2 2 0 0 0-.414-.077 5 5 0 0 0-.54-.032q-.57 0-1.015.243a1.84 1.84 0 0 0-.703.664q-.25.42-.25.984V12zm9.195.172q-1.28 0-2.218-.563a3.8 3.8 0 0 1-1.453-1.578q-.508-1.015-.508-2.36 0-1.351.508-2.366a3.8 3.8 0 0 1 1.453-1.586q.937-.563 2.219-.563 1.28 0 2.218.563t1.453 1.586q.516 1.016.516 2.367 0 1.344-.516 2.36a3.8 3.8 0 0 1-1.453 1.577q-.937.563-2.219.563m0-1.656q.712 0 1.172-.375.462-.384.688-1.032.234-.648.234-1.437 0-.805-.234-1.453-.226-.65-.688-1.024-.46-.383-1.171-.383-.696 0-1.165.383-.468.375-.703 1.024a4.4 4.4 0 0 0-.226 1.453q0 .789.226 1.437.234.649.703 1.032.47.375 1.165.375M94.329 12 91.86 3.266h2.094l1.54 6.14h.077l1.57-6.14h2.07l1.571 6.117h.078l1.516-6.117h2.102L102.008 12h-2.149l-1.64-5.898h-.11L96.47 12zm15.344-8.734v1.593h-5.008V3.266zm-3.781-2.078h2.054v8.187q0 .516.227.766.226.242.719.242.132 0 .297-.024.164-.023.296-.054l.352 1.61q-.328.1-.664.148a4 4 0 0 1-.672.054q-1.219 0-1.914-.64-.696-.649-.695-1.766zm7.156 5.703V12h-2.055V.36H113v4.398h.109q.305-.743.946-1.172.64-.43 1.648-.43.906 0 1.578.383.68.383 1.055 1.117.375.735.375 1.79V12h-2.063V6.766q0-.89-.453-1.375-.453-.492-1.265-.493-.547 0-.977.235a1.7 1.7 0 0 0-.664.68q-.242.436-.242 1.078"/><path fill="#3e64ff" d="M0 65h16v16H0z"/><path fill="#0f62fe" d="M22.479 76.01v-1.237l4.395-6.959h.978v1.833h-.63l-3.144 4.976v.082h6.036v1.306zM27.29 78v-2.365l.014-.568v-7.252h1.463V78zm7.492.137q-1.176 0-2.016-.615-.834-.615-1.279-1.778-.437-1.169-.437-2.83 0-1.654.444-2.823.444-1.176 1.278-1.791.84-.622 2.01-.622 1.176 0 2.01.622.84.615 1.278 1.79.445 1.17.445 2.824 0 1.661-.438 2.83-.438 1.162-1.271 1.778-.834.615-2.024.615m0-1.313q.718 0 1.21-.458t.752-1.333q.26-.882.26-2.119 0-1.245-.26-2.12-.26-.881-.752-1.339a1.7 1.7 0 0 0-1.21-.465q-1.06 0-1.64 1.032-.575 1.026-.575 2.892 0 1.237.26 2.12.26.874.752 1.332.5.458 1.203.458m10.24-.738v-.533q0-.581.24-1.06.24-.478.704-.765.465-.294 1.128-.294.676 0 1.135.287.457.287.69.772.232.479.232 1.06v.533q0 .581-.239 1.066-.233.48-.69.766-.459.287-1.128.287-.67 0-1.135-.287a1.87 1.87 0 0 1-.704-.766 2.4 2.4 0 0 1-.233-1.066m1.156-.533v.533q0 .43.205.78.204.348.71.348.5 0 .698-.349.198-.348.198-.78v-.532q0-.43-.191-.773-.191-.348-.704-.348-.5 0-.711.348a1.47 1.47 0 0 0-.205.773m-6.276-5.291v-.534q0-.58.24-1.06.246-.484.704-.772.465-.286 1.12-.287.677 0 1.136.288.465.285.697.772.232.478.225 1.06v.533a2.3 2.3 0 0 1-.232 1.06 1.93 1.93 0 0 1-.697.772q-.459.287-1.128.287-.67 0-1.135-.287a1.93 1.93 0 0 1-.697-.773 2.4 2.4 0 0 1-.233-1.06m1.156-.534v.534q0 .43.205.779.204.348.704.342.506.006.704-.342a1.55 1.55 0 0 0 .198-.78v-.532q0-.431-.191-.78-.192-.348-.711-.342-.492-.006-.704.342a1.5 1.5 0 0 0-.205.78M40.375 78l7-10.186h1.19l-7 10.186z"/><path fill="#f5f5f5" d="M57.376 78.164q-1.142 0-1.982-.355-.834-.363-1.306-1.033t-.526-1.592h1.544q.047.553.356.922.314.363.813.54.5.178 1.094.178.65 0 1.162-.205a1.86 1.86 0 0 0 .8-.574 1.38 1.38 0 0 0 .294-.875q0-.45-.26-.738a1.9 1.9 0 0 0-.69-.472 7 7 0 0 0-.985-.335l-1.196-.328q-1.23-.328-1.941-.978-.711-.656-.711-1.716 0-.88.471-1.538.48-.656 1.292-1.018.82-.37 1.84-.37 1.038 0 1.825.37.792.362 1.25.998.465.63.486 1.442h-1.49a1.47 1.47 0 0 0-.657-1.093q-.567-.39-1.449-.39-.615 0-1.08.198a1.65 1.65 0 0 0-.71.533q-.247.342-.247.787 0 .478.294.779.3.3.725.478.43.172.827.28l.991.267q.485.123.998.328t.95.54q.444.329.711.82.273.486.274 1.176 0 .854-.445 1.532-.444.67-1.285 1.06-.84.382-2.037.382m5.01-.164V67.814h6.392v1.32h-4.853v3.07h4.511v1.312h-4.511v3.165h4.901V78zm12.114.137q-1.312 0-2.352-.63-1.039-.629-1.64-1.797-.602-1.176-.602-2.796 0-1.634.602-2.803.601-1.176 1.64-1.804 1.04-.63 2.352-.63 1.326 0 2.358.63 1.032.628 1.627 1.804.602 1.17.602 2.803 0 1.627-.602 2.796-.595 1.17-1.627 1.798-1.032.63-2.358.629m0-1.402q.882 0 1.572-.437t1.087-1.292q.404-.855.403-2.092 0-1.245-.403-2.099-.396-.861-1.087-1.298a2.87 2.87 0 0 0-1.572-.438q-.874 0-1.572.438-.69.437-1.094 1.298-.403.855-.403 2.1 0 1.236.403 2.09.403.855 1.094 1.293.698.437 1.572.437"/><path fill="#deecff" d="M0 37h16v16H0z"/><path fill="#f5f5f5" d="M26.231 50.137q-1.032 0-1.832-.349-.8-.355-1.264-.984a2.53 2.53 0 0 1-.492-1.456h1.544q.035.45.308.779.273.328.718.513.45.177 1.005.177.6 0 1.066-.212.465-.21.725-.58.266-.376.266-.869 0-.512-.26-.902a1.7 1.7 0 0 0-.758-.615q-.5-.22-1.203-.22h-.868v-1.257h.868q.56 0 .99-.205a1.6 1.6 0 0 0 .67-.567q.247-.363.247-.855 0-.472-.212-.82a1.4 1.4 0 0 0-.595-.547 1.94 1.94 0 0 0-.902-.198q-.5 0-.93.178-.43.177-.704.512a1.3 1.3 0 0 0-.28.8h-1.483a2.5 2.5 0 0 1 .478-1.45q.465-.627 1.23-.977a4 4 0 0 1 1.71-.355q.977 0 1.688.383.719.375 1.107 1.011.39.63.39 1.374 0 .87-.478 1.463-.48.588-1.279.8v.075q1.012.157 1.566.807.56.649.56 1.613 0 .84-.472 1.504-.465.663-1.278 1.046-.807.383-1.846.383m8.251 0q-.936 0-1.681-.356a3.1 3.1 0 0 1-1.183-.991 2.6 2.6 0 0 1-.471-1.442h1.49q.055.649.58 1.073.528.424 1.265.424.588 0 1.04-.274.45-.273.71-.745.26-.478.26-1.094 0-.615-.266-1.1a1.97 1.97 0 0 0-.739-.773 2.04 2.04 0 0 0-1.073-.28q-.465 0-.93.164-.464.158-.752.41l-1.415-.205.575-5.133h5.598v1.319h-4.313l-.322 2.85h.055a2.2 2.2 0 0 1 .786-.478q.499-.192 1.074-.191.929 0 1.654.444.73.437 1.148 1.203.417.759.417 1.743 0 .99-.45 1.77-.452.773-1.245 1.217-.786.445-1.812.445m10.008-2.051v-.533q0-.581.24-1.06.239-.478.704-.766.465-.293 1.128-.293.676 0 1.134.287.459.287.69.772.233.479.233 1.06v.533q0 .581-.24 1.066-.231.48-.69.766-.457.287-1.127.287t-1.135-.287a1.87 1.87 0 0 1-.704-.766 2.4 2.4 0 0 1-.233-1.066m1.155-.533v.533q0 .43.206.78.204.348.71.348.5 0 .698-.349.198-.348.198-.78v-.532q0-.43-.191-.773-.192-.348-.704-.348-.5 0-.711.348a1.47 1.47 0 0 0-.206.773m-6.275-5.291v-.534q0-.58.24-1.06.245-.484.703-.771.465-.288 1.122-.288.676 0 1.134.288.465.285.698.772.232.478.225 1.06v.533a2.3 2.3 0 0 1-.232 1.06 1.93 1.93 0 0 1-.697.772q-.459.287-1.128.287-.67 0-1.135-.287a1.93 1.93 0 0 1-.697-.773 2.4 2.4 0 0 1-.233-1.06m1.155-.534v.534q0 .43.206.779.203.348.704.342.506.006.704-.342a1.55 1.55 0 0 0 .198-.78v-.533q0-.43-.192-.779-.19-.348-.71-.342-.493-.006-.705.342a1.5 1.5 0 0 0-.205.78M39.842 50l7-10.185h1.19l-7 10.185zm17.896.137q-1.381 0-2.426-.636-1.04-.636-1.627-1.805-.582-1.176-.582-2.782 0-1.627.588-2.796.596-1.175 1.627-1.805 1.033-.635 2.352-.635.82 0 1.531.246a3.99 3.99 0 0 1 2.694 3.11h-1.573a3.1 3.1 0 0 0-.383-.813 2.47 2.47 0 0 0-1.333-1.005 3 3 0 0 0-.93-.137q-.86 0-1.551.444-.69.438-1.094 1.292-.403.855-.403 2.092T55.03 47t1.108 1.299q.704.437 1.6.437.826 0 1.442-.335.615-.341.957-.957t.342-1.456l.403.075H57.97v-1.271h4.006v1.162q0 1.285-.547 2.222a3.7 3.7 0 0 1-1.504 1.449q-.957.513-2.188.513M63.221 50v-7.643h1.428v1.224h.082q.213-.615.739-.97a2.1 2.1 0 0 1 1.203-.363q.136 0 .321.014.192.006.308.02v1.422a4 4 0 0 0-.78-.082 1.95 1.95 0 0 0-.943.226q-.41.218-.65.608a1.7 1.7 0 0 0-.232.889V50zm7.731.157q-1.073 0-1.88-.492a3.33 3.33 0 0 1-1.244-1.38q-.437-.89-.437-2.065 0-1.19.437-2.078a3.3 3.3 0 0 1 1.244-1.388q.807-.492 1.88-.492 1.08 0 1.88.492t1.244 1.388q.445.888.445 2.078 0 1.176-.445 2.064a3.33 3.33 0 0 1-1.244 1.381q-.8.492-1.88.492m0-1.25q.705 0 1.162-.37.459-.37.677-.977.226-.615.226-1.34 0-.739-.226-1.354a2.16 2.16 0 0 0-.677-.984q-.458-.37-1.162-.37-.697 0-1.155.37-.45.369-.677.984-.225.615-.226 1.354 0 .725.226 1.34.225.608.677.977.458.37 1.155.37M77.01 50l-2.242-7.643h1.53l1.498 5.613h.082l1.497-5.613h1.538l1.483 5.592h.076l1.49-5.592h1.531L83.25 50h-1.51l-1.56-5.51h-.102L78.52 50zm12.872-7.643v1.197h-4.17v-1.197zm-3.056-1.818h1.484v7.219q0 .526.218.772.219.24.704.24.117 0 .247-.014.136-.015.273-.041l.28 1.23q-.225.076-.492.117a3.5 3.5 0 0 1-.533.04q-.991 0-1.586-.553-.595-.56-.595-1.49zm5.763 4.929V50H91.11V39.815h1.456v3.8h.103q.267-.623.813-.984.554-.37 1.443-.37.786 0 1.374.322.588.32.916.964.335.643.335 1.6V50h-1.49v-4.676q0-.847-.438-1.312-.43-.465-1.203-.465-.534 0-.943.232-.41.225-.65.65-.24.423-.24 1.039"/><path fill="#5d7dff" d="M0 93h16v16H0z"/><path fill="#f5f5f5" d="M22.684 106v-1.107l3.445-3.582q.546-.575.902-1.012a4 4 0 0 0 .54-.841q.185-.397.185-.84 0-.514-.24-.883a1.57 1.57 0 0 0-.649-.567 2.1 2.1 0 0 0-.93-.198q-.545 0-.95.225a1.55 1.55 0 0 0-.629.63 1.96 1.96 0 0 0-.218.95h-1.463q0-.93.424-1.628a2.9 2.9 0 0 1 1.175-1.08q.753-.39 1.696-.39.963 0 1.695.383a2.9 2.9 0 0 1 1.142 1.04q.41.649.41 1.47 0 .567-.212 1.107-.205.54-.732 1.21-.519.663-1.449 1.599l-2.023 2.119v.083h4.58V106zm11.36.137q-.935 0-1.68-.356a3.1 3.1 0 0 1-1.183-.991 2.6 2.6 0 0 1-.472-1.442h1.49q.055.649.581 1.073.527.424 1.265.424.588 0 1.039-.274.451-.273.71-.745.26-.478.26-1.094 0-.615-.266-1.1a2 2 0 0 0-.738-.773 2.05 2.05 0 0 0-1.073-.28q-.465 0-.93.164-.464.158-.752.41l-1.415-.205.574-5.133h5.599v1.319h-4.314l-.321 2.85h.055a2.2 2.2 0 0 1 .786-.478q.499-.192 1.073-.192.93 0 1.654.445.731.436 1.149 1.203.417.759.417 1.743 0 .991-.451 1.771-.452.772-1.245 1.216-.786.445-1.811.445m10.009-2.051v-.533q0-.582.239-1.06.24-.478.704-.765.465-.294 1.128-.294.677 0 1.135.287t.69.772q.233.478.233 1.06v.533q0 .581-.24 1.066a1.83 1.83 0 0 1-.69.766q-.457.287-1.128.287t-1.135-.287a1.87 1.87 0 0 1-.704-.766 2.4 2.4 0 0 1-.232-1.066m1.155-.533v.533q0 .43.205.779.206.35.711.349.5 0 .697-.349.2-.348.199-.779v-.533q0-.43-.192-.773-.191-.348-.704-.348-.5 0-.71.348a1.5 1.5 0 0 0-.206.773m-6.275-5.291v-.534q0-.58.239-1.06.246-.484.704-.772.465-.286 1.121-.287.677 0 1.135.288.465.285.697.772.232.478.226 1.06v.533a2.3 2.3 0 0 1-.233 1.06q-.24.477-.697.772-.457.287-1.128.287t-1.135-.287a1.93 1.93 0 0 1-.697-.773 2.4 2.4 0 0 1-.232-1.06m1.155-.534v.534q0 .43.205.779.205.348.704.342.506.006.704-.342a1.55 1.55 0 0 0 .198-.78v-.532q0-.431-.191-.78-.192-.348-.71-.342-.494-.006-.705.342a1.5 1.5 0 0 0-.205.78M39.404 106l7-10.186h1.19l-7 10.186zm13.59-10.186h1.873l3.24 7.916h.117l3.247-7.916h1.9V106h-1.504v-7.37h-.095l-3.015 7.356H57.54l-2.98-7.362h-.096V106h-1.47zm14.123 10.35q-.724 0-1.312-.267a2.2 2.2 0 0 1-.93-.793q-.342-.519-.342-1.264 0-.65.246-1.06.254-.417.677-.663a3.5 3.5 0 0 1 .943-.369 10 10 0 0 1 1.067-.191q.69-.076 1.114-.13.425-.056.615-.171.2-.123.199-.39v-.034q0-.65-.37-1.005-.361-.355-1.08-.355-.744 0-1.182.328-.431.321-.595.731l-1.401-.321q.252-.698.731-1.121a3 3 0 0 1 1.108-.629q.628-.198 1.312-.198.458 0 .97.11.514.1.965.389.457.28.745.806.287.527.287 1.361V106h-1.456v-1.046h-.055a2 2 0 0 1-.43.561 2.3 2.3 0 0 1-.739.464q-.45.186-1.087.185m.322-1.189q.621 0 1.059-.24.438-.246.67-.642a1.64 1.64 0 0 0 .232-.841v-.991q-.081.075-.307.143-.226.069-.513.117-.287.047-.56.088-.274.034-.459.055-.43.062-.786.191a1.34 1.34 0 0 0-.574.37q-.212.239-.212.635 0 .553.41.834t1.04.281M72.313 106v-7.643h1.428v1.224h.082q.213-.615.739-.97a2.1 2.1 0 0 1 1.203-.363q.136 0 .32.014.193.006.309.02v1.422a4 4 0 0 0-.78-.082 1.95 1.95 0 0 0-.943.226q-.41.218-.65.608a1.7 1.7 0 0 0-.232.889V106zm6.165-2.591-.02-1.811h.267l3.042-3.24h1.777l-3.466 3.691h-.246zM77.111 106V95.814h1.477V106zm4.813 0-2.735-3.623 1.026-1.046 3.54 4.669zm5.366.157q-1.121 0-1.941-.485a3.25 3.25 0 0 1-1.265-1.367q-.437-.889-.437-2.072 0-1.175.43-2.071.438-.896 1.224-1.394.792-.506 1.86-.506.648 0 1.257.212.609.21 1.094.67.485.457.765 1.189.287.732.287 1.764v.533h-6.077v-1.114H89.8l-.69.369q0-.704-.22-1.244a1.8 1.8 0 0 0-.656-.841q-.43-.308-1.073-.308-.642 0-1.1.308-.451.308-.69.813-.24.507-.24 1.108v.758q0 .787.273 1.333.274.547.76.834.491.288 1.14.288.424 0 .766-.123.349-.124.602-.37a1.6 1.6 0 0 0 .383-.608l1.408.267q-.171.615-.602 1.08t-1.087.724q-.649.253-1.483.253m7.868-7.8v1.197h-4.17v-1.197zm-3.055-1.818h1.483v7.219q0 .526.219.772.218.24.704.24.116 0 .246-.014.136-.014.273-.041l.28 1.23a3 3 0 0 1-.492.117 4 4 0 0 1-.533.041q-.991 0-1.586-.554-.594-.561-.594-1.49zM96.225 106v-7.643H97.7V106zm.745-8.818a.93.93 0 0 1-.663-.26.83.83 0 0 1-.274-.622q0-.369.274-.63a.93.93 0 0 1 .663-.259.92.92 0 0 1 .656.26q.28.26.28.629a.82.82 0 0 1-.28.622.92.92 0 0 1-.656.26m3.63 4.286V106h-1.477v-7.643h1.436v1.258h.102q.26-.622.814-.984.554-.37 1.421-.37.78 0 1.361.329.588.32.909.964.328.642.328 1.592V106h-1.476v-4.676q0-.827-.438-1.299-.438-.478-1.189-.478-.513 0-.923.232-.404.225-.636.65-.232.423-.232 1.039m9.502 7.553q-1.368 0-2.154-.512-.786-.513-1.087-1.217l1.272-.526q.137.218.362.464.232.248.622.417.39.171 1.005.171.84 0 1.395-.41.553-.404.553-1.299v-1.497h-.102q-.123.24-.376.54a2.2 2.2 0 0 1-.691.513q-.437.219-1.141.219a3.16 3.16 0 0 1-1.627-.424q-.718-.43-1.149-1.258-.423-.834-.423-2.051t.417-2.085q.423-.875 1.148-1.34a3 3 0 0 1 1.647-.464q.711 0 1.149.239.444.232.69.547.246.314.383.554h.109v-1.245h1.443v7.814q0 .984-.458 1.613a2.65 2.65 0 0 1-1.231.93q-.779.307-1.756.307m-.014-4.375q.964 0 1.476-.663.52-.67.52-1.852 0-.772-.226-1.354-.225-.588-.67-.916-.444-.335-1.1-.335-.67 0-1.121.349-.444.342-.67.937a3.6 3.6 0 0 0-.226 1.319q0 .745.226 1.319.225.567.677.882.457.315 1.114.314"/></svg>