<svg xmlns="http://www.w3.org/2000/svg" width="20" height="12" fill="none" viewBox="0 0 20 12"><mask id="a" width="20" height="12" x="0" y="0" maskUnits="userSpaceOnUse" style="mask-type:luminance"><path fill="#fff" d="M0 0h20v11.666H0z"/></mask><g mask="url(#a)"><path fill="#f32837" d="M0 10.77h20v.897H0z"/></g><mask id="b" width="20" height="12" x="0" y="0" maskUnits="userSpaceOnUse" style="mask-type:luminance"><path fill="#fff" d="M0 0h20v11.666H0z"/></mask><g mask="url(#b)"><path fill="#fff5f5" d="M0 9.871h20v.897H0z"/></g><mask id="c" width="20" height="12" x="0" y="0" maskUnits="userSpaceOnUse" style="mask-type:luminance"><path fill="#fff" d="M0 0h20v11.666H0z"/></mask><g mask="url(#c)"><path fill="#f32837" d="M0 8.975h20v.896H0z"/></g><mask id="d" width="20" height="12" x="0" y="0" maskUnits="userSpaceOnUse" style="mask-type:luminance"><path fill="#fff" d="M0 0h20v11.666H0z"/></mask><g mask="url(#d)"><path fill="#fff5f5" d="M0 8.078h20v.897H0z"/></g><mask id="e" width="20" height="12" x="0" y="0" maskUnits="userSpaceOnUse" style="mask-type:luminance"><path fill="#fff" d="M0 0h20v11.666H0z"/></mask><g mask="url(#e)"><path fill="#f32837" d="M0 7.18h20v.898H0z"/></g><mask id="f" width="20" height="12" x="0" y="0" maskUnits="userSpaceOnUse" style="mask-type:luminance"><path fill="#fff" d="M0 0h20v11.666H0z"/></mask><g mask="url(#f)"><path fill="#fff5f5" d="M0 6.283h20v.897H0z"/></g><mask id="g" width="20" height="12" x="0" y="0" maskUnits="userSpaceOnUse" style="mask-type:luminance"><path fill="#fff" d="M0 0h20v11.666H0z"/></mask><g mask="url(#g)"><path fill="#f32837" d="M0 5.385h20v.898H0z"/></g><mask id="h" width="20" height="12" x="0" y="0" maskUnits="userSpaceOnUse" style="mask-type:luminance"><path fill="#fff" d="M0 0h20v11.666H0z"/></mask><g mask="url(#h)"><path fill="#fff5f5" d="M0 4.488h20v.897H0z"/></g><mask id="i" width="20" height="12" x="0" y="0" maskUnits="userSpaceOnUse" style="mask-type:luminance"><path fill="#fff" d="M0 0h20v11.666H0z"/></mask><g mask="url(#i)"><path fill="#f32837" d="M0 3.59h20v.897H0z"/></g><mask id="j" width="20" height="12" x="0" y="0" maskUnits="userSpaceOnUse" style="mask-type:luminance"><path fill="#fff" d="M0 0h20v11.666H0z"/></mask><g mask="url(#j)"><path fill="#fff5f5" d="M0 2.693h20v.898H0z"/></g><mask id="k" width="20" height="12" x="0" y="0" maskUnits="userSpaceOnUse" style="mask-type:luminance"><path fill="#fff" d="M0 0h20v11.666H0z"/></mask><g mask="url(#k)"><path fill="#f32837" d="M0 1.795h20v.897H0z"/></g><mask id="l" width="20" height="12" x="0" y="0" maskUnits="userSpaceOnUse" style="mask-type:luminance"><path fill="#fff" d="M0 0h20v11.666H0z"/></mask><g mask="url(#l)"><path fill="#fff5f5" d="M0 .898h20v.898H0z"/></g><mask id="m" width="20" height="12" x="0" y="0" maskUnits="userSpaceOnUse" style="mask-type:luminance"><path fill="#fff" d="M0 0h20v11.666H0z"/></mask><g mask="url(#m)"><path fill="#f32837" d="M0 0h20v.898H0z"/></g><mask id="n" width="20" height="12" x="0" y="0" maskUnits="userSpaceOnUse" style="mask-type:luminance"><path fill="#fff" d="M0 0h20v11.666H0z"/></mask><g mask="url(#n)"><path fill="#2a3560" d="M0 0h9.134v6.283H0z"/></g><mask id="o" width="20" height="12" x="0" y="0" maskUnits="userSpaceOnUse" style="mask-type:luminance"><path fill="#fff" d="M0 0h20v11.666H0z"/></mask><g mask="url(#o)"><path fill="#fff5f5" d="m.825.693.078.238h.25l-.202.147.076.237-.202-.146-.203.146.08-.237L.499.931h.248z"/></g><mask id="p" width="20" height="12" x="0" y="0" maskUnits="userSpaceOnUse" style="mask-type:luminance"><path fill="#fff" d="M0 0h20v11.666H0z"/></mask><g mask="url(#p)"><path fill="#fff5f5" d="m.825 1.742.078.237h.25l-.202.146.076.239-.202-.148-.203.148.08-.239-.203-.146h.248z"/></g><mask id="q" width="20" height="12" x="0" y="0" maskUnits="userSpaceOnUse" style="mask-type:luminance"><path fill="#fff" d="M0 0h20v11.666H0z"/></mask><g mask="url(#q)"><path fill="#fff5f5" d="m.825 2.791.078.237h.25l-.202.147.076.238-.202-.148-.203.147.08-.237-.203-.147h.248z"/></g><mask id="r" width="20" height="12" x="0" y="0" maskUnits="userSpaceOnUse" style="mask-type:luminance"><path fill="#fff" d="M0 0h20v11.666H0z"/></mask><g mask="url(#r)"><path fill="#fff5f5" d="m.825 3.838.078.238h.25l-.202.147.076.236-.202-.146-.203.146.08-.236-.203-.147h.248z"/></g><mask id="s" width="20" height="12" x="0" y="0" maskUnits="userSpaceOnUse" style="mask-type:luminance"><path fill="#fff" d="M0 0h20v11.666H0z"/></mask><g mask="url(#s)"><path fill="#fff5f5" d="m.825 4.887.078.238h.25l-.202.146.076.237-.202-.146-.203.146.08-.237-.203-.146h.248z"/></g><mask id="t" width="20" height="12" x="0" y="0" maskUnits="userSpaceOnUse" style="mask-type:luminance"><path fill="#fff" d="M0 0h20v11.666H0z"/></mask><g mask="url(#t)"><path fill="#fff5f5" d="m1.556 1.244.074.238h.251l-.2.147.075.237-.2-.146-.202.146.076-.237-.201-.147h.25z"/></g><mask id="u" width="20" height="12" x="0" y="0" maskUnits="userSpaceOnUse" style="mask-type:luminance"><path fill="#fff" d="M0 0h20v11.666H0z"/></mask><g mask="url(#u)"><path fill="#fff5f5" d="m1.556 2.293.074.237h.251l-.2.147.075.237-.2-.146-.202.146.076-.237-.201-.147h.25z"/></g><mask id="v" width="20" height="12" x="0" y="0" maskUnits="userSpaceOnUse" style="mask-type:luminance"><path fill="#fff" d="M0 0h20v11.666H0z"/></mask><g mask="url(#v)"><path fill="#fff5f5" d="m1.556 3.342.074.237h.251l-.2.147.075.237-.2-.146-.202.146.076-.237-.201-.147h.25z"/></g><mask id="w" width="20" height="12" x="0" y="0" maskUnits="userSpaceOnUse" style="mask-type:luminance"><path fill="#fff" d="M0 0h20v11.666H0z"/></mask><g mask="url(#w)"><path fill="#fff5f5" d="m1.556 4.39.074.237h.251l-.2.147.075.237-.2-.147-.202.147.076-.237-.201-.147h.25z"/></g><mask id="x" width="20" height="12" x="0" y="0" maskUnits="userSpaceOnUse" style="mask-type:luminance"><path fill="#fff" d="M0 0h20v11.666H0z"/></mask><g mask="url(#x)"><path fill="#fff5f5" d="m2.294.693.078.238h.25l-.203.147.078.237-.203-.146-.2.146.076-.237-.202-.147h.249z"/></g><mask id="y" width="20" height="12" x="0" y="0" maskUnits="userSpaceOnUse" style="mask-type:luminance"><path fill="#fff" d="M0 0h20v11.666H0z"/></mask><g mask="url(#y)"><path fill="#fff5f5" d="m2.294 1.742.078.237h.25l-.203.146.078.239-.203-.148-.2.148.076-.239-.202-.146h.249z"/></g><mask id="z" width="20" height="12" x="0" y="0" maskUnits="userSpaceOnUse" style="mask-type:luminance"><path fill="#fff" d="M0 0h20v11.666H0z"/></mask><g mask="url(#z)"><path fill="#fff5f5" d="m2.294 2.791.078.237h.25l-.203.147.078.238-.203-.148-.2.147.076-.237-.202-.147h.249z"/></g><mask id="A" width="20" height="12" x="0" y="0" maskUnits="userSpaceOnUse" style="mask-type:luminance"><path fill="#fff" d="M0 0h20v11.666H0z"/></mask><g mask="url(#A)"><path fill="#fff5f5" d="m2.294 3.838.078.238h.25l-.203.147.078.236-.203-.146-.2.146.076-.236-.202-.147h.249z"/></g><mask id="B" width="20" height="12" x="0" y="0" maskUnits="userSpaceOnUse" style="mask-type:luminance"><path fill="#fff" d="M0 0h20v11.666H0z"/></mask><g mask="url(#B)"><path fill="#fff5f5" d="m2.294 4.887.078.238h.25l-.203.146.078.237-.203-.146-.2.146.076-.237-.202-.146h.249z"/></g><mask id="C" width="20" height="12" x="0" y="0" maskUnits="userSpaceOnUse" style="mask-type:luminance"><path fill="#fff" d="M0 0h20v11.666H0z"/></mask><g mask="url(#C)"><path fill="#fff5f5" d="m3.024 1.244.077.238h.251l-.203.147.078.237-.203-.146-.201.146.078-.237-.204-.147h.25z"/></g><mask id="D" width="20" height="12" x="0" y="0" maskUnits="userSpaceOnUse" style="mask-type:luminance"><path fill="#fff" d="M0 0h20v11.666H0z"/></mask><g mask="url(#D)"><path fill="#fff5f5" d="m3.024 2.293.077.237h.251l-.203.147.078.237-.203-.146-.201.146.078-.237-.204-.147h.25z"/></g><mask id="E" width="20" height="12" x="0" y="0" maskUnits="userSpaceOnUse" style="mask-type:luminance"><path fill="#fff" d="M0 0h20v11.666H0z"/></mask><g mask="url(#E)"><path fill="#fff5f5" d="m3.024 3.342.077.237h.251l-.203.147.078.237-.203-.146-.201.146.078-.237-.204-.147h.25z"/></g><mask id="F" width="20" height="12" x="0" y="0" maskUnits="userSpaceOnUse" style="mask-type:luminance"><path fill="#fff" d="M0 0h20v11.666H0z"/></mask><g mask="url(#F)"><path fill="#fff5f5" d="m3.024 4.39.077.237h.251l-.203.147.078.237-.203-.147-.201.147.078-.237-.204-.147h.25z"/></g><mask id="G" width="20" height="12" x="0" y="0" maskUnits="userSpaceOnUse" style="mask-type:luminance"><path fill="#fff" d="M0 0h20v11.666H0z"/></mask><g mask="url(#G)"><path fill="#fff5f5" d="m3.765.693.078.238h.248l-.202.147.08.237-.204-.146-.202.146.077-.237-.2-.147h.249z"/></g><mask id="H" width="20" height="12" x="0" y="0" maskUnits="userSpaceOnUse" style="mask-type:luminance"><path fill="#fff" d="M0 0h20v11.666H0z"/></mask><g mask="url(#H)"><path fill="#fff5f5" d="m3.765 1.742.078.237h.248l-.202.146.08.239-.204-.148-.202.148.077-.239-.2-.146h.249z"/></g><mask id="I" width="20" height="12" x="0" y="0" maskUnits="userSpaceOnUse" style="mask-type:luminance"><path fill="#fff" d="M0 0h20v11.666H0z"/></mask><g mask="url(#I)"><path fill="#fff5f5" d="m3.765 2.791.078.237h.248l-.202.147.08.238-.204-.148-.202.147.077-.237-.2-.147h.249z"/></g><mask id="J" width="20" height="12" x="0" y="0" maskUnits="userSpaceOnUse" style="mask-type:luminance"><path fill="#fff" d="M0 0h20v11.666H0z"/></mask><g mask="url(#J)"><path fill="#fff5f5" d="m3.765 3.838.078.238h.248l-.202.147.08.236-.204-.146-.202.146.077-.236-.2-.147h.249z"/></g><mask id="K" width="20" height="12" x="0" y="0" maskUnits="userSpaceOnUse" style="mask-type:luminance"><path fill="#fff" d="M0 0h20v11.666H0z"/></mask><g mask="url(#K)"><path fill="#fff5f5" d="m3.765 4.887.078.238h.248l-.202.146.08.237-.204-.146-.202.146.077-.237-.2-.146h.249z"/></g><mask id="L" width="20" height="12" x="0" y="0" maskUnits="userSpaceOnUse" style="mask-type:luminance"><path fill="#fff" d="M0 0h20v11.666H0z"/></mask><g mask="url(#L)"><path fill="#fff5f5" d="m4.496 1.244.077.238h.249l-.201.147.075.237-.2-.146-.201.146.075-.237-.201-.147h.249z"/></g><mask id="M" width="20" height="12" x="0" y="0" maskUnits="userSpaceOnUse" style="mask-type:luminance"><path fill="#fff" d="M0 0h20v11.666H0z"/></mask><g mask="url(#M)"><path fill="#fff5f5" d="m4.496 2.293.077.237h.249l-.201.147.075.237-.2-.146-.201.146.075-.237-.201-.147h.249z"/></g><mask id="N" width="20" height="12" x="0" y="0" maskUnits="userSpaceOnUse" style="mask-type:luminance"><path fill="#fff" d="M0 0h20v11.666H0z"/></mask><g mask="url(#N)"><path fill="#fff5f5" d="m4.496 3.342.077.237h.249l-.201.147.075.237-.2-.146-.201.146.075-.237-.201-.147h.249z"/></g><mask id="O" width="20" height="12" x="0" y="0" maskUnits="userSpaceOnUse" style="mask-type:luminance"><path fill="#fff" d="M0 0h20v11.666H0z"/></mask><g mask="url(#O)"><path fill="#fff5f5" d="m4.496 4.39.077.237h.249l-.201.147.075.237-.2-.147-.201.147.075-.237-.201-.147h.249z"/></g><mask id="P" width="20" height="12" x="0" y="0" maskUnits="userSpaceOnUse" style="mask-type:luminance"><path fill="#fff" d="M0 0h20v11.666H0z"/></mask><g mask="url(#P)"><path fill="#fff5f5" d="m5.234.693.078.238h.25l-.202.147.078.237-.204-.146-.2.146.076-.237-.202-.147h.25z"/></g><mask id="Q" width="20" height="12" x="0" y="0" maskUnits="userSpaceOnUse" style="mask-type:luminance"><path fill="#fff" d="M0 0h20v11.666H0z"/></mask><g mask="url(#Q)"><path fill="#fff5f5" d="m5.234 1.742.078.237h.25l-.202.146.078.239-.204-.148-.2.148.076-.239-.202-.146h.25z"/></g><mask id="R" width="20" height="12" x="0" y="0" maskUnits="userSpaceOnUse" style="mask-type:luminance"><path fill="#fff" d="M0 0h20v11.666H0z"/></mask><g mask="url(#R)"><path fill="#fff5f5" d="m5.234 2.791.078.237h.25l-.202.147.078.238-.204-.148-.2.147.076-.237-.202-.147h.25z"/></g><mask id="S" width="20" height="12" x="0" y="0" maskUnits="userSpaceOnUse" style="mask-type:luminance"><path fill="#fff" d="M0 0h20v11.666H0z"/></mask><g mask="url(#S)"><path fill="#fff5f5" d="m5.234 3.838.078.238h.25l-.202.147.078.236-.204-.146-.2.146.076-.236-.202-.147h.25z"/></g><mask id="T" width="20" height="12" x="0" y="0" maskUnits="userSpaceOnUse" style="mask-type:luminance"><path fill="#fff" d="M0 0h20v11.666H0z"/></mask><g mask="url(#T)"><path fill="#fff5f5" d="m5.234 4.887.078.238h.25l-.202.146.078.237-.204-.146-.2.146.076-.237-.202-.146h.25z"/></g><mask id="U" width="20" height="12" x="0" y="0" maskUnits="userSpaceOnUse" style="mask-type:luminance"><path fill="#fff" d="M0 0h20v11.666H0z"/></mask><g mask="url(#U)"><path fill="#fff5f5" d="m5.965 1.244.076.238h.252l-.203.147.077.237-.202-.146-.202.146.078-.237-.202-.147h.25z"/></g><mask id="V" width="20" height="12" x="0" y="0" maskUnits="userSpaceOnUse" style="mask-type:luminance"><path fill="#fff" d="M0 0h20v11.666H0z"/></mask><g mask="url(#V)"><path fill="#fff5f5" d="m5.965 2.293.076.237h.252l-.203.147.077.237-.202-.146-.202.146.078-.237-.202-.147h.25z"/></g><mask id="W" width="20" height="12" x="0" y="0" maskUnits="userSpaceOnUse" style="mask-type:luminance"><path fill="#fff" d="M0 0h20v11.666H0z"/></mask><g mask="url(#W)"><path fill="#fff5f5" d="m5.965 3.342.076.237h.252l-.203.147.077.237-.202-.146-.202.146.078-.237-.202-.147h.25z"/></g><mask id="X" width="20" height="12" x="0" y="0" maskUnits="userSpaceOnUse" style="mask-type:luminance"><path fill="#fff" d="M0 0h20v11.666H0z"/></mask><g mask="url(#X)"><path fill="#fff5f5" d="m5.965 4.39.076.237h.252l-.203.147.077.237-.202-.147-.202.147.078-.237-.202-.147h.25z"/></g><mask id="Y" width="20" height="12" x="0" y="0" maskUnits="userSpaceOnUse" style="mask-type:luminance"><path fill="#fff" d="M0 0h20v11.666H0z"/></mask><g mask="url(#Y)"><path fill="#fff5f5" d="m6.705.693.078.238h.249l-.202.147.076.237-.201-.146-.2.146.075-.237-.2-.147h.249z"/></g><mask id="Z" width="20" height="12" x="0" y="0" maskUnits="userSpaceOnUse" style="mask-type:luminance"><path fill="#fff" d="M0 0h20v11.666H0z"/></mask><g mask="url(#Z)"><path fill="#fff5f5" d="m6.705 1.742.078.237h.249l-.202.146.076.239-.201-.148-.2.148.075-.239-.201-.146h.249z"/></g><mask id="aa" width="20" height="12" x="0" y="0" maskUnits="userSpaceOnUse" style="mask-type:luminance"><path fill="#fff" d="M0 0h20v11.666H0z"/></mask><g mask="url(#aa)"><path fill="#fff5f5" d="m6.705 2.791.078.237h.249l-.202.147.076.238-.201-.148-.2.147.075-.237-.201-.147h.249z"/></g><mask id="ab" width="20" height="12" x="0" y="0" maskUnits="userSpaceOnUse" style="mask-type:luminance"><path fill="#fff" d="M0 0h20v11.666H0z"/></mask><g mask="url(#ab)"><path fill="#fff5f5" d="m6.705 3.838.078.238h.249l-.202.147.076.236-.201-.146-.2.146.075-.236-.201-.147h.249z"/></g><mask id="ac" width="20" height="12" x="0" y="0" maskUnits="userSpaceOnUse" style="mask-type:luminance"><path fill="#fff" d="M0 0h20v11.666H0z"/></mask><g mask="url(#ac)"><path fill="#fff5f5" d="m6.705 4.887.078.238h.249l-.202.146.076.237-.201-.146-.2.146.075-.237-.201-.146h.249z"/></g><mask id="ad" width="20" height="12" x="0" y="0" maskUnits="userSpaceOnUse" style="mask-type:luminance"><path fill="#fff" d="M0 0h20v11.666H0z"/></mask><g mask="url(#ad)"><path fill="#fff5f5" d="m7.435 1.244.076.238h.25l-.2.147.074.237-.2-.146-.203.146.078-.237-.2-.147h.247z"/></g><mask id="ae" width="20" height="12" x="0" y="0" maskUnits="userSpaceOnUse" style="mask-type:luminance"><path fill="#fff" d="M0 0h20v11.666H0z"/></mask><g mask="url(#ae)"><path fill="#fff5f5" d="m7.435 2.293.076.237h.25l-.2.147.074.237-.2-.146-.203.146.078-.237-.2-.147h.247z"/></g><mask id="af" width="20" height="12" x="0" y="0" maskUnits="userSpaceOnUse" style="mask-type:luminance"><path fill="#fff" d="M0 0h20v11.666H0z"/></mask><g mask="url(#af)"><path fill="#fff5f5" d="m7.435 3.342.076.237h.25l-.2.147.074.237-.2-.146-.203.146.078-.237-.2-.147h.247z"/></g><mask id="ag" width="20" height="12" x="0" y="0" maskUnits="userSpaceOnUse" style="mask-type:luminance"><path fill="#fff" d="M0 0h20v11.666H0z"/></mask><g mask="url(#ag)"><path fill="#fff5f5" d="m7.435 4.39.076.237h.25l-.2.147.074.237-.2-.147-.203.147.078-.237-.2-.147h.247z"/></g><mask id="ah" width="20" height="12" x="0" y="0" maskUnits="userSpaceOnUse" style="mask-type:luminance"><path fill="#fff" d="M0 0h20v11.666H0z"/></mask><g mask="url(#ah)"><path fill="#fff5f5" d="m8.173.693.08.238H8.5l-.202.147.078.237-.204-.146-.2.146.076-.237-.201-.147h.249z"/></g><mask id="ai" width="20" height="12" x="0" y="0" maskUnits="userSpaceOnUse" style="mask-type:luminance"><path fill="#fff" d="M0 0h20v11.666H0z"/></mask><g mask="url(#ai)"><path fill="#fff5f5" d="m8.173 1.742.08.237H8.5l-.202.146.078.239-.204-.148-.2.148.076-.239-.201-.146h.249z"/></g><mask id="aj" width="20" height="12" x="0" y="0" maskUnits="userSpaceOnUse" style="mask-type:luminance"><path fill="#fff" d="M0 0h20v11.666H0z"/></mask><g mask="url(#aj)"><path fill="#fff5f5" d="m8.173 2.791.08.237H8.5l-.202.147.078.238-.204-.148-.2.147.076-.237-.201-.147h.249z"/></g><mask id="ak" width="20" height="12" x="0" y="0" maskUnits="userSpaceOnUse" style="mask-type:luminance"><path fill="#fff" d="M0 0h20v11.666H0z"/></mask><g mask="url(#ak)"><path fill="#fff5f5" d="m8.173 3.838.08.238H8.5l-.202.147.078.236-.204-.146-.2.146.076-.236-.201-.147h.249z"/></g><mask id="al" width="20" height="12" x="0" y="0" maskUnits="userSpaceOnUse" style="mask-type:luminance"><path fill="#fff" d="M0 0h20v11.666H0z"/></mask><g mask="url(#al)"><path fill="#fff5f5" d="m8.173 4.887.08.238H8.5l-.202.146.078.237-.204-.146-.2.146.076-.237-.201-.146h.249z"/></g></svg>