<svg xmlns="http://www.w3.org/2000/svg" width="46" height="46" fill="none" viewBox="0 0 46 46"><g clip-path="url(#a)"><path fill="#0f62fe" d="M45.326 36.047a.674.674 0 0 0 .674-.674V34.34a4.3 4.3 0 0 0-2.958-4.09l-4.212-1.385v-1.458a5.03 5.03 0 0 0 2.45-4.316v-2.904a5.036 5.036 0 0 0-5.03-5.03 5.03 5.03 0 0 0-4.007 1.993 4.28 4.28 0 0 0-2.452-2.055L25.58 13.71v-1.46a5.03 5.03 0 0 0 2.45-4.317V5.03A5.036 5.036 0 0 0 23 0a5.036 5.036 0 0 0-5.03 5.03v2.904c0 1.831.984 3.437 2.45 4.317v1.458l-4.21 1.386a4.28 4.28 0 0 0-2.453 2.055 5.02 5.02 0 0 0-4.007-1.993 5.036 5.036 0 0 0-5.03 5.03v2.904c0 1.83.983 3.436 2.45 4.316v1.458l-4.212 1.386A4.3 4.3 0 0 0 0 34.341v1.032a.674.674 0 1 0 1.348 0V34.34c0-1.28.816-2.409 2.031-2.809l3.945-1.298c.361.99 1.312 1.7 2.425 1.7 1.114 0 2.065-.71 2.425-1.7l3.945 1.298a2.95 2.95 0 0 1 1.845 1.773l-1.755.578a4.3 4.3 0 0 0-2.959 4.088v.783H5.16v-1.686a.674.674 0 1 0-1.348 0v1.686H1.348v-.233a.674.674 0 1 0-1.348 0v.907c0 .372.302.674.674.674H13.25v5.225c0 .372.302.674.674.674h18.152a.674.674 0 0 0 .673-.674v-.9a.674.674 0 1 0-1.347 0v.226h-2.464v-3.954a.674.674 0 1 0-1.348 0v3.954h-9.18v-3.954a.674.674 0 1 0-1.348 0v3.954h-2.464V37.97a2.95 2.95 0 0 1 2.032-2.808l3.945-1.298c.36.99 1.312 1.7 2.425 1.7s2.064-.71 2.425-1.7l3.945 1.298a2.95 2.95 0 0 1 2.032 2.808v3.31a.674.674 0 1 0 1.348 0V40.1h12.576a.674.674 0 0 0 .674-.673v-.907a.674.674 0 1 0-1.348 0v.233h-2.464v-1.686a.674.674 0 1 0-1.348 0v1.686h-8.09v-.783a4.3 4.3 0 0 0-2.96-4.088l-1.754-.578c.31-.832.98-1.488 1.845-1.773l3.944-1.298c.361.99 1.312 1.7 2.425 1.7 1.114 0 2.065-.71 2.425-1.7l3.945 1.298a2.95 2.95 0 0 1 2.032 2.81v1.032c0 .372.302.674.674.674M36.25 16.504a3.687 3.687 0 0 1 3.683 3.682v2.905a3.687 3.687 0 0 1-3.683 3.682 3.687 3.687 0 0 1-3.682-3.682v-2.905a3.687 3.687 0 0 1 3.682-3.682m-16.932-8.57V5.03A3.687 3.687 0 0 1 23 1.348a3.687 3.687 0 0 1 3.683 3.682v2.904A3.687 3.687 0 0 1 23 11.617a3.687 3.687 0 0 1-3.683-3.683M23 12.964q.64-.002 1.232-.153v1.387c0 .678-.553 1.23-1.232 1.23a1.233 1.233 0 0 1-1.232-1.23V12.81q.593.152 1.232.153m-6.37 3.411 3.945-1.298c.36.99 1.311 1.7 2.425 1.7s2.064-.71 2.425-1.7l3.945 1.298a2.93 2.93 0 0 1 2.016 2.53q-.164.615-.166 1.281v2.905q0 .256.026.506h-3.222A5.036 5.036 0 0 0 23 18.787a5.036 5.036 0 0 0-5.025 4.81h-3.22q.024-.25.024-.506v-2.905c0-.442-.058-.872-.166-1.282a2.94 2.94 0 0 1 2.018-2.529M23 30.404a3.687 3.687 0 0 1-3.683-3.683v-2.904A3.687 3.687 0 0 1 23 20.134a3.687 3.687 0 0 1 3.683 3.683v2.904A3.687 3.687 0 0 1 23 30.404M6.067 23.09v-2.905a3.687 3.687 0 0 1 3.682-3.682 3.687 3.687 0 0 1 3.683 3.682v2.905a3.687 3.687 0 0 1-3.683 3.682 3.687 3.687 0 0 1-3.682-3.682m4.915 6.262a1.234 1.234 0 0 1-2.464 0v-1.385a5 5 0 0 0 2.464 0zm5.559.898-4.212-1.386v-1.458a5.06 5.06 0 0 0 2.095-2.463h3.546v1.777c0 1.831.984 3.436 2.45 4.316v1.459l-1.177.387a4.3 4.3 0 0 0-2.702-2.632M23 34.215c-.68 0-1.232-.552-1.232-1.232v-1.385a5 5 0 0 0 2.464 0v1.385c0 .68-.553 1.232-1.232 1.232m6.46-3.964a4.29 4.29 0 0 0-2.703 2.632l-1.177-.387v-1.459a5.03 5.03 0 0 0 2.45-4.316v-1.777h3.546a5.06 5.06 0 0 0 2.095 2.463v1.458zm6.79.334a1.234 1.234 0 0 1-1.232-1.232v-1.385a5 5 0 0 0 2.465 0v1.385c0 .68-.553 1.232-1.233 1.232"/></g><defs><clipPath id="a"><path fill="#fff" d="M0 0h46v46H0z"/></clipPath></defs></svg>