<svg xmlns="http://www.w3.org/2000/svg" width="46" height="46" fill="none" viewBox="0 0 46 46"><g fill="#0f62fe" clip-path="url(#a)"><path d="M25.09 44.515c.377-.377.635-.841.756-1.346a2.847 2.847 0 0 0 4.178-2.136c-.016.13.867.107.955.106.627-.006 1.341-.201 1.775-.68.241-.266.398-.596.537-.924.042-.098.394-1.03.308-1.046q.267.051.546.052c.76 0 1.474-.296 2.011-.833a2.847 2.847 0 0 0 0-4.022l-.224-.225a4.64 4.64 0 0 0 .93-3.498c-.067-.459.09-.927.416-1.255l1.385-1.384.879.878c.279.279.649.432 1.043.432s.765-.153 1.043-.432l3.761-3.761a1.477 1.477 0 0 0 0-2.087l-9.91-9.91a1.47 1.47 0 0 0-1.044-.432c-.394 0-.764.153-1.043.432l-3.761 3.761a1.477 1.477 0 0 0 0 2.087l.878.878-.802.802c-.36.36-.87.508-1.367.396l-2.26-.509a5.87 5.87 0 0 0-4.024.522 5.87 5.87 0 0 0-3.166-.233l-1.24.25a1.47 1.47 0 0 1-1.335-.403l-.824-.825.878-.878a1.477 1.477 0 0 0 0-2.087l-3.76-3.761a1.47 1.47 0 0 0-1.044-.432c-.394 0-.765.153-1.043.432L.61 22.354a1.477 1.477 0 0 0 0 2.087l3.76 3.761c.28.279.65.432 1.044.432s.765-.153 1.043-.432l.879-.878 1.385 1.385c.327.327.483.796.417 1.254-.09.622-.108 1.112.047 1.677l-1.45 1.45a2.734 2.734 0 0 0 0 3.862c.378.378.84.62 1.326.73a2.735 2.735 0 0 0 .58 3.002 2.74 2.74 0 0 0 2.643.706c.085.557.34 1.093.769 1.521a2.72 2.72 0 0 0 2.573.723A2.72 2.72 0 0 0 18.332 46c.7 0 1.4-.267 1.932-.8l.746-.745.059.059a2.83 2.83 0 0 0 2.01.833c.76 0 1.475-.296 2.012-.833m9.345-31.028 9.911 9.91-3.761 3.762-9.91-9.91zm-8.679 7.812 2.26.508a2.94 2.94 0 0 0 2.735-.792l.802-.802 6.067 6.067-1.385 1.385a2.96 2.96 0 0 0-.834 2.508 3.16 3.16 0 0 1-.525 2.233l-8.761-8.761a.74.74 0 0 0-.981-.056l-2.49 1.982a.74.74 0 0 0-.23.843l.199.514a2.377 2.377 0 0 1-1.134 2.975l-.167.086-2.046-4.037a1.1 1.1 0 0 1 .205-1.283l2.183-2.182a4.4 4.4 0 0 1 4.102-1.188m-20.34 5.86-3.762-3.761 9.91-9.91 3.762 3.76zm3.363 6.974 1.97-1.97c.237-.237.553-.368.888-.368s.65.13.888.368c.49.49.49 1.286 0 1.776l-1.97 1.97a1.257 1.257 0 0 1-1.776-1.776m1.907 5.508a1.25 1.25 0 0 1-.368-.888c0-.336.13-.651.368-.888l3.411-3.412a1.255 1.255 0 0 1 1.776 0c.49.49.49 1.287 0 1.776l-3.411 3.412a1.25 1.25 0 0 1-.888.367c-.335 0-.651-.13-.888-.367m3.411 2.227a1.25 1.25 0 0 1-.368-.888c0-.335.13-.65.368-.888l1.938-1.938c.245-.245.567-.367.888-.367s.643.122.888.367c.49.49.49 1.286 0 1.776l-.527.527-1.411 1.411a1.25 1.25 0 0 1-.888.368c-.335 0-.65-.13-.888-.368m6.005 1.41-.881.88a1.257 1.257 0 0 1-1.777-1.775l.883-.882a1.25 1.25 0 0 1 1.775.001c.49.49.49 1.286 0 1.776m1.724-.093a2.73 2.73 0 0 0-.68-2.727 2.7 2.7 0 0 0-1.569-.774 2.73 2.73 0 0 0-2.065-3.308 2.732 2.732 0 0 0-3.17-3.688 2.7 2.7 0 0 0-.774-1.568 2.7 2.7 0 0 0-1.93-.8c-.38 0-.746.077-1.083.223q.014-.165.044-.37a2.97 2.97 0 0 0-.834-2.507L8.38 26.28l6.067-6.067.825.825c.7.7 1.7 1.002 2.67.806l1.24-.25a4.4 4.4 0 0 1 1.34-.061l-2.094 2.094a2.58 2.58 0 0 0-.477 2.993l2.046 4.036c.178.353.484.615.86.737.377.122.778.09 1.13-.092l.167-.085a3.85 3.85 0 0 0 1.836-4.818l-.004-.01 1.552-1.234 9.575 9.576a1.37 1.37 0 0 1 0 1.935 1.38 1.38 0 0 1-1.722.168c-.411-.265-1.836-1.784-2.21-2.154l-2.088-2.076-.114-.113a.738.738 0 1 0-1.04 1.046l3.796 3.772c.258.259.4.602.4.968 0 .39-.215.75-.45 1.048-.465.587-1.41.396-1.884-.078l-4.138-4.17a.738.738 0 0 0-1.047 1.038l3.508 3.537q.022.027.048.052c.258.258.4.602.4.968a1.37 1.37 0 0 1-2.336.968l-3.663-3.664a.738.738 0 1 0-1.044 1.043l2.519 2.518a1.37 1.37 0 0 1-.968 2.337 1.36 1.36 0 0 1-.968-.401z"/><path d="M23.48 11.803V.738a.738.738 0 1 0-1.476 0v11.065a.738.738 0 1 0 1.476 0m-4.764 2.181a.736.736 0 0 0 1.043 0 .74.74 0 0 0 0-1.043l-7.008-7.008a.738.738 0 0 0-1.043 1.043zm8.052 0 7.008-7.008a.738.738 0 1 0-1.043-1.043l-7.008 7.008a.738.738 0 1 0 1.043 1.043"/></g><defs><clipPath id="a"><path fill="#fff" d="M0 0h46v46H0z"/></clipPath></defs></svg>