<svg xmlns="http://www.w3.org/2000/svg" width="46" height="46" fill="none" viewBox="0 0 46 46"><path fill="#0f62fe" d="m38.78 29.029-7.82 3.304a2 2 0 0 0 .027-.3 2.754 2.754 0 0 0-2.753-2.753h-5.631q-.347 0-.662-.147l-4.774-2.16a5.9 5.9 0 0 0-2.391-.516h-3.89v1.394h3.89c.62 0 1.247.132 1.819.39l4.774 2.16c.39.175.809.266 1.24.266h5.632c.753 0 1.36.613 1.36 1.359s-.614 1.359-1.36 1.359h-7.297v1.394h7.29c.481 0 .927-.133 1.318-.349v.007l9.764-4.133a3.14 3.14 0 0 1 2.495.014 3.13 3.13 0 0 1 1.45 1.283l-17.236 9.144a5.6 5.6 0 0 1-4.307.383l-8.434-2.711-2.404-.035v1.394h2.084l8.329 2.676c.69.224 1.4.328 2.118.328 1.13 0 2.259-.272 3.262-.808l18.365-9.73-.202-.572a4.54 4.54 0 0 0-6.057-2.642M9.374 40.87V26.074c0-.767-.627-1.394-1.394-1.394H.962v1.394H7.98v14.803H.962v1.394H7.98a1.41 1.41 0 0 0 1.394-1.4"/><path fill="#0f62fe" d="M6.147 38.702a.979.979 0 1 1-1.957-.006.979.979 0 0 1 1.957.006m11.305-18.888.753.558 5.186-2.872 4.69 2.823.404.237.753-.543-1.13-5.813 4.148-3.597.334-.32-.292-.864-5.869-.725-2.132-5.046-.196-.418-.446-.007h-.474L20.68 8.6l-5.464.46-.467.056-.279.871 4.328 4.036zm-.592-9.492 4.335-.377.411-.048 2-4.294L25.3 9.597l.174.383 4.712.579-3.262 2.83-.328.278.907 4.67-3.736-2.251-.356-.188-4.133 2.293.97-4.182.118-.432z"/><path fill="#0f62fe" d="m8.287 17.243-1.01 4.342-.14.502.788.578 4.342-2.404 3.833 2.3.432.272.774-.565-.948-4.872 1.01-.871-.912-1.052-1.346 1.164-.202.236v.28l.655 3.463-2.83-1.707-.146-.14-.592-.014-.14.14-2.892 1.603.78-3.388v-.41l-2.71-2.524 3.317-.293.32-.006.293-.293 1.485-3.192 1.338 3.157.216.411h.39l1.68.21.174-1.388-1.345-.16-1.77-4.182-.237-.446-.962.077-.132.411-1.882 4.05-4.433.383-.55.028-.293 1.017.383.251zm22.91-4.621.125 1.386 1.345-.125.314-.014.292-.293 1.485-3.192 1.275 3.004.014.565h.656l3.324.41-2.586 2.245-.23.244v.3l.663 3.457-2.837-1.7-.146-.147-.614.007-.125.132-2.879 1.596.788-3.387-.007-.411-1.785-1.666-.954 1.018 1.275 1.191-1.003 4.342-.14.468.76.627 4.37-2.419 3.84 2.307.432.265.76-.571-.948-4.865 3.352-2.907a.73.73 0 0 0 .251-.766l-.16-.495-4.893-.6-1.784-4.195-.209-.384-.83-.028-.215.342-1.952 4.168z"/></svg>