<svg xmlns="http://www.w3.org/2000/svg" width="46" height="46" fill="none" viewBox="0 0 46 46"><g fill="#0f62fe" clip-path="url(#a)"><path d="m37.33 40.065-1.717-5.153a5.2 5.2 0 0 0-3.998-3.467l-4.958-.903v-.384a7.5 7.5 0 0 0 2.211-1.964h1.498a2.23 2.23 0 0 0 2.226-2.226v-8.903c0-5.318-4.327-9.645-9.645-9.645s-9.645 4.327-9.645 9.645v5.194a2.97 2.97 0 0 0 2.366 2.906 7.43 7.43 0 0 0 3.57 4.993v.384l-4.96.902a5.19 5.19 0 0 0-3.998 3.468l-.296.89-2.527-2.526a.743.743 0 0 1 0-1.05l2.93-2.93-5.5-5.5-3.312 3.311A5.16 5.16 0 0 0 .054 30.78c0 1.387.54 2.69 1.52 3.672l10.028 10.027A5.16 5.16 0 0 0 15.274 46a5.14 5.14 0 0 0 3.65-1.5l3.613-3.311-1.127-1.125zm-6.222-14.097c0 .41-.333.742-.742.742h-.624c.215-.49.379-1.007.484-1.545a3 3 0 0 0 .882-.351zm-.742-2.432v-2.555c.442.257.742.73.742 1.278 0 .546-.3 1.02-.742 1.277m-14.838 0a1.48 1.48 0 0 1-.742-1.277c0-.547.3-1.02.742-1.278zm0-4.987v.847a3 3 0 0 0-.742.307v-2.638c0-4.5 3.661-8.161 8.16-8.161s8.162 3.661 8.162 8.161v2.638a3 3 0 0 0-.742-.307v-.847h-.742a8.16 8.16 0 0 1-5.808-2.406l-.87-.869-.868.869a8.16 8.16 0 0 1-5.808 2.406zm1.483 5.194v-3.738a9.62 9.62 0 0 0 5.936-2.637 9.6 9.6 0 0 0 5.935 2.637v3.738a5.9 5.9 0 0 1-.802 2.967h-5.133v1.484h3.913a5.9 5.9 0 0 1-3.913 1.484 5.94 5.94 0 0 1-5.936-5.936m8.162 7.077v.035l-2.226 2.226-2.226-2.226v-.035a7.4 7.4 0 0 0 4.452 0m-13.486 4.56a3.71 3.71 0 0 1 2.856-2.477l5.186-.942 3.218 3.218 3.217-3.217 5.185.942a3.71 3.71 0 0 1 2.856 2.477l1.068 3.2H19.926l-2.89-2.89-3.21 2.905a.76.76 0 0 1-1.05 0l-1.62-1.62zm-6.801-9.487 3.402 3.403-.805.806-3.403-3.403zm13.01 17.538a3.7 3.7 0 0 1-2.623 1.086 3.7 3.7 0 0 1-2.623-1.087L2.621 33.403a3.7 3.7 0 0 1-1.086-2.622c0-.992.386-1.924 1.086-2.624l.408-.408 3.403 3.403-.027.026a2.23 2.23 0 0 0 0 3.148l5.32 5.32c.421.42.98.653 1.575.653s1.154-.232 1.547-.626l.055-.05 3.419 3.418zm1.52-1.395-3.41-3.41.98-.886 3.405 3.405zM43.721 0H33.334a2.23 2.23 0 0 0-2.226 2.226V8.16a2.23 2.23 0 0 0 2.226 2.226h1.982l-.767 4.475 7.16-4.475h2.012a2.23 2.23 0 0 0 2.226-2.226V2.226A2.23 2.23 0 0 0 43.721 0m.742 8.161a.743.743 0 0 1-.742.742h-2.439l-4.712 2.945.506-2.945h-3.742a.743.743 0 0 1-.742-.742V2.226c0-.409.333-.742.742-.742h10.387c.409 0 .742.333.742.742z"/><path d="M42.98 2.967h-8.904V4.45h8.903zm-2.969 2.969h-5.935v1.483h5.935zm2.969 0h-1.485v1.483h1.484zM22.947 2.227c-9.694 0-18.044 6.705-20.215 16.059l-1.406-2.344-1.273.763 2.608 4.346 4.346-2.608-.764-1.272-2.01 1.206C6.335 9.82 14.03 3.71 22.947 3.71c1.95 0 3.872.29 5.716.861l.44-1.417a20.8 20.8 0 0 0-6.156-.927m22.639 14.201-4.345-2.608-2.608 4.347 1.273.763 1.298-2.164c.684 2 1.033 4.09 1.033 6.234 0 4.413-1.528 8.726-4.302 12.146l1.152.935A20.82 20.82 0 0 0 43.72 23c0-2.27-.366-4.486-1.079-6.608l2.18 1.308z"/></g><defs><clipPath id="a"><path fill="#fff" d="M0 0h46v46H0z"/></clipPath></defs></svg>