<svg xmlns="http://www.w3.org/2000/svg" width="60" height="60" fill="none" viewBox="0 0 60 60"><g fill="#615efc" clip-path="url(#a)"><path d="M19.547 25.66a.937.937 0 0 0 1.256.243.937.937 0 0 0 .244-1.265 5.136 5.136 0 0 0-7.163-1.454.936.936 0 0 0 1.013 1.51 3.346 3.346 0 0 1 4.65.965m-3.929 13.296a3.346 3.346 0 0 1-2.597-3.975.937.937 0 0 0-1.772-.29 5.137 5.137 0 0 0 4.041 6.094h.178a.938.938 0 0 0 .169-1.8zm5.007-3.89a.938.938 0 1 0-1.79.272 5.14 5.14 0 0 0 5.062 4.472q.377.004.75-.047a.937.937 0 0 0 .769-1.032.937.937 0 0 0-1.032-.768 3.356 3.356 0 0 1-3.759-2.897"/><path d="M56.578 36.5a3.42 3.42 0 0 0-3.29 2.513h-3.141l-4.762-5.466a.94.94 0 0 0-.685-.31H32.016v-6.44H44.7a.94.94 0 0 0 .684-.31l4.763-5.465h3.14a3.431 3.431 0 1 0 0-1.819h-3.553a.94.94 0 0 0-.684.31l-4.762 5.465H32.016v-3.412h11.887a.88.88 0 0 0 .685-.319l3.318-3.9a.88.88 0 0 0 .216-.59v-3.629a3.403 3.403 0 1 0-1.819 0v3.319l-2.812 3.3H32.016v-4.35h4.153a.94.94 0 0 0 .769-.394l1.162-1.875c.304.092.62.143.938.15a3.432 3.432 0 1 0-3.413-3.46c.004.864.34 1.694.938 2.316l-.938 1.444h-3.61V6.556a.7.7 0 0 0 0-.196 7.89 7.89 0 0 0-7.5-5.297 7.98 7.98 0 0 0-7.209 4.687A7.903 7.903 0 0 0 7.05 13.288a7.5 7.5 0 0 0 .3 2.146 7.94 7.94 0 0 0-4.537 11.382A7.21 7.21 0 0 0 4.509 39.18a7.922 7.922 0 0 0 5.804 12.104 7.21 7.21 0 0 0 10.48 6.14 7.17 7.17 0 0 0 4.435 1.519 7.265 7.265 0 0 0 6.74-4.64 1 1 0 0 0 0-.216.5.5 0 0 0 0-.113v-7.5h3.657l.938 1.444a3.37 3.37 0 0 0-.938 2.316 3.431 3.431 0 1 0 3.431-3.422 3.5 3.5 0 0 0-.937.15l-1.181-1.96a.94.94 0 0 0-.77-.431h-4.152v-4.256H43.48l2.813 3.3v3.262a3.45 3.45 0 1 0 1.819 0v-3.656a.88.88 0 0 0-.216-.59l-3.319-3.882a.88.88 0 0 0-.684-.319H32.016v-3.375h12.272l4.762 5.466a.94.94 0 0 0 .684.31h3.554a3.422 3.422 0 1 0 3.29-4.332m0-18.028a1.613 1.613 0 1 1 0 3.225 1.613 1.613 0 0 1 0-3.225M45.61 9.819a1.613 1.613 0 1 1 3.226-.019 1.613 1.613 0 0 1-3.226.019m-6.562-1.613a1.612 1.612 0 1 1-.61.12c.196-.08.407-.12.62-.12zm-8.86 6.282v4.265a5.09 5.09 0 0 0-5.09.328.937.937 0 0 0-.244 1.266.94.94 0 0 0 1.256.244 3.24 3.24 0 0 1 4.079.356v8.644a5.03 5.03 0 0 0-5.091.337.937.937 0 0 0 1.022 1.51 3.226 3.226 0 0 1 4.069.337V53.76a5.382 5.382 0 0 1-7.82 2.559 5.08 5.08 0 0 0 1.163-6.066.936.936 0 0 0-1.336-.653.938.938 0 0 0-.285 1.46 3.337 3.337 0 0 1-1.585 4.471 1 1 0 0 0-.197.16 5.373 5.373 0 0 1-8.025-4.547c1.594-.46 4.603-1.613 5.044-3.881a.937.937 0 0 0-.722-1.07.94.94 0 0 0-1.05.685c-.272 1.35-3.103 2.353-4.228 2.597a6.094 6.094 0 0 1-4.444-10.172.94.94 0 0 0 .197-.937.94.94 0 0 0-.694-.6 5.391 5.391 0 0 1-1.725-9.919 3.33 3.33 0 0 1 4.641.938.94.94 0 0 0 .75.393.94.94 0 0 0 .516-.16.94.94 0 0 0 .234-1.265 5.15 5.15 0 0 0-6.328-1.875 6.066 6.066 0 0 1 3.75-8.718 4.03 4.03 0 0 0 3.422 1.94c.47.002.937-.08 1.378-.244a.937.937 0 1 0-.619-1.706 2.22 2.22 0 0 1-2.812-1.35.3.3 0 0 0 0-.084 6.085 6.085 0 0 1 8.1-7.95h.187c2.597.506 3.366 2.887 2.963 5.015a.937.937 0 0 0 .721 1.06h.17a.94.94 0 0 0 .937-.74c.59-3.17-.769-5.832-3.357-6.835A6.13 6.13 0 0 1 24.6 2.835a6.06 6.06 0 0 1 5.69 3.956zm8.86 34.097a1.612 1.612 0 1 1-.608.119c.196-.08.406-.12.617-.12zm9.769 1.603a1.612 1.612 0 1 1-1.613-1.604 1.613 1.613 0 0 1 1.622 1.604zm7.753-8.654a1.612 1.612 0 1 1 .01 0z"/></g><defs><clipPath id="a"><path fill="#fff" d="M0 0h60v60H0z"/></clipPath></defs></svg>