<svg xmlns="http://www.w3.org/2000/svg" width="60" height="60" fill="none" viewBox="0 0 60 60"><path fill="#615efc" d="M9.35 42.109a6.883 6.883 0 0 1-6.875-6.876V24.088A6.884 6.884 0 0 1 9.35 17.21a.85.85 0 0 1 0 1.698 5.184 5.184 0 0 0-5.177 5.178v11.147A5.183 5.183 0 0 0 9.35 40.41a.85.85 0 0 1 0 1.698m21.362-21.087a.85.85 0 0 1-.849-.849V9.407a5.19 5.19 0 0 0-5.185-5.185 5.14 5.14 0 0 0-3.656 1.517 5.2 5.2 0 0 0-1.517 3.668.85.85 0 0 1-1.698 0c0-1.827.715-3.555 2.011-4.866a6.83 6.83 0 0 1 4.86-2.018 6.89 6.89 0 0 1 6.883 6.884v10.765a.85.85 0 0 1-.849.85"/><path fill="#615efc" d="M12.885 21.063a1 1 0 0 1-.242-.035c-2.978-.884-5.057-3.673-5.057-6.783 0-3.9 3.173-7.073 7.074-7.073s7.073 3.173 7.073 7.073a.85.85 0 0 1-1.698 0A5.38 5.38 0 0 0 14.66 8.87a5.38 5.38 0 0 0-5.376 5.375 5.41 5.41 0 0 0 3.842 5.154.85.85 0 0 1-.241 1.663M23.67 57.47a6.88 6.88 0 0 1-6.87-6.87.85.85 0 0 1 1.698 0 5.18 5.18 0 0 0 5.173 5.172 5.1 5.1 0 0 0 3.654-1.514 5.1 5.1 0 0 0 1.52-3.659V39.71a.85.85 0 0 1 1.698 0V50.6a6.8 6.8 0 0 1-2.017 4.86 6.78 6.78 0 0 1-4.855 2.012"/><path fill="#615efc" d="M13.044 53.404a7.08 7.08 0 0 1-7.073-7.073c0-3.9 3.173-7.073 7.073-7.073a.85.85 0 0 1 0 1.698A5.38 5.38 0 0 0 7.67 46.33a5.38 5.38 0 0 0 5.375 5.375 5.35 5.35 0 0 0 5.002-3.403.85.85 0 0 1 1.58.624 7.04 7.04 0 0 1-6.582 4.477M30.71 40.677a5.7 5.7 0 0 1-3.683-1.35.85.85 0 0 1 1.098-1.296c.721.611 1.64.948 2.585.948 2.206 0 4-1.795 4-4v-9.952c0-2.206-1.794-4-4-4a4 4 0 0 0-2.752 1.096.85.85 0 0 1-1.167-1.233 5.68 5.68 0 0 1 3.92-1.562 5.705 5.705 0 0 1 5.697 5.699v9.952a5.704 5.704 0 0 1-5.698 5.698"/><path fill="#615efc" d="M47.58 36.848a.85.85 0 0 1-.6-.249l-2.898-2.898a1.24 1.24 0 0 0-.87-.362h-7.654a.85.85 0 0 1 0-1.698h7.653c.771 0 1.526.313 2.072.86l2.898 2.897a.849.849 0 0 1-.6 1.45M35.92 14.827h-5.208a.85.85 0 0 1 0-1.698h5.208c.324 0 .645-.131.88-.36l4.723-4.723a.849.849 0 1 1 1.201 1.2l-4.732 4.732a3 3 0 0 1-2.072.849M40.3 27.82a.85.85 0 0 1-.849-.85v-4.188c0-.786.317-1.544.869-2.08l1.642-1.654a.849.849 0 1 1 1.205 1.196l-1.653 1.664c-.236.23-.365.544-.365.874v4.189a.85.85 0 0 1-.849.849"/><path fill="#615efc" d="M43.942 10.214a3.533 3.533 0 0 1-3.53-3.529 3.533 3.533 0 0 1 3.53-3.529 3.533 3.533 0 0 1 3.528 3.53 3.533 3.533 0 0 1-3.528 3.528m0-5.36c-1.01 0-1.832.822-1.832 1.831a1.832 1.832 0 0 0 3.662 0c0-1.01-.821-1.83-1.83-1.83m3.118 22.972H35.558a.85.85 0 0 1 0-1.699H47.06c.344 0 .673-.143.904-.394l3.727-4.01a.849.849 0 1 1 1.244 1.156l-3.725 4.008a2.93 2.93 0 0 1-2.15.939"/><path fill="#615efc" d="M54 23.738a3.533 3.533 0 0 1-3.53-3.53A3.533 3.533 0 0 1 54 16.68a3.533 3.533 0 0 1 3.529 3.529 3.533 3.533 0 0 1-3.53 3.529m0-5.36c-1.01 0-1.831.821-1.831 1.83s.821 1.831 1.83 1.831 1.831-.821 1.831-1.83-.821-1.831-1.83-1.831m-4.435 22.969a3.533 3.533 0 0 1-3.529-3.529 3.533 3.533 0 0 1 3.529-3.529 3.533 3.533 0 0 1 3.529 3.529 3.533 3.533 0 0 1-3.529 3.529m0-5.36a1.83 1.83 0 1 0 .002 3.658 1.83 1.83 0 0 0-.002-3.657M44.295 21.12a3.533 3.533 0 0 1-3.53-3.529 3.533 3.533 0 0 1 3.53-3.529 3.533 3.533 0 0 1 3.528 3.53 3.533 3.533 0 0 1-3.529 3.528m0-5.36c-1.01 0-1.831.822-1.831 1.831 0 1.01.821 1.831 1.83 1.831s1.831-.821 1.831-1.83-.821-1.831-1.83-1.831m-5.318 36.48a.85.85 0 0 1-.6-.249l-1.664-1.663a2.95 2.95 0 0 1-.86-2.073v-4.188a.85.85 0 0 1 1.698 0v4.188c0 .324.132.641.362.872l1.664 1.664a.849.849 0 0 1-.6 1.45"/><path fill="#615efc" d="M48.723 49.592a.85.85 0 0 1-.622-.27l-3.736-4.02a1.24 1.24 0 0 0-.907-.385H29.694a.85.85 0 0 1 0-1.698H43.46c.82 0 1.582.328 2.145.922l3.74 4.024a.85.85 0 0 1-.62 1.427"/><path fill="#615efc" d="M50.4 54.363a3.533 3.533 0 0 1-3.529-3.53 3.533 3.533 0 0 1 3.529-3.528 3.533 3.533 0 0 1 3.529 3.529 3.533 3.533 0 0 1-3.529 3.528m0-5.36a1.832 1.832 0 0 0 0 3.661 1.832 1.832 0 0 0 0-3.661m-9.705 7.986a3.533 3.533 0 0 1-3.529-3.529 3.533 3.533 0 0 1 3.529-3.53 3.533 3.533 0 0 1 3.53 3.53 3.533 3.533 0 0 1-3.53 3.529m0-5.36a1.832 1.832 0 0 0 0 3.661 1.832 1.832 0 0 0 0-3.661M17.644 35.594a.85.85 0 0 1-.849-.85v-7.01a2.32 2.32 0 0 0-2.317-2.317 2.32 2.32 0 0 0-2.317 2.317v7.01a.85.85 0 0 1-1.698 0v-7.01a4.02 4.02 0 0 1 4.015-4.015 4.02 4.02 0 0 1 4.015 4.015v7.01a.85.85 0 0 1-.849.85"/><path fill="#615efc" d="M17.644 31.065h-6.332a.85.85 0 0 1 0-1.698h6.332a.85.85 0 0 1 0 1.698m4.916 4.524a.85.85 0 0 1-.85-.85v-9.882a.85.85 0 0 1 1.699 0v9.883a.85.85 0 0 1-.85.849"/><path fill="#615efc" d="M24.338 25.706H20.78a.85.85 0 0 1 0-1.698h3.557a.85.85 0 0 1 0 1.698m.001 9.883H20.78a.85.85 0 0 1 0-1.698h3.557a.85.85 0 0 1 0 1.698"/></svg>