<svg xmlns="http://www.w3.org/2000/svg" width="70" height="30" fill="none" viewBox="0 0 70 30"><g fill="#050d20" clip-path="url(#a)"><path fill-rule="evenodd" d="M70 15.484c0-4.956-2.411-8.867-7.02-8.867-4.627 0-7.427 3.91-7.427 8.828 0 5.827 3.305 8.77 8.05 8.77 2.314 0 4.064-.523 5.386-1.259v-3.872c-1.322.659-2.839 1.065-4.764 1.065-1.886 0-3.558-.658-3.772-2.942h9.508c0-.252.039-1.259.039-1.723m-9.606-1.84c0-2.187 1.342-3.097 2.567-3.097 1.186 0 2.45.91 2.45 3.098zM48.047 6.617c-1.906 0-3.13.89-3.811 1.51l-.253-1.2h-4.278V29.5l4.861-1.026.02-5.479c.7.503 1.73 1.22 3.441 1.22 3.48 0 6.65-2.788 6.65-8.925-.02-5.614-3.227-8.673-6.63-8.673M46.88 19.956c-1.147 0-1.828-.407-2.294-.91l-.02-7.182c.506-.562 1.206-.95 2.314-.95 1.77 0 2.994 1.976 2.994 4.512 0 2.594-1.205 4.53-2.994 4.53M33.017 5.475l4.88-1.045V.5l-4.88 1.026z" clip-rule="evenodd"/><path d="M37.897 6.945h-4.88v16.94h4.88z"/><path fill-rule="evenodd" d="m27.787 8.379-.312-1.433h-4.2v16.94h4.862v-11.48c1.147-1.491 3.091-1.22 3.694-1.007V6.946c-.622-.232-2.897-.658-4.044 1.433m-9.723-5.633L13.32 3.753l-.02 15.506c0 2.866 2.158 4.976 5.036 4.976 1.595 0 2.761-.29 3.403-.64v-3.929c-.622.252-3.695 1.142-3.695-1.723V11.07h3.695V6.947h-3.695zM4.92 11.864c0-.756.622-1.046 1.652-1.046 1.478 0 3.345.445 4.822 1.24v-4.55c-1.613-.64-3.208-.89-4.822-.89C2.625 6.617 0 8.668 0 12.095c0 5.343 7.389 4.472 7.389 6.776 0 .89-.778 1.18-1.867 1.18-1.614 0-3.675-.658-5.308-1.548v4.607a13.5 13.5 0 0 0 5.308 1.104c4.045 0 6.825-1.994 6.825-5.46-.02-5.75-7.428-4.723-7.428-6.891" clip-rule="evenodd"/></g><defs><clipPath id="a"><path fill="#fff" d="M0 .5h70v29H0z"/></clipPath></defs></svg>