<svg xmlns="http://www.w3.org/2000/svg" width="121" height="29" fill="none" viewBox="0 0 121 29"><g fill="#050d20" clip-path="url(#a)"><path d="M106.287 9.928c.671 0 1.226-.34 1.304-.78l.665-7.328c0-.723-.872-1.32-1.969-1.32-1.098 0-1.963.597-1.963 1.32l.665 7.328c.071.434.627.78 1.298.78m-4.067 2.287c.335-.565.31-1.206-.045-1.49L95.99 6.503c-.646-.364-1.608.076-2.156 1-.549.923-.452 1.954.187 2.312l6.85 3.105c.432.157 1.013-.144 1.349-.704m8.134-.006c.336.566.917.867 1.349.71l6.85-3.105c.645-.364.736-1.395.193-2.312-.548-.924-1.517-1.358-2.156-1l-6.184 4.224c-.355.283-.381.924-.052 1.483m-4.067 6.87c.671 0 1.226.34 1.304.779l.665 7.322c0 .73-.872 1.32-1.969 1.32-1.098 0-1.963-.59-1.963-1.32l.665-7.322c.071-.44.627-.78 1.298-.78m4.067-2.288c.336-.566.917-.861 1.349-.71l6.85 3.105c.645.364.736 1.395.193 2.319-.548.917-1.517 1.357-2.156.999l-6.184-4.217c-.355-.296-.381-.93-.052-1.496m-8.134-.006c.335.565.31 1.206-.045 1.49l-6.185 4.217c-.646.364-1.608-.076-2.156-1-.549-.924-.452-1.954.187-2.319l6.85-3.105c.432-.144 1.013.151 1.349.717m-34.945 1.478c0 .226-.02.458-.084.66-.264.848-1.162 1.558-2.285 1.558-.936 0-1.685-.522-1.685-1.615 0-1.678 1.898-2.143 4.054-2.13zm3.383-2.923c0-2.765-1.214-5.198-5.313-5.198-2.105 0-3.777.578-4.687 1.088l.665 2.224c.833-.515 2.163-.936 3.422-.936 2.078-.006 2.42 1.15 2.42 1.885v.176c-4.531-.006-7.404 1.521-7.404 4.639 0 1.904 1.459 3.683 3.996 3.683 1.562 0 2.866-.604 3.647-1.578h.078s.516 2.112 3.37 1.301c-.149-.88-.2-1.816-.2-2.941zM0 6.377S2.963 18.2 3.434 20.117c.556 2.237 1.55 3.067 4.416 2.507l1.853-7.328c.471-1.823.781-3.117 1.085-4.972h.051c.213 1.873.517 3.156.897 4.978 0 0 .756 3.325 1.137 5.072.387 1.748 1.465 2.847 4.274 2.25l4.409-16.247h-3.557l-1.505 7.027c-.406 2.043-.774 3.645-1.052 5.512h-.052c-.258-1.854-.587-3.388-.994-5.38l-1.568-7.159H9.122l-1.679 6.977c-.477 2.124-.916 3.834-1.2 5.637H6.19a212 212 0 0 0-1.09-5.907s-.994-4.99-1.343-6.713zm28.29 11.886c0 .226-.02.458-.085.66-.264.848-1.162 1.558-2.285 1.558-.936 0-1.685-.522-1.685-1.615 0-1.678 1.898-2.143 4.054-2.13zm3.388-2.923c0-2.765-1.213-5.198-5.313-5.198-2.104 0-3.776.578-4.687 1.088l.665 2.224c.833-.515 2.163-.936 3.422-.936 2.085-.006 2.42 1.15 2.42 1.885v.176c-4.538-.006-7.404 1.521-7.404 4.639 0 1.904 1.459 3.683 3.996 3.683 1.562 0 2.866-.604 3.648-1.578h.077s.517 2.112 3.377 1.301c-.149-.88-.2-1.816-.2-2.941zm5.65 3.834V6.377h-3.39v16.247h3.39zM81.671 6.377v11.986c0 1.653.322 2.81 1 3.52.6.622 1.582 1.018 2.757 1.018 1 0 1.988-.189 2.453-.352l-.045-2.577c-.349.082-.743.15-1.285.15-1.155 0-1.543-.722-1.543-2.205v-4.588h2.95v-3.111h-2.95v-3.84zm-8.754 4.042v12.205h3.499v-6.247c0-.34.019-.635.077-.899.258-1.307 1.285-2.143 2.763-2.143.407 0 .697.044 1.007.088V10.23a3.6 3.6 0 0 0-.768-.075c-1.304 0-2.789.817-3.415 2.577h-.097v-2.3h-3.066m-33.222-.013v12.205h3.409v-7.158c0-.333.039-.692.161-1 .284-.723.969-1.565 2.073-1.565 1.375 0 2.02 1.132 2.02 2.766v6.957h3.402v-7.246c0-.32.046-.704.142-.987.278-.817 1.02-1.49 2.047-1.49 1.394 0 2.06 1.113 2.06 3.036v6.687h3.408v-7.19c0-3.79-1.975-5.292-4.21-5.292-.987 0-1.768.239-2.472.66-.594.358-1.123.861-1.588 1.521h-.051c-.536-1.314-1.808-2.18-3.454-2.18-2.118 0-3.073 1.042-3.654 1.935h-.058v-1.66z"/></g><defs><clipPath id="a"><path fill="#fff" d="M0 .5h121v28H0z"/></clipPath></defs></svg>