<svg xmlns="http://www.w3.org/2000/svg" width="89" height="28" fill="none" viewBox="0 0 89 28"><g clip-path="url(#a)"><mask id="b" width="89" height="28" x="0" y="0" maskUnits="userSpaceOnUse" style="mask-type:luminance"><path fill="#fff" d="M89 .5H0v27h89z"/></mask><g mask="url(#b)"><path fill="#050d20" d="M46.895 7.285c0 .973-.807 1.758-1.809 1.758s-1.808-.785-1.808-1.758c0-.974.778-1.759 1.808-1.759 1.03.028 1.809.812 1.809 1.759m-7.448 3.54v.434s-.86-1.08-2.697-1.08c-3.028 0-5.392 2.242-5.392 5.349 0 3.083 2.335 5.349 5.393 5.349 1.86 0 2.696-1.108 2.696-1.108v.462c0 .217.166.378.389.378h2.25V10.446h-2.25c-.223 0-.39.19-.39.379m0 6.512c-.418.595-1.249 1.108-2.25 1.108-1.78 0-3.143-1.08-3.143-2.922 0-1.837 1.363-2.917 3.143-2.917.973 0 1.86.54 2.25 1.108zm4.305-6.89h2.668v10.162h-2.668zm39.86-.273c-1.832 0-2.696 1.08-2.696 1.08v-5.7h-2.668v15.055h2.25c.223 0 .39-.189.39-.378v-.457s.863 1.107 2.696 1.107c3.028 0 5.392-2.27 5.392-5.349 0-3.087-2.36-5.358-5.364-5.358m-.441 8.243c-1.03 0-1.833-.512-2.25-1.108v-3.623c.417-.54 1.305-1.107 2.25-1.107 1.78 0 3.142 1.08 3.142 2.916-.005 1.842-1.362 2.922-3.142 2.922m-6.314-3.836v6.056H74.19v-5.76c0-1.676-.555-2.35-2.055-2.35-.807 0-1.638.407-2.17 1.002v7.08h-2.667V10.446h2.112c.223 0 .39.19.39.379v.434c.778-.785 1.808-1.08 2.833-1.08q1.752-.002 2.92.973c.944.753 1.305 1.727 1.305 3.43m-16.035-4.407c-1.832 0-2.696 1.08-2.696 1.08v-5.7h-2.668V20.61h2.25c.223 0 .39-.189.39-.378v-.457s.863 1.107 2.696 1.107c3.028 0 5.392-2.27 5.392-5.349.029-3.087-2.335-5.358-5.364-5.358m-.446 8.243c-1.03 0-1.832-.512-2.25-1.108v-3.623c.418-.54 1.305-1.107 2.25-1.107 1.78 0 3.142 1.08 3.142 2.916 0 1.842-1.362 2.922-3.142 2.922m-7.23-8.243c.807 0 1.225.134 1.225.134v2.404s-2.221-.729-3.612.813v7.107h-2.67V10.446h2.25c.223 0 .39.19.39.379v.434c.498-.568 1.585-1.085 2.415-1.085M25.434 19.69c-.138-.323-.28-.674-.418-.974-.223-.485-.446-.946-.64-1.38l-.03-.028a280 280 0 0 0-6.142-12.217l-.085-.161q-.343-.631-.665-1.27c-.28-.484-.555-1.001-1.001-1.486A4.52 4.52 0 0 0 12.926.5c-1.391 0-2.64.595-3.556 1.62-.417.485-.721 1.002-1.001 1.486-.219.425-.437.85-.665 1.27l-.085.16c-2.141 4.053-4.225 8.16-6.143 12.218l-.028.055c-.195.434-.418.891-.641 1.38q-.205.446-.418.974c-.36 1.002-.475 1.948-.332 2.922.304 2.026 1.695 3.729 3.612 4.486a5.9 5.9 0 0 0 2.25.434c.223 0 .499-.028.722-.056a7.5 7.5 0 0 0 2.782-.918c1.139-.623 2.221-1.514 3.446-2.811 1.225 1.297 2.335 2.188 3.446 2.81.916.513 1.86.813 2.782.92.223.027.503.055.721.055.779 0 1.557-.134 2.25-.434a5.76 5.76 0 0 0 3.613-4.486c.228-.951.114-1.897-.247-2.894m-12.537 1.403c-1.5-1.837-2.473-3.568-2.805-5.026-.138-.623-.166-1.163-.086-1.648.057-.434.223-.812.447-1.135.527-.73 1.419-1.191 2.444-1.191 1.03 0 1.947.434 2.445 1.19.223.324.39.702.446 1.136.086.485.057 1.052-.085 1.648-.328 1.43-1.301 3.161-2.806 5.026m11.094 1.27c-.195 1.402-1.168 2.62-2.53 3.16a4.3 4.3 0 0 1-2.113.268 5.6 5.6 0 0 1-2.112-.701c-1.002-.54-2.003-1.38-3.171-2.622 1.832-2.187 2.948-4.19 3.366-5.972.194-.84.223-1.597.137-2.299a4.3 4.3 0 0 0-.75-1.837c-.864-1.218-2.307-1.92-3.92-1.92-1.615 0-3.058.73-3.922 1.92a4.3 4.3 0 0 0-.75 1.837 5.5 5.5 0 0 0 .138 2.299c.418 1.782 1.557 3.812 3.36 6-1.139 1.241-2.169 2.081-3.17 2.622a5.5 5.5 0 0 1-2.113.701 4.6 4.6 0 0 1-2.112-.268c-1.362-.54-2.335-1.758-2.53-3.161a4.3 4.3 0 0 1 .252-2.11c.08-.272.223-.54.36-.862.195-.434.418-.891.641-1.353l.029-.055A288 288 0 0 1 9.195 5.877l.085-.162c.223-.406.446-.835.67-1.241.223-.434.474-.84.778-1.19a2.95 2.95 0 0 1 2.222-1.002c.863 0 1.637.35 2.221 1.001.304.35.555.757.779 1.19.223.407.446.84.669 1.242l.085.162a348 348 0 0 1 6.086 12.162v.027c.223.434.418.919.64 1.353.138.322.28.595.361.863.228.706.309 1.38.2 2.081"/></g></g><defs><clipPath id="a"><path fill="#fff" d="M0 .5h89v27H0z"/></clipPath></defs></svg>