<svg xmlns="http://www.w3.org/2000/svg" width="90" height="22" fill="none" viewBox="0 0 90 22"><g clip-path="url(#a)"><path fill="#050d20" fill-rule="evenodd" d="M21.137 20.195h-4.991l-1.527-3.605H6.301l-1.39 3.605H0l7.502-18.22h5.375zM10.255 6.328l-2.727 7.08h5.728zm29.012-4.353h4.038v18.22h-4.638V8.813l-5.017 5.72h-.71l-5.018-5.72v11.382h-4.638V1.975h4.038l5.975 6.761zm15.788 0c6.791 0 10.281 4.141 10.281 9.139 0 5.234-3.385 9.081-10.802 9.081h-7.691V1.975zM51.48 16.853h3.028c4.664 0 6.054-3.1 6.054-5.77 0-3.126-1.717-5.771-6.112-5.771h-2.975zM84.072 6.23h-9.528L68.753.526 90 .5v20.845l-5.928-5.832zm-9.534 9.463.027-8.422-6.033 5.91V21.5h8.728l5.928-5.807z" clip-rule="evenodd"/></g><defs><clipPath id="a"><path fill="#fff" d="M0 .5h90v21H0z"/></clipPath></defs></svg>