<svg xmlns="http://www.w3.org/2000/svg" width="90" height="21" fill="none" viewBox="0 0 90 21"><g clip-path="url(#a)"><path fill="#eaf0ff" fill-rule="evenodd" d="M21.137 19.695h-4.991l-1.527-3.605H6.301l-1.39 3.605H0l7.502-18.22h5.375zM10.255 5.828l-2.727 7.08h5.728zm29.012-4.353h4.038v18.22h-4.638V8.313l-5.017 5.72h-.71l-5.018-5.72v11.382h-4.638V1.475h4.038l5.975 6.761zm15.788 0c6.791 0 10.281 4.141 10.281 9.139 0 5.234-3.385 9.081-10.802 9.081h-7.691V1.475zM51.48 16.353h3.028c4.664 0 6.054-3.1 6.054-5.77 0-3.126-1.717-5.771-6.112-5.771h-2.975zM84.072 5.73h-9.528L68.753.026 90 0v20.845l-5.928-5.832zm-9.534 9.463.027-8.422-6.033 5.91V21h8.728l5.928-5.807z" clip-rule="evenodd"/></g><defs><clipPath id="a"><path fill="#fff" d="M0 0h90v21H0z"/></clipPath></defs></svg>