<svg xmlns="http://www.w3.org/2000/svg" width="97" height="29" fill="none" viewBox="0 0 97 29"><g clip-path="url(#a)"><path fill="#717383" d="M14.547 0C6.514 0 0 6.493 0 14.502c0 8.008 6.514 14.501 14.547 14.501s14.548-6.493 14.548-14.501C29.09 6.493 22.58 0 14.547 0m6.67 20.914a.905.905 0 0 1-1.245.299c-3.416-2.081-7.715-2.553-12.78-1.398a.906.906 0 0 1-1.086-.68.903.903 0 0 1 .682-1.083c5.541-1.261 10.294-.715 14.13 1.62.427.26.56.816.3 1.242m1.781-3.948a1.133 1.133 0 0 1-1.559.37c-3.907-2.395-9.87-3.088-14.495-1.69a1.133 1.133 0 1 1-.659-2.165c5.284-1.597 11.85-.823 16.342 1.928.531.331.698 1.027.371 1.557m.154-4.113c-4.69-2.773-12.424-3.03-16.9-1.674a1.36 1.36 0 0 1-1.695-.904 1.356 1.356 0 0 1 .906-1.691c5.138-1.554 13.68-1.255 19.078 1.941.646.384.858 1.216.476 1.86a1.366 1.366 0 0 1-1.865.468m16.422.533c-2.511-.598-2.958-1.017-2.958-1.895 0-.833.786-1.392 1.954-1.392 1.132 0 2.257.426 3.431 1.3a.17.17 0 0 0 .124.03.16.16 0 0 0 .108-.068l1.226-1.724a.167.167 0 0 0-.033-.224c-1.402-1.122-2.977-1.665-4.824-1.665-2.71 0-4.605 1.623-4.605 3.944 0 2.491 1.634 3.372 4.459 4.052 2.403.552 2.808 1.014 2.808 1.84 0 .917-.819 1.486-2.14 1.486-1.464 0-2.661-.491-3.999-1.648a.17.17 0 0 0-.12-.04.16.16 0 0 0-.114.059l-1.377 1.632a.163.163 0 0 0 .016.228c1.556 1.385 3.47 2.117 5.535 2.117 2.923 0 4.812-1.594 4.812-4.055.006-2.081-1.243-3.232-4.303-3.973zm10.92-2.467c-1.265 0-2.306.497-3.16 1.515v-1.148a.166.166 0 0 0-.163-.166h-2.248a.164.164 0 0 0-.163.166v12.746c0 .09.076.166.163.166h2.248a.164.164 0 0 0 .163-.166V20.01c.858.959 1.895 1.427 3.16 1.427 2.355 0 4.736-1.805 4.736-5.258.004-3.456-2.38-5.26-4.735-5.26m2.12 5.257c0 1.76-1.085 2.985-2.641 2.985-1.537 0-2.698-1.281-2.698-2.985 0-1.7 1.161-2.985 2.698-2.985 1.53 0 2.642 1.255 2.642 2.985m8.723-5.257c-3.03 0-5.405 2.328-5.405 5.296 0 2.94 2.358 5.242 5.369 5.242 3.043 0 5.424-2.319 5.424-5.278-.003-2.952-2.368-5.26-5.388-5.26m0 8.261c-1.612 0-2.828-1.29-2.828-3.004 0-1.72 1.174-2.965 2.788-2.965 1.621 0 2.848 1.29 2.848 3.004 0 1.717-1.18 2.965-2.808 2.965m11.859-8.057H70.72V8.6a.16.16 0 0 0-.163-.162H68.31a.166.166 0 0 0-.166.162v2.523H67.06a.164.164 0 0 0-.163.166v1.928c0 .091.071.166.163.166h1.083v4.985c0 2.016 1.004 3.037 2.99 3.037.806 0 1.478-.166 2.108-.524a.16.16 0 0 0 .081-.143v-1.834c0-.055-.03-.11-.078-.14a.17.17 0 0 0-.16-.006 2.84 2.84 0 0 1-1.32.319c-.722 0-1.045-.326-1.045-1.06V13.38h2.476a.164.164 0 0 0 .163-.166v-1.928a.16.16 0 0 0-.163-.163m8.62.01v-.309c0-.91.35-1.317 1.136-1.317.47 0 .845.095 1.265.234.052.017.108.01.147-.022a.17.17 0 0 0 .069-.134V7.696a.16.16 0 0 0-.118-.156 6.2 6.2 0 0 0-1.869-.266c-2.078 0-3.173 1.167-3.173 3.371v.475h-1.08a.166.166 0 0 0-.166.163v1.938c0 .09.075.165.166.165h1.08v7.69c0 .091.071.166.163.166h2.247a.167.167 0 0 0 .166-.166v-7.7h2.1l3.217 7.687c-.365.806-.724.97-1.213.97-.395 0-.813-.118-1.24-.352a.17.17 0 0 0-.13-.013.17.17 0 0 0-.098.088l-.763 1.668a.16.16 0 0 0 .071.211c.796.43 1.514.615 2.401.615 1.66 0 2.58-.771 3.389-2.846l3.9-10.05a.17.17 0 0 0-.015-.153.16.16 0 0 0-.134-.071h-2.342a.17.17 0 0 0-.157.11l-2.397 6.829-2.626-6.835a.16.16 0 0 0-.153-.104zm-4.996-.01h-2.247a.167.167 0 0 0-.167.166v9.78c0 .092.075.166.166.166h2.248a.167.167 0 0 0 .166-.165v-9.784a.17.17 0 0 0-.049-.117.18.18 0 0 0-.117-.046M75.708 6.67a1.61 1.61 0 0 0-1.615 1.606 1.614 1.614 0 0 0 3.226 0c0-.888-.721-1.606-1.611-1.606m19.7 7.599c-.89 0-1.582-.713-1.582-1.578a1.59 1.59 0 0 1 1.592-1.586c.89 0 1.582.712 1.582 1.577s-.704 1.587-1.592 1.587m.01-3.008c-.812 0-1.425.644-1.425 1.43 0 .787.61 1.421 1.415 1.421.81 0 1.426-.64 1.426-1.43 0-.787-.61-1.421-1.416-1.421m.35 1.583.446.625h-.378l-.405-.573h-.346v.573h-.316v-1.655h.74c.385 0 .64.198.64.526.006.274-.154.44-.382.504m-.268-.748h-.411v.524h.41c.206 0 .33-.1.33-.263 0-.17-.124-.26-.33-.26"/></g><defs><clipPath id="a"><path fill="#fff" d="M0 0h97v29H0z"/></clipPath></defs></svg>