<svg xmlns="http://www.w3.org/2000/svg" width="82" height="25" fill="none" viewBox="0 0 82 25"><g fill-rule="evenodd" clip-path="url(#a)" clip-rule="evenodd"><path fill="#bcbfdb" d="M50.872 19.55c-4.766 3.553-11.672 5.449-17.619 5.449-8.338 0-15.845-3.12-21.524-8.31-.446-.407-.046-.963.49-.646 6.128 3.608 13.706 5.778 21.534 5.778 5.279 0 11.086-1.105 16.426-3.398.807-.347 1.481.535.693 1.127"/><path fill="#000" fill-opacity=".4" d="M50.872 19.55c-4.766 3.553-11.672 5.449-17.619 5.449-8.338 0-15.845-3.12-21.524-8.31-.446-.407-.046-.963.49-.646 6.128 3.608 13.706 5.778 21.534 5.778 5.279 0 11.086-1.105 16.426-3.398.807-.347 1.481.535.693 1.127"/><path fill="#bcbfdb" d="M52.853 17.257c-.607-.788-4.027-.372-5.562-.188-.467.058-.538-.354-.117-.65 2.723-1.94 7.192-1.38 7.713-.73.521.654-.136 5.186-2.695 7.349-.392.332-.767.155-.592-.285.574-1.452 1.863-4.706 1.253-5.497"/><path fill="#000" fill-opacity=".4" d="M52.853 17.257c-.607-.788-4.027-.372-5.562-.188-.467.058-.538-.354-.117-.65 2.723-1.94 7.192-1.38 7.713-.73.521.654-.136 5.186-2.695 7.349-.392.332-.767.155-.592-.285.574-1.452 1.863-4.706 1.253-5.497"/><path fill="#bcbfdb" d="M47.399 2.729V.844c0-.285.214-.477.47-.477h8.342c.268 0 .482.195.482.477v1.614c-.003.27-.228.625-.628 1.185l-4.322 6.243c1.606-.04 3.301.202 4.758 1.033.328.188.417.462.442.733v2.012c0 .274-.3.595-.614.43-2.566-1.362-5.975-1.51-8.813.014-.289.159-.592-.16-.592-.434v-1.91c0-.307.003-.83.307-1.296l5.008-7.266H47.88a.464.464 0 0 1-.481-.473"/><path fill="#000" fill-opacity=".4" d="M47.399 2.729V.844c0-.285.214-.477.47-.477h8.342c.268 0 .482.195.482.477v1.614c-.003.27-.228.625-.628 1.185l-4.322 6.243c1.606-.04 3.301.202 4.758 1.033.328.188.417.462.442.733v2.012c0 .274-.3.595-.614.43-2.566-1.362-5.975-1.51-8.813.014-.289.159-.592-.16-.592-.434v-1.91c0-.307.003-.83.307-1.296l5.008-7.266H47.88a.464.464 0 0 1-.481-.473"/><path fill="#bcbfdb" d="M16.969 14.49H14.43a.48.48 0 0 1-.453-.437V.876c0-.263.217-.473.489-.473h2.366a.48.48 0 0 1 .46.44v1.723h.047C17.957.901 19.117.125 20.68.125c1.59 0 2.582.776 3.295 2.441C24.59.901 25.985.125 27.481.125c1.063 0 2.227.444 2.937 1.44.803 1.11.64 2.72.64 4.132l-.004 8.317a.48.48 0 0 1-.49.476H28.03a.486.486 0 0 1-.457-.476V7.03c0-.557.05-1.943-.071-2.47-.19-.885-.757-1.134-1.492-1.134-.614 0-1.256.415-1.517 1.08-.26.664-.236 1.776-.236 2.524v6.984a.48.48 0 0 1-.489.476h-2.534a.483.483 0 0 1-.457-.476l-.003-6.984c0-1.47.239-3.633-1.564-3.633-1.824 0-1.752 2.109-1.752 3.633v6.984a.48.48 0 0 1-.49.476"/><path fill="#000" fill-opacity=".4" d="M16.969 14.49H14.43a.48.48 0 0 1-.453-.437V.876c0-.263.217-.473.489-.473h2.366a.48.48 0 0 1 .46.44v1.723h.047C17.957.901 19.117.125 20.68.125c1.59 0 2.582.776 3.295 2.441C24.59.901 25.985.125 27.481.125c1.063 0 2.227.444 2.937 1.44.803 1.11.64 2.72.64 4.132l-.004 8.317a.48.48 0 0 1-.49.476H28.03a.486.486 0 0 1-.457-.476V7.03c0-.557.05-1.943-.071-2.47-.19-.885-.757-1.134-1.492-1.134-.614 0-1.256.415-1.517 1.08-.26.664-.236 1.776-.236 2.524v6.984a.48.48 0 0 1-.489.476h-2.534a.483.483 0 0 1-.457-.476l-.003-6.984c0-1.47.239-3.633-1.564-3.633-1.824 0-1.752 2.109-1.752 3.633v6.984a.48.48 0 0 1-.49.476"/><path fill="#bcbfdb" d="M63.874.125c3.766 0 5.804 3.272 5.804 7.432 0 4.019-2.252 7.208-5.804 7.208-3.698 0-5.71-3.272-5.71-7.35 0-4.101 2.037-7.29 5.71-7.29m.022 2.69c-1.87 0-1.989 2.579-1.989 4.186 0 1.61-.025 5.048 1.967 5.048 1.967 0 2.06-2.773 2.06-4.463 0-1.113-.047-2.441-.379-3.496-.285-.917-.853-1.275-1.66-1.275"/><path fill="#000" fill-opacity=".4" d="M63.874.125c3.766 0 5.804 3.272 5.804 7.432 0 4.019-2.252 7.208-5.804 7.208-3.698 0-5.71-3.272-5.71-7.35 0-4.101 2.037-7.29 5.71-7.29m.022 2.69c-1.87 0-1.989 2.579-1.989 4.186 0 1.61-.025 5.048 1.967 5.048 1.967 0 2.06-2.773 2.06-4.463 0-1.113-.047-2.441-.379-3.496-.285-.917-.853-1.275-1.66-1.275"/><path fill="#bcbfdb" d="M74.562 14.49h-2.527a.486.486 0 0 1-.457-.476L71.574.833a.48.48 0 0 1 .49-.43h2.352c.22.01.403.163.453.368v2.015h.046C75.625.984 76.621.125 78.374.125c1.139 0 2.249.415 2.963 1.553C82 2.732 82 4.505 82 5.78v8.295a.49.49 0 0 1-.489.415h-2.544a.48.48 0 0 1-.45-.415V6.918c0-1.441.164-3.55-1.589-3.55-.617 0-1.185.419-1.467 1.054-.357.806-.403 1.607-.403 2.496v7.096a.49.49 0 0 1-.496.476"/><path fill="#000" fill-opacity=".4" d="M74.562 14.49h-2.527a.486.486 0 0 1-.457-.476L71.574.833a.48.48 0 0 1 .49-.43h2.352c.22.01.403.163.453.368v2.015h.046C75.625.984 76.621.125 78.374.125c1.139 0 2.249.415 2.963 1.553C82 2.732 82 4.505 82 5.78v8.295a.49.49 0 0 1-.489.415h-2.544a.48.48 0 0 1-.45-.415V6.918c0-1.441.164-3.55-1.589-3.55-.617 0-1.185.419-1.467 1.054-.357.806-.403 1.607-.403 2.496v7.096a.49.49 0 0 1-.496.476"/><path fill="#bcbfdb" d="M40.749 8.197c0 1 .024 1.835-.475 2.723-.404.722-1.046 1.166-1.756 1.166-.975 0-1.546-.75-1.546-1.86 0-2.188 1.938-2.585 3.776-2.585zm2.559 6.258a.525.525 0 0 1-.6.062c-.842-.708-.996-1.037-1.456-1.712-1.392 1.437-2.381 1.867-4.184 1.867-2.138 0-3.797-1.332-3.797-4.001 0-2.084 1.113-3.503 2.705-4.196 1.378-.614 3.302-.722 4.773-.892V5.25c0-.61.046-1.333-.311-1.86-.307-.473-.9-.668-1.424-.668-.968 0-1.828.502-2.038 1.542-.043.23-.21.458-.443.47l-2.46-.268c-.206-.047-.438-.217-.378-.538C34.26.91 36.958 0 39.371 0c1.235 0 2.848.332 3.823 1.278 1.235 1.167 1.117 2.723 1.117 4.417v4c0 1.204.492 1.73.956 2.38.161.232.197.51-.01.683-.518.437-1.439 1.25-1.946 1.705z"/><path fill="#000" fill-opacity=".4" d="M40.749 8.197c0 1 .024 1.835-.475 2.723-.404.722-1.046 1.166-1.756 1.166-.975 0-1.546-.75-1.546-1.86 0-2.188 1.938-2.585 3.776-2.585zm2.559 6.258a.525.525 0 0 1-.6.062c-.842-.708-.996-1.037-1.456-1.712-1.392 1.437-2.381 1.867-4.184 1.867-2.138 0-3.797-1.332-3.797-4.001 0-2.084 1.113-3.503 2.705-4.196 1.378-.614 3.302-.722 4.773-.892V5.25c0-.61.046-1.333-.311-1.86-.307-.473-.9-.668-1.424-.668-.968 0-1.828.502-2.038 1.542-.043.23-.21.458-.443.47l-2.46-.268c-.206-.047-.438-.217-.378-.538C34.26.91 36.958 0 39.371 0c1.235 0 2.848.332 3.823 1.278 1.235 1.167 1.117 2.723 1.117 4.417v4c0 1.204.492 1.73.956 2.38.161.232.197.51-.01.683-.518.437-1.439 1.25-1.946 1.705z"/><path fill="#bcbfdb" d="M7.478 8.197c0 1 .025 1.835-.475 2.723-.403.722-1.042 1.166-1.756 1.166-.974 0-1.542-.75-1.542-1.86 0-2.188 1.938-2.585 3.773-2.585zm2.56 6.258a.525.525 0 0 1-.6.062c-.843-.708-.993-1.037-1.457-1.712-1.392 1.437-2.377 1.867-4.183 1.867C1.663 14.672 0 13.34 0 10.671c0-2.084 1.117-3.503 2.706-4.196 1.377-.614 3.301-.722 4.772-.892V5.25c0-.61.046-1.333-.307-1.86-.31-.473-.903-.668-1.424-.668-.968 0-1.831.502-2.042 1.542-.043.23-.21.458-.439.47L.803 4.466C.596 4.42.368 4.25.425 3.929.992.91 3.687 0 6.1 0c1.235 0 2.848.332 3.823 1.278 1.235 1.167 1.117 2.723 1.117 4.417v4c0 1.204.493 1.73.957 2.38.164.232.2.51-.007.683a109 109 0 0 0-1.946 1.705z"/><path fill="#000" fill-opacity=".4" d="M7.478 8.197c0 1 .025 1.835-.475 2.723-.403.722-1.042 1.166-1.756 1.166-.974 0-1.542-.75-1.542-1.86 0-2.188 1.938-2.585 3.773-2.585zm2.56 6.258a.525.525 0 0 1-.6.062c-.843-.708-.993-1.037-1.457-1.712-1.392 1.437-2.377 1.867-4.183 1.867C1.663 14.672 0 13.34 0 10.671c0-2.084 1.117-3.503 2.706-4.196 1.377-.614 3.301-.722 4.772-.892V5.25c0-.61.046-1.333-.307-1.86-.31-.473-.903-.668-1.424-.668-.968 0-1.831.502-2.042 1.542-.043.23-.21.458-.439.47L.803 4.466C.596 4.42.368 4.25.425 3.929.992.91 3.687 0 6.1 0c1.235 0 2.848.332 3.823 1.278 1.235 1.167 1.117 2.723 1.117 4.417v4c0 1.204.493 1.73.957 2.38.164.232.2.51-.007.683a109 109 0 0 0-1.946 1.705z"/></g><defs><clipPath id="a"><path fill="#fff" d="M0 0h82v25H0z"/></clipPath></defs></svg>