<svg xmlns="http://www.w3.org/2000/svg" width="131" height="43" fill="none" viewBox="0 0 131 43"><path fill="#0353e9" d="M19.055 32.015a2 2 0 0 1-2.828 0l-4.664-4.664C7.263 23.052 0 26.091 0 32.17v5.93a2 2 0 0 0 2 2h31.282a2 2 0 0 0 2-2V20.616c0-1.781-2.154-2.674-3.414-1.414zm-2.828-23.93a2 2 0 0 1 2.828 0l4.664 4.664c4.3 4.3 11.563 1.26 11.563-4.818V2a2 2 0 0 0-2-2H2a2 2 0 0 0-2 2v17.484c0 1.781 2.154 2.674 3.414 1.414z"/><path fill="#fff" d="M55.675 34.05H48.66v-4.342h6.754q2.876 0 4.806-1.04 1.948-1.056 2.913-3.172.983-2.115.983-5.288t-.965-5.27-2.876-3.135q-1.911-1.058-4.731-1.058h-7.032V6.403h7.329q4.119 0 7.069 1.652 2.969 1.65 4.564 4.75 1.596 3.098 1.596 7.403t-1.596 7.422q-1.595 3.099-4.601 4.768-2.988 1.652-7.2 1.652m-4.38-27.647V34.05h-5.01V6.403zM72.17 34.05V13.306h4.88V34.05zm2.449-23.657q-1.17 0-2.004-.78T71.78 7.74q0-1.113.835-1.892.836-.78 2.004-.78 1.15 0 1.985.78t.835 1.874q0 1.113-.835 1.892a2.8 2.8 0 0 1-1.985.78m15.03 31.858q-3.953 0-6.217-1.54-2.264-1.521-2.913-3.692l4.38-1.077q.296.613.871 1.206.576.613 1.54 1.002.966.41 2.431.409 2.078 0 3.433-1.02 1.373-1.004 1.373-3.285V30.34h-.279q-.352.742-1.076 1.54-.724.78-1.911 1.336-1.17.538-2.969.538-2.374 0-4.323-1.132-1.93-1.132-3.08-3.377-1.132-2.245-1.132-5.622 0-3.415 1.132-5.77 1.15-2.357 3.099-3.581 1.948-1.225 4.341-1.225 1.82 0 3.006.612 1.188.612 1.893 1.485.705.853 1.094 1.595h.26v-3.432h4.769v21.078q0 2.653-1.262 4.397t-3.47 2.598q-2.19.872-4.99.872m.036-12.339q2.338 0 3.6-1.67 1.28-1.689 1.28-4.657 0-1.966-.556-3.433-.557-1.466-1.652-2.282t-2.672-.816q-1.632 0-2.727.853-1.094.855-1.652 2.338-.537 1.465-.538 3.34 0 1.893.557 3.321.556 1.43 1.651 2.227 1.114.78 2.71.78m13.285 4.138V13.306h4.88V34.05zm2.45-23.657q-1.17 0-2.004-.78t-.835-1.874q0-1.113.835-1.892.834-.78 2.004-.78 1.15 0 1.985.78t.835 1.874q0 1.113-.835 1.892a2.8 2.8 0 0 1-1.985.78m10.038 2.913 4.175 7.681 4.249-7.681h5.176l-6.234 10.39 6.346 10.354h-5.14l-4.397-7.46-4.324 7.46h-5.176l6.29-10.354-6.142-10.39z"/></svg>