<svg xmlns="http://www.w3.org/2000/svg" width="119" height="39" fill="none" viewBox="0 0 119 39"><g clip-path="url(#a)"><path fill="#0353e9" d="M15.773 26.706a2 2 0 0 1-2.828 0l-3.533-3.533C5.912 19.674 0 22.148 0 27.095v4.455a2 2 0 0 0 2 2h24.718a2 2 0 0 0 2-2V18.59c0-1.782-2.154-2.674-3.414-1.414zM12.945 7.754a2 2 0 0 1 2.828 0l3.533 3.533c3.5 3.5 9.412 1.026 9.412-3.921V2.91a2 2 0 0 0-2-2H2a2 2 0 0 0-2 2v12.96c0 1.782 2.154 2.675 3.414 1.415z"/><path fill="#050d20" d="M48.51 30.23h-6.644v-4.113h6.399q2.725 0 4.552-.984 1.845-1.002 2.76-3.006.932-2.004.932-5.01t-.914-4.992-2.725-2.97q-1.81-1.003-4.482-1.003h-6.662V4.04h6.943q3.903 0 6.697 1.565 2.813 1.563 4.324 4.5 1.512 2.935 1.512 7.013 0 4.079-1.512 7.031-1.51 2.936-4.359 4.518-2.83 1.564-6.82 1.564M44.363 4.04v26.19h-4.746V4.04zm19.776 26.19V10.578h4.623v19.653zm2.32-22.412a2.68 2.68 0 0 1-1.898-.738q-.791-.738-.791-1.775 0-1.055.79-1.793a2.68 2.68 0 0 1 1.899-.739q1.09 0 1.88.739.792.738.792 1.775 0 1.054-.791 1.793a2.66 2.66 0 0 1-1.881.738M80.696 38q-3.744 0-5.888-1.459-2.145-1.44-2.76-3.498l4.148-1.02q.282.58.826 1.143.545.58 1.46.95.913.386 2.302.386 1.97 0 3.252-.967 1.3-.95 1.3-3.111v-3.71h-.263q-.333.704-1.02 1.46-.684.738-1.81 1.265-1.108.51-2.812.51-2.25 0-4.096-1.072-1.828-1.072-2.918-3.2-1.072-2.126-1.072-5.325 0-3.235 1.072-5.467 1.09-2.234 2.936-3.393 1.845-1.16 4.113-1.16 1.722 0 2.848.58t1.792 1.406q.668.81 1.038 1.512h.246v-3.252h4.517v19.969q0 2.514-1.195 4.166t-3.287 2.46q-2.075.828-4.729.827m.035-11.69q2.216 0 3.41-1.581 1.214-1.6 1.213-4.413 0-1.863-.527-3.252t-1.564-2.162-2.532-.773q-1.546 0-2.584.809-1.035.809-1.564 2.214-.51 1.389-.51 3.164 0 1.794.528 3.147.527 1.353 1.564 2.11 1.055.737 2.566.738m12.586 3.92V10.578h4.623v19.653zm2.32-22.412a2.68 2.68 0 0 1-1.898-.738q-.79-.738-.79-1.775 0-1.055.79-1.793a2.68 2.68 0 0 1 1.899-.739q1.09 0 1.88.739.792.738.792 1.775 0 1.054-.791 1.793a2.66 2.66 0 0 1-1.881.738m9.51 2.76 3.956 7.278 4.025-7.278h4.904l-5.906 9.844 6.012 9.808h-4.869l-4.166-7.066-4.096 7.066h-4.904l5.959-9.808-5.819-9.844z"/></g><defs><clipPath id="a"><path fill="#fff" d="M0 .91h119v38H0z"/></clipPath></defs></svg>