<svg xmlns="http://www.w3.org/2000/svg" width="119" height="38" fill="none" viewBox="0 0 119 38"><g clip-path="url(#a)"><path fill="#132a64" d="M15.773 25.795a2 2 0 0 1-2.828 0l-3.533-3.533C5.912 18.763 0 21.237 0 26.184v4.456a2 2 0 0 0 2 2h24.718a2 2 0 0 0 2-2V17.68c0-1.783-2.154-2.675-3.414-1.415zM12.945 6.844a2 2 0 0 1 2.828 0l3.533 3.533c3.5 3.5 9.412 1.026 9.412-3.922V2a2 2 0 0 0-2-2H2a2 2 0 0 0-2 2v12.96c0 1.782 2.154 2.674 3.414 1.415z"/><path fill="#050d20" d="M48.51 29.32h-6.645v-4.114h6.399q2.725 0 4.552-.984 1.845-1.002 2.76-3.006.932-2.004.932-5.01 0-3.004-.914-4.992-.915-1.986-2.725-2.97-1.81-1.002-4.482-1.002h-6.662V3.128h6.943q3.903 0 6.697 1.565 2.813 1.564 4.324 4.5 1.512 2.936 1.512 7.013 0 4.08-1.512 7.032-1.51 2.936-4.359 4.517-2.83 1.565-6.82 1.565M44.36 3.128V29.32h-4.746V3.128zM64.137 29.32V9.667h4.623V29.32zm2.32-22.412a2.68 2.68 0 0 1-1.898-.739q-.792-.738-.791-1.775 0-1.054.79-1.793a2.68 2.68 0 0 1 1.899-.738q1.09 0 1.88.738.792.738.792 1.775 0 1.056-.791 1.793a2.66 2.66 0 0 1-1.881.739m14.238 30.181q-3.744 0-5.888-1.459-2.145-1.44-2.76-3.498l4.148-1.02q.281.581.827 1.143.545.58 1.458.95.915.386 2.303.386 1.97 0 3.252-.967 1.3-.949 1.3-3.11v-3.71h-.263q-.333.703-1.02 1.46-.685.737-1.81 1.265-1.108.51-2.812.51-2.25 0-4.096-1.073-1.828-1.072-2.918-3.199-1.072-2.127-1.072-5.326 0-3.234 1.072-5.467 1.09-2.233 2.936-3.392 1.845-1.16 4.113-1.16 1.722 0 2.847.58t1.793 1.406q.668.809 1.038 1.511h.246V9.667h4.517v19.97q0 2.513-1.195 4.165t-3.287 2.461q-2.075.825-4.729.826m.035-11.69q2.216 0 3.41-1.581 1.214-1.6 1.213-4.412 0-1.863-.527-3.252-.527-1.39-1.564-2.162-1.037-.774-2.532-.774-1.546 0-2.584.809-1.036.808-1.564 2.215-.51 1.388-.51 3.164 0 1.793.528 3.146.527 1.354 1.564 2.11 1.055.738 2.566.738m12.586 3.92V9.668h4.623V29.32zm2.32-22.411a2.68 2.68 0 0 1-1.898-.739q-.79-.738-.79-1.775 0-1.054.79-1.793a2.68 2.68 0 0 1 1.899-.738q1.09 0 1.88.738.792.738.792 1.775 0 1.056-.791 1.793a2.66 2.66 0 0 1-1.881.739m9.51 2.76 3.956 7.277 4.025-7.278h4.904l-5.906 9.844 6.012 9.809h-4.869l-4.166-7.067-4.096 7.067h-4.904l5.959-9.809-5.819-9.844z"/></g><defs><clipPath id="a"><path fill="#fff" d="M0 0h119v38H0z"/></clipPath></defs></svg>