<svg xmlns="http://www.w3.org/2000/svg" width="200" height="50" fill="none" viewBox="0 0 200 50"><circle cx="15" cy="15" r="2.5" fill="#06b6d4"/><circle cx="25" cy="10" r="2.5" fill="#0891b2"/><circle cx="35" cy="15" r="2.5" fill="#06b6d4"/><circle cx="15" cy="25" r="2.5" fill="#0891b2"/><circle cx="25" cy="30" r="2.5" fill="#06b6d4"/><circle cx="35" cy="25" r="2.5" fill="#0891b2"/><circle cx="25" cy="20" r="3" fill="#0ea5e9"/><path stroke="#06b6d4" d="m15 15 10-5" opacity=".6"/><path stroke="#06b6d4" stroke-width="1.5" d="m15 15 10 5" opacity=".8"/><path stroke="#0891b2" d="m25 10 10 5" opacity=".6"/><path stroke="#0ea5e9" stroke-width="1.5" d="M25 10v10" opacity=".8"/><path stroke="#06b6d4" stroke-width="1.5" d="m35 15-10 5" opacity=".8"/><path stroke="#0891b2" stroke-width="1.5" d="m15 25 10-5" opacity=".8"/><path stroke="#06b6d4" d="m15 25 10 5" opacity=".6"/><path stroke="#0891b2" d="m25 30 10-5" opacity=".6"/><path stroke="#06b6d4" stroke-width="1.5" d="m35 25-10-5" opacity=".8"/><text x="50" y="28" fill="#1e40af" font-family="Arial, sans-serif" font-size="20" font-weight="700">
    NeuralTrix
  </text><text x="155" y="28" fill="#06b6d4" font-family="Arial, sans-serif" font-size="20" font-weight="700">
    AI
  </text></svg>