<svg xmlns="http://www.w3.org/2000/svg" width="388" height="495" fill="none" viewBox="0 0 388 495"><path fill="#614ce1" d="m356.234 495-15.427-26.895h-33.165L292.214 495h-.742l15.84-27.473h33.825L356.977 495z"/><path fill="#fff" fill-opacity=".8" d="m356.234 495-15.427-26.895h-33.165L292.214 495h-.742l15.84-27.473h33.825L356.977 495z"/><path fill="#614ce1" d="m341.715 467.773 15.592 27.225h-.659l-15.676-27.225 16.913-29.453h29.865v.578h-29.452z"/><path fill="#fff" fill-opacity=".8" d="m341.715 467.773 15.592 27.225h-.659l-15.676-27.225 16.913-29.453h29.865v.578h-29.452z"/><path fill="#614ce1" d="m291.142 494.998 15.592-27.225-16.582-28.875h-33.165l-16.583 28.875 15.675 27.225h-.742l-15.675-27.225 16.995-29.453h33.825l16.995 29.453-15.675 27.225z"/><path fill="#fff" fill-opacity=".8" d="m291.142 494.998 15.592-27.225-16.582-28.875h-33.165l-16.583 28.875 15.675 27.225h-.742l-15.675-27.225 16.995-29.453h33.825l16.995 29.453-15.675 27.225z"/><path fill="#614ce1" d="M307.313 468.105h33.825l16.995-29.535-16.995-29.535h-33.825l-16.995 29.535zm33.495-.66h-33l-16.5-28.875 16.5-28.875h33l16.5 28.875z"/><path fill="#fff" fill-opacity=".8" d="M307.313 468.105h33.825l16.995-29.535-16.995-29.535h-33.825l-16.995 29.535zm33.495-.66h-33l-16.5-28.875 16.5-28.875h33l16.5 28.875z"/><path fill="#614ce1" d="M357.885 379.828h29.865v.66h-29.452l-16.583 28.875 16.583 28.875h29.452v.66h-29.865l-16.913-29.535z"/><path fill="#fff" fill-opacity=".8" d="M357.885 379.828h29.865v.66h-29.452l-16.583 28.875 16.583 28.875h29.452v.66h-29.865l-16.913-29.535z"/><path fill="#614ce1" d="M256.657 438.9h33.825l16.995-29.535-16.995-29.865h-33.825l-16.913 29.535zm33.495-.66h-33l-16.5-28.875 16.5-28.875h33l16.5 28.875z"/><path fill="#fff" fill-opacity=".8" d="M256.657 438.9h33.825l16.995-29.535-16.995-29.865h-33.825l-16.913 29.535zm33.495-.66h-33l-16.5-28.875 16.5-28.875h33l16.5 28.875z"/><path fill="#614ce1" d="M155.346 438.898h33.908l16.5-29.535-16.5-29.535h-33.908l-16.5 29.535zm33.578-.66h-33l-16.5-28.875 16.5-28.875h33l16.5 28.875z"/><path fill="#fff" fill-opacity=".8" d="M155.346 438.898h33.908l16.5-29.535-16.5-29.535h-33.908l-16.5 29.535zm33.578-.66h-33l-16.5-28.875 16.5-28.875h33l16.5 28.875z"/><path fill="#614ce1" d="M307.313 409.695h33.825l16.995-29.535-16.995-29.535h-33.825l-16.995 29.535zm33.495-.66h-33l-16.5-28.875 16.5-28.875h33l16.5 28.875z"/><path fill="#fff" fill-opacity=".8" d="M307.313 409.695h33.825l16.995-29.535-16.995-29.535h-33.825l-16.995 29.535zm33.495-.66h-33l-16.5-28.875 16.5-28.875h33l16.5 28.875z"/><path fill="#614ce1" d="M206.25 409.695h33.66l16.912-29.535-16.912-29.535h-33.66l-16.5 29.535zm33-.66h-33l-16.5-28.875 16.5-28.875h33l16.5 28.875z"/><path fill="#fff" fill-opacity=".8" d="M206.25 409.695h33.66l16.912-29.535-16.912-29.535h-33.66l-16.5 29.535zm33-.66h-33l-16.5-28.875 16.5-28.875h33l16.5 28.875z"/><path fill="#614ce1" d="M104.692 409.695h33.907l16.913-29.535-16.913-29.535h-33.907l-16.5 29.535zm33.577-.66h-33l-16.5-28.875 16.5-28.875h33l16.5 28.875z"/><path fill="#fff" fill-opacity=".8" d="M104.692 409.695h33.907l16.913-29.535-16.913-29.535h-33.907l-16.5 29.535zm33.577-.66h-33l-16.5-28.875 16.5-28.875h33l16.5 28.875z"/><path fill="#614ce1" d="M357.885 321.422h29.865v.66h-29.452l-16.583 28.875 16.583 28.875h29.452v.577h-29.865l-16.913-29.452z"/><path fill="#fff" fill-opacity=".8" d="M357.885 321.422h29.865v.66h-29.452l-16.583 28.875 16.583 28.875h29.452v.577h-29.865l-16.913-29.452z"/><path fill="#614ce1" d="M256.657 380.408h33.825l16.995-29.453-16.995-29.205h-33.825l-16.913 29.535zm33.495-.908h-33l-16.5-28.875 16.5-28.875h33l16.5 28.875z"/><path fill="#fff" fill-opacity=".8" d="M256.657 380.408h33.825l16.995-29.453-16.995-29.205h-33.825l-16.913 29.535zm33.495-.908h-33l-16.5-28.875 16.5-28.875h33l16.5 28.875z"/><path fill="#614ce1" d="M155.346 380.409h33.908l16.5-29.452-16.5-29.535h-33.908l-16.5 29.535zm33.578-.907h-33l-16.5-28.875 16.5-28.875h33l16.5 28.875z"/><path fill="#fff" fill-opacity=".8" d="M155.346 380.409h33.908l16.5-29.452-16.5-29.535h-33.908l-16.5 29.535zm33.578-.907h-33l-16.5-28.875 16.5-28.875h33l16.5 28.875z"/><path fill="#614ce1" d="M307.313 351.202h33.825l16.995-29.452-16.995-29.535h-33.825l-16.995 29.535zm33.495-.577h-33l-16.5-28.875 16.5-28.875h33l16.5 28.875z"/><path fill="#fff" fill-opacity=".8" d="M307.313 351.202h33.825l16.995-29.452-16.995-29.535h-33.825l-16.995 29.535zm33.495-.577h-33l-16.5-28.875 16.5-28.875h33l16.5 28.875z"/><path fill="#614ce1" d="M206.25 351.202h33.66l16.912-29.452-16.912-29.535h-33.66l-16.5 29.535zm33-.577h-33l-16.5-28.875 16.5-28.875h33l16.5 28.875z"/><path fill="#fff" fill-opacity=".8" d="M206.25 351.202h33.66l16.912-29.452-16.912-29.535h-33.66l-16.5 29.535zm33-.577h-33l-16.5-28.875 16.5-28.875h33l16.5 28.875z"/><path fill="#614ce1" d="M104.692 351.202h33.907l16.913-29.452-16.913-29.535h-33.907l-16.5 29.535zm33.577-.577h-33l-16.5-28.875 16.5-28.875h33l16.5 28.875z"/><path fill="#fff" fill-opacity=".8" d="M104.692 351.202h33.907l16.913-29.452-16.913-29.535h-33.907l-16.5 29.535zm33.577-.577h-33l-16.5-28.875 16.5-28.875h33l16.5 28.875z"/><path fill="#614ce1" d="M357.885 263.008h29.865v.577h-29.452l-16.583 28.958 16.583 28.875h29.452v.577h-29.865l-16.913-29.452z"/><path fill="#fff" fill-opacity=".8" d="M357.885 263.008h29.865v.577h-29.452l-16.583 28.958 16.583 28.875h29.452v.577h-29.865l-16.913-29.452z"/><path fill="#614ce1" d="M256.657 321.748h33.825l16.995-29.205-16.995-29.535h-33.825l-16.913 29.535zm33.495 0h-33l-16.5-28.875 16.5-28.875h33l16.5 28.875z"/><path fill="#fff" fill-opacity=".8" d="M256.657 321.748h33.825l16.995-29.205-16.995-29.535h-33.825l-16.913 29.535zm33.495 0h-33l-16.5-28.875 16.5-28.875h33l16.5 28.875z"/><path fill="#614ce1" d="M155.346 321.749h33.908l16.5-29.452-16.5-29.535h-33.908l-16.5 29.535zm33.578 0h-33l-16.5-28.875 16.5-28.875h33l16.5 28.875z"/><path fill="#fff" fill-opacity=".8" d="M155.346 321.749h33.908l16.5-29.452-16.5-29.535h-33.908l-16.5 29.535zm33.578 0h-33l-16.5-28.875 16.5-28.875h33l16.5 28.875z"/><path fill="#614ce1" d="M307.313 292.792h33.825l16.995-29.452-16.995-29.535h-33.825l-16.995 29.535zm33.495-.577h-33l-16.5-28.875 16.5-28.958h33l16.5 28.958z"/><path fill="#fff" fill-opacity=".8" d="M307.313 292.792h33.825l16.995-29.452-16.995-29.535h-33.825l-16.995 29.535zm33.495-.577h-33l-16.5-28.875 16.5-28.958h33l16.5 28.958z"/><path fill="#614ce1" d="M206.25 292.792h33.66l16.912-29.452-16.912-29.535h-33.66l-16.5 29.535zm33-.577h-33l-16.5-28.875 16.5-28.958h33l16.5 28.958z"/><path fill="#fff" fill-opacity=".8" d="M206.25 292.792h33.66l16.912-29.452-16.912-29.535h-33.66l-16.5 29.535zm33-.577h-33l-16.5-28.875 16.5-28.958h33l16.5 28.958z"/><path fill="#614ce1" d="M104.692 292.792h33.907l16.913-29.452-16.913-29.535h-33.907l-16.5 29.535zm33.577-.577h-33l-16.5-28.875 16.5-28.958h33l16.5 28.958z"/><path fill="#fff" fill-opacity=".8" d="M104.692 292.792h33.907l16.913-29.452-16.913-29.535h-33.907l-16.5 29.535zm33.577-.577h-33l-16.5-28.875 16.5-28.958h33l16.5 28.958z"/><path fill="#614ce1" d="M357.885 204.602h29.865v.577h-29.452l-16.583 28.875 16.583 28.958h29.452v.577h-29.865l-16.913-29.535z"/><path fill="#fff" fill-opacity=".8" d="M357.885 204.602h29.865v.577h-29.452l-16.583 28.875 16.583 28.958h29.452v.577h-29.865l-16.913-29.535z"/><path fill="#614ce1" d="M256.657 264.002h33.825l16.995-29.948-16.995-29.452h-33.825l-16.913 29.452zm33.495-.578h-33l-16.5-28.957 16.5-28.875h33l16.5 28.875z"/><path fill="#fff" fill-opacity=".8" d="M256.657 264.002h33.825l16.995-29.948-16.995-29.452h-33.825l-16.913 29.452zm33.495-.578h-33l-16.5-28.957 16.5-28.875h33l16.5 28.875z"/><path fill="#614ce1" d="M155.346 263.999h33.908l16.5-29.535-16.5-29.452h-33.908l-16.5 29.452zm33.578-.577h-33l-16.5-28.958 16.5-28.875h33l16.5 28.875z"/><path fill="#fff" fill-opacity=".8" d="M155.346 263.999h33.908l16.5-29.535-16.5-29.452h-33.908l-16.5 29.452zm33.578-.577h-33l-16.5-28.958 16.5-28.875h33l16.5 28.875z"/><path fill="#614ce1" d="M307.313 234.382h33.825l16.995-29.535-16.995-29.452h-33.825l-16.995 29.452zm33.495-.66h-33l-16.5-28.875 16.5-28.875h33l16.5 28.875z"/><path fill="#fff" fill-opacity=".8" d="M307.313 234.382h33.825l16.995-29.535-16.995-29.452h-33.825l-16.995 29.452zm33.495-.66h-33l-16.5-28.875 16.5-28.875h33l16.5 28.875z"/><path fill="#614ce1" d="M206.25 234.382h33.66l16.912-29.535-16.912-29.452h-33.66l-16.5 29.452zm33-.66h-33l-16.5-28.875 16.5-28.875h33l16.5 28.875z"/><path fill="#fff" fill-opacity=".8" d="M206.25 234.382h33.66l16.912-29.535-16.912-29.452h-33.66l-16.5 29.452zm33-.66h-33l-16.5-28.875 16.5-28.875h33l16.5 28.875z"/><path fill="#614ce1" d="M104.692 234.382h33.907l16.913-29.535-16.913-29.452h-33.907l-16.5 29.452zm33.577-.66h-33l-16.5-28.875 16.5-28.875h33l16.5 28.875z"/><path fill="#fff" fill-opacity=".8" d="M104.692 234.382h33.907l16.913-29.535-16.913-29.452h-33.907l-16.5 29.452zm33.577-.66h-33l-16.5-28.875 16.5-28.875h33l16.5 28.875z"/><path fill="#614ce1" d="M357.885 146.191h29.865v.578h-29.452l-16.583 28.875 16.583 28.875h29.452v.66h-29.865l-16.913-29.535z"/><path fill="#fff" fill-opacity=".8" d="M357.885 146.191h29.865v.578h-29.452l-16.583 28.875 16.583 28.875h29.452v.66h-29.865l-16.913-29.535z"/><path fill="#614ce1" d="M256.657 205.179h33.825l16.995-29.535-16.995-29.453h-33.825l-16.913 29.453zm33.495-.66h-33l-16.5-28.875 16.5-28.875h33l16.5 28.875z"/><path fill="#fff" fill-opacity=".8" d="M256.657 205.179h33.825l16.995-29.535-16.995-29.453h-33.825l-16.913 29.453zm33.495-.66h-33l-16.5-28.875 16.5-28.875h33l16.5 28.875z"/><path fill="#614ce1" d="M155.346 205.179h33.908l16.5-29.535-16.5-29.453h-33.908l-16.5 29.453zm33.578-.66h-33l-16.5-28.875 16.5-28.875h33l16.5 28.875z"/><path fill="#fff" fill-opacity=".8" d="M155.346 205.179h33.908l16.5-29.535-16.5-29.453h-33.908l-16.5 29.453zm33.578-.66h-33l-16.5-28.875 16.5-28.875h33l16.5 28.875z"/><path fill="#614ce1" d="M307.313 175.972h33.825l16.995-29.535-16.995-29.453h-33.825l-16.995 29.453zm33.495-.66h-33l-16.5-28.875 16.5-28.875h33l16.5 28.875z"/><path fill="#fff" fill-opacity=".8" d="M307.313 175.972h33.825l16.995-29.535-16.995-29.453h-33.825l-16.995 29.453zm33.495-.66h-33l-16.5-28.875 16.5-28.875h33l16.5 28.875z"/><path fill="#614ce1" d="M206.25 175.972h33.66l16.912-29.535-16.912-29.453h-33.66l-16.5 29.453zm33-.66h-33l-16.5-28.875 16.5-28.875h33l16.5 28.875z"/><path fill="#fff" fill-opacity=".8" d="M206.25 175.972h33.66l16.912-29.535-16.912-29.453h-33.66l-16.5 29.453zm33-.66h-33l-16.5-28.875 16.5-28.875h33l16.5 28.875z"/><path fill="#614ce1" d="M104.692 175.972h33.907l16.913-29.535-16.913-29.453h-33.907l-16.5 29.453zm33.577-.66h-33l-16.5-28.875 16.5-28.875h33l16.5 28.875z"/><path fill="#fff" fill-opacity=".8" d="M104.692 175.972h33.907l16.913-29.535-16.913-29.453h-33.907l-16.5 29.453zm33.577-.66h-33l-16.5-28.875 16.5-28.875h33l16.5 28.875z"/><path fill="#614ce1" d="M357.885 87.695h29.865v.66h-29.452l-16.583 28.875 16.583 28.875h29.452v.66h-29.865l-16.913-29.535z"/><path fill="#fff" fill-opacity=".8" d="M357.885 87.695h29.865v.66h-29.452l-16.583 28.875 16.583 28.875h29.452v.66h-29.865l-16.913-29.535z"/><path fill="#614ce1" d="M256.657 146.765h33.825l16.995-29.535-16.995-29.535h-33.825l-16.913 29.535zm33.495-.66h-33l-16.5-28.875 16.5-28.875h33l16.5 28.875z"/><path fill="#fff" fill-opacity=".8" d="M256.657 146.765h33.825l16.995-29.535-16.995-29.535h-33.825l-16.913 29.535zm33.495-.66h-33l-16.5-28.875 16.5-28.875h33l16.5 28.875z"/><path fill="#614ce1" d="M155.346 146.765h33.908l16.5-29.535-16.5-29.535h-33.908l-16.5 29.535zm33.578-.66h-33l-16.5-28.875 16.5-28.875h33l16.5 28.875z"/><path fill="#fff" fill-opacity=".8" d="M155.346 146.765h33.908l16.5-29.535-16.5-29.535h-33.908l-16.5 29.535zm33.578-.66h-33l-16.5-28.875 16.5-28.875h33l16.5 28.875z"/><path fill="#614ce1" d="M104.692 117.562h33.907l16.913-29.535-16.913-29.535h-33.907l-16.5 29.535zm33.577-.66h-33l-16.5-28.875 16.5-28.875h33l16.5 28.875z"/><path fill="#fff" fill-opacity=".8" d="M104.692 117.562h33.907l16.913-29.535-16.913-29.535h-33.907l-16.5 29.535zm33.577-.66h-33l-16.5-28.875 16.5-28.875h33l16.5 28.875z"/><path fill="#614ce1" d="M357.885 29.29h29.865v.66h-29.452l-16.583 28.874L358.298 87.7h29.452v.66h-29.865l-16.913-29.535z"/><path fill="#fff" fill-opacity=".8" d="M357.885 29.29h29.865v.66h-29.452l-16.583 28.874L358.298 87.7h29.452v.66h-29.865l-16.913-29.535z"/><path fill="#614ce1" d="M104.692 59.07h33.907l16.913-29.452L138.599 0h-33.907l-16.5 29.535zm33.577-.578h-33l-16.5-28.874L105.27.742h33l16.5 28.875z"/><path fill="#fff" fill-opacity=".8" d="M104.692 59.07h33.907l16.913-29.452L138.599 0h-33.907l-16.5 29.535zm33.577-.578h-33l-16.5-28.874L105.27.742h33l16.5 28.875z"/><path fill="#614ce1" d="M341.22 0h.742l-.247.413 16.583 28.875h29.452v.577h-29.865L340.972.413z"/><path fill="#fff" fill-opacity=".8" d="M341.22 0h.742l-.247.413 16.583 28.875h29.452v.577h-29.865L340.972.413z"/><path fill="#614ce1" d="m105.022 0 .082.083h33.165V0h.743l-.413.66h-33.825l-.412-.66z"/><path fill="#fff" fill-opacity=".8" d="m105.022 0 .082.083h33.165V0h.743l-.413.66h-33.825l-.412-.66z"/><g opacity=".58"><path fill="#614ce1" d="M359.288 495.001h-.66l15.839-27.638h13.283v.66h-12.953z"/><path fill="#fff" fill-opacity=".8" d="M359.288 495.001h-.66l15.839-27.638h13.283v.66h-12.953z"/></g><g opacity=".8"><path fill="#614ce1" d="m220.851 495.001-15.427-26.978h-33.165l-15.51 26.978h-.743l15.923-27.638h33.825l15.84 27.638z"/><path fill="#fff" fill-opacity=".8" d="m220.851 495.001-15.427-26.978h-33.165l-15.51 26.978h-.743l15.923-27.638h33.825l15.84 27.638z"/></g><g opacity=".95"><path fill="#614ce1" d="m119.625 495.001-15.51-26.978H70.95l-15.428 26.978h-.742l15.84-27.638h33.907l15.84 27.638z"/><path fill="#fff" fill-opacity=".8" d="m119.625 495.001-15.51-26.978H70.95l-15.428 26.978h-.742l15.84-27.638h33.907l15.84 27.638z"/></g><g opacity=".86"><path fill="#614ce1" d="m155.676 494.999 15.675-27.308-16.582-28.875h-33.165l-16.583 28.875 15.675 27.308h-.742l-15.593-27.308 16.913-29.535h33.825l16.995 29.535-15.675 27.308z"/><path fill="#fff" fill-opacity=".8" d="m155.676 494.999 15.675-27.308-16.582-28.875h-33.165l-16.583 28.875 15.675 27.308h-.742l-15.593-27.308 16.913-29.535h33.825l16.995 29.535-15.675 27.308z"/></g><g opacity=".49"><path fill="#614ce1" d="m54.368 494.999 15.675-27.308-16.583-28.875H20.378L3.795 467.691l15.675 27.308h-.742L3.053 467.691l16.912-29.535h33.908l16.912 29.535-15.675 27.308z"/><path fill="#fff" fill-opacity=".8" d="m54.368 494.999 15.675-27.308-16.583-28.875H20.378L3.795 467.691l15.675 27.308h-.742L3.053 467.691l16.912-29.535h33.908l16.912 29.535-15.675 27.308z"/></g><g opacity=".33"><path fill="#614ce1" d="M374.467 408.953h13.283v.66h-12.953l-16.582 28.875 16.582 28.875h12.953v.66h-13.283l-16.995-29.535z"/><path fill="#fff" fill-opacity=".8" d="M374.467 408.953h13.283v.66h-12.953l-16.582 28.875 16.582 28.875h12.953v.66h-13.283l-16.995-29.535z"/></g><g opacity=".71"><path fill="#614ce1" d="M171.929 468.023h33.825l16.5-29.535-16.5-29.535h-33.825l-16.995 29.535zm33.495-.66h-33l-16.5-28.875 16.5-28.875h33l16.5 28.875z"/><path fill="#fff" fill-opacity=".8" d="M171.929 468.023h33.825l16.5-29.535-16.5-29.535h-33.825l-16.995 29.535zm33.495-.66h-33l-16.5-28.875 16.5-28.875h33l16.5 28.875z"/></g><g opacity=".73"><path fill="#614ce1" d="M70.62 468.023h33.907l16.5-29.535-16.5-29.535H70.62l-16.913 29.535zm33.495-.66h-33l-16.5-28.875 16.5-28.875h33l16.5 28.875z"/><path fill="#fff" fill-opacity=".8" d="M70.62 468.023h33.907l16.5-29.535-16.5-29.535H70.62l-16.913 29.535zm33.495-.66h-33l-16.5-28.875 16.5-28.875h33l16.5 28.875z"/></g><g opacity=".64"><path fill="#614ce1" d="M121.274 438.735h33.825l16.995-29.452-16.995-29.783h-33.825l-16.995 29.535zm33.495-.577h-33l-16.5-28.875 16.5-28.875h33l16.5 28.875z"/><path fill="#fff" fill-opacity=".8" d="M121.274 438.735h33.825l16.995-29.452-16.995-29.783h-33.825l-16.995 29.535zm33.495-.577h-33l-16.5-28.875 16.5-28.875h33l16.5 28.875z"/></g><g opacity=".22"><path fill="#614ce1" d="M374.467 350.543h13.283v.66h-12.953l-16.582 28.875 16.582 28.875h12.953v.577h-13.283l-16.995-29.452z"/><path fill="#fff" fill-opacity=".8" d="M374.467 350.543h13.283v.66h-12.953l-16.582 28.875 16.582 28.875h12.953v.577h-13.283l-16.995-29.452z"/></g><g opacity=".86"><path fill="#614ce1" d="M273.159 409.53h33.907l16.5-29.452-16.5-29.535h-33.907l-16.5 29.535zm33.495-.577h-33l-16.5-28.875 16.5-28.875h33l16.5 28.875z"/><path fill="#fff" fill-opacity=".8" d="M273.159 409.53h33.907l16.5-29.452-16.5-29.535h-33.907l-16.5 29.535zm33.495-.577h-33l-16.5-28.875 16.5-28.875h33l16.5 28.875z"/></g><g opacity=".96"><path fill="#614ce1" d="M171.929 409.53h33.825l16.5-29.452-16.5-29.535h-33.825l-16.995 29.535zm33.495-.577h-33l-16.5-28.875 16.5-28.875h33l16.5 28.875z"/><path fill="#fff" fill-opacity=".8" d="M171.929 409.53h33.825l16.5-29.452-16.5-29.535h-33.825l-16.995 29.535zm33.495-.577h-33l-16.5-28.875 16.5-28.875h33l16.5 28.875z"/></g><g opacity=".38"><path fill="#614ce1" d="M323.813 380.325h33.825l16.995-29.453-16.995-29.122h-33.825L306.9 350.872zm33.495-.825h-33l-16.5-28.875 16.5-28.875h33l16.5 28.875z"/><path fill="#fff" fill-opacity=".8" d="M323.813 380.325h33.825l16.995-29.453-16.995-29.122h-33.825L306.9 350.872zm33.495-.825h-33l-16.5-28.875 16.5-28.875h33l16.5 28.875z"/></g><g opacity=".7"><path fill="#614ce1" d="M222.75 380.325h33.66l16.912-29.453-16.912-29.122h-33.66l-16.5 29.535zm33-.825h-33l-16.5-28.875 16.5-28.875h33l16.5 28.875z"/><path fill="#fff" fill-opacity=".8" d="M222.75 380.325h33.66l16.912-29.453-16.912-29.122h-33.66l-16.5 29.535zm33-.825h-33l-16.5-28.875 16.5-28.875h33l16.5 28.875z"/></g><g opacity=".95"><path fill="#614ce1" d="M121.274 380.325h33.825l16.995-29.453-16.995-29.122h-33.825l-16.995 29.535zm33.495-.825h-33l-16.5-28.875 16.5-28.875h33l16.5 28.875z"/><path fill="#fff" fill-opacity=".8" d="M121.274 380.325h33.825l16.995-29.453-16.995-29.122h-33.825l-16.995 29.535zm33.495-.825h-33l-16.5-28.875 16.5-28.875h33l16.5 28.875z"/></g><g opacity=".45"><path fill="#614ce1" d="M374.467 292.133h13.283v.577h-12.953l-16.582 28.875 16.582 28.958h12.953v.577h-13.283l-16.995-29.535z"/><path fill="#fff" fill-opacity=".8" d="M374.467 292.133h13.283v.577h-12.953l-16.582 28.875 16.582 28.958h12.953v.577h-13.283l-16.995-29.535z"/></g><g opacity=".73"><path fill="#614ce1" d="M273.157 351.12h33.907l16.913-29.37-16.5-29.535h-33.908l-16.5 29.535zm33.495-.578h-33l-16.5-28.875 16.5-28.875h33l16.5 28.875z"/><path fill="#fff" fill-opacity=".8" d="M273.157 351.12h33.907l16.913-29.37-16.5-29.535h-33.908l-16.5 29.535zm33.495-.578h-33l-16.5-28.875 16.5-28.875h33l16.5 28.875z"/></g><g opacity=".81"><path fill="#614ce1" d="M171.93 351.12h33.825l16.995-29.37-16.5-29.535h-33.825l-17.49 29.535zm33.495-.578h-33l-16.5-28.875 16.5-28.875h33l16.5 28.875z"/><path fill="#fff" fill-opacity=".8" d="M171.93 351.12h33.825l16.995-29.37-16.5-29.535h-33.825l-17.49 29.535zm33.495-.578h-33l-16.5-28.875 16.5-28.875h33l16.5 28.875z"/></g><g opacity=".24"><path fill="#614ce1" d="M70.62 351.12h33.907l16.5-29.452-16.5-29.535H70.62L53.707 321.75zm33.495-.577h-33l-16.5-28.875 16.5-28.875h33l16.5 28.875z"/><path fill="#fff" fill-opacity=".8" d="M70.62 351.12h33.907l16.5-29.452-16.5-29.535H70.62L53.707 321.75zm33.495-.577h-33l-16.5-28.875 16.5-28.875h33l16.5 28.875z"/></g><g opacity=".25"><path fill="#614ce1" d="M323.813 321.752h33.825l16.995-29.37-16.995-29.452h-33.825L306.9 292.382zm33.495 0h-33l-16.5-28.957 16.5-28.875h33l16.5 28.875z"/><path fill="#fff" fill-opacity=".8" d="M323.813 321.752h33.825l16.995-29.37-16.995-29.452h-33.825L306.9 292.382zm33.495 0h-33l-16.5-28.957 16.5-28.875h33l16.5 28.875z"/></g><g opacity=".95"><path fill="#614ce1" d="M222.75 321.749h33.66l16.912-29.535-16.912-29.452h-33.66l-16.5 29.452zm33 0h-33l-16.5-28.957 16.5-28.875h33l16.5 28.875z"/><path fill="#fff" fill-opacity=".8" d="M222.75 321.749h33.66l16.912-29.535-16.912-29.452h-33.66l-16.5 29.452zm33 0h-33l-16.5-28.957 16.5-28.875h33l16.5 28.875z"/></g><g opacity=".37"><path fill="#614ce1" d="M121.274 321.749h33.825l16.995-29.535-16.995-29.452h-33.825l-16.995 29.452zm33.495 0h-33l-16.5-28.957 16.5-28.875h33l16.5 28.875z"/><path fill="#fff" fill-opacity=".8" d="M121.274 321.749h33.825l16.995-29.535-16.995-29.452h-33.825l-16.995 29.452zm33.495 0h-33l-16.5-28.957 16.5-28.875h33l16.5 28.875z"/></g><g opacity=".95"><path fill="#614ce1" d="M374.467 233.723h13.283v.577h-12.953l-16.582 28.875 16.582 28.875h12.953v.66h-13.283l-16.995-29.535z"/><path fill="#fff" fill-opacity=".8" d="M374.467 233.723h13.283v.577h-12.953l-16.582 28.875 16.582 28.875h12.953v.66h-13.283l-16.995-29.535z"/></g><g opacity=".95"><path fill="#614ce1" d="M273.159 292.71h33.907l16.5-29.535-16.5-29.452h-33.907l-16.5 29.452zm33.495-.66h-33l-16.5-28.875 16.5-28.875h33l16.5 28.875z"/><path fill="#fff" fill-opacity=".8" d="M273.159 292.71h33.907l16.5-29.535-16.5-29.452h-33.907l-16.5 29.452zm33.495-.66h-33l-16.5-28.875 16.5-28.875h33l16.5 28.875z"/></g><g opacity=".53"><path fill="#614ce1" d="M171.93 292.71h33.825l16.995-29.535-16.5-29.452h-33.825l-16.995 29.452zm33.495-.66h-33l-16.5-28.875 16.5-28.875h33l16.5 28.875z"/><path fill="#fff" fill-opacity=".8" d="M171.93 292.71h33.825l16.995-29.535-16.5-29.452h-33.825l-16.995 29.452zm33.495-.66h-33l-16.5-28.875 16.5-28.875h33l16.5 28.875z"/></g><g opacity=".94"><path fill="#614ce1" d="M70.62 292.71h33.907l16.5-29.535-16.5-29.452H70.62l-16.913 29.452zm33.495-.66h-33l-16.5-28.875 16.5-28.875h33l16.5 28.875z"/><path fill="#fff" fill-opacity=".8" d="M70.62 292.71h33.907l16.5-29.535-16.5-29.452H70.62l-16.913 29.452zm33.495-.66h-33l-16.5-28.875 16.5-28.875h33l16.5 28.875z"/></g><g opacity=".5"><path fill="#614ce1" d="M323.813 263.503h33.825l16.995-29.535-16.995-29.452h-33.825L306.9 233.968zm33.495-.66h-33l-16.5-28.875 16.5-28.875h33l16.5 28.875z"/><path fill="#fff" fill-opacity=".8" d="M323.813 263.503h33.825l16.995-29.535-16.995-29.452h-33.825L306.9 233.968zm33.495-.66h-33l-16.5-28.875 16.5-28.875h33l16.5 28.875z"/></g><g opacity=".28"><path fill="#614ce1" d="M222.75 263.503h33.66l16.912-29.535-16.912-29.452h-33.66l-16.5 29.452zm33-.66h-33l-16.5-28.875 16.5-28.875h33l16.5 28.875z"/><path fill="#fff" fill-opacity=".8" d="M222.75 263.503h33.66l16.912-29.535-16.912-29.452h-33.66l-16.5 29.452zm33-.66h-33l-16.5-28.875 16.5-28.875h33l16.5 28.875z"/></g><g opacity=".46"><path fill="#614ce1" d="M121.274 263.503h33.825l16.995-29.535-16.995-29.452h-33.825l-16.995 29.452zm33.495-.66h-33l-16.5-28.875 16.5-28.875h33l16.5 28.875z"/><path fill="#fff" fill-opacity=".8" d="M121.274 263.503h33.825l16.995-29.535-16.995-29.452h-33.825l-16.995 29.452zm33.495-.66h-33l-16.5-28.875 16.5-28.875h33l16.5 28.875z"/></g><g opacity=".4"><path fill="#614ce1" d="M374.467 175.312h13.283v.578h-12.953l-16.582 28.875 16.582 28.875h12.953v.66h-13.283l-16.995-29.535z"/><path fill="#fff" fill-opacity=".8" d="M374.467 175.312h13.283v.578h-12.953l-16.582 28.875 16.582 28.875h12.953v.66h-13.283l-16.995-29.535z"/></g><g opacity=".23"><path fill="#614ce1" d="M273.159 234.3h33.907l16.5-29.535-16.5-29.453h-33.907l-16.5 29.453zm33.495-.66h-33l-16.5-28.875 16.5-28.875h33l16.5 28.875z"/><path fill="#fff" fill-opacity=".8" d="M273.159 234.3h33.907l16.5-29.535-16.5-29.453h-33.907l-16.5 29.453zm33.495-.66h-33l-16.5-28.875 16.5-28.875h33l16.5 28.875z"/></g><g opacity=".56"><path fill="#614ce1" d="M171.929 234.3h33.825l16.5-29.535-16.5-29.453h-33.825l-16.995 29.453zm33.495-.66h-33l-16.5-28.875 16.5-28.875h33l16.5 28.875z"/><path fill="#fff" fill-opacity=".8" d="M171.929 234.3h33.825l16.5-29.535-16.5-29.453h-33.825l-16.995 29.453zm33.495-.66h-33l-16.5-28.875 16.5-28.875h33l16.5 28.875z"/></g><g opacity=".23"><path fill="#614ce1" d="M323.813 205.097h33.825l16.995-29.535-16.995-29.453h-33.825L306.9 175.562zm33.495-.66h-33l-16.5-28.875 16.5-28.875h33l16.5 28.875z"/><path fill="#fff" fill-opacity=".8" d="M323.813 205.097h33.825l16.995-29.535-16.995-29.453h-33.825L306.9 175.562zm33.495-.66h-33l-16.5-28.875 16.5-28.875h33l16.5 28.875z"/></g><g opacity=".92"><path fill="#614ce1" d="M222.75 205.097h33.66l16.912-29.535-16.912-29.453h-33.66l-16.5 29.453zm33-.66h-33l-16.5-28.875 16.5-28.875h33l16.5 28.875z"/><path fill="#fff" fill-opacity=".8" d="M222.75 205.097h33.66l16.912-29.535-16.912-29.453h-33.66l-16.5 29.453zm33-.66h-33l-16.5-28.875 16.5-28.875h33l16.5 28.875z"/></g><g opacity=".47"><path fill="#614ce1" d="M121.274 205.097h33.825l16.995-29.535-16.995-29.453h-33.825l-16.995 29.453zm33.495-.66h-33l-16.5-28.875 16.5-28.875h33l16.5 28.875z"/><path fill="#fff" fill-opacity=".8" d="M121.274 205.097h33.825l16.995-29.535-16.995-29.453h-33.825l-16.995 29.453zm33.495-.66h-33l-16.5-28.875 16.5-28.875h33l16.5 28.875z"/></g><g opacity=".46"><path fill="#614ce1" d="M19.964 205.097H53.87l16.5-29.535-16.5-29.453H19.964L3.05 175.562zm33.495-.66h-33l-16.5-28.875 16.5-28.875h33l16.5 28.875z"/><path fill="#fff" fill-opacity=".8" d="M19.964 205.097H53.87l16.5-29.535-16.5-29.453H19.964L3.05 175.562zm33.495-.66h-33l-16.5-28.875 16.5-28.875h33l16.5 28.875z"/></g><g opacity=".66"><path fill="#614ce1" d="M374.467 116.82h13.283v.66h-12.953l-16.582 28.875 16.582 28.875h12.953v.66h-13.283l-16.995-29.535z"/><path fill="#fff" fill-opacity=".8" d="M374.467 116.82h13.283v.66h-12.953l-16.582 28.875 16.582 28.875h12.953v.66h-13.283l-16.995-29.535z"/></g><g opacity=".88"><path fill="#614ce1" d="M273.159 175.89h33.907l16.5-29.535-16.5-29.535h-33.907l-16.5 29.535zm33.495-.66h-33l-16.5-28.875 16.5-28.875h33l16.5 28.875z"/><path fill="#fff" fill-opacity=".8" d="M273.159 175.89h33.907l16.5-29.535-16.5-29.535h-33.907l-16.5 29.535zm33.495-.66h-33l-16.5-28.875 16.5-28.875h33l16.5 28.875z"/></g><g opacity=".74"><path fill="#614ce1" d="M171.929 175.89h33.825l16.5-29.535-16.5-29.535h-33.825l-16.995 29.535zm33.495-.66h-33l-16.5-28.875 16.5-28.875h33l16.5 28.875z"/><path fill="#fff" fill-opacity=".8" d="M171.929 175.89h33.825l16.5-29.535-16.5-29.535h-33.825l-16.995 29.535zm33.495-.66h-33l-16.5-28.875 16.5-28.875h33l16.5 28.875z"/></g><g opacity=".35"><path fill="#614ce1" d="M70.62 175.89h33.907l16.5-29.535-16.5-29.535H70.62l-16.913 29.535zm33.495-.66h-33l-16.5-28.875 16.5-28.875h33l16.5 28.875z"/><path fill="#fff" fill-opacity=".8" d="M70.62 175.89h33.907l16.5-29.535-16.5-29.535H70.62l-16.913 29.535zm33.495-.66h-33l-16.5-28.875 16.5-28.875h33l16.5 28.875z"/></g><g opacity=".82"><path fill="#614ce1" d="M323.813 146.687h33.825l16.995-29.535-16.995-29.535h-33.825L306.9 117.152zm33.495-.66h-33l-16.5-28.875 16.5-28.875h33l16.5 28.875z"/><path fill="#fff" fill-opacity=".8" d="M323.813 146.687h33.825l16.995-29.535-16.995-29.535h-33.825L306.9 117.152zm33.495-.66h-33l-16.5-28.875 16.5-28.875h33l16.5 28.875z"/></g><g opacity=".82"><path fill="#614ce1" d="M222.75 146.687h33.66l16.912-29.535-16.912-29.535h-33.66l-16.5 29.535zm33-.66h-33l-16.5-28.875 16.5-28.875h33l16.5 28.875z"/><path fill="#fff" fill-opacity=".8" d="M222.75 146.687h33.66l16.912-29.535-16.912-29.535h-33.66l-16.5 29.535zm33-.66h-33l-16.5-28.875 16.5-28.875h33l16.5 28.875z"/></g><g opacity=".75"><path fill="#614ce1" d="M121.274 146.687h33.825l16.995-29.535-16.995-29.535h-33.825l-16.995 29.535zm33.495-.66h-33l-16.5-28.875 16.5-28.875h33l16.5 28.875z"/><path fill="#fff" fill-opacity=".8" d="M121.274 146.687h33.825l16.995-29.535-16.995-29.535h-33.825l-16.995 29.535zm33.495-.66h-33l-16.5-28.875 16.5-28.875h33l16.5 28.875z"/></g><g opacity=".61"><path fill="#614ce1" d="M374.467 58.41h13.283v.66h-12.953l-16.582 28.875 16.582 28.875h12.953v.578h-13.283l-16.995-29.453z"/><path fill="#fff" fill-opacity=".8" d="M374.467 58.41h13.283v.66h-12.953l-16.582 28.875 16.582 28.875h12.953v.578h-13.283l-16.995-29.453z"/></g><g opacity=".98"><path fill="#614ce1" d="M273.159 117.398h33.907l16.5-29.453-16.5-29.535h-33.907l-16.5 29.535zm33.495-.578h-33l-16.5-28.875 16.5-28.875h33l16.5 28.875z"/><path fill="#fff" fill-opacity=".8" d="M273.159 117.398h33.907l16.5-29.453-16.5-29.535h-33.907l-16.5 29.535zm33.495-.578h-33l-16.5-28.875 16.5-28.875h33l16.5 28.875z"/></g><g opacity=".64"><path fill="#614ce1" d="M171.929 117.398h33.825l16.5-29.453-16.5-29.535h-33.825l-16.995 29.535zm33.495-.578h-33l-16.5-28.875 16.5-28.875h33l16.5 28.875z"/><path fill="#fff" fill-opacity=".8" d="M171.929 117.398h33.825l16.5-29.453-16.5-29.535h-33.825l-16.995 29.535zm33.495-.578h-33l-16.5-28.875 16.5-28.875h33l16.5 28.875z"/></g><g opacity=".4"><path fill="#614ce1" d="M70.62 117.398h33.907l16.5-29.453-16.5-29.535H70.62L53.707 87.945zm33.495-.578h-33l-16.5-28.875 16.5-28.875h33l16.5 28.875z"/><path fill="#fff" fill-opacity=".8" d="M70.62 117.398h33.907l16.5-29.453-16.5-29.535H70.62L53.707 87.945zm33.495-.578h-33l-16.5-28.875 16.5-28.875h33l16.5 28.875z"/></g><g opacity=".56"><path fill="#614ce1" d="M323.813 88.19h33.825l16.995-29.452-16.995-29.535h-33.825L306.9 58.738zm33.495-.577h-33l-16.5-28.875 16.5-28.875h33l16.5 28.875z"/><path fill="#fff" fill-opacity=".8" d="M323.813 88.19h33.825l16.995-29.452-16.995-29.535h-33.825L306.9 58.738zm33.495-.577h-33l-16.5-28.875 16.5-28.875h33l16.5 28.875z"/></g><g opacity=".51"><path fill="#614ce1" d="M222.75 88.19h33.66l16.912-29.452-16.912-29.535h-33.66l-16.5 29.535zm33-.577h-33l-16.5-28.875 16.5-28.875h33l16.5 28.875z"/><path fill="#fff" fill-opacity=".8" d="M222.75 88.19h33.66l16.912-29.452-16.912-29.535h-33.66l-16.5 29.535zm33-.577h-33l-16.5-28.875 16.5-28.875h33l16.5 28.875z"/></g><g opacity=".89"><path fill="#614ce1" d="M121.274 88.19h33.825l16.995-29.452-16.995-29.535h-33.825l-16.995 29.535zm33.495-.577h-33l-16.5-28.875 16.5-28.875h33l16.5 28.875z"/><path fill="#fff" fill-opacity=".8" d="M121.274 88.19h33.825l16.995-29.452-16.995-29.535h-33.825l-16.995 29.535zm33.495-.577h-33l-16.5-28.875 16.5-28.875h33l16.5 28.875z"/></g><g opacity=".29"><path fill="#614ce1" d="M19.964 88.19H53.87l16.5-29.452-16.5-29.535H19.964L3.05 58.738zm33.495-.577h-33l-16.5-28.875 16.5-28.875h33l16.5 28.875z"/><path fill="#fff" fill-opacity=".8" d="M19.964 88.19H53.87l16.5-29.452-16.5-29.535H19.964L3.05 58.738zm33.495-.577h-33l-16.5-28.875 16.5-28.875h33l16.5 28.875z"/></g><g opacity=".47"><path fill="#614ce1" d="M374.467 0h13.283v.66h-12.953l-16.582 28.875 16.582 28.875h12.953v.578h-13.283l-16.995-29.453z"/><path fill="#fff" fill-opacity=".8" d="M374.467 0h13.283v.66h-12.953l-16.582 28.875 16.582 28.875h12.953v.578h-13.283l-16.995-29.453z"/></g><g opacity=".6"><path fill="#614ce1" d="M273.159 58.988h33.907l16.5-29.453L307.066 0h-33.907l-16.5 29.535zm33.495-.578h-33l-16.5-28.875L273.654.66h33l16.5 28.875z"/><path fill="#fff" fill-opacity=".8" d="M273.159 58.988h33.907l16.5-29.453L307.066 0h-33.907l-16.5 29.535zm33.495-.578h-33l-16.5-28.875L273.654.66h33l16.5 28.875z"/></g><g opacity=".49"><path fill="#614ce1" d="M171.93 58.988h33.825l16.995-29.453L206.25 0h-33.825L155.43 29.535zm33.495-.578h-33l-16.5-28.875L172.425.66h33l16.5 28.875z"/><path fill="#fff" fill-opacity=".8" d="M171.93 58.988h33.825l16.995-29.453L206.25 0h-33.825L155.43 29.535zm33.495-.578h-33l-16.5-28.875L172.425.66h33l16.5 28.875z"/></g><g opacity=".58"><path fill="#614ce1" d="M70.62 58.988h33.907l16.5-29.453L104.527 0H70.62L53.707 29.535zm33.495-.578h-33l-16.5-28.875L71.115.66h33l16.5 28.875z"/><path fill="#fff" fill-opacity=".8" d="M70.62 58.988h33.907l16.5-29.453L104.527 0H70.62L53.707 29.535zm33.495-.578h-33l-16.5-28.875L71.115.66h33l16.5 28.875z"/></g><g opacity=".62"><path fill="#614ce1" d="m307.725 0-.165.33 16.583 28.875h33.165L373.89.33l-.165-.33h.743l.165.33-16.995 29.453h-33.825L306.9.33l.165-.33z"/><path fill="#fff" fill-opacity=".8" d="m307.725 0-.165.33 16.583 28.875h33.165L373.89.33l-.165-.33h.743l.165.33-16.995 29.453h-33.825L306.9.33l.165-.33z"/></g><g opacity=".6"><path fill="#614ce1" d="m206.497 0-.165.33 16.583 28.875h33.165L272.662.33l-.165-.33h.66l.165.33-16.912 29.453h-33.908L205.59.33l.165-.33z"/><path fill="#fff" fill-opacity=".8" d="m206.497 0-.165.33 16.583 28.875h33.165L272.662.33l-.165-.33h.66l.165.33-16.912 29.453h-33.908L205.59.33l.165-.33z"/></g><g opacity=".54"><path fill="#614ce1" d="m105.186 0-.165.33 16.583 28.875h33.165L171.351.33l-.165-.33h.743l.165.33-16.995 29.453h-33.825L104.361.33l.083-.33z"/><path fill="#fff" fill-opacity=".8" d="m105.186 0-.165.33 16.583 28.875h33.165L171.351.33l-.165-.33h.743l.165.33-16.995 29.453h-33.825L104.361.33l.083-.33z"/></g><g opacity=".57"><path fill="#614ce1" d="m3.96 0-.165.33 16.583 28.875H53.46L70.043.33 69.878 0h.742l.165.33-16.912 29.453H19.965L3.053.33 3.218 0z"/><path fill="#fff" fill-opacity=".8" d="m3.96 0-.165.33 16.583 28.875H53.46L70.043.33 69.878 0h.742l.165.33-16.912 29.453H19.965L3.053.33 3.218 0z"/></g><g opacity=".84"><path fill="#614ce1" d="M118.798 494.998a2.98 2.98 0 0 1 2.31-1.072 2.89 2.89 0 0 1 2.228 1.072z"/><path fill="#fff" fill-opacity=".8" d="M118.798 494.998a2.98 2.98 0 0 1 2.31-1.072 2.89 2.89 0 0 1 2.228 1.072z"/></g><g opacity=".78"><path fill="#614ce1" d="M169.042 467.694a3.054 3.054 0 0 0 3.053 3.052 3.13 3.13 0 0 0 2.628-3.094 3.135 3.135 0 0 0-2.628-3.093 3 3 0 0 0-1.188.24 3.04 3.04 0 0 0-1.657 1.701c-.148.38-.219.786-.208 1.194"/><path fill="#fff" fill-opacity=".8" d="M169.042 467.694a3.054 3.054 0 0 0 3.053 3.052 3.13 3.13 0 0 0 2.628-3.094 3.135 3.135 0 0 0-2.628-3.093 3 3 0 0 0-1.188.24 3.04 3.04 0 0 0-1.657 1.701c-.148.38-.219.786-.208 1.194"/></g><g opacity=".22"><path fill="#614ce1" d="M101.145 467.692a3.21 3.21 0 0 0 .727 2.599 3.2 3.2 0 0 0 2.45 1.132 3.22 3.22 0 0 0 3.176-3.731 3.21 3.21 0 0 0-.726-2.599 3.22 3.22 0 0 0-5.549 1.22 3.2 3.2 0 0 0-.078 1.379"/><path fill="#fff" fill-opacity=".8" d="M101.145 467.692a3.21 3.21 0 0 0 .727 2.599 3.2 3.2 0 0 0 2.45 1.132 3.22 3.22 0 0 0 3.176-3.731 3.21 3.21 0 0 0-.726-2.599 3.22 3.22 0 0 0-5.549 1.22 3.2 3.2 0 0 0-.078 1.379"/></g><g opacity=".95"><path fill="#614ce1" d="M269.692 350.873a3.633 3.633 0 0 0 3.63 3.63 3.63 3.63 0 0 0 3.63-3.63 3.56 3.56 0 0 0-1.038-2.592 3.6 3.6 0 0 0-1.189-.785 3.6 3.6 0 0 0-1.403-.253 3.633 3.633 0 0 0-3.63 3.63"/><path fill="#fff" fill-opacity=".8" d="M269.692 350.873a3.633 3.633 0 0 0 3.63 3.63 3.63 3.63 0 0 0 3.63-3.63 3.56 3.56 0 0 0-1.038-2.592 3.6 3.6 0 0 0-1.189-.785 3.6 3.6 0 0 0-1.403-.253 3.633 3.633 0 0 0-3.63 3.63"/></g><g opacity=".32"><path fill="#614ce1" d="M168.301 350.873a3.876 3.876 0 0 0 3.795 3.795 3.8 3.8 0 0 0 3.795-3.795 3.793 3.793 0 0 0-3.795-3.795 3.876 3.876 0 0 0-3.795 3.795"/><path fill="#fff" fill-opacity=".8" d="M168.301 350.873a3.876 3.876 0 0 0 3.795 3.795 3.8 3.8 0 0 0 3.795-3.795 3.793 3.793 0 0 0-3.795-3.795 3.876 3.876 0 0 0-3.795 3.795"/></g><g opacity=".96"><path fill="#614ce1" d="M320.842 380.077c.017.616.214 1.214.568 1.719a3.14 3.14 0 0 0 4.812.386 3.14 3.14 0 0 0 .643-3.406 3.14 3.14 0 0 0-4.107-1.67 3.13 3.13 0 0 0-1.916 2.971"/><path fill="#fff" fill-opacity=".8" d="M320.842 380.077c.017.616.214 1.214.568 1.719a3.14 3.14 0 0 0 4.812.386 3.14 3.14 0 0 0 .643-3.406 3.14 3.14 0 0 0-4.107-1.67 3.13 3.13 0 0 0-1.916 2.971"/></g><g opacity=".44"><path fill="#614ce1" d="M219.864 380.077a2.89 2.89 0 0 0 2.846 2.401 2.89 2.89 0 0 0 2.786-3.646 2.88 2.88 0 0 0-1.569-1.86 2.888 2.888 0 0 0-4.063 3.105"/><path fill="#fff" fill-opacity=".8" d="M219.864 380.077a2.89 2.89 0 0 0 2.846 2.401 2.89 2.89 0 0 0 2.786-3.646 2.88 2.88 0 0 0-1.569-1.86 2.888 2.888 0 0 0-4.063 3.105"/></g><g opacity=".6"><path fill="#614ce1" d="M253.356 380.079a2.89 2.89 0 0 0 2.887 2.805 2.89 2.89 0 0 0 2.402-2.846 2.89 2.89 0 0 0-2.402-2.847 2.89 2.89 0 0 0-2.887 2.888"/><path fill="#fff" fill-opacity=".8" d="M253.356 380.079a2.89 2.89 0 0 0 2.887 2.805 2.89 2.89 0 0 0 2.402-2.846 2.89 2.89 0 0 0-2.402-2.847 2.89 2.89 0 0 0-2.887 2.888"/></g><g opacity=".58"><path fill="#614ce1" d="M50.984 321.75a2.64 2.64 0 0 0 2.722 2.64 2.64 2.64 0 0 0 2.64-2.64 2.64 2.64 0 0 0-2.64-2.723 2.72 2.72 0 0 0-2.722 2.723"/><path fill="#fff" fill-opacity=".8" d="M50.984 321.75a2.64 2.64 0 0 0 2.722 2.64 2.64 2.64 0 0 0 2.64-2.64 2.64 2.64 0 0 0-2.64-2.723 2.72 2.72 0 0 0-2.722 2.723"/></g><g opacity=".64"><path fill="#614ce1" d="M270.682 292.465a2.64 2.64 0 0 0 2.64 2.64 2.64 2.64 0 0 0 2.514-1.611c.138-.325.209-.676.209-1.029a2.723 2.723 0 0 0-2.723-2.723 2.64 2.64 0 0 0-2.64 2.723"/><path fill="#fff" fill-opacity=".8" d="M270.682 292.465a2.64 2.64 0 0 0 2.64 2.64 2.64 2.64 0 0 0 2.514-1.611c.138-.325.209-.676.209-1.029a2.723 2.723 0 0 0-2.723-2.723 2.64 2.64 0 0 0-2.64 2.723"/></g><g opacity=".99"><path fill="#614ce1" d="M168.382 350.788a3.7 3.7 0 0 0 .858 2.974 3.7 3.7 0 0 0 2.813 1.29 3.71 3.71 0 0 0 3.671-4.264 3.7 3.7 0 0 0-.857-2.974 3.7 3.7 0 0 0-1.266-.953 3.73 3.73 0 0 0-3.096 0 3.71 3.71 0 0 0-2.123 3.927"/><path fill="#fff" fill-opacity=".8" d="M168.382 350.788a3.7 3.7 0 0 0 .858 2.974 3.7 3.7 0 0 0 2.813 1.29 3.71 3.71 0 0 0 3.671-4.264 3.7 3.7 0 0 0-.857-2.974 3.7 3.7 0 0 0-1.266-.953 3.73 3.73 0 0 0-3.096 0 3.71 3.71 0 0 0-2.123 3.927"/></g><g opacity=".22"><path fill="#614ce1" d="M151.965 321.751a3.38 3.38 0 0 0 2.089 3.125 3.379 3.379 0 0 0 4.419-4.42 3.39 3.39 0 0 0-3.125-2.088 3.3 3.3 0 0 0-2.417.966 3.3 3.3 0 0 0-.966 2.417"/><path fill="#fff" fill-opacity=".8" d="M151.965 321.751a3.38 3.38 0 0 0 2.089 3.125 3.379 3.379 0 0 0 4.419-4.42 3.39 3.39 0 0 0-3.125-2.088 3.3 3.3 0 0 0-2.417.966 3.3 3.3 0 0 0-.966 2.417"/></g><g opacity=".49"><path fill="#614ce1" d="M168.96 292.463a3.134 3.134 0 0 0 3.747 3.075 3.137 3.137 0 0 0 1.13-5.682 3.136 3.136 0 0 0-4.877 2.607"/><path fill="#fff" fill-opacity=".8" d="M168.96 292.463a3.134 3.134 0 0 0 3.747 3.075 3.137 3.137 0 0 0 1.13-5.682 3.136 3.136 0 0 0-4.877 2.607"/></g><g opacity=".99"><path fill="#614ce1" d="M202.457 350.791a3.133 3.133 0 0 0 3.746 3.075 3.137 3.137 0 0 0 2.285-4.274 3.13 3.13 0 0 0-1.155-1.407 3.138 3.138 0 0 0-4.876 2.606"/><path fill="#fff" fill-opacity=".8" d="M202.457 350.791a3.133 3.133 0 0 0 3.746 3.075 3.137 3.137 0 0 0 2.285-4.274 3.13 3.13 0 0 0-1.155-1.407 3.138 3.138 0 0 0-4.876 2.606"/></g><g opacity=".45"><path fill="#614ce1" d="M203.279 292.38a2.65 2.65 0 0 0 1.61 2.514c.326.138.676.209 1.03.209a2.72 2.72 0 0 0 2.939-1.531 2.72 2.72 0 0 0-1.762-3.78 2.7 2.7 0 0 0-1.177-.052 2.64 2.64 0 0 0-2.64 2.64"/><path fill="#fff" fill-opacity=".8" d="M203.279 292.38a2.65 2.65 0 0 0 1.61 2.514c.326.138.676.209 1.03.209a2.72 2.72 0 0 0 2.939-1.531 2.72 2.72 0 0 0-1.762-3.78 2.7 2.7 0 0 0-1.177-.052 2.64 2.64 0 0 0-2.64 2.64"/></g><g opacity=".22"><path fill="#614ce1" d="M151.717 263.257a3.3 3.3 0 0 0 3.218 3.218 3.3 3.3 0 0 0 1.99-1.118 3.296 3.296 0 0 0 0-4.283 3.3 3.3 0 0 0-1.99-1.117 3.303 3.303 0 0 0-3.218 3.3"/><path fill="#fff" fill-opacity=".8" d="M151.717 263.257a3.3 3.3 0 0 0 3.218 3.218 3.3 3.3 0 0 0 1.99-1.118 3.296 3.296 0 0 0 0-4.283 3.3 3.3 0 0 0-1.99-1.117 3.303 3.303 0 0 0-3.218 3.3"/></g><g opacity=".3"><path fill="#614ce1" d="M269.856 234.052a3.55 3.55 0 0 0 3.507 3.008 3.549 3.549 0 0 0 2.692-5.858 3.55 3.55 0 0 0-4.174-.913 3.55 3.55 0 0 0-1.929 2.249 3.55 3.55 0 0 0-.096 1.514"/><path fill="#fff" fill-opacity=".8" d="M269.856 234.052a3.55 3.55 0 0 0 3.507 3.008 3.549 3.549 0 0 0 2.692-5.858 3.55 3.55 0 0 0-4.174-.913 3.55 3.55 0 0 0-1.929 2.249 3.55 3.55 0 0 0-.096 1.514"/></g><g opacity=".65"><path fill="#614ce1" d="M168.878 292.38a3.21 3.21 0 0 0 1.827 3.434 3.2 3.2 0 0 0 2.698 0 3.21 3.21 0 0 0 1.75-2.055 3.218 3.218 0 1 0-6.275-1.379"/><path fill="#fff" fill-opacity=".8" d="M168.878 292.38a3.21 3.21 0 0 0 1.827 3.434 3.2 3.2 0 0 0 2.698 0 3.21 3.21 0 0 0 1.75-2.055 3.218 3.218 0 1 0-6.275-1.379"/></g><g opacity=".36"><path fill="#614ce1" d="M219.119 263.175a3.22 3.22 0 0 0 3.217 3.217 3.14 3.14 0 0 0 3.218-3.217 3.22 3.22 0 0 0-3.218-3.218 3.3 3.3 0 0 0-3.217 3.218"/><path fill="#fff" fill-opacity=".8" d="M219.119 263.175a3.22 3.22 0 0 0 3.217 3.217 3.14 3.14 0 0 0 3.218-3.217 3.22 3.22 0 0 0-3.218-3.218 3.3 3.3 0 0 0-3.217 3.218"/></g><g opacity=".68"><path fill="#614ce1" d="M219.697 204.764a3.052 3.052 0 1 0 2.97-2.97 2.97 2.97 0 0 0-2.97 2.97"/><path fill="#fff" fill-opacity=".8" d="M219.697 204.764a3.052 3.052 0 1 0 2.97-2.97 2.97 2.97 0 0 0-2.97 2.97"/></g><g opacity=".74"><path fill="#614ce1" d="M101.311 233.972a3.38 3.38 0 0 0 1.926 3.598 3.38 3.38 0 0 0 3.987-.874 3.4 3.4 0 0 0 .77-2.724 3.384 3.384 0 0 0-4.757-3.599 3.386 3.386 0 0 0-1.926 3.599"/><path fill="#fff" fill-opacity=".8" d="M101.311 233.972a3.38 3.38 0 0 0 1.926 3.598 3.38 3.38 0 0 0 3.987-.874 3.4 3.4 0 0 0 .77-2.724 3.384 3.384 0 0 0-4.757-3.599 3.386 3.386 0 0 0-1.926 3.599"/></g><g opacity=".4"><path fill="#614ce1" d="M49.499 263.174a3.88 3.88 0 0 0 2.393 3.583 3.878 3.878 0 1 0 1.484-7.46 3.874 3.874 0 0 0-3.877 3.877"/><path fill="#fff" fill-opacity=".8" d="M49.499 263.174a3.88 3.88 0 0 0 2.393 3.583 3.878 3.878 0 1 0 1.484-7.46 3.874 3.874 0 0 0-3.877 3.877"/></g><g opacity=".49"><path fill="#614ce1" d="M270.105 233.971a3.22 3.22 0 0 0 3.217 3.218 3.14 3.14 0 0 0 3.218-3.218 3.215 3.215 0 0 0-3.218-3.217 3.3 3.3 0 0 0-2.252.965 3.3 3.3 0 0 0-.965 2.252"/><path fill="#fff" fill-opacity=".8" d="M270.105 233.971a3.22 3.22 0 0 0 3.217 3.218 3.14 3.14 0 0 0 3.218-3.218 3.215 3.215 0 0 0-3.218-3.217 3.3 3.3 0 0 0-2.252.965 3.3 3.3 0 0 0-.965 2.252"/></g><g opacity=".94"><path fill="#614ce1" d="M101.475 233.971a2.885 2.885 0 0 0 3.482 2.824 2.88 2.88 0 0 0 2.247-2.313 2.89 2.89 0 0 0-1.298-2.953 2.889 2.889 0 0 0-4.431 2.442"/><path fill="#fff" fill-opacity=".8" d="M101.475 233.971a2.885 2.885 0 0 0 3.482 2.824 2.88 2.88 0 0 0 2.247-2.313 2.89 2.89 0 0 0-1.298-2.953 2.889 2.889 0 0 0-4.431 2.442"/></g><g opacity=".43"><path fill="#614ce1" d="M16.5 204.765a3.2 3.2 0 0 0 .913 2.328 3.2 3.2 0 0 0 2.305.972 3.3 3.3 0 0 0 0-6.6c-.43 0-.855.086-1.251.252a3.23 3.23 0 0 0-1.746 1.791c-.157.4-.232.827-.22 1.257"/><path fill="#fff" fill-opacity=".8" d="M16.5 204.765a3.2 3.2 0 0 0 .913 2.328 3.2 3.2 0 0 0 2.305.972 3.3 3.3 0 0 0 0-6.6c-.43 0-.855.086-1.251.252a3.23 3.23 0 0 0-1.746 1.791c-.157.4-.232.827-.22 1.257"/></g><g opacity=".51"><path fill="#614ce1" d="M354.254 146.354a3.29 3.29 0 0 0 .748 2.662 3.3 3.3 0 0 0 2.511 1.158 3.297 3.297 0 0 0 3.258-3.82 3.3 3.3 0 0 0-1.117-1.99 3.296 3.296 0 0 0-4.283 0 3.3 3.3 0 0 0-1.117 1.99"/><path fill="#fff" fill-opacity=".8" d="M354.254 146.354a3.29 3.29 0 0 0 .748 2.662 3.3 3.3 0 0 0 2.511 1.158 3.297 3.297 0 0 0 3.258-3.82 3.3 3.3 0 0 0-1.117-1.99 3.296 3.296 0 0 0-4.283 0 3.3 3.3 0 0 0-1.117 1.99"/></g><g opacity=".67"><path fill="#614ce1" d="M219.119 146.357a3.63 3.63 0 0 0 2.241 3.353 3.627 3.627 0 0 0 4.949-2.645 3.633 3.633 0 0 0-3.56-4.338 3.63 3.63 0 0 0-3.63 3.63"/><path fill="#fff" fill-opacity=".8" d="M219.119 146.357a3.63 3.63 0 0 0 2.241 3.353 3.627 3.627 0 0 0 4.949-2.645 3.633 3.633 0 0 0-3.56-4.338 3.63 3.63 0 0 0-3.63 3.63"/></g><g opacity=".57"><path fill="#614ce1" d="M119.048 204.764c.017.469.171.924.443 1.306a2.4 2.4 0 0 0 2.465.948 2.4 2.4 0 0 0 1.836-1.899 2.393 2.393 0 0 0-2.351-2.83 2.477 2.477 0 0 0-2.393 2.475"/><path fill="#fff" fill-opacity=".8" d="M119.048 204.764c.017.469.171.924.443 1.306a2.4 2.4 0 0 0 2.465.948 2.4 2.4 0 0 0 1.836-1.899 2.393 2.393 0 0 0-2.351-2.83 2.477 2.477 0 0 0-2.393 2.475"/></g><g opacity=".55"><path fill="#614ce1" d="M219.697 146.355a2.64 2.64 0 0 0 1.629 2.439 2.64 2.64 0 1 0-1.629-2.439"/><path fill="#fff" fill-opacity=".8" d="M219.697 146.355a2.64 2.64 0 0 0 1.629 2.439 2.64 2.64 0 1 0-1.629-2.439"/></g><g opacity=".4"><path fill="#614ce1" d="M202.457 175.561a3.136 3.136 0 1 0 6.272 0 3.136 3.136 0 0 0-6.272 0"/><path fill="#fff" fill-opacity=".8" d="M202.457 175.561a3.136 3.136 0 1 0 6.272 0 3.136 3.136 0 0 0-6.272 0"/></g><g opacity=".48"><path fill="#614ce1" d="M320.594 146.355a3.39 3.39 0 0 0 2.088 3.125 3.388 3.388 0 0 0 4.612-2.465 3.38 3.38 0 0 0-1.438-3.472 3.383 3.383 0 0 0-5.262 2.812"/><path fill="#fff" fill-opacity=".8" d="M320.594 146.355a3.39 3.39 0 0 0 2.088 3.125 3.388 3.388 0 0 0 4.612-2.465 3.38 3.38 0 0 0-1.438-3.472 3.383 3.383 0 0 0-5.262 2.812"/></g><g opacity=".76"><path fill="#614ce1" d="M304.674 117.151a2.556 2.556 0 0 0 4.366 1.809 2.56 2.56 0 0 0 .554-2.787 2.555 2.555 0 0 0-4.92.978"/><path fill="#fff" fill-opacity=".8" d="M304.674 117.151a2.556 2.556 0 0 0 4.366 1.809 2.56 2.56 0 0 0 .554-2.787 2.555 2.555 0 0 0-4.92.978"/></g><g opacity=".38"><path fill="#614ce1" d="M354.751 146.353a2.98 2.98 0 0 0 1.834 2.744 2.97 2.97 0 0 0 3.237-.644 2.97 2.97 0 0 0 .643-3.237 2.969 2.969 0 0 0-5.714 1.137"/><path fill="#fff" fill-opacity=".8" d="M354.751 146.353a2.98 2.98 0 0 0 1.834 2.744 2.97 2.97 0 0 0 3.237-.644 2.97 2.97 0 0 0 .643-3.237 2.969 2.969 0 0 0-5.714 1.137"/></g><g opacity=".85"><path fill="#614ce1" d="M219.286 87.945a3.383 3.383 0 1 0 6.767 0 3.383 3.383 0 0 0-6.767 0"/><path fill="#fff" fill-opacity=".8" d="M219.286 87.945a3.383 3.383 0 1 0 6.767 0 3.383 3.383 0 0 0-6.767 0"/></g><g opacity=".78"><path fill="#614ce1" d="M118.221 87.945a3.136 3.136 0 0 0 3.218 3.218 3.219 3.219 0 0 0 2.275-5.493 3.22 3.22 0 0 0-2.275-.942 3.136 3.136 0 0 0-3.218 3.217"/><path fill="#fff" fill-opacity=".8" d="M118.221 87.945a3.136 3.136 0 0 0 3.218 3.218 3.219 3.219 0 0 0 2.275-5.493 3.22 3.22 0 0 0-2.275-.942 3.136 3.136 0 0 0-3.218 3.217"/></g><g opacity=".36"><path fill="#614ce1" d="M50.325 146.354a3.384 3.384 0 0 0 4.757 3.599 3.38 3.38 0 0 0 1.926-3.599 3.38 3.38 0 0 0-3.342-3.909 3.38 3.38 0 0 0-2.57 1.185 3.39 3.39 0 0 0-.77 2.724"/><path fill="#fff" fill-opacity=".8" d="M50.325 146.354a3.384 3.384 0 0 0 4.757 3.599 3.38 3.38 0 0 0 1.926-3.599 3.38 3.38 0 0 0-3.342-3.909 3.38 3.38 0 0 0-2.57 1.185 3.39 3.39 0 0 0-.77 2.724"/></g><g opacity=".69"><path fill="#614ce1" d="M371.746 117.149a2.89 2.89 0 0 0 2.888 2.805 2.89 2.89 0 0 0 2.401-2.846 2.89 2.89 0 0 0-2.401-2.846 2.89 2.89 0 0 0-2.888 2.887"/><path fill="#fff" fill-opacity=".8" d="M371.746 117.149a2.89 2.89 0 0 0 2.888 2.805 2.89 2.89 0 0 0 2.401-2.846 2.89 2.89 0 0 0-2.401-2.846 2.89 2.89 0 0 0-2.888 2.887"/></g><g opacity=".55"><path fill="#614ce1" d="M354.751 87.946a3.214 3.214 0 0 0 1.827 3.434 3.215 3.215 0 0 0 4.448-2.055c.125-.448.152-.92.077-1.38a3.214 3.214 0 0 0-1.827-3.433 3.216 3.216 0 0 0-4.525 3.434"/><path fill="#fff" fill-opacity=".8" d="M354.751 87.946a3.214 3.214 0 0 0 1.827 3.434 3.215 3.215 0 0 0 4.448-2.055c.125-.448.152-.92.077-1.38a3.214 3.214 0 0 0-1.827-3.433 3.216 3.216 0 0 0-4.525 3.434"/></g><g opacity=".73"><path fill="#614ce1" d="M354.75 29.534a2.557 2.557 0 1 0 5.115 0 2.557 2.557 0 0 0-5.115 0"/><path fill="#fff" fill-opacity=".8" d="M354.75 29.534a2.557 2.557 0 1 0 5.115 0 2.557 2.557 0 0 0-5.115 0"/></g><g opacity=".3"><path fill="#614ce1" d="M269.694 58.742a3.297 3.297 0 0 0 5.661 2.222 3.3 3.3 0 0 0 .679-3.586 3.3 3.3 0 0 0-3.04-2.019 3.3 3.3 0 0 0-3.3 3.383"/><path fill="#fff" fill-opacity=".8" d="M269.694 58.742a3.297 3.297 0 0 0 5.661 2.222 3.3 3.3 0 0 0 .679-3.586 3.3 3.3 0 0 0-3.04-2.019 3.3 3.3 0 0 0-3.3 3.383"/></g><g opacity=".57"><path fill="#614ce1" d="M151.717 29.534a3.21 3.21 0 0 0 1.967 3.048c.396.167.821.252 1.25.252a3.3 3.3 0 1 0 0-6.6 3.216 3.216 0 0 0-3.217 3.3"/><path fill="#fff" fill-opacity=".8" d="M151.717 29.534a3.21 3.21 0 0 0 1.967 3.048c.396.167.821.252 1.25.252a3.3 3.3 0 1 0 0-6.6 3.216 3.216 0 0 0-3.217 3.3"/></g><g opacity=".58"><path fill="#614ce1" d="M16.996 29.533a3.135 3.135 0 1 0 6.269 0 3.135 3.135 0 0 0-6.27 0"/><path fill="#fff" fill-opacity=".8" d="M16.996 29.533a3.135 3.135 0 1 0 6.269 0 3.135 3.135 0 0 0-6.27 0"/></g><g opacity=".51"><path fill="#614ce1" d="M50.408 87.945a3.3 3.3 0 1 0 6.6 0 3.3 3.3 0 0 0-6.6 0"/><path fill="#fff" fill-opacity=".8" d="M50.408 87.945a3.3 3.3 0 1 0 6.6 0 3.3 3.3 0 0 0-6.6 0"/></g><g opacity=".71"><path fill="#614ce1" d="M354.749 29.536A3.465 3.465 0 0 0 357.884 33a3.547 3.547 0 1 0-3.135-3.465"/><path fill="#fff" fill-opacity=".8" d="M354.749 29.536A3.465 3.465 0 0 0 357.884 33a3.547 3.547 0 1 0-3.135-3.465"/></g><g opacity=".29"><path fill="#614ce1" d="M320.511 29.533a3.13 3.13 0 0 0 1.936 2.897 3.133 3.133 0 0 0 4.274-2.285 3.137 3.137 0 0 0-3.075-3.747 3.136 3.136 0 0 0-3.135 3.135"/><path fill="#fff" fill-opacity=".8" d="M320.511 29.533a3.13 3.13 0 0 0 1.936 2.897 3.133 3.133 0 0 0 4.274-2.285 3.137 3.137 0 0 0-3.075-3.747 3.136 3.136 0 0 0-3.135 3.135"/></g><g opacity=".56"><path fill="#614ce1" d="M208.477 0a2.97 2.97 0 0 1-5.94 0z"/><path fill="#fff" fill-opacity=".8" d="M208.477 0a2.97 2.97 0 0 1-5.94 0z"/></g><g opacity=".33"><path fill="#614ce1" d="M6.105 0a3.05 3.05 0 0 1-3.052 3.053A2.97 2.97 0 0 1 0 0z"/><path fill="#fff" fill-opacity=".8" d="M6.105 0a3.05 3.05 0 0 1-3.052 3.053A2.97 2.97 0 0 1 0 0z"/></g><g opacity=".48"><path fill="#614ce1" d="M276.375 0a3.38 3.38 0 0 1-3.382 3.383A3.38 3.38 0 0 1 269.61 0z"/><path fill="#fff" fill-opacity=".8" d="M276.375 0a3.38 3.38 0 0 1-3.382 3.383A3.38 3.38 0 0 1 269.61 0z"/></g></svg>