<svg xmlns="http://www.w3.org/2000/svg" width="110" height="110" fill="none" viewBox="0 0 110 110"><rect width="110" height="110" fill="#fafaff" rx="55"/><path fill="#615efc" fill-rule="evenodd" d="M36.456 53.125H47.5a3.75 3.75 0 0 1 3.75 3.75v11.25a3.75 3.75 0 0 1-3.75 3.75H36.25a3.75 3.75 0 0 1-3.75-3.75V55.656A20.62 20.62 0 0 1 41.688 38.5l3.356-2.25 2.062 3.112-3.356 2.25a16.88 16.88 0 0 0-7.294 11.513m26.25 0H73.75a3.75 3.75 0 0 1 3.75 3.75v11.25a3.75 3.75 0 0 1-3.75 3.75H62.5a3.75 3.75 0 0 1-3.75-3.75V55.656A20.62 20.62 0 0 1 67.938 38.5l3.374-2.25 2.044 3.112L70 41.613a16.88 16.88 0 0 0-7.294 11.513" clip-rule="evenodd"/></svg>