<svg xmlns="http://www.w3.org/2000/svg" width="152" height="37" fill="none" viewBox="0 0 152 37"><g fill="#0f62fe" clip-path="url(#a)"><path d="M133.517 12.621c.844 0 1.541-.436 1.639-1.002l.835-9.422c0-.93-1.095-1.697-2.474-1.697-1.378 0-2.465.768-2.465 1.697l.835 9.422c.09.558.787 1.002 1.63 1.002m-5.109 2.942c.422-.728.39-1.552-.057-1.915l-7.769-5.43c-.811-.47-2.019.096-2.708 1.284s-.568 2.513.235 2.974l8.604 3.992c.544.202 1.274-.186 1.695-.905m10.218-.008c.422.727 1.152 1.115 1.695.913l8.605-3.992c.811-.469.924-1.794.243-2.974-.689-1.188-1.906-1.745-2.709-1.285l-7.769 5.43c-.446.364-.478 1.188-.065 1.908m-5.109 8.832c.844 0 1.541.436 1.639 1.002l.835 9.414c0 .937-1.095 1.697-2.474 1.697-1.378 0-2.465-.76-2.465-1.697l.835-9.414c.09-.566.787-1.002 1.63-1.002m5.109-2.942c.422-.727 1.152-1.107 1.695-.913l8.605 3.992c.811.469.924 1.794.243 2.982-.689 1.18-1.906 1.745-2.709 1.285l-7.769-5.422c-.446-.38-.478-1.196-.065-1.924m-10.218-.008c.422.728.39 1.552-.057 1.915l-7.769 5.423c-.811.468-2.019-.097-2.708-1.285s-.568-2.513.235-2.982l8.604-3.992c.544-.186 1.274.194 1.695.921m-43.897 1.899c0 .29-.024.59-.105.848-.333 1.091-1.46 2.004-2.871 2.004-1.176 0-2.117-.67-2.117-2.076 0-2.158 2.384-2.756 5.093-2.74zm4.25-3.758c0-3.555-1.525-6.683-6.675-6.683-2.643 0-4.744.744-5.887 1.398l.835 2.86c1.046-.662 2.717-1.203 4.298-1.203 2.611-.008 3.041 1.479 3.041 2.424v.226c-5.693-.008-9.302 1.956-9.302 5.964 0 2.448 1.833 4.735 5.02 4.735 1.963 0 3.601-.775 4.582-2.028h.098s.648 2.715 4.233 1.673c-.187-1.131-.252-2.335-.252-3.782zM0 8.055s3.722 15.2 4.314 17.665c.698 2.876 1.947 3.943 5.547 3.224l2.328-9.422c.592-2.344.981-4.008 1.362-6.392h.065c.268 2.408.649 4.056 1.127 6.4 0 0 .95 4.275 1.428 6.52.486 2.247 1.84 3.662 5.368 2.894l5.54-20.889h-4.47l-1.889 9.034c-.51 2.627-.973 4.687-1.322 7.087h-.064c-.325-2.384-.738-4.355-1.25-6.917l-1.97-9.204h-4.655l-2.109 8.97c-.6 2.731-1.151 4.929-1.508 7.248h-.065c-.365-2.19-.851-4.953-1.37-7.596 0 0-1.25-6.416-1.687-8.63zm35.537 15.28c0 .292-.025.59-.106.85-.332 1.09-1.46 2.003-2.87 2.003-1.177 0-2.117-.67-2.117-2.076 0-2.158 2.384-2.756 5.093-2.74zm4.257-3.757c0-3.555-1.524-6.683-6.674-6.683-2.644 0-4.744.744-5.888 1.398l.836 2.86c1.046-.662 2.716-1.203 4.298-1.203 2.62-.008 3.04 1.479 3.04 2.424v.226c-5.7-.008-9.3 1.956-9.3 5.964 0 2.448 1.832 4.735 5.019 4.735 1.963 0 3.6-.775 4.582-2.028h.097s.65 2.715 4.242 1.673c-.187-1.131-.252-2.335-.252-3.782zm7.096 4.93V8.055h-4.257v20.889h4.257zm55.706-16.453v15.41c0 2.125.405 3.612 1.257 4.525.754.8 1.987 1.31 3.463 1.31 1.257 0 2.497-.243 3.081-.453l-.057-3.313a6.5 6.5 0 0 1-1.613.194c-1.452 0-1.939-.93-1.939-2.837v-5.899h3.707v-4h-3.707V8.055zm-10.997 5.196v15.693h4.395v-8.032c0-.437.025-.817.098-1.156.324-1.68 1.614-2.756 3.47-2.756.512 0 .877.057 1.266.113V13.01a4.4 4.4 0 0 0-.965-.098c-1.638 0-3.504 1.051-4.29 3.314h-.122v-2.958H91.6m-41.732-.016v15.693h4.281V19.74c0-.428.05-.89.203-1.285.357-.93 1.217-2.012 2.603-2.012 1.728 0 2.539 1.454 2.539 3.555v8.946h4.273v-9.317c0-.412.057-.905.179-1.269.349-1.05 1.281-1.915 2.57-1.915 1.752 0 2.588 1.43 2.588 3.903v8.598h4.282v-9.245c0-4.872-2.482-6.804-5.288-6.804-1.24 0-2.222.307-3.106.849-.746.46-1.411 1.107-1.995 1.955h-.065c-.673-1.688-2.27-2.804-4.338-2.804-2.66 0-3.86 1.342-4.59 2.49h-.074V13.25z"/></g><defs><clipPath id="a"><path fill="#fff" d="M0 .5h152v36H0z"/></clipPath></defs></svg>