<svg xmlns="http://www.w3.org/2000/svg" width="46" height="34" fill="none" viewBox="0 0 46 34"><path fill="#615efc" d="M.37 31.571 7.413 15.3V6.071c0-1.092.123-2.185.494-3.278.247-.729.741-1.336 1.359-1.822.741-.485 1.606-.728 2.47-.85C12.847 0 13.96 0 15.071 0s2.223 0 3.335.243c.865.121 1.606.364 2.347.85.618.486.988 1.093 1.235 1.821q.371 1.64.371 3.279c0 1.336 0 2.793-.247 4.128a19 19 0 0 1-.741 3.643c-.247 1.093-.741 2.307-1.235 3.279-.618 1.093-1.236 2.186-1.977 3.278L10.5 31.814c-.247.365-.494.729-.865.972l-1.111.728a3.9 3.9 0 0 1-1.606.365C6.053 34 5.312 34 4.448 34c-.866 0-1.607 0-2.472-.121-.494 0-.988-.243-1.482-.486-.247-.122-.494-.486-.494-.85.123-.243.123-.607.37-.972M31.13 15.3V6.071c0-1.092.123-2.185.494-3.278.247-.729.741-1.457 1.359-1.822.741-.485 1.482-.728 2.347-.85C36.442 0 37.677 0 38.789 0s2.223 0 3.335.243c.865.121 1.606.364 2.224.85.617.486.988 1.093 1.235 1.821q.555 1.64.37 3.279c0 1.336 0 2.793-.246 4.128a19 19 0 0 1-.742 3.643c-.247 1.093-.74 2.307-1.235 3.279-.617 1.093-1.235 2.186-1.976 3.278L33.97 31.814c-.247.365-.494.729-.865.972l-1.111.728a3.9 3.9 0 0 1-1.606.365c-.741.121-1.606.121-2.347.121-.865 0-1.606 0-2.471-.121-.494 0-.988-.243-1.482-.486-.247-.122-.494-.486-.494-.85s.123-.729.247-1.093z"/></svg>