<svg xmlns="http://www.w3.org/2000/svg" width="245" height="279" fill="none" viewBox="0 0 245 279"><path fill="#7472ff" d="M123.758 230.425a2 2 0 0 1-2.829 0l-40.737-40.737C50.377 159.873 0 180.949 0 223.101v53.003a2 2 0 0 0 2 2h240.687a2 2 0 0 0 2-2V114.325c0-1.782-2.154-2.675-3.414-1.415zm-2.829-182.746a2 2 0 0 1 2.829 0l40.737 40.737c29.815 29.815 80.192 8.74 80.192-33.413V2a2 2 0 0 0-2-2H2a2 2 0 0 0-2 2v161.779c0 1.782 2.154 2.674 3.414 1.415z"/><path fill="#fff" d="m92.233 149.786 9.337-21.536v-12.214c0-1.447.164-2.893.655-4.34.328-.964.983-1.767 1.802-2.41.983-.643 2.13-.965 3.276-1.125 1.475-.161 2.949-.161 4.423-.161s2.949 0 4.423.321c1.147.161 2.13.483 3.113 1.125.819.643 1.31 1.447 1.638 2.411q.492 2.17.491 4.339c0 1.768 0 3.697-.327 5.465a25 25 0 0 1-.983 4.821c-.328 1.447-.983 3.054-1.638 4.339-.819 1.447-1.638 2.893-2.621 4.34l-10.157 14.946c-.327.482-.655.964-1.146 1.286l-1.475.964c-.655.322-1.474.482-2.129.482-1.147.161-2.13.161-3.277.161-1.146 0-2.13 0-3.276-.161-.655 0-1.31-.321-1.966-.643-.327-.16-.655-.642-.655-1.125.164-.321.164-.803.492-1.285m40.789-21.536v-12.214c0-1.447.164-2.893.655-4.34.328-.964.983-1.928 1.802-2.41.983-.643 1.966-.965 3.113-1.125 1.474-.161 3.112-.161 4.587-.161s2.948 0 4.423.321c1.146.161 2.129.483 2.948 1.125.819.643 1.311 1.447 1.638 2.411q.738 2.17.492 4.339c0 1.768 0 3.697-.328 5.465a25 25 0 0 1-.983 4.821c-.327 1.447-.983 3.054-1.638 4.339-.819 1.447-1.638 2.893-2.621 4.34l-10.32 14.946c-.328.482-.655.964-1.147 1.286l-1.474.964c-.655.322-1.474.482-2.13.482-.983.161-2.129.161-3.112.161-1.147 0-2.13 0-3.276-.161-.656 0-1.311-.321-1.966-.643-.328-.16-.655-.642-.655-1.125 0-.482.163-.964.327-1.446z"/></svg>