<svg xmlns="http://www.w3.org/2000/svg" width="60" height="60" fill="none" viewBox="0 0 60 60"><path fill="#0f62fe" d="M33.867 47.779a.967.967 0 0 0-.967.966V53a.323.323 0 0 1-.322.32h-5.156a.32.32 0 0 1-.322-.322V48.75a.97.97 0 0 0-.775-.948 18.2 18.2 0 0 1-6.445-2.68.97.97 0 0 0-1.218.123l-3.017 3.01a.323.323 0 0 1-.457 0l-3.646-3.645a.325.325 0 0 1 0-.457l3.015-3.014a.97.97 0 0 0 .117-1.218 18.2 18.2 0 0 1-2.68-6.445.966.966 0 0 0-.942-.78H6.797a.32.32 0 0 1-.322-.323v-5.156a.323.323 0 0 1 .322-.32h4.268a.966.966 0 0 0 .947-.774 18.2 18.2 0 0 1 2.667-6.445.966.966 0 0 0-.117-1.218l-3.02-3.018a.324.324 0 0 1 0-.457l3.646-3.646a.323.323 0 0 1 .457 0l3.014 3.015a.97.97 0 0 0 1.217.123 18.2 18.2 0 0 1 6.445-2.68.97.97 0 0 0 .775-.948V6.594a.32.32 0 0 1 .326-.322h5.156a.324.324 0 0 1 .322.322v4.255a.967.967 0 0 0 1.934 0V6.594a2.26 2.26 0 0 0-2.256-2.258h-5.156a2.26 2.26 0 0 0-2.256 2.256v3.486a20 20 0 0 0-5.687 2.364l-2.468-2.47a2.31 2.31 0 0 0-3.19 0l-3.646 3.646a2.257 2.257 0 0 0 0 3.19l2.461 2.468a20.2 20.2 0 0 0-2.346 5.685H6.797a2.26 2.26 0 0 0-2.256 2.256v5.156a2.26 2.26 0 0 0 2.256 2.258h3.481a20 20 0 0 0 2.364 5.687l-2.46 2.468a2.257 2.257 0 0 0 0 3.19l3.645 3.646a2.306 2.306 0 0 0 3.19 0l2.468-2.461a20 20 0 0 0 5.687 2.362v3.482a2.26 2.26 0 0 0 2.25 2.251h5.156A2.26 2.26 0 0 0 34.834 53v-4.25a.965.965 0 0 0-.967-.971"/><path fill="#0f62fe" d="M38.701 22.063a4.84 4.84 0 0 0-4.834-4.836H22.266a4.82 4.82 0 0 0-2.871 8.7 4.79 4.79 0 0 0 0 7.735 4.82 4.82 0 0 0 2.87 8.704h11.602a4.82 4.82 0 0 0 2.871-8.702 4.79 4.79 0 0 0 0-7.734 4.82 4.82 0 0 0 1.963-3.867m-1.934 15.469a2.9 2.9 0 0 1-2.9 2.898H22.266a2.9 2.9 0 0 1 0-5.801h11.601a2.9 2.9 0 0 1 2.9 2.903m0-7.735a2.903 2.903 0 0 1-2.9 2.898H22.266a2.9 2.9 0 1 1 0-5.8h11.601a2.903 2.903 0 0 1 2.9 2.902m-2.9-4.836H22.266a2.9 2.9 0 0 1 0-5.8h11.601a2.9 2.9 0 1 1 0 5.8"/><path fill="#0f62fe" d="M32.578 21.094h-5.156a.967.967 0 1 0 0 1.933h5.156a.967.967 0 1 0 0-1.933m-9.023 2.258a1.29 1.29 0 1 0 0-2.579 1.29 1.29 0 0 0 0 2.579m3.867 7.412h5.156a.967.967 0 0 0 0-1.934h-5.156a.967.967 0 1 0 0 1.934m-3.867.322a1.29 1.29 0 1 0 0-2.578 1.29 1.29 0 0 0 0 2.578m3.867 7.412h5.156a.967.967 0 1 0 0-1.933h-5.156a.967.967 0 1 0 0 1.933m-3.867.322a1.29 1.29 0 1 0 0-2.578 1.29 1.29 0 0 0 0 2.578m14.179-23.525a.96.96 0 0 0 .775-.387l3.577-4.77h6.43a3.545 3.545 0 1 0 0-1.935h-6.914a.97.97 0 0 0-.774.387l-3.867 5.156a.968.968 0 0 0 .772 1.547zm14.18-7.734a1.611 1.611 0 1 1 0 3.222 1.611 1.611 0 0 1 0-3.222m0 26.423a3.54 3.54 0 0 0-3.398 2.578h-4.102l-2.374-1.187a.966.966 0 1 0-.865 1.73l2.578 1.29a1 1 0 0 0 .432.101h4.336a3.538 3.538 0 1 0 3.393-4.512m0 5.157a1.612 1.612 0 1 1 0-3.224 1.612 1.612 0 0 1 0 3.224m0-20.625a3.54 3.54 0 0 0-3.398 2.578H44.18a.96.96 0 0 0-.684.283l-1.289 1.29a.966.966 0 0 0 1.367 1.366l1.006-1.006h3.936a3.538 3.538 0 1 0 3.398-4.511m0 5.156a1.611 1.611 0 1 1 0-3.223 1.611 1.611 0 0 1 0 3.223m0 23.203a3.54 3.54 0 0 0-3.398 2.578h-6.432l-3.576-4.77a.966.966 0 1 0-1.547 1.16L40.828 51a.97.97 0 0 0 .774.387h6.914a3.539 3.539 0 1 0 3.398-4.512m0 5.156a1.611 1.611 0 1 1 0-3.223 1.611 1.611 0 0 1 0 3.223"/></svg>