<svg xmlns="http://www.w3.org/2000/svg" width="56" height="56" fill="none" viewBox="0 0 56 56"><path fill="#0f62fe" d="M51.625 1.75H4.375A2.63 2.63 0 0 0 1.75 4.375v38.5A2.63 2.63 0 0 0 4.375 45.5h18.074l-2.1 7H17.5v1.75h21V52.5h-2.849l-2.1-7h18.074a2.63 2.63 0 0 0 2.625-2.625v-38.5a2.63 2.63 0 0 0-2.625-2.625M33.824 52.5H22.176l2.1-7h7.448zM52.5 42.875a.876.876 0 0 1-.875.875H4.375a.876.876 0 0 1-.875-.875V40.25h49zm0-4.375h-49V4.375a.876.876 0 0 1 .875-.875h47.25a.876.876 0 0 1 .875.875z"/><path fill="#0f62fe" d="M48.125 16.625H36.6a.87.87 0 0 1-.619-.256l-2.475-2.475a2.6 2.6 0 0 0-1.856-.769h-9.775a2.63 2.63 0 0 0-2.625 2.625v18.375a2.63 2.63 0 0 0 2.625 2.625h26.25a2.63 2.63 0 0 0 2.625-2.625V19.25a2.63 2.63 0 0 0-2.625-2.625m.875 17.5a.876.876 0 0 1-.875.875h-26.25a.876.876 0 0 1-.875-.875V15.75a.876.876 0 0 1 .875-.875h9.775a.87.87 0 0 1 .619.256l2.475 2.475a2.6 2.6 0 0 0 1.856.769h11.525a.876.876 0 0 1 .875.875z"/><path fill="#0f62fe" d="m29.131 21.256-4.993 4.994 4.993 4.993 1.238-1.237-3.757-3.756 3.757-3.757zm3.362 8.96 4.378-7.874 1.53.85-4.379 7.874zm7.138-7.723 3.757 3.757-3.757 3.756 1.238 1.237 4.993-4.993-4.993-4.994zM22.18 7l1.418 3.305 3.124 1.295 3.345-1.336 1.73 1.73 1.238-1.238-2.546-2.546-3.755 1.5-1.809-.749-1.59-3.711h-4.67l-1.59 3.711-1.81.75-3.754-1.5-3.3 3.3 1.5 3.755-.75 1.809-3.711 1.59v4.67l3.711 1.59.75 1.81-1.5 3.754 3.3 3.3 3.755-1.5 1.899.787.67-1.616-2.557-1.06-3.345 1.337-1.67-1.67 1.337-3.345-1.295-3.125L7 22.181v-2.362l3.305-1.416 1.295-3.125-1.336-3.345 1.67-1.67 3.344 1.337 3.124-1.295L19.82 7z"/><path fill="#0f62fe" d="m17.89 14.727-.78-1.567a8.753 8.753 0 0 0 0 15.68l.78-1.567a7.003 7.003 0 0 1 0-12.546"/></svg>