<svg xmlns="http://www.w3.org/2000/svg" width="37" height="26" fill="none" viewBox="0 0 37 26"><path fill="#20282d" d="M8.98 11.691 6.1 11.07c-.79-.17-1.525.452-1.525 1.243v1.186c0 .96.734 1.186 1.638 1.186h3.163c.621 0 1.242-.113 1.242-.791v-.17c0-1.016-.677-1.863-1.638-2.033M5.648 13.5v-1.243c0-.113.113-.226.226-.17l2.88.622c.396.113.678.452.735.847-1.977 0-3.672 0-3.84-.056"/><path fill="#20282d" d="m34.622 5.648-4.067-1.92c-1.355-.622-2.823-.848-4.235-.565l-.622-1.243C25.246.79 24.173 0 22.931 0H9.714a2.95 2.95 0 0 0-2.767 1.864L4.744 6.439a2.76 2.76 0 0 0-2.259-1.186h-.96C.678 5.253 0 5.93 0 6.778v.62a1.52 1.52 0 0 0 1.525 1.526h1.468c-.62.79-.903 1.807-.903 2.824v3.389c0 1.299.452 2.541 1.355 3.614v2.542c0 1.13.904 2.033 2.034 2.033h2.09a2.025 2.025 0 0 0 2.033-2.033v-1.017h11.296c2.485 3.389 6.382 4.857 6.438 4.857.113.057.226.057.396 0 .056-.056 8.415-3.106 8.415-10.73V8.076c0-1.017-.621-1.977-1.525-2.429M7.964 2.316c.282-.735.96-1.186 1.75-1.186h13.217c.79 0 1.468.451 1.807 1.242l.508 1.073c-.226.057-.451.17-.677.283l-4.067 1.92c-.904.452-1.525 1.355-1.525 2.372H5.14c.226-.339 0 .226 2.824-5.704M1.13 7.399v-.621c0-.226.169-.396.395-.396h.96c1.13 0 1.525 1.017 1.638 1.186-.056.113-.113.17-.226.283H1.525c-.226-.057-.395-.226-.395-.452m7.342 13.837a.89.89 0 0 1-.904.904H5.422c-.508.056-.904-.395-.904-.904v-1.638a4.5 4.5 0 0 0 2.26.622h1.694zm-1.75-2.09c-2.034 0-3.616-1.976-3.616-4.066v-3.389c0-.96.396-1.864 1.073-2.598h14.798v4.97h-6.213a.566.566 0 0 0-.564.565c0 .34.226.565.564.565h6.27c.056.395.056.734.17 1.073h-6.44a.566.566 0 0 0-.564.565c0 .339.226.565.564.565h6.665c.226.621.452 1.242.79 1.75zm28.295-4.744c0 6.27-6.325 9.15-7.455 9.602-4.067-1.638-7.455-5.14-7.455-9.602V8.077c0-.622.339-1.13.903-1.412l4.067-1.92a5.74 5.74 0 0 1 5.083 0l4.067 1.92c.508.282.903.79.903 1.412v6.325z"/><path fill="#20282d" d="M33.097 7.964 29.37 6.213a4.19 4.19 0 0 0-3.67 0l-3.672 1.75c-.17.113-.339.283-.339.509v5.93c0 4.462 3.897 6.89 5.592 7.738q.255.084.508 0c1.694-.847 5.592-3.276 5.592-7.738v-5.93a.59.59 0 0 0-.283-.508m-.79 6.438c0 3.615-3.164 5.761-4.745 6.608-1.864-1.016-4.744-3.05-4.744-6.608V8.811l3.389-1.638a3.25 3.25 0 0 1 2.71 0l3.39 1.638z"/><path fill="#20282d" d="M25.36 14.232c-.226-.17-.565-.113-.791.113s-.113.565.113.79l2.146 1.639c.226.17.565.113.79-.113l3.164-4.123c.17-.226.113-.565-.113-.791-.226-.17-.565-.113-.791.113l-2.824 3.671z"/></svg>