<svg xmlns="http://www.w3.org/2000/svg" width="28" height="33" fill="none" viewBox="0 0 28 33"><path fill="#20282d" d="M27.559 3.096a2.4 2.4 0 0 0-1.567-.978 2.4 2.4 0 0 0-1.8.412l-11.129 7.927-1.246-4.693-.064-.22c-.424-1.459-.904-3.112-2.7-3.163l-2.435-.07.222 2.948.963-.072-.142-1.88 1.365.039c1.041.03 1.348.911 1.8 2.467l.06.204 1.337 5.039-.907.646.56.786 12.876-9.171a1.44 1.44 0 0 1 1.08-.247 1.44 1.44 0 0 1 1.186 1.666 1.44 1.44 0 0 1-.585.94l-7.825 5.573.56.786 1.531-1.09c.312-.22.693-.305 1.072-.24.383.063.717.271.94.585a1.45 1.45 0 0 1-.339 2.02l-2.27 1.616.56.787 1.441-1.026a1.44 1.44 0 0 1 1.08-.247c.383.065.717.273.94.586a1.45 1.45 0 0 1-.34 2.02l-1.833 1.306.56.786 1.047-.746c.314-.223.697-.31 1.08-.246s.717.272.94.586a1.45 1.45 0 0 1-.34 2.02l-2.555 1.82.56.786 2.556-1.82a2.417 2.417 0 0 0 .566-3.366 2.4 2.4 0 0 0-1.424-.95c.55-.81.57-1.913-.03-2.756a2.4 2.4 0 0 0-1.406-.945 2.42 2.42 0 0 0-.006-2.791 2.4 2.4 0 0 0-1.235-.899l4.73-3.369a2.4 2.4 0 0 0 .978-1.566 2.4 2.4 0 0 0-.413-1.8"/><path fill="#20282d" d="m17.837 26.023-5.445 1.508-1.913 1.353-6.159-8.707 1.96-1.387 1.955-7.865-.359-4.776-.962.073.347 4.62-1.832 7.367L.611 21.62a1.44 1.44 0 0 0-.59.938c-.065.382.021.766.244 1.08l6.157 8.705a1.44 1.44 0 0 0 1.187.612c.297 0 .585-.091.832-.265l3.153-2.23-.558-.789 1.776-1.256 5.446-1.508 2.625-1.87-.56-.786zm-9.954 5.88a.48.48 0 0 1-.36.08.48.48 0 0 1-.313-.196l-6.156-8.705a.48.48 0 0 1-.081-.36.48.48 0 0 1 .196-.313l2.364-1.674 6.715 9.495zm13.235-8.197.787-.56.56.787-.787.56zM12.56.672l.888-.38 1.448 3.378-.887.38zM15.903 0h.966v3.38h-.966zm1.973 3.675L19.325.296l.887.38-1.448 3.38zm-1.62 12.655.788-.558.558.788-.788.558zm1.099 1.595.788-.557.557.788-.788.557z"/></svg>