<svg xmlns="http://www.w3.org/2000/svg" width="36" height="36" fill="none" viewBox="0 0 36 36"><path fill="#20282d" d="M36 15.097h-1.305l-1.944 1.023a3 3 0 0 0-.692-.285l-2.447-.612v-.278a4.08 4.08 0 0 0 1.743-3.332v-1.015c0-2.256-1.768-4.143-3.94-4.21a4 4 0 0 0-.328.007l.634-1.484-3.075-3.074-1.812 1.18a9.8 9.8 0 0 0-2.174-.902L20.214 0h-4.425l-.448 2.115a9.8 9.8 0 0 0-2.173.902l-1.813-1.18L8.282 4.91l.623 1.486c-.024 0-.046-.005-.07-.006A4.03 4.03 0 0 0 5.88 7.535a4.03 4.03 0 0 0-1.235 2.917v1.16c0 1.33.66 2.577 1.742 3.332v.28l-1.596.398L1.9 13.935H0v12.032l5.712 1.904h1.113l.139-.487 1.75 1.052a1.81 1.81 0 0 0 1.744 1.751 1.81 1.81 0 0 0 1.742 1.742 1.81 1.81 0 0 0 1.742 1.742 1.81 1.81 0 0 0 1.806 1.748 1.83 1.83 0 0 0 1.018-.314l.514.454c.322.284.737.441 1.168.441h.108c.966 0 1.752-.781 1.764-1.744a1.766 1.766 0 0 0 1.742-1.742 1.766 1.766 0 0 0 1.742-1.744 1.785 1.785 0 0 0 1.736-1.956L36 23.585zm-5.806-4.5v1.016c0 1.03-.557 1.993-1.454 2.512l-.29.168.002 1.838 2.901.724-6.385 3.361v-1.564a2.9 2.9 0 0 0-.832-2.023l1.993-.498v-1.84l-.29-.167a2.91 2.91 0 0 1-1.452-2.511v-1.161c0-.792.313-1.533.882-2.084a2.86 2.86 0 0 1 2.111-.818c1.551.047 2.814 1.414 2.814 3.048M18.876 19.76l-2.629-.84a7.17 7.17 0 0 0-3.72-.17l-.333.074v-.172c0-.8.542-1.496 1.319-1.69l3.326-.831v-1.84l-.29-.167a2.91 2.91 0 0 1-1.452-2.511v-1.161c0-.792.313-1.533.882-2.084a2.87 2.87 0 0 1 2.11-.818c1.552.047 2.814 1.414 2.814 3.048v1.015c0 1.03-.557 1.993-1.453 2.512l-.29.168.002 1.838 3.325.83a1.74 1.74 0 0 1 1.32 1.691v2.176l-.144.075h-.356l-3.57-1.02a3.7 3.7 0 0 0-.861-.123M12.324 8.69A6.41 6.41 0 0 1 18 5.226a6.42 6.42 0 0 1 5.653 3.418 4.04 4.04 0 0 0-.427 1.808v1.16c0 1.33.66 2.577 1.742 3.332v.28l-2.323.58-2.323-.58v-.279a4.08 4.08 0 0 0 1.742-3.332v-1.015c0-2.256-1.767-4.143-3.94-4.21a4.03 4.03 0 0 0-2.954 1.146 4.03 4.03 0 0 0-1.235 2.918v1.16c0 1.33.66 2.577 1.742 3.332v.28l-2.322.58-2.323-.58v-.279a4.08 4.08 0 0 0 1.742-3.332v-1.015a4.3 4.3 0 0 0-.45-1.908m-2.67-3.51 1.854-1.855 1.633 1.062.313-.191a8.7 8.7 0 0 1 2.514-1.043l.357-.086.404-1.905h2.543l.402 1.905.358.085a8.7 8.7 0 0 1 2.514 1.043l.312.192 1.633-1.063 1.853 1.853-.659 1.543a4 4 0 0 0-1.225.814l-.068.072A7.58 7.58 0 0 0 18 4.065a7.57 7.57 0 0 0-6.414 3.575 4.1 4.1 0 0 0-1.281-.908zM7.547 16.13v-1.84l-.29-.167a2.91 2.91 0 0 1-1.452-2.511v-1.161c0-.792.313-1.533.882-2.084A2.87 2.87 0 0 1 8.8 7.55c1.55.047 2.813 1.414 2.813 3.048v1.015c0 1.03-.557 1.993-1.453 2.512l-.29.168.002 1.838 1.992.498a2.9 2.9 0 0 0-.832 2.023v.43l-1.81.403.046-.165.022-1.073-3.062-1.786zM1.16 15.096h.424l4.176 2.435-2.108 8.429-2.492-.831zM5.9 26.709l-1.143-.381 2.047-8.187 1.324.772v.166l-2.18 7.63zm3.97 1.671c0-.17.07-.339.19-.46l1.021-1.02a.652.652 0 0 1 .92.92l-1.02 1.02a.652.652 0 0 1-1.111-.46m1.742 1.742a.66.66 0 0 1 .19-.46l1.021-1.02a.652.652 0 0 1 .92.92l-1.02 1.02a.652.652 0 0 1-1.111-.46m1.742 1.742c0-.171.069-.339.19-.46l1.021-1.02a.652.652 0 0 1 .92.92l-1.02 1.02a.652.652 0 0 1-1.111-.46m2.393 2.393a.652.652 0 0 1-.46-1.111l1.02-1.021a.652.652 0 0 1 .92.92l-1.02 1.022a.66.66 0 0 1-.46.19m2.808.58h-.108a.6.6 0 0 1-.4-.151l-.434-.383.436-.436c.155-.156.276-.34.366-.54l.527.44a.604.604 0 0 1-.387 1.07m5.207-5.225h-.1a.62.62 0 0 1-.4-.145l-3.149-2.624-.744.892 3.058 2.548a.605.605 0 0 1-.388 1.07h-.127a.6.6 0 0 1-.387-.14l-3.154-2.628-.744.893 3.058 2.548a.606.606 0 0 1-.388 1.07.96.96 0 0 1-.611-.221l-1.296-1.08a1.81 1.81 0 0 0-1.56-1.015 1.81 1.81 0 0 0-1.741-1.742 1.81 1.81 0 0 0-1.742-1.742 1.81 1.81 0 0 0-3.087-1.218l-1.02 1.02c-.062.062-.112.13-.163.2l-1.784-1.07 1.564-5.473 3.92-.872a6 6 0 0 1 3.115.141l.855.274-2.9 1.45a1.94 1.94 0 0 0-1.074 1.74v.114a1.948 1.948 0 0 0 2.946 1.668l2.162-1.297a1.2 1.2 0 0 1 1.392.134l4.906 4.416a.625.625 0 0 1-.418 1.09m11.076-6.746-9.782 4.891a2 2 0 0 0-.1-.097l-4.905-4.415a2.33 2.33 0 0 0-2.768-.267l-2.163 1.297a.784.784 0 0 1-1.186-.672v-.116c0-.299.167-.567.434-.7l3.239-1.62a2.52 2.52 0 0 1 1.81-.168l3.648 1.042.884.022 10.889-5.73z"/></svg>