<svg xmlns="http://www.w3.org/2000/svg" width="60" height="60" fill="none" viewBox="0 0 60 60"><path fill="#0f62fe" d="M48.717 25.499a8.83 8.83 0 0 0-6.283-2.6H17.55a8.87 8.87 0 0 0-8.883 8.883v16.016a8.867 8.867 0 0 0 8.883 8.867h24.9a8.9 8.9 0 0 0 8.884-8.867V31.783a8.78 8.78 0 0 0-2.617-6.283m-32.95 11.666H14v-3.6h1.784a16.017 16.017 0 0 1 16 15.984v1.8h-3.567v-1.8a12.45 12.45 0 0 0-12.433-12.417zm0 7.117H14v-3.6h1.784a8.9 8.9 0 0 1 8.883 8.866v1.8h-3.55v-1.8a5.333 5.333 0 0 0-5.333-5.316zM17.55 49.6a1.783 1.783 0 1 1-3.549.344 1.783 1.783 0 0 1 3.55-.344m3.566-33.818a8.892 8.892 0 1 1 17.783 0v3.55h3.55v-3.55A12.433 12.433 0 0 0 21.2 7a12.28 12.28 0 0 0-3.65 8.783v3.55h3.55z"/></svg>