<svg xmlns="http://www.w3.org/2000/svg" width="60" height="60" fill="none" viewBox="0 0 60 60"><path fill="#0f62fe" fill-rule="evenodd" d="M47.668 38.09h-7.35v-6.035a4.31 4.31 0 0 0-2.587-3.944v-3.46a6.864 6.864 0 0 0-6.866-6.866h-1.743a6.864 6.864 0 0 0-6.866 6.866v3.474a4.27 4.27 0 0 0-2.574 3.93v6.035h-7.35a5.25 5.25 0 0 1-5.245-5.246V5.19A5.19 5.19 0 0 1 12.277 0h12.9a5.2 5.2 0 0 1 5.19 5.19v1.343h-.941a1.87 1.87 0 0 0-1.62.941H15.503a.464.464 0 1 0 0 .927h12.056v3.156a6.134 6.134 0 0 0 6.131 6.132h18.284c.332 0 .664-.097.94-.25v15.405a5.24 5.24 0 0 1-5.245 5.246" clip-rule="evenodd"/><path fill="#0f62fe" fill-rule="evenodd" d="M51.973 16.746H33.69a5.19 5.19 0 0 1-5.19-5.19V8.4c0-.512.415-.927.927-.927H47.67a5.25 5.25 0 0 1 5.245 5.245v3.087a.94.94 0 0 1-.94.941M36.028 46.59h-12.07a3.35 3.35 0 0 1-3.349-3.35V32.056a3.35 3.35 0 0 1 3.35-3.349h12.07a3.343 3.343 0 0 1 3.348 3.35V43.24a3.343 3.343 0 0 1-3.349 3.35m-6.034-4.25a2.86 2.86 0 0 0 2.864-2.865 2.86 2.86 0 0 0-2.394-2.823v-3.225a.467.467 0 0 0-.47-.47.475.475 0 0 0-.471.47v3.225a2.86 2.86 0 0 0-2.395 2.823 2.87 2.87 0 0 0 2.866 2.865m0-4.789c1.065 0 1.937.858 1.937 1.924a1.943 1.943 0 0 1-1.937 1.938 1.93 1.93 0 0 1-1.924-1.938 1.92 1.92 0 0 1 1.924-1.924" clip-rule="evenodd"/><path fill="#0f62fe" fill-rule="evenodd" d="M35.862 30.574H24.125a.93.93 0 0 1-.928-.94V24.65a5.93 5.93 0 0 1 5.924-5.923h1.744c3.28 0 5.938 2.657 5.938 5.923v4.983a.933.933 0 0 1-.941.941m-10.796-1.868h9.868V24.65a4.06 4.06 0 0 0-4.055-4.055H29.12a4.06 4.06 0 0 0-4.055 4.055zM21.648 56.04a.933.933 0 0 1-.942-.94v-3.973c0-.346.18-.65.47-.817l1.856-1.065v-3.599a.93.93 0 0 1 .94-.927c.513 0 .928.415.928.927v4.139c0 .332-.18.636-.47.802l-1.855 1.066v3.446a.93.93 0 0 1-.927.942m16.705-.001a.94.94 0 0 1-.94-.94v-3.447l-1.855-1.066a.93.93 0 0 1-.471-.803v-4.138a.94.94 0 0 1 .941-.927.94.94 0 0 1 .941.927v3.585l1.855 1.08c.29.166.47.47.47.802V55.1a.94.94 0 0 1-.94.942m-8.36-3.046a.93.93 0 0 1-.928-.942v-6.408c0-.512.416-.927.928-.927a.93.93 0 0 1 .94.927v6.408a.933.933 0 0 1-.94.942" clip-rule="evenodd"/><path fill="#0f62fe" fill-rule="evenodd" d="M21.648 59.999a2.93 2.93 0 0 1-2.92-2.92 2.92 2.92 0 0 1 2.92-2.907 2.906 2.906 0 0 1 2.907 2.906 2.92 2.92 0 0 1-2.907 2.92m8.346-3.042a2.906 2.906 0 0 1-2.907-2.907 2.91 2.91 0 0 1 2.907-2.92 2.92 2.92 0 0 1 2.92 2.92 2.92 2.92 0 0 1-2.92 2.907m8.359 3.043a2.93 2.93 0 0 1-2.92-2.92 2.92 2.92 0 0 1 2.92-2.907 2.92 2.92 0 0 1 2.92 2.906 2.93 2.93 0 0 1-2.92 2.92" clip-rule="evenodd"/></svg>