<svg xmlns="http://www.w3.org/2000/svg" width="66" height="66" fill="none" viewBox="0 0 66 66"><path fill="#0f62fe" fill-rule="evenodd" d="M39.513 20.068a.883.883 0 0 1-1.23.207 9.15 9.15 0 0 0-10.565 0 .883.883 0 0 1-1.023-1.438 10.91 10.91 0 0 1 12.61 0c.398.282.49.834.208 1.23M38.6 42.78a2.33 2.33 0 0 0-3.058-.216.141.141 0 0 1-.227-.113V30.607c0-2.062-2.514-3.136-3.996-1.654a2.34 2.34 0 0 0-.688 1.654l-.014 14.682a.14.14 0 0 1-.206.126l-3.704-1.879-.003-.001c-1.73-.83-3.873-.643-4.56.752a1.83 1.83 0 0 0-.157 1.128c.154.909.967 1.93 2.693 2.75 1.746.829 2.87 2.205 3.223 4.208.14.852.272 2.387.525 3.128.275.802.966 1.777 1.566 2.679.63.947 1.31 1.972 1.68 2.684a.35.35 0 0 0 .314.191v.001h12.538c.171 0 .263-.096.33-.225 2.172-4.152 2.374-8.206 2.374-12.904 0-1.951-2.258-3.023-3.758-1.86a.141.141 0 0 1-.228-.097c-.195-1.913-2.346-2.725-3.743-1.65a.141.141 0 0 1-.227-.098 2.28 2.28 0 0 0-.674-1.442m-.658-34.13a5.75 5.75 0 0 1 1.694 4.075v.455c0 .078.064.142.142.142h1.73a.14.14 0 0 0 .142-.142v-.455c0-4.279-3.504-7.783-7.783-7.783h-1.733c-4.28 0-7.783 3.504-7.783 7.783v.455c0 .078.063.142.142.142h1.73a.14.14 0 0 0 .141-.142v-.455c0-3.175 2.595-5.77 5.77-5.77h1.733c1.587 0 3.03.65 4.075 1.695M33 20.65c4.808 0 8.212 4.636 6.855 9.194a.884.884 0 1 1-1.694-.505c1.017-3.414-1.533-6.92-5.16-6.92-3.629 0-6.178 3.506-5.162 6.92a.884.884 0 1 1-1.694.505c-1.357-4.558 2.048-9.195 6.855-9.195m-7.374 1.682c-2.885 3.923-2.185 9.439 1.614 12.525a.882.882 0 0 1-1.113 1.369 10.907 10.907 0 0 1-1.925-14.938.883.883 0 1 1 1.424 1.044m-6.799-.345v4.097a.14.14 0 0 1-.141.142h-5.284a.14.14 0 0 1-.133-.092c-.698-1.871-3.13-2.434-4.573-.99-1.75 1.749-.503 4.75 1.967 4.75a2.78 2.78 0 0 0 2.606-1.806.14.14 0 0 1 .133-.092h5.284c.078 0 .141.064.141.142v4.097a.14.14 0 0 1-.141.142l-2.718.003a.88.88 0 0 0-.692.257l-3.302 3.302a.14.14 0 0 1-.159.029c-1.818-.83-3.934.494-3.934 2.534 0 2.471 3.002 3.715 4.75 1.967a2.78 2.78 0 0 0 .566-3.12.14.14 0 0 1 .029-.158l3.007-3.007a.14.14 0 0 1 .1-.042l2.353-.002c.078 0 .141.063.141.142v3.044c0 .953.783 1.735 1.735 1.735h8.272a.14.14 0 0 0 .142-.142l.003-8.31a4 4 0 0 1 3.994-3.995 4 4 0 0 1 3.995 3.995v8.31c0 .078.063.142.141.142h8.33c.952 0 1.734-.782 1.734-1.735v-3.044a.14.14 0 0 1 .142-.142l2.353.002q.058 0 .1.041l3.007 3.007a.14.14 0 0 1 .029.16c-.83 1.818.494 3.934 2.533 3.934 2.472 0 3.716-3.002 1.968-4.75a2.78 2.78 0 0 0-3.12-.566.14.14 0 0 1-.158-.03l-3.303-3.301c-.22-.221-.436-.257-.702-.257l-2.707-.003a.14.14 0 0 1-.142-.142v-4.097c0-.078.064-.142.142-.142h5.284a.14.14 0 0 1 .133.092c.698 1.871 3.13 2.434 4.573.99 1.749-1.749.503-4.75-1.967-4.75a2.78 2.78 0 0 0-2.607 1.806.14.14 0 0 1-.132.092h-5.284a.14.14 0 0 1-.142-.142v-4.098c0-.078.064-.141.142-.142l2.718-.002a.88.88 0 0 0 .692-.257l3.302-3.302a.14.14 0 0 1 .159-.029c1.818.83 3.934-.494 3.934-2.533 0-2.472-3.002-3.716-4.75-1.968a2.78 2.78 0 0 0-.566 3.12.14.14 0 0 1-.029.158l-3.007 3.007a.14.14 0 0 1-.1.042l-2.353.002a.14.14 0 0 1-.142-.142v-3.044c0-.952-.782-1.735-1.734-1.735H20.562c-.952 0-1.735.783-1.735 1.735v3.044a.14.14 0 0 1-.141.142l-2.353-.002a.14.14 0 0 1-.1-.041l-3.007-3.008a.14.14 0 0 1-.029-.159c.83-1.818-.494-3.934-2.533-3.934-2.472 0-3.716 3.002-1.968 4.75a2.78 2.78 0 0 0 3.12.566.14.14 0 0 1 .158.029l3.303 3.302c.22.22.436.256.702.256l2.707.004c.078 0 .141.064.141.142m21.738-.889a.883.883 0 0 1 1.234.19 10.91 10.91 0 0 1-2.227 15.176.884.884 0 1 1-1.065-1.41 9.15 9.15 0 0 0 1.867-12.721.883.883 0 0 1 .19-1.235" clip-rule="evenodd"/></svg>