<svg xmlns="http://www.w3.org/2000/svg" width="60" height="60" fill="none" viewBox="0 0 60 60"><path fill="#0f62fe" d="M8.766 21.33v26.55h42.468V21.33a2.165 2.165 0 0 0-2.16-2.166h-6.243a18.82 18.82 0 0 1-8.67 15.5l-3.836 2.465a.6.6 0 0 1-.65 0l-3.834-2.465a18.82 18.82 0 0 1-8.672-15.5h-6.243c-1.19 0-2.16.971-2.16 2.166m9.27 18.343h23.929c1.76 0 3.19 1.431 3.19 3.19 0 1.76-1.431 3.19-3.19 3.19h-23.93a3.193 3.193 0 0 1-3.189-3.19c0-1.759 1.43-3.19 3.19-3.19"/><path fill="#0f62fe" d="M18.035 44.855h23.93c1.097 0 1.99-.892 1.99-1.99s-.892-1.99-1.99-1.99h-23.93c-1.097 0-1.99.893-1.99 1.99 0 1.098.893 1.99 1.99 1.99m23.185-3.292a1.303 1.303 0 1 1 0 2.605 1.303 1.303 0 0 1 0-2.605m-5.61 0a1.303 1.303 0 1 1 0 2.605 1.303 1.303 0 0 1 0-2.605m-5.61 0a1.303 1.303 0 1 1 0 2.605 1.303 1.303 0 0 1 0-2.605m-5.61 0a1.303 1.303 0 1 1 0 2.605 1.303 1.303 0 0 1 0-2.605m-5.61 0a1.303 1.303 0 1 1 0 2.605 1.303 1.303 0 0 1 0-2.605m7.71-7.908L30 35.913l3.51-2.258a17.64 17.64 0 0 0 8.134-14.896v-8.158L30.001 7.02l-11.644 3.582v8.157c0 6.054 3.04 11.623 8.134 14.896zm-7.533-22.167a.6.6 0 0 1 .423-.574l10.444-3.212a.6.6 0 0 1 .353 0l10.443 3.212a.6.6 0 0 1 .424.574v7.271a17.04 17.04 0 0 1-7.858 14.392l-2.862 1.84a.6.6 0 0 1-.649 0l-2.862-1.84a17.04 17.04 0 0 1-7.858-14.392v-7.271zm33.477 9.842v26.55h1.098V19.14a2.454 2.454 0 0 0-2.454-2.449h-8.235v1.272h6.23c1.854 0 3.36 1.51 3.36 3.366"/><path fill="#0f62fe" d="M27.463 32.14 30 33.773l2.537-1.631a15.85 15.85 0 0 0 7.307-13.382v-6.83l-9.843-3.029-9.844 3.029v6.828a15.85 15.85 0 0 0 7.307 13.382zM30 27.019a.951.951 0 1 1 0-1.903.951.951 0 0 1 0 1.903m1.298-9.592-.698 6.536c-.07.708-1.133.704-1.2 0l-.698-6.536c-.126-1.901 2.722-1.904 2.596 0m-7.679 33.018H36.38c.873 0 1.615-.573 1.87-1.363H21.748c.255.79.997 1.363 1.87 1.363"/><path fill="#0f62fe" d="M36.38 51.645H23.62a3.17 3.17 0 0 1-3.105-2.563H4.203v1.288a2.64 2.64 0 0 0 2.638 2.638H53.16a2.64 2.64 0 0 0 2.638-2.638v-1.288H39.485a3.17 3.17 0 0 1-3.104 2.563M7.566 21.33a3.367 3.367 0 0 1 3.36-3.367h6.23v-1.272H8.922a2.454 2.454 0 0 0-2.454 2.448v28.74h1.098z"/></svg>