<svg xmlns="http://www.w3.org/2000/svg" width="52" height="56" fill="none" viewBox="0 0 52 56"><path fill="#20282d" d="M.912 19.87a.92.92 0 0 0-.645.265.9.9 0 0 0-.267.64v3.612c0 .24.096.47.267.639s.403.264.645.264h1.99c.285 1.228.76 2.405 1.406 3.49l-2.216 2.194a.9.9 0 0 0-.198.985q.07.166.198.293l2.737 2.71a.91.91 0 0 0 .994.195.9.9 0 0 0 .296-.196l2.216-2.194a12.5 12.5 0 0 0 3.525 1.393v2.872c0 .24.096.47.267.639.17.17.403.264.645.264h3.199a14.4 14.4 0 0 0 3.268 6.04 14.6 14.6 0 0 0 5.712 3.87 14.73 14.73 0 0 0 13.353-1.572l9.024 8.933a2.74 2.74 0 0 0 1.935.794 2.76 2.76 0 0 0 1.935-.794A2.7 2.7 0 0 0 52 53.29a2.7 2.7 0 0 0-.802-1.916l-9.023-8.934c2-2.909 2.858-6.441 2.411-9.933a14.38 14.38 0 0 0-4.837-9.023h1.304a.92.92 0 0 0 .645-.265.9.9 0 0 0 .267-.638v-3.448c.18-.472 2.737-7.196 2.737-7.391 0-1.986-.566-3.553-1.682-4.658-1.115-1.105-2.698-1.665-4.704-1.665s-3.59.56-4.705 1.665-1.681 2.672-1.681 4.658c0 .108 2.737 7.39 2.737 7.39v1.462a14.7 14.7 0 0 0-4.562-.723h-3.813a12.3 12.3 0 0 0-1.407-3.49l2.216-2.194a.9.9 0 0 0 .267-.639.9.9 0 0 0-.267-.638l-2.737-2.71a.91.91 0 0 0-.994-.196.9.9 0 0 0-.296.196l-2.216 2.194a12.5 12.5 0 0 0-3.525-1.392V8.129c0-.24-.096-.47-.267-.639a.92.92 0 0 0-.645-.264h-3.65a.92.92 0 0 0-.644.264.9.9 0 0 0-.267.639v2.873a12.5 12.5 0 0 0-3.525 1.392L6.12 10.2a.91.91 0 0 0-.994-.196.9.9 0 0 0-.296.196l-2.737 2.71a.9.9 0 0 0-.198.984q.07.167.198.293l2.216 2.194a12.3 12.3 0 0 0-1.407 3.49zm48.996 32.782a.9.9 0 0 1 .209.99.9.9 0 0 1-.498.493.92.92 0 0 1-1-.206l-8.863-8.774q.685-.6 1.29-1.278zm-16.152-41.07c.054-2.89 1.587-4.356 4.56-4.356 2.976 0 4.51 1.469 4.56 4.367-.257.697-1.503 3.977-2.454 6.471H36.21zm2.735 8.289h3.65v1.806h-2.976a15 15 0 0 0-.674-.348zm6.386 14.452c0 2.5-.749 4.945-2.152 7.024a12.75 12.75 0 0 1-5.73 4.657 12.9 12.9 0 0 1-7.378.721 12.8 12.8 0 0 1-6.54-3.458 12.6 12.6 0 0 1-3.497-6.472 12.53 12.53 0 0 1 .723-7.306 12.67 12.67 0 0 1 4.7-5.676 12.86 12.86 0 0 1 7.093-2.136h.01a12.85 12.85 0 0 1 9.026 3.708 12.6 12.6 0 0 1 3.745 8.937m-28.28-7.226a4.6 4.6 0 0 1-2.535-.761 4.53 4.53 0 0 1-1.68-2.027 4.47 4.47 0 0 1-.26-2.61 4.5 4.5 0 0 1 1.25-2.312 4.6 4.6 0 0 1 2.335-1.236 4.6 4.6 0 0 1 2.635.257c.834.342 1.546.92 2.047 1.664.501.742.769 1.615.769 2.509a4.5 4.5 0 0 1-1.338 3.192 4.6 4.6 0 0 1-3.223 1.324M4.548 20.923c.25-1.485.821-2.9 1.673-4.148a.9.9 0 0 0-.103-1.156l-2.092-2.07 1.447-1.433 2.091 2.071a.916.916 0 0 0 1.168.102 10.7 10.7 0 0 1 4.19-1.656.9.9 0 0 0 .545-.307.9.9 0 0 0 .216-.584v-2.71h1.825v2.71a.91.91 0 0 0 .762.891c1.5.248 2.929.813 4.189 1.656a.92.92 0 0 0 1.168-.102l2.091-2.071 1.447 1.432-2.092 2.071a.9.9 0 0 0-.103 1.156 10.4 10.4 0 0 1 1.673 4.146 14.6 14.6 0 0 0-3.682 2.145q.019-.24.02-.486a6.3 6.3 0 0 0-1.23-3.736 6.4 6.4 0 0 0-3.223-2.295 6.45 6.45 0 0 0-3.969.032 6.4 6.4 0 0 0-3.184 2.346 6.3 6.3 0 0 0-1.17 3.755A6.3 6.3 0 0 0 9.5 26.397a6.4 6.4 0 0 0 3.261 2.24c1.3.385 2.69.35 3.968-.099a14.25 14.25 0 0 0-1.221 5.784q0 .907.114 1.807h-1.939v-2.71a.9.9 0 0 0-.216-.583.9.9 0 0 0-.546-.308 10.7 10.7 0 0 1-4.189-1.656.92.92 0 0 0-1.168.102l-2.091 2.071-1.447-1.432 2.092-2.071a.9.9 0 0 0 .102-1.156 10.4 10.4 0 0 1-1.672-4.148.9.9 0 0 0-.31-.54.92.92 0 0 0-.59-.214H1.825v-1.807h1.824a.92.92 0 0 0 .59-.214.9.9 0 0 0 .31-.54"/><path fill="#20282d" d="M28.377 5.015a.895.895 0 0 0 .408 1.212l1.825.903a.92.92 0 0 0 1.23-.4.895.895 0 0 0-.415-1.215l-1.824-.903a.92.92 0 0 0-1.224.403M37.404.903V2.71c0 .24.096.469.267.638a.917.917 0 0 0 1.29 0 .9.9 0 0 0 .267-.638V.903c0-.24-.096-.47-.267-.638a.917.917 0 0 0-1.29 0 .9.9 0 0 0-.267.638m-4.97.096a.895.895 0 0 0-.408 1.212l.912 1.806a.9.9 0 0 0 .528.458.92.92 0 0 0 .982-.265.9.9 0 0 0 .122-1.001l-.912-1.807a.92.92 0 0 0-1.224-.404m10.54.404L42.06 3.21a.895.895 0 0 0 .405 1.218.92.92 0 0 0 1.227-.41l.912-1.807A.897.897 0 0 0 44.2.993a.92.92 0 0 0-1.227.41m4.057 3.209-1.824.903a.9.9 0 0 0-.463.522.895.895 0 0 0 .268.972.915.915 0 0 0 1.011.121l1.825-.903a.9.9 0 0 0 .462-.522.89.89 0 0 0-.268-.972.915.915 0 0 0-1.01-.121M19.158 34.323c0 2.143.642 4.239 1.845 6.021a10.93 10.93 0 0 0 4.913 3.992c2 .82 4.201 1.035 6.325.617a11 11 0 0 0 5.605-2.966 10.8 10.8 0 0 0 2.996-5.55 10.74 10.74 0 0 0-.623-6.262 10.86 10.86 0 0 0-4.032-4.864 11.025 11.025 0 0 0-13.82 1.351 10.8 10.8 0 0 0-3.21 7.66m20.07 0a8.97 8.97 0 0 1-1.537 5.018 9.1 9.1 0 0 1-4.095 3.326 9.2 9.2 0 0 1-5.27.514 9.15 9.15 0 0 1-4.672-2.472 9 9 0 0 1-2.496-4.624 8.95 8.95 0 0 1 .519-5.219 9.05 9.05 0 0 1 3.36-4.053 9.19 9.19 0 0 1 11.516 1.126 9 9 0 0 1 2.675 6.383"/><path fill="#20282d" d="M24.632 34.323c0-.24-.097-.47-.268-.64a.917.917 0 0 0-1.29 0 .9.9 0 0 0-.267.64 7.2 7.2 0 0 0 2.14 5.107 7.34 7.34 0 0 0 5.158 2.118.92.92 0 0 0 .645-.264.9.9 0 0 0 0-1.278.92.92 0 0 0-.645-.264 5.5 5.5 0 0 1-3.869-1.59 5.4 5.4 0 0 1-1.605-3.83"/></svg>