<svg xmlns="http://www.w3.org/2000/svg" width="1920" height="736" fill="none" viewBox="0 0 1920 736"><path fill="#f9faff" d="M0 0h1920v728H0z"/><mask id="a" width="1920" height="728" x="0" y="0" maskUnits="userSpaceOnUse" style="mask-type:alpha"><path fill="#f9faff" d="M0 0h1920v728H0z"/></mask><g mask="url(#a)"><path fill="#eaeaff" fill-opacity=".3" d="M57.92 698.141H0v1.28h57.12l32.16 56-32.16 56H0v1.28h57.92l32.8-57.28zM254.24 812.7h-65.6l-32.96-57.28 32.96-57.92h65.6l32.8 57.28zm-64.96-1.28h64l32-56-32-56h-64l-32 56zm261.44 1.281h-65.76l-32-57.28 32-57.28h65.76l32 57.28zm-65.12-1.28h64l32-56-32-56h-64l-32 56zm1243.52 1.28h-65.76l-32-57.28 32-56.96h65.76l32.8 57.28zm-64.96-1.28h64l32-56-32-56h-64l-32 56zm261.44 1.279H1760l-32-57.28 32-57.92h65.76l32.8 57.28zm-65.6-1.28h64l32-56-32-56h-64l-32 56z"/><path fill="#eaeaff" fill-opacity=".3" d="M156 756.06H90.4l-32.96-57.28L90.4 641.5H156l32.96 57.28zm-64.96-1.28h64l32-56-32-56h-64l-32 56zM352 756.06h-65.28l-32.8-57.28 32.8-57.28H352l32 57.28zm-64-1.28h64l32-56-32-56h-64l-32 56zm260.96 1.28H483.2l-32.8-57.28 32.8-57.28h65.76l32 57.28zm-65.12-1.28h64l32-56-32-56h-64l-32 56zM1728 756.06h-65.76l-32-57.28 32-56.96H1728l32 56.96zm-64.96-1.28h64l32-56-32-56h-64l-32 56zm256.96 0h-61.28l-32.16-56 32.16-56H1920v-1.28h-61.92l-32.8 56.96-.16.32 32.96 57.28H1920z"/><path fill="#eaeaff" fill-opacity=".3" d="M57.92 584.859H0v1.28h57.12l32.16 56-32.16 56H0v1.12h57.92l32.8-57.12zM254.24 699.26h-65.6l-32.96-57.12 32.96-56.64h65.6l32.8 57.28zm-64.96-1.76h64l32-56-32-56h-64l-32 56zm261.44 1.759h-65.76l-32-57.12 32-57.28h65.76l32 57.28zm-65.12-1.76h64l32-56-32-56h-64l-32 56zm1243.52 1.761h-65.76l-32-57.12 32-56.96h65.76l32.8 57.28zm-64.96-1.76h64l32-56-32-56h-64l-32 56zm261.44 1.76H1760l-32-57.12 32-56.64h65.76l32.8 57.28zm-65.6-1.76h64l32-56-32-56h-64l-32 56z"/><path fill="#eaeaff" fill-opacity=".3" d="M156 642.621H90.4l-32.96-57.12 32.96-57.28H156l32.96 57.28zm-64.96-1.12h64l32-56-32-56h-64l-32 56zm260.96 1.12h-65.28l-32.8-57.12 32.8-57.28H352l32 57.28zm-64-1.12h64l32-56-32-56h-64l-32 56zm260.96 1.12H483.2l-32.8-57.12 32.8-57.28h65.76l32 57.28zm-65.12-1.12h64l32-56-32-56h-64l-32 56zm1047.04 1.118h-65.6l-32.96-57.12 32-56.96h65.6l33.92 56.96zm-64.96-1.12h64l32-56-32-56h-64l-32 56zm262.08 1.12h-65.76l-32-57.12 32-56.96H1728l32 56.96zm-64.96-1.12h64l32-56-32-56h-64l-32 56zm256.96.002h-61.28l-32.16-56 32.16-56H1920v-1.28h-61.92l-32.8 56.96-.16.32 32.96 57.12H1920z"/><path fill="#eaeaff" fill-opacity=".3" d="M57.92 471.58H0v1.12h57.12l32.16 56.16-32.16 56H0v1.12h57.92l32.8-57.12zM254.24 585.5h-65.6l-32.96-56.64 32.96-57.28h65.6l32.8 57.28zm-64.96 0h64l32-56-32-56h-64l-32 56zm261.44 0h-65.76l-32-57.12 32-57.28h65.76l32 57.28zm-65.12 0h64l32-56-32-56h-64l-32 56zm1047.04 0h-65.6l-32-57.12 32-56.96h65.6l32.96 57.28zm-64.96 0h64l32-56-32-56h-64l-32 56zm261.44 0h-65.76l-32-57.12 32-56.96h65.76l32.8 57.28zm-64.96 0h64l32-56-32-56h-64l-32 56zm261.44 0H1760l-32-57.12 32-56.96h65.76l32.8 57.28zm-65.6 0h64l32-56-32-56h-64l-32 56z"/><path fill="#eaeaff" fill-opacity=".3" d="M156 529.339H90.4l-32.96-57.12 32.96-57.28H156l32.96 57.28zm-64.96-1.12h64l32-56-32-56.16h-64l-32 56.16zm260.96 1.12h-65.28l-32.8-57.12 32.8-57.28H352l32 57.28zm-64-1.12h64l32-56-32-56.16h-64l-32 56.16zm260.96 1.12H483.2l-32.8-57.12 32.8-57.28h65.76l32 57.28zm-65.12-1.12h64l32-56-32-56.16h-64l-32 56.16zm1047.04 1.121h-65.6l-32.96-57.12 32-56.96h65.6l32.96 57.28zm-64.96-1.12h64l32-56-32-56.16h-64l-32 56.16zm262.08 1.12h-65.76l-32-57.12 32-56.96H1728l32 56.96zm-64.96-1.12h64l32-56-32-56.16h-64l-32 56.16zm256.96-.001h-61.28l-32.16-56.16 32.16-56H1920v-1.12h-61.92l-32.8 56.96-.16.16 32.96 57.28H1920z"/><path fill="#eaeaff" fill-opacity=".3" d="M57.92 358.301H0v1.12h57.12l32.16 56-32.16 56.16H0v1.12h57.92l32.8-57.28zm196.32 115.2h-65.6l-32.96-58.08 32.96-57.12h65.6l32.8 57.12zm-64.96-1.12h64l32-56.16-32-56h-64l-32 56zm261.44 1.119h-65.76l-32-57.28 32-57.12h65.76l32 57.12zm-65.12-1.12h64l32-56.16-32-56h-64l-32 56zm1047.04 1.12h-65.6l-32-57.28 32-56.96h65.6l32.96 57.12zm-64.96-1.12h64l32-56.16-32-56h-64l-32 56zm261.44 1.12h-65.76l-32-57.28 32-56.96h65.76l32.8 57.12zm-64.96-1.12h64l32-56.16-32-56h-64l-32 56zm261.44 1.12H1760l-32-57.28 32-56.96h65.76l32.8 57.12zm-65.6-1.92h64l32-56.16-32-56h-64l-32 56z"/><path fill="#eaeaff" fill-opacity=".3" d="M156 416.06H90.4l-32.96-57.28 32.96-57.12H156l32.96 57.12zm-64.96-1.28h64l32-56-32-56h-64l-32 56zM352 416.06h-65.28l-32.8-57.28 32.8-57.12H352l32 57.12zm-64-1.28h64l32-56-32-56h-64l-32 56zm260.96 1.28H483.2l-32.8-57.28 32.8-57.12h65.76l32 57.12zm-65.12-1.28h64l32-56-32-56h-64l-32 56zm1047.04 1.28h-65.6l-32.96-57.28 32-56.8h65.6l32.96 57.12zm-64.96-1.28h64l32-56-32-56h-64l-32 56zm262.08 1.28h-65.76l-32-57.28 32-56.8H1728l32 56.8zm-64.96-1.28h64l32-56-32-56h-64l-32 56zm256.96 0h-61.28l-32.16-56 32.16-56H1920v-1.12h-61.92l-32.8 56.96-.16.16 32.96 57.28H1920z"/><path fill="#eaeaff" fill-opacity=".3" d="M57.92 245.02H0v1.12h57.12l32.16 56-32.16 56H0v1.28h57.92l32.8-57.28zm196.32 114.4h-65.6l-32.96-57.28 32.96-57.12h65.6l32.8 57.12zm-64.96-1.28h64l32-56-32-56h-64l-32 56zm261.44 1.28h-65.76l-32-57.28 32-57.12h65.76l32 57.12zm-65.12-1.28h64l32-56-32-56h-64l-32 56zm1047.04 1.28h-65.6l-32-57.28 32-56.8h65.6l32.96 57.12zm-64.96-1.28h64l32-56-32-56h-64l-32 56zm261.44 1.28h-65.76l-32-57.28 32-56.8h65.76l32.8 57.12zm-64.96-1.28h64l32-56-32-56h-64l-32 56zm261.44 1.28H1760l-32-57.28 32-56.8h65.76l32.8 57.12zm-65.6-1.28h64l32-56-32-56h-64l-32 56z"/><path fill="#eaeaff" fill-opacity=".3" d="M156 302.781H90.4l-32.96-57.28 32.96-57.12H156l32.96 57.12zm-64.96-1.28h64l32-56-32-56h-64l-32 56zm260.96 1.28h-65.28l-32.8-57.28 32.8-57.12H352l32 57.12zm-64-1.28h64l32-56-32-56h-64l-32 56zm260.96 1.28H483.2l-32.8-57.28 32.8-57.12h65.76l32 57.12zm-65.12-1.28h64l32-56-32-56h-64l-32 56zm1047.04 1.278h-65.6l-32.96-57.28 32-56.8h65.6l32.96 57.12zm-64.96-1.28h64l32-56-32-56h-64l-32 56zm262.08 1.28h-65.76l-32-57.28 32-56.8H1728l32 56.8zm-64.96-1.28h64l32-56-32-56h-64l-32 56zm256.96.002h-61.28l-32.16-56 32.16-56H1920v-1.12h-61.92l-32.8 56.8-.16.32 32.96 57.28H1920z"/><path fill="#eaeaff" fill-opacity=".3" d="M57.92 131.58H0v1.28h57.12l32.16 56-32.16 56H0v1.28h57.92l32.8-57.28zm196.32 114.56h-65.6l-32.96-57.28 32.96-57.28h65.6l32.8 57.28zm-64.96-1.28h64l32-56-32-56h-64l-32 56zm261.44 1.28h-65.76l-32-57.28 32-57.28h65.76l32 57.28zm-65.12-1.28h64l32-56-32-56h-64l-32 56zm1047.04 1.28h-65.6l-32-57.28 32-56.96h65.6l32.96 57.28zm-64.96-1.28h64l32-56-32-56h-64l-32 56zm457.92 1.28H1760l-32-57.28 32-56.96h65.76l32.8 57.28zm-65.6-1.28h64l32-56-32-56h-64l-32 56z"/><path fill="#eaeaff" fill-opacity=".3" d="M548.96 189.499H483.2l-32.8-57.28 32.8-57.28h65.76l32 57.28zm-65.12-1.28h64l32-56-32-56h-64l-32 56zm1436.16 0h-61.28l-32.16-56 32.16-56H1920v-1.28h-61.92l-32.8 56.96-.16.32 32.96 57.28H1920zM57.92 18.3H0v1.28h57.12l32.16 56-32.16 56.001H0v1.28h57.92l32.8-57.28zm1374.72 114.559h-65.6l-32-57.28 32-56.96h65.6l32.96 56.96zm-64.96-1.28h64l32-56-32-56h-64l-32 56z"/><path fill="#eaeaff" fill-opacity=".3" d="M1825.6 132.859H1760l-32-57.28 32-56.96h65.76l32.8 57.28zm-65.6-1.28h64l32-56-32-56h-64l-32 56zM548.96 76.06H483.2l-32.8-57.12 32.8-57.44h65.76l32 57.28zm-65.12-1.12h64l32-56-32-56h-64l-32 56z"/><path fill="#eaeaff" fill-opacity=".3" d="M1920 74.94h-61.28l-32.16-56 32.16-56H1920v-1.28h-61.92l-32.8 56.96-.16.32 32.96 57.28H1920zM90.24-38.5H88.8l.48.8-32.16 56H0v1.12h57.92l32.8-57.12zm1373.44 0 .48.8-32.16 56h-64.32l-32.16-56 .48-.8h-1.44l-.16.48-.16.32 32.8 57.12h65.76l32.64-56.8.16-.32-.48-.8z"/><path fill="#eaeaff" fill-opacity=".3" d="m1856.48-38.5.48.8-32.16 56h-64.32l-32.16-56 .48-.8h-1.44l-.16.48-.16.32 32.8 57.12h65.76l32.64-56.8.16-.32-.48-.8z"/><path fill="#614ce1" fill-opacity=".05" d="M516.8 812.38h-65.6l-32.96-57.12 32.96-57.76h65.6l32.96 57.28zm-64.96-1.12h64l32-56-32-56h-64l-32 56z" opacity=".64"/><path fill="#614ce1" fill-opacity=".05" d="M1696 812.381h-65.76l-32-57.12 32-56.96H1696l32 56.96zm-65.12-1.12h64l32-56-32-56h-64l-32 56z" opacity=".29"/><path fill="#614ce1" fill-opacity=".05" d="m1920 760.701-28.96 50.559h-64.32l-32.16-56 32.16-56h64.32l28.96 50.56v-2.56l-28.32-49.28h-65.6l-32.8 56.96-.16.32 32.96 57.28h65.6L1920 763.1z" opacity=".65"/><path fill="#614ce1" fill-opacity=".05" d="M25.76 641.34H0v1.28h25.12l32.16 56-32.16 56H0v1.12h25.76l32.96-57.12z" opacity=".22"/><path fill="#614ce1" fill-opacity=".05" d="M222.24 755.74h-65.76l-32-57.12 32-57.28h65.76l32 57.28zm-64.96-1.12h64l32-56-32-56h-64l-32 56z" opacity=".86"/><path fill="#614ce1" fill-opacity=".05" d="M418.56 755.74h-65.6l-32-57.12 32-57.28h65.6l32.96 57.28zm-64.96-1.12h64l32-56-32-56h-64l-32 56z" opacity=".96"/><path fill="#614ce1" fill-opacity=".05" d="M1597.12 755.74h-65.76l-32-57.12 32-56.96h65.76l32.8 57.28zm-65.12-1.12h64l32-56-32-56h-64l-32 56z" opacity=".99"/><path fill="#614ce1" fill-opacity=".05" d="M1793.44 755.74H1728l-32.96-57.12 32-56.96h65.6l32.96 57.28zm-65.44-1.12h64l32-56-32-56h-64l-32 56z" opacity=".4"/><path fill="#614ce1" fill-opacity=".05" d="M124 699.1H58.4l-32.96-57.12L58.4 585.5H124l32.8 56.48zm-64.96-1.6h64l32-56-32-56h-64l-32 56z" opacity=".38"/><path fill="#614ce1" fill-opacity=".05" d="M320 699.1h-65.28l-32.8-57.12 32.8-56.48H320l32 57.28zm-64-1.6h64l32-56-32-56h-64l-32 56z" opacity=".7"/><path fill="#614ce1" fill-opacity=".05" d="M516.8 699.1h-65.6l-32.96-57.12 32.96-56.48h65.6l32.96 57.28zm-64.96-1.6h64l32-56-32-56h-64l-32 56z" opacity=".95"/><path fill="#614ce1" fill-opacity=".05" d="M1696 699.099h-65.76l-32-57.12 32-56.959H1696l32 56.959zm-65.76-1.599h64l32-56-32-56h-64l-32 56z" opacity=".32"/><path fill="#614ce1" fill-opacity=".05" d="m1920 647.419-28.96 50.56h-64.32l-32.16-56 32.16-56h64.32l28.96 50.4v-2.4l-28.32-49.28h-65.6l-32.8 56.96-.16.32 32.96 57.12h65.6l28.32-49.28z" opacity=".95"/><path fill="#614ce1" fill-opacity=".05" d="M25.76 528.061H0v1.12h25.12l32.16 56-32.16 56.16H0v1.12h25.76l32.96-57.28z" opacity=".45"/><path fill="#614ce1" fill-opacity=".05" d="M222.24 642.461h-65.76l-32.8-56.96 32-57.28h65.76l32 57.28zm-64.96-1.12h64l32-56-32-56h-64l-32 56z" opacity=".73"/><path fill="#614ce1" fill-opacity=".05" d="M418.56 642.461h-65.6L320 585.501l32-57.28h65.6l33.92 57.28zm-64.96-1.12h64l32-56-32-56h-64l-32 56z" opacity=".81"/><path fill="#614ce1" fill-opacity=".05" d="M615.04 642.461h-65.76l-32-57.12 32-57.28h65.76l32.8 57.44zm-64.96-1.12h64l32-56-32-56h-64l-32 56z" opacity=".24"/><path fill="#614ce1" fill-opacity=".05" d="M1400.64 642.459h-65.6l-32.96-56.96 32-56.96h65.6l33.92 56.96zm-64.96-1.12h64l32-56-32-56h-64l-32 56z" opacity=".74"/><path fill="#614ce1" fill-opacity=".05" d="M1597.12 642.461h-65.76l-32-57.12 32-56.96h65.76l32.8 57.12zm-65.12-1.12h64l32-56-32-56h-64l-32 56z" opacity=".49"/><path fill="#614ce1" fill-opacity=".05" d="M1793.44 642.459H1728l-33.12-56.96 32-56.96h65.6l33.92 56.96zm-65.44-1.12h64l32-56-32-56h-64l-32 56.16z" opacity=".99"/><path fill="#614ce1" fill-opacity=".05" d="M124 585.5H58.4l-32.96-56.96 32.96-57.12H124l32.8 57.12zm-64.96 0h64l32-56.16-32-56h-64l-32 56z" opacity=".25"/><path fill="#614ce1" fill-opacity=".05" d="M320 585.5h-65.28l-32.8-57.28 32.8-57.12H320l32 57.12zm-64 0h64l32-56.16-32-56h-64l-32 56z" opacity=".95"/><path fill="#614ce1" fill-opacity=".05" d="M516.8 585.5h-65.6l-32.96-57.28 32.96-57.12h65.6l32.96 57.12zm-64.96 0h64l32-56.16-32-56h-64l-32 56z" opacity=".37"/><path fill="#614ce1" fill-opacity=".05" d="M1498.88 585.5h-65.76l-32-57.28 32-56.96h65.76l32 57.12zm-64.96 0h64l32-56.16-32-56h-64l-32 56z" opacity=".74"/><path fill="#614ce1" fill-opacity=".05" d="M1696 585.5h-65.76l-32-57.28 32-56.96H1696l32 57.28zm-65.76 0h64l32-56.16-32-56h-64l-32 56z" opacity=".98"/><path fill="#614ce1" fill-opacity=".05" d="m1920 534.14-28.96 50.56h-64.32l-32.16-56.16 32.16-56h64.32L1920 523.1v-2.4l-28.32-49.28h-65.6l-32.8 56.96-.16.16 32.96 57.28h65.6l28.32-49.28z" opacity=".41"/><path fill="#614ce1" fill-opacity=".05" d="M25.76 414.779H0v1.12h25.12l32.16 56-32.16 56H0v1.28h25.76l32.96-57.28zm196.48 114.4h-65.76l-32-57.28 32-57.12h65.76l32 57.12zm-64.96-1.28h64l32-56-32-56h-64l-32 56z" opacity=".95"/><path fill="#614ce1" fill-opacity=".05" d="M418.56 529.179h-65.6L320 471.899l32-57.12h65.6l32.96 57.12zm-64.96-1.28h64l32-56-32-56h-64l-32 56z" opacity=".53"/><path fill="#614ce1" fill-opacity=".05" d="M615.04 529.179h-65.76l-32-57.28 32-57.12h65.76l32.8 57.12zm-64.96-1.28h64l32-56-32-56h-64l-32 56z" opacity=".94"/><path fill="#614ce1" fill-opacity=".05" d="M1400.64 529.18h-65.6l-32.96-57.28 32-56.8h65.6l33.92 56.8zm-64.96-1.28h64l32-56-32-56h-64l-32 56zm261.44 1.28h-65.76l-32-57.28 32-56.8h65.76l32.8 57.12zM1532 527.9h64l32-56-32-56h-64l-32 56z" opacity=".24"/><path fill="#614ce1" fill-opacity=".05" d="M1793.44 529.18H1728l-32.96-57.28 32-56.8h65.6l32.96 57.12zM1728 527.9h64l32-56-32-56h-64l-32 56z" opacity=".98"/><path fill="#614ce1" fill-opacity=".05" d="M124 472.541H58.4l-32.96-57.28 32.96-57.12H124l32.8 57.12zm-64.96-1.28h64l32-56-32-56h-64l-32 56z" opacity=".5"/><path fill="#614ce1" fill-opacity=".05" d="M320 472.541h-65.28l-32.8-57.28 32.8-57.12H320l32 57.12zm-64-1.28h64l32-56-32-56h-64l-32 56z" opacity=".28"/><path fill="#614ce1" fill-opacity=".05" d="M516.8 472.541h-65.6l-32.96-57.28 32.96-57.12h65.6l32.96 57.12zm-64.96-1.28h64l32-56-32-56h-64l-32 56z" opacity=".46"/><path fill="#614ce1" fill-opacity=".05" d="M1498.88 472.541h-65.76l-32-57.28 32-56.8h65.76l32 57.12zm-64.96-1.28h64l32-56-32-56h-64l-32 56z" opacity=".74"/><path fill="#614ce1" fill-opacity=".05" d="M1696 472.541h-65.76l-32-57.28 32-56.8H1696l32 56.8zm-65.12-1.28h64l32-56-32-56h-64l-32 56z" opacity=".64"/><path fill="#614ce1" fill-opacity=".05" d="m1920 420.861-28.96 50.4h-64.32l-32.16-56 32.16-56h64.32l28.96 50.56v-2.4l-28.32-49.28h-65.6l-32.8 56.8-.16.32 32.96 57.28h65.6l28.32-49.28z" opacity=".63"/><path fill="#614ce1" fill-opacity=".05" d="M25.76 301.5H0v1.12h25.12l32.16 56-32.16 56H0v1.28h25.76l32.96-57.28z" opacity=".4"/><path fill="#614ce1" fill-opacity=".05" d="M222.24 415.9h-65.76l-32-57.28 32-57.12h65.76l32 57.12zm-64.96-1.28h64l32-56-32-56h-64l-32 56z" opacity=".23"/><path fill="#614ce1" fill-opacity=".05" d="M418.56 415.9h-65.6l-32-57.28 32-57.12h65.6l32.96 57.12zm-64.96-1.28h64l32-56-32-56h-64l-32 56z" opacity=".56"/><path fill="#614ce1" fill-opacity=".05" d="M1597.12 415.9h-65.76l-32-57.28 32-56.8h65.76l32.8 57.12zm-65.12-1.28h64l32-56-32-56h-64l-32 56z" opacity=".82"/><path fill="#614ce1" fill-opacity=".05" d="M1793.44 415.9H1728l-32.96-57.28 32-56.8h65.6l32.96 57.12zm-65.44-1.28h64l32-56-32-56h-64l-32 56z" opacity=".66"/><path fill="#614ce1" fill-opacity=".05" d="M124 359.259H58.4l-32.96-57.28 32.96-57.12H124l32.8 57.12zm-64.96-1.28h64l32-56-32-56h-64l-32 56z" opacity=".23"/><path fill="#614ce1" fill-opacity=".05" d="M320 359.259h-65.28l-32.8-57.28 32.8-57.12H320l32 57.12zm-64-1.28h64l32-56-32-56h-64l-32 56z" opacity=".92"/><path fill="#614ce1" fill-opacity=".05" d="M516.8 359.259h-65.6l-32.96-57.28 32.96-57.12h65.6l32.96 57.12zm-64.96-1.28h64l32-56-32-56h-64l-32 56z" opacity=".47"/><path fill="#614ce1" fill-opacity=".05" d="M713.28 359.259h-65.76l-32-57.28 32-57.12h65.76l32.8 57.12zm-64.96-1.28h64l32-56-32-56h-64l-32 56z" opacity=".46"/><path fill="#614ce1" fill-opacity=".05" d="M1498.88 359.26h-65.76l-32-57.28 32-56.8h65.76l32 57.12zm-64.96-1.28h64l32-56-32-56h-64l-32 56z" opacity=".91"/><path fill="#614ce1" fill-opacity=".05" d="M1696 359.26h-65.76l-32-57.28 32-56.8H1696l32 56.8zm-65.12-1.28h64l32-56-32-56h-64l-32 56z" opacity=".33"/><path fill="#614ce1" fill-opacity=".05" d="m1920 307.579-28.96 50.4h-64.32l-32.16-56 32.16-56h64.32l28.96 50.56v-2.4l-28.32-49.44h-65.6l-32.8 56.96-.16.32 32.96 57.28h65.6l28.32-49.28z" opacity=".83"/><path fill="#614ce1" fill-opacity=".05" d="M25.76 188.061H0v1.28h25.12l32.16 56-32.16 56H0v1.28h25.76l32.96-57.28z" opacity=".66"/><path fill="#614ce1" fill-opacity=".05" d="M222.24 302.621h-65.76l-32-57.28 32-57.28h65.76l32 57.28zm-64.96-1.28h64l32-56-32-56h-64l-32 56z" opacity=".88"/><path fill="#614ce1" fill-opacity=".05" d="M418.56 302.621h-65.6l-32-57.28 32-57.28h65.6l32.96 57.28zm-64.96-1.28h64l32-56-32-56h-64l-32 56z" opacity=".74"/><path fill="#614ce1" fill-opacity=".05" d="M615.04 302.621h-65.76l-32-57.28 32-57.28h65.76l32.8 57.28zm-64.96-1.28h64l32-56-32-56h-64l-32 56z" opacity=".35"/><path fill="#614ce1" fill-opacity=".05" d="M1400.64 302.621h-65.6l-32.96-57.28 32-56.96h65.6l32.96 57.28zm-64.96-1.28h64l32-56-32-56h-64l-32 56z" opacity=".93"/><path fill="#614ce1" fill-opacity=".05" d="M1597.12 302.621h-65.76l-32-57.28 32-56.96h65.76l32.8 57.28zm-65.12-1.28h64l32-56-32-56h-64l-32 56z" opacity=".88"/><path fill="#614ce1" fill-opacity=".05" d="M1793.44 302.621H1728l-32.96-57.28 32-56.96h65.6l32.96 57.28zm-65.44-1.28h64l32-56-32-56h-64l-32 56z" opacity=".37"/><path fill="#614ce1" fill-opacity=".05" d="M124 245.98H58.4L25.44 188.7l32.96-57.28H124l32.8 57.28zm-64.96-1.28h64l32-56-32-56h-64l-32 56zM320 245.98h-65.28l-32.8-57.28 32.8-57.28H320l32 57.28zm-64-1.28h64l32-56-32-56h-64l-32 56z" opacity=".82"/><path fill="#614ce1" fill-opacity=".05" d="M516.8 245.98h-65.6l-32.96-57.28 32.96-57.28h65.6l32.96 57.28zm-64.96-1.28h64l32-56-32-56h-64l-32 56z" opacity=".75"/><path fill="#614ce1" fill-opacity=".05" d="M1498.88 245.98h-65.76l-32-57.28 32-56.96h65.76l32 57.28zm-64.96-1.28h64l32-56-32-56h-64l-32 56z" opacity=".81"/><path fill="#614ce1" fill-opacity=".05" d="M1696 245.98h-65.76l-32-57.28 32-56.96H1696l32 56.96zm-65.12-1.28h64l32-56-32-56h-64l-32 56z" opacity=".59"/><path fill="#614ce1" fill-opacity=".05" d="m1920 194.14-28.96 50.56h-64.32l-32.16-56 32.16-56h64.32l28.96 50.56v-2.56l-28.32-49.28h-65.6l-32.8 56.96-.16.32 32.96 57.28h65.6L1920 196.7z" opacity=".52"/><path fill="#614ce1" fill-opacity=".05" d="M25.76 74.78H0v1.28h25.12l32.16 55.999-32.16 56H0v1.12h25.76l32.96-57.12z" opacity=".61"/><path fill="#614ce1" fill-opacity=".05" d="M222.24 189.179h-65.76l-32-57.12 32-57.28h65.76l32 57.28zm-64.96-1.12h64l32-56-32-56h-64l-32 56z" opacity=".98"/><path fill="#614ce1" fill-opacity=".05" d="M418.56 189.179h-65.6l-32-57.12 32-57.28h65.6l32.96 57.28zm-64.96-1.12h64l32-56-32-56h-64l-32 56z" opacity=".64"/><path fill="#614ce1" fill-opacity=".05" d="M615.04 189.179h-65.76l-32-57.12 32-57.28h65.76l32.8 57.28zm-64.96-1.12h64l32-56-32-56h-64l-32 56z" opacity=".4"/><path fill="#614ce1" fill-opacity=".05" d="M1597.12 189.18h-65.76l-32-57.12 32-56.96h65.76l32.8 57.28zm-65.12-1.12h64l32-56-32-56h-64l-32 56z" opacity=".31"/><path fill="#614ce1" fill-opacity=".05" d="M1793.44 189.18H1728l-32.96-57.12 32-56.96h65.6l32.96 57.28zm-65.44-1.12h64l32-56-32-56h-64l-32 56z" opacity=".7"/><path fill="#614ce1" fill-opacity=".05" d="M124 132.541H58.4l-32.96-57.12L58.4 18.14H124l32.8 57.28zm-64.96-1.12h64l32-56-32-56h-64l-32 56z" opacity=".56"/><path fill="#614ce1" fill-opacity=".05" d="M320 132.541h-65.28l-32.8-57.12 32.8-57.28H320l32 57.28zm-64-1.12h64l32-56-32-56h-64l-32 56z" opacity=".51"/><path fill="#614ce1" fill-opacity=".05" d="M516.8 132.541h-65.6l-32.96-57.12 32.96-57.28h65.6l32.96 57.28zm-64.96-1.12h64l32-56-32-56h-64l-32 56z" opacity=".89"/><path fill="#614ce1" fill-opacity=".05" d="M713.28 132.541h-65.76l-32-57.12 32-57.28h65.76l32.8 57.28zm-64.96-1.12h64l32-56-32-56h-64l-32 56z" opacity=".29"/><path fill="#614ce1" fill-opacity=".05" d="M1498.88 132.541h-65.76l-32-57.12 32-56.96h65.76l32 57.28zm-64.96-1.12h64l32-56-32-56h-64l-32 56z"/><path fill="#614ce1" fill-opacity=".05" d="M1696 132.541h-65.76l-32-57.12 32-56.96H1696l32 56.96zm-65.12-1.12h64l32-56-32-56h-64l-32 56z" opacity=".36"/><path fill="#614ce1" fill-opacity=".05" d="m1920 80.86-28.96 50.561h-64.32l-32.16-56 32.16-56h64.32l28.96 50.4v-2.4l-28.32-49.28h-65.6l-32.8 56.96-.16.32 32.96 57.12h65.6l28.32-49.28z" opacity=".46"/><path fill="#614ce1" fill-opacity=".05" d="M25.76-38.5H0v1.28h25.12l32.16 56-32.16 56H0v1.12h25.76l32.96-57.12z" opacity=".47"/><path fill="#614ce1" fill-opacity=".05" d="M222.24 75.9h-65.76l-32-57.12 32-57.28h65.76l32 57.28zm-64.96-1.12h64l32-56-32-56h-64l-32 56z" opacity=".6"/><path fill="#614ce1" fill-opacity=".05" d="M418.56 75.9h-65.6L320 18.78l32-57.28h65.6l32.96 57.28zm-64.96-1.12h64l32-56-32-56h-64l-32 56z" opacity=".49"/><path fill="#614ce1" fill-opacity=".05" d="M615.04 75.9h-65.76l-32-57.12 32-57.28h65.76l32.8 57.28zm-64.96-1.12h64l32-56-32-56h-64l-32 56z" opacity=".58"/><path fill="#614ce1" fill-opacity=".05" d="M1400.64 75.9h-65.6l-32.96-57.12 32-56.96h65.6l33.92 56.96zm-64.96-1.12h64l32-56-32-56h-64l-32 56z" opacity=".56"/><path fill="#614ce1" fill-opacity=".05" d="M1597.12 75.9h-65.76l-32-57.12 32-56.96h65.76l32.8 57.28zM1532 74.78h64l32-56-32-56h-64l-32 56z" opacity=".45"/><path fill="#614ce1" fill-opacity=".05" d="M1793.44 75.9H1728l-32.96-57.12L1728-38.5h65.6l32.96 57.28zM1728 74.78h64l32-56-32-56h-64l-32 56z" opacity=".89"/><path fill="#614ce1" fill-opacity=".05" d="m155.2-38.5.32.64-32.16 56H59.04l-32.16-56 .32-.64h-1.44l-.32.64L58.4 19.26H124l32.8-57.12-.32-.64z" opacity=".62"/><path fill="#614ce1" fill-opacity=".05" d="m351.52-38.5.32.64-32.16 56h-64.32l-32.16-56 .32-.64h-1.28l-.32.64 32.8 57.12h65.76l32.8-57.12-.32-.64z" opacity=".6"/><path fill="#614ce1" fill-opacity=".05" d="m548-38.5.32.64-32.16 56h-64.32l-32.16-56 .32-.64h-1.44l-.32.64 32.96 57.12h65.6l32.8-57.12-.16-.64z" opacity=".54"/><path fill="#614ce1" fill-opacity=".05" d="m744.32-38.5.32.64-32.16 56h-64.16l-32.16-56 .32-.64h-1.44l-.32.64 32.8 57.12h65.76l32.8-57.12-.32-.64z" opacity=".57"/><path fill="#614ce1" fill-opacity=".05" d="m1333.6-38.5.32.64-32.16 56h-64.32l-32.16-56 .32-.64h-1.28l-.16.32-.16.32 32.8 57.12h65.6l32.8-56.8.16-.32-.32-.64z" opacity=".55"/><path fill="#614ce1" fill-opacity=".05" d="m1530.08-38.5.32.64-32.16 56h-64.32l-32.16-56 .32-.64h-1.44l-.16.32-.16.32 32.8 57.12h65.76l32.64-56.8.16-.32-.32-.64z" opacity=".84"/><path fill="#614ce1" fill-opacity=".05" d="m1726.4-38.5.32.64-32.16 56h-64.32l-32.16-56 .32-.64h-1.28l-.16.32-.16.32 32.8 57.12h65.76l32.64-56.8.16-.32-.32-.64z" opacity=".55"/><path fill="#614ce1" fill-opacity=".05" d="m1920-32.42-28.96 50.56h-64.32l-32.16-56 .32-.64h-1.44l-.16.32-.16.32 32.96 57.12h65.6L1920-30.02z" opacity=".4"/><path fill="#614ce1" fill-opacity=".05" d="M1506.24 698.621a7.6 7.6 0 0 1-.54 2.988 7.65 7.65 0 0 1-4.16 4.252c-.95.396-1.96.6-2.98.6a8 8 0 0 1-8-8 8 8 0 0 1 8-8 7.6 7.6 0 0 1 3.05.627 7.7 7.7 0 0 1 2.56 1.789 7.7 7.7 0 0 1 1.63 2.657c.36.988.51 2.039.44 3.087" opacity=".51"/><path fill="#614ce1" fill-opacity=".05" d="M228.96 641.979a7.04 7.04 0 1 1-14.08 0 6.88 6.88 0 0 1 4.32-6.548 6.9 6.9 0 0 1 2.72-.492 7.04 7.04 0 0 1 7.04 7.04" opacity=".95"/><path fill="#614ce1" fill-opacity=".05" d="M425.6 641.979a7.52 7.52 0 0 1-7.36 7.36 7.36 7.36 0 0 1 0-14.72 7.52 7.52 0 0 1 7.36 7.36" opacity=".32"/><path fill="#614ce1" fill-opacity=".05" d="M1831.2 698.619a5.6 5.6 0 0 1-5.6 5.6 5.756 5.756 0 0 1-4.8-5.68 5.756 5.756 0 0 1 4.8-5.68 5.6 5.6 0 0 1 4.02 1.697c.52.537.93 1.173 1.2 1.871s.4 1.444.38 2.192" opacity=".62"/><path fill="#614ce1" fill-opacity=".05" d="M1734.24 641.98a6.07 6.07 0 0 1-1.03 3.378c-.66 1-1.61 1.779-2.72 2.24a6.1 6.1 0 0 1-3.52.346 6.07 6.07 0 0 1-4.77-4.777 6.04 6.04 0 0 1 .34-3.513 6.08 6.08 0 0 1 5.62-3.754 6.08 6.08 0 0 1 6.08 6.08" opacity=".69"/><path fill="#614ce1" fill-opacity=".05" d="M129.76 698.621a6.08 6.08 0 0 1-3.862 5.502 6.076 6.076 0 0 1-8.19-4.534 6.076 6.076 0 0 1 5.972-7.208 6.08 6.08 0 0 1 6.08 6.24" opacity=".96"/><path fill="#614ce1" fill-opacity=".05" d="M325.6 698.619a5.601 5.601 0 0 1-9.131 3.337 5.601 5.601 0 0 1 3.611-9.88 5.6 5.6 0 0 1 4.28 1.989 5.6 5.6 0 0 1 1.24 4.554" opacity=".44"/><path fill="#614ce1" fill-opacity=".05" d="M260.64 698.62a5.6 5.6 0 0 1-5.6 5.44 5.6 5.6 0 0 1-4.657-5.521 5.6 5.6 0 0 1 4.657-5.519 5.6 5.6 0 0 1 5.6 5.6" opacity=".6"/><path fill="#614ce1" fill-opacity=".05" d="M653.12 585.501a5.1 5.1 0 0 1-1.556 3.678 5.13 5.13 0 0 1-3.724 1.442 5.124 5.124 0 0 1-5.12-5.12 5.1 5.1 0 0 1 1.442-3.725 5.12 5.12 0 0 1 3.678-1.555 5.28 5.28 0 0 1 5.28 5.28" opacity=".58"/><path fill="#614ce1" fill-opacity=".05" d="M1799.68 641.98a5.92 5.92 0 0 1-5.84 4.95 5.92 5.92 0 0 1-5.84-4.95 6.1 6.1 0 0 1 .13-2.545c.23-.828.64-1.597 1.19-2.253a5.93 5.93 0 0 1 9.04 0c.55.656.96 1.425 1.19 2.253s.27 1.697.13 2.545" opacity=".56"/><path fill="#614ce1" fill-opacity=".05" d="M227.04 528.7a5.12 5.12 0 0 1-5.12 5.12 5.12 5.12 0 0 1-4.875-3.123 5.1 5.1 0 0 1-.405-1.997 5.28 5.28 0 0 1 5.28-5.28 5.12 5.12 0 0 1 5.12 5.28" opacity=".64"/><path fill="#614ce1" fill-opacity=".05" d="M425.44 641.819a7.204 7.204 0 0 1-4.119 7.615 7.2 7.2 0 0 1-6.003 0 7.2 7.2 0 0 1-3.916-4.549 7.2 7.2 0 0 1-.202-3.066 7.199 7.199 0 1 1 14.24 0" opacity=".99"/><path fill="#614ce1" fill-opacity=".05" d="M457.28 585.5a6.559 6.559 0 1 1-6.56-6.56 6.4 6.4 0 0 1 6.56 6.56" opacity=".22"/><path fill="#614ce1" fill-opacity=".05" d="M424.32 528.699a6.08 6.08 0 1 1-12.16.003 6.08 6.08 0 0 1 12.16-.003" opacity=".49"/><path fill="#614ce1" fill-opacity=".05" d="M359.36 641.82a6.08 6.08 0 1 1-12.161-.001 6.08 6.08 0 0 1 12.161.001" opacity=".99"/><path fill="#614ce1" fill-opacity=".05" d="M1636 585.499c0 .883-.17 1.756-.51 2.572a6.7 6.7 0 0 1-1.46 2.18 6.7 6.7 0 0 1-4.75 1.968 6.9 6.9 0 0 1-4.18-2.32 6.87 6.87 0 0 1-1.65-4.48c0-1.643.58-3.232 1.65-4.48a6.9 6.9 0 0 1 4.18-2.32 6.72 6.72 0 0 1 4.81 2.025c.63.641 1.12 1.4 1.45 2.234.32.834.48 1.725.46 2.621" opacity=".88"/><path fill="#614ce1" fill-opacity=".05" d="M357.76 528.54a5.12 5.12 0 0 1-3.123 4.875 5.1 5.1 0 0 1-1.997.405 5.29 5.29 0 0 1-4.31-1.156 5.277 5.277 0 0 1 2.027-9.144 5.3 5.3 0 0 1 2.283-.1 5.12 5.12 0 0 1 5.12 5.12" opacity=".45"/><path fill="#614ce1" fill-opacity=".05" d="M457.76 472.06a6.4 6.4 0 0 1-6.24 6.24 6.401 6.401 0 0 1-3.86-10.473 6.4 6.4 0 0 1 3.86-2.167 6.4 6.4 0 0 1 6.24 6.4" opacity=".22"/><path fill="#614ce1" fill-opacity=".05" d="M1340.8 528.541c.14.892.09 1.805-.15 2.675s-.67 1.678-1.26 2.366a6.2 6.2 0 0 1-2.13 1.62 6.26 6.26 0 0 1-5.24 0 6.2 6.2 0 0 1-2.13-1.62 6.15 6.15 0 0 1-1.26-2.366 6.4 6.4 0 0 1-.15-2.675 6.3 6.3 0 0 1 2.11-3.756 6.27 6.27 0 0 1 4.05-1.488c1.48 0 2.92.528 4.04 1.488a6.26 6.26 0 0 1 2.12 3.756" opacity=".38"/><path fill="#614ce1" fill-opacity=".05" d="M1406.88 528.54c.14.848.1 1.716-.13 2.545a6 6 0 0 1-1.19 2.253 6 6 0 0 1-2.03 1.543 5.92 5.92 0 0 1-4.98 0 6 6 0 0 1-2.03-1.543 6 6 0 0 1-1.19-2.253 5.9 5.9 0 0 1-.13-2.545 5.914 5.914 0 0 1 5.84-4.95 5.914 5.914 0 0 1 5.84 4.95" opacity=".33"/><path fill="#614ce1" fill-opacity=".05" d="M1699.52 585.499a4.64 4.64 0 0 1-9.28 0 4.644 4.644 0 0 1 4.64-4.64 4.64 4.64 0 0 1 4.64 4.64" opacity=".66"/><path fill="#614ce1" fill-opacity=".05" d="M1637.28 472.059c0 1.952-.78 3.824-2.16 5.204a7.35 7.35 0 0 1-10.4 0 7.36 7.36 0 0 1-2.16-5.204c0-1.952.78-3.824 2.16-5.204a7.35 7.35 0 0 1 5.2-2.156c1.95 0 3.82.776 5.2 2.156a7.36 7.36 0 0 1 2.16 5.204" opacity=".62"/><path fill="#614ce1" fill-opacity=".05" d="M1604.64 528.54a7.2 7.2 0 0 1-1.13 4.043 7.27 7.27 0 0 1-3.2 2.722 7.21 7.21 0 0 1-7.9-1.457 7.2 7.2 0 0 1-2.02-3.683 7.2 7.2 0 0 1 .38-4.182 7.25 7.25 0 0 1 2.65-3.258 7.2 7.2 0 0 1 4.02-1.225c1.88 0 3.69.736 5.04 2.052a7.2 7.2 0 0 1 2.16 4.988" opacity=".75"/><path fill="#614ce1" fill-opacity=".05" d="M228.64 415.42a6.88 6.88 0 1 1-13.601-2.091 6.88 6.88 0 0 1 13.601 2.091" opacity=".3"/><path fill="#614ce1" fill-opacity=".05" d="M424.48 528.541a6.25 6.25 0 0 1-1.408 5.041 6.25 6.25 0 0 1-4.752 2.195 6.237 6.237 0 0 1-6.16-7.236 6.24 6.24 0 0 1 6.16-5.244 6.24 6.24 0 0 1 6.16 5.244" opacity=".65"/><path fill="#614ce1" fill-opacity=".05" d="M327.04 471.9a6.24 6.24 0 0 1-1.828 4.412 6.24 6.24 0 0 1-4.412 1.828 6.08 6.08 0 0 1-6.24-6.24 6.24 6.24 0 0 1 6.24-6.24 6.4 6.4 0 0 1 6.24 6.24" opacity=".36"/><path fill="#614ce1" fill-opacity=".05" d="M1635.36 471.9a6.14 6.14 0 0 1-1.02 3.378c-.67 1-1.62 1.779-2.73 2.24a6.1 6.1 0 0 1-3.52.345 6.06 6.06 0 0 1-4.77-4.777 6.03 6.03 0 0 1 .34-3.512 6.08 6.08 0 0 1 5.62-3.754 6.08 6.08 0 0 1 6.08 6.08" opacity=".44"/><path fill="#614ce1" fill-opacity=".05" d="M1798.72 415.42a5.58 5.58 0 0 1-1.7 3.857 5.57 5.57 0 0 1-3.9 1.583 5.64 5.64 0 0 1-3.34-1.909 5.6 5.6 0 0 1-1.32-3.611c0-1.321.47-2.6 1.32-3.611a5.64 5.64 0 0 1 3.34-1.909 5.6 5.6 0 0 1 5.6 5.6" opacity=".2"/><path fill="#614ce1" fill-opacity=".05" d="M325.92 358.62a5.92 5.92 0 0 1-3.58 5.596 5.919 5.919 0 1 1-2.18-11.356 5.756 5.756 0 0 1 5.76 5.76" opacity=".68"/><path fill="#614ce1" fill-opacity=".05" d="M555.52 415.259a6.57 6.57 0 0 1-1.494 5.284 6.55 6.55 0 0 1-7.732 1.695 6.56 6.56 0 0 1-3.567-4.173 6.55 6.55 0 0 1-.167-2.806 6.56 6.56 0 0 1 6.48-7.581 6.55 6.55 0 0 1 4.986 2.297 6.56 6.56 0 0 1 1.494 5.284" opacity=".74"/><path fill="#614ce1" fill-opacity=".05" d="M656 471.901a7.52 7.52 0 0 1-4.642 6.947 7.5 7.5 0 0 1-4.345.428 7.52 7.52 0 0 1-2.711-13.628 7.524 7.524 0 0 1 9.495.935 7.52 7.52 0 0 1 2.203 5.318" opacity=".4"/><path fill="#614ce1" fill-opacity=".05" d="M1832.96 471.9c0 1.755-.69 3.44-1.91 4.696a6.74 6.74 0 0 1-4.65 2.024c-.88 0-1.74-.175-2.55-.514-.8-.34-1.53-.838-2.15-1.464a6.6 6.6 0 0 1-1.41-2.183 6.6 6.6 0 0 1-.45-2.559 6.56 6.56 0 1 1 13.12 0" opacity=".85"/><path fill="#614ce1" fill-opacity=".05" d="M228.16 415.26a6.24 6.24 0 0 1-6.24 6.24 6.08 6.08 0 0 1-6.24-6.24 6.25 6.25 0 0 1 1.828-4.413 6.23 6.23 0 0 1 4.412-1.827 6.4 6.4 0 0 1 6.24 6.24" opacity=".49"/><path fill="#614ce1" fill-opacity=".05" d="M555.2 415.26a5.595 5.595 0 0 1-3.496 5.188 5.6 5.6 0 1 1 3.496-5.188" opacity=".94"/><path fill="#614ce1" fill-opacity=".05" d="M720 358.621a6.25 6.25 0 0 1-1.77 4.516 6.3 6.3 0 0 1-2.044 1.394 6.3 6.3 0 0 1-2.426.49 6.4 6.4 0 0 1 0-12.8 6.23 6.23 0 0 1 5.812 3.963c.304.775.449 1.604.428 2.437m915.2-.002c0 1.585-.62 3.108-1.72 4.244a6.1 6.1 0 0 1-4.2 1.836 6.08 6.08 0 0 1-3.65-2.063 6.1 6.1 0 0 1-1.45-3.937c0-1.442.52-2.837 1.45-3.936a6.08 6.08 0 0 1 3.65-2.064 6.087 6.087 0 0 1 5.92 5.92" opacity=".43"/><path fill="#614ce1" fill-opacity=".05" d="M1537.28 415.26c.02.742-.11 1.48-.38 2.169-.28.69-.69 1.316-1.21 1.84a5.45 5.45 0 0 1-4.01 1.591 5.62 5.62 0 0 1-3.96-1.64 5.6 5.6 0 0 1-1.21-1.817 5.4 5.4 0 0 1-.43-2.143 5.603 5.603 0 0 1 5.6-5.6 5.603 5.603 0 0 1 5.6 5.6" opacity=".58"/><path fill="#614ce1" fill-opacity=".05" d="M1728.16 308.7a6.721 6.721 0 0 0 0-13.44 6.72 6.72 0 0 0 0 13.44" opacity=".64"/><path fill="#614ce1" fill-opacity=".05" d="M64.96 245.34a6.4 6.4 0 1 1-12.64 2.018 6.4 6.4 0 0 1 12.64-2.018" opacity=".51"/><path fill="#614ce1" fill-opacity=".05" d="M327.04 245.341a7.045 7.045 0 0 1-4.346 6.504 7.04 7.04 0 0 1-7.672-1.526A7.043 7.043 0 0 1 320 238.301a7.04 7.04 0 0 1 7.04 7.04" opacity=".67"/><path fill="#614ce1" fill-opacity=".05" d="M521.12 358.62a4.63 4.63 0 0 1-.859 2.533 4.637 4.637 0 0 1-8.34-1.845 4.63 4.63 0 0 1 .29-2.658 4.63 4.63 0 0 1 1.709-2.057 4.64 4.64 0 0 1 2.56-.773 4.8 4.8 0 0 1 4.64 4.8" opacity=".57"/><path fill="#614ce1" fill-opacity=".05" d="M1433.6 364.06c3.01 0 5.44-2.436 5.44-5.44s-2.43-5.44-5.44-5.44c-3 0-5.44 2.435-5.44 5.44 0 3.004 2.44 5.44 5.44 5.44" opacity=".83"/><path fill="#614ce1" fill-opacity=".05" d="M1701.6 358.62a6.71 6.71 0 0 1-4.15 6.209 6.715 6.715 0 0 1-7.32-1.457 6.725 6.725 0 0 1-1.46-7.323 6.7 6.7 0 0 1 2.48-3.016 6.7 6.7 0 0 1 6.3-.621c.82.338 1.56.833 2.18 1.457a6.7 6.7 0 0 1 1.46 2.18c.34.815.51 1.689.51 2.571" opacity=".53"/><path fill="#614ce1" fill-opacity=".05" d="M1897.28 358.62a5.93 5.93 0 0 1-3.65 5.469 5.94 5.94 0 0 1-6.46-1.283 6 6 0 0 1-1.62-3.032 6 6 0 0 1 .34-3.42 5.92 5.92 0 0 1 5.47-3.654c.78-.023 1.56.115 2.29.405s1.39.725 1.95 1.279c.55.554.98 1.216 1.27 1.944s.43 1.508.41 2.292" opacity=".33"/><path fill="#614ce1" fill-opacity=".05" d="M1800.8 301.98a7.1 7.1 0 0 1-.19 3 7.06 7.06 0 0 1-3.83 4.456 7.06 7.06 0 0 1-5.88 0 7.06 7.06 0 0 1-3.83-4.456 7.1 7.1 0 0 1-.19-3 7 7 0 0 1 2.37-4.281 7.05 7.05 0 0 1 4.59-1.701c1.68 0 3.31.603 4.59 1.701a7 7 0 0 1 2.37 4.281" opacity=".41"/><path fill="#614ce1" fill-opacity=".05" d="M325.92 245.341a5.125 5.125 0 0 1-3.161 4.73 5.12 5.12 0 1 1 3.161-4.73" opacity=".55"/><path fill="#614ce1" fill-opacity=".05" d="M359.36 301.98a6.08 6.08 0 1 1-12.159 0 6.08 6.08 0 0 1 12.159 0" opacity=".4"/><path fill="#614ce1" fill-opacity=".05" d="M1440 245.339a6.71 6.71 0 0 1-4.15 6.209 6.72 6.72 0 0 1-7.32-1.457 6.725 6.725 0 0 1-1.46-7.323 6.7 6.7 0 0 1 2.48-3.016 6.7 6.7 0 0 1 3.73-1.133c.88 0 1.76.174 2.57.512.82.337 1.56.832 2.18 1.456a6.7 6.7 0 0 1 1.46 2.181c.34.815.51 1.689.51 2.571" opacity=".45"/><path fill="#614ce1" fill-opacity=".05" d="M1405.28 188.7c0 .981-.29 1.94-.84 2.756a4.95 4.95 0 0 1-2.22 1.827c-.91.375-1.91.473-2.87.282a5 5 0 0 1-2.54-1.358 4.96 4.96 0 0 1-1.35-2.539c-.2-.962-.1-1.96.28-2.866a4.95 4.95 0 0 1 1.82-2.226 5 5 0 0 1 2.76-.836 4.96 4.96 0 0 1 4.96 4.96" opacity=".31"/><path fill="#614ce1" fill-opacity=".05" d="M1308.96 245.34a6.08 6.08 0 1 1-1.78-4.299 6.2 6.2 0 0 1 1.32 1.972c.3.738.46 1.528.46 2.327" opacity=".29"/><path fill="#614ce1" fill-opacity=".05" d="M1601.44 188.7c.13.693.1 1.405-.08 2.086-.17.682-.5 1.315-.95 1.857-.45.541-1.01.977-1.65 1.276s-1.34.454-2.04.454-1.4-.155-2.04-.454a4.8 4.8 0 0 1-1.65-1.276 4.7 4.7 0 0 1-.95-1.857 4.74 4.74 0 0 1-.08-2.086c-.13-.692-.1-1.405.08-2.086.17-.682.5-1.315.95-1.857a4.8 4.8 0 0 1 1.65-1.276 4.8 4.8 0 0 1 2.04-.454c.7 0 1.4.155 2.04.454s1.2.735 1.65 1.276c.45.542.78 1.175.95 1.857.18.681.21 1.394.08 2.086" opacity=".95"/><path fill="#614ce1" fill-opacity=".05" d="M1799.04 301.98a5.8 5.8 0 0 1-1.69 4.236c-.55.554-1.21.989-1.94 1.279s-1.51.427-2.29.405a5.917 5.917 0 0 1-5.92-5.92c0-1.585.62-3.107 1.72-4.243a6.1 6.1 0 0 1 4.2-1.837 5.9 5.9 0 0 1 4.24 1.79c.56.567.99 1.239 1.28 1.976.28.737.42 1.524.4 2.314" opacity=".41"/><path fill="#614ce1" fill-opacity=".05" d="M1734.88 188.7a6.7 6.7 0 0 1-4.15 6.209 6.7 6.7 0 0 1-3.88.382 6.725 6.725 0 0 1-4.9-9.162 6.7 6.7 0 0 1 2.48-3.016 6.72 6.72 0 0 1 8.48.836 6.72 6.72 0 0 1 1.97 4.751" opacity=".64"/><path fill="#614ce1" fill-opacity=".05" d="M1728.16 307.581c3.09 0 5.6-2.507 5.6-5.6s-2.51-5.6-5.6-5.6-5.6 2.507-5.6 5.6 2.51 5.6 5.6 5.6M130.24 245.339a6.56 6.56 0 1 1-13.12 0 6.56 6.56 0 0 1 13.12 0" opacity=".48"/><path fill="#614ce1" fill-opacity=".05" d="M161.12 188.7a4.962 4.962 0 0 1-5.928 4.865 4.96 4.96 0 1 1 5.928-4.865" opacity=".76"/><path fill="#614ce1" fill-opacity=".05" d="M64 245.34a5.76 5.76 0 1 1-11.52 0 5.76 5.76 0 0 1 11.52 0" opacity=".38"/><path fill="#614ce1" fill-opacity=".05" d="M326.72 132.06a6.56 6.56 0 1 1-13.119 0 6.56 6.56 0 0 1 13.119 0" opacity=".85"/><path fill="#614ce1" fill-opacity=".05" d="M522.72 132.061a6.07 6.07 0 0 1-3.826 5.809 6.1 6.1 0 0 1-2.414.431 6.24 6.24 0 0 1 0-12.48 6.07 6.07 0 0 1 5.81 3.826c.306.767.452 1.588.43 2.414" opacity=".78"/><path fill="#614ce1" fill-opacity=".05" d="M654.4 245.339c.147.936.09 1.894-.167 2.806a6.56 6.56 0 0 1-9.058 4.173 6.56 6.56 0 0 1-3.735-6.979 6.55 6.55 0 0 1 1.493-5.283 6.561 6.561 0 0 1 11.467 5.283" opacity=".36"/><path fill="#614ce1" fill-opacity=".05" d="M1307.84 245.34c0 1.139-.34 2.253-.97 3.2a5.7 5.7 0 0 1-2.59 2.122 5.73 5.73 0 0 1-3.32.327 5.73 5.73 0 0 1-2.95-1.576 5.745 5.745 0 0 1-1.25-6.277 5.76 5.76 0 0 1 5.32-3.556 5.763 5.763 0 0 1 5.76 5.76" opacity=".32"/><path fill="#614ce1" fill-opacity=".05" d="M1637.12 245.341a7.2 7.2 0 0 1-7.2 7.2 7.2 7.2 0 0 1-7.2-7.2 7.205 7.205 0 0 1 7.2-7.2 7.196 7.196 0 0 1 7.2 7.2" opacity=".44"/><path fill="#614ce1" fill-opacity=".05" d="M31.04 188.7a5.597 5.597 0 0 1-5.6 5.44 5.6 5.6 0 0 1-4.657-5.52 5.6 5.6 0 0 1 4.657-5.52 5.6 5.6 0 0 1 5.6 5.6" opacity=".69"/><path fill="#614ce1" fill-opacity=".05" d="M64 132.06a6.24 6.24 0 1 1-12.32 0 6.24 6.24 0 1 1 12.32 0" opacity=".55"/><path fill="#614ce1" fill-opacity=".05" d="M1537.12 188.7c0 1.076-.32 2.127-.92 3.022a5.37 5.37 0 0 1-2.44 2.004c-.99.411-2.09.519-3.14.309a5.445 5.445 0 0 1-4.28-4.274 5.45 5.45 0 0 1 .31-3.143 5.47 5.47 0 0 1 2.01-2.441 5.4 5.4 0 0 1 3.02-.917c1.44 0 2.83.573 3.85 1.593a5.44 5.44 0 0 1 1.59 3.847" opacity=".42"/><path fill="#614ce1" fill-opacity=".05" d="M1800.16 188.7a7.02 7.02 0 0 1-2.12 4.875 7.02 7.02 0 0 1-4.92 2.005 6.885 6.885 0 0 1-6.88-6.88c0-1.84.72-3.606 2.01-4.922a7.02 7.02 0 0 1 4.87-2.118 7.04 7.04 0 0 1 7.04 7.04" opacity=".78"/><path fill="#614ce1" fill-opacity=".05" d="M1830.88 132.059a5.284 5.284 0 0 1-5.28 5.28 5.284 5.284 0 0 1-5.28-5.28 5.283 5.283 0 0 1 5.28-5.28 5.283 5.283 0 0 1 5.28 5.28" opacity=".55"/><path fill="#614ce1" fill-opacity=".05" d="M64 18.78a4.96 4.96 0 1 1-9.92 0 4.96 4.96 0 0 1 9.92 0" opacity=".73"/><path fill="#614ce1" fill-opacity=".05" d="M228.96 75.42a6.396 6.396 0 0 1-7.744 6.096 6.402 6.402 0 0 1-4.552-8.741 6.401 6.401 0 0 1 12.296 2.644" opacity=".3"/><path fill="#614ce1" fill-opacity=".05" d="M457.76 18.78a6.25 6.25 0 0 1-1.77 4.517 6.24 6.24 0 0 1-4.47 1.884 6.401 6.401 0 0 1-4.526-10.926 6.4 6.4 0 0 1 4.526-1.874 6.23 6.23 0 0 1 4.47 1.884 6.25 6.25 0 0 1 1.77 4.516" opacity=".57"/><path fill="#614ce1" fill-opacity=".05" d="M719.04 18.78a6.081 6.081 0 0 1-12.043 1.185 6.078 6.078 0 0 1 8.29-6.803 6.08 6.08 0 0 1 3.753 5.617" opacity=".58"/><path fill="#614ce1" fill-opacity=".05" d="M654.24 132.06a6.4 6.4 0 0 1-6.4 6.4 6.402 6.402 0 0 1 0-12.8c1.697 0 3.325.674 4.525 1.875a6.4 6.4 0 0 1 1.875 4.525" opacity=".51"/><path fill="#614ce1" fill-opacity=".05" d="M1833.92 18.78c0 1.487-.44 2.941-1.27 4.178a7.51 7.51 0 0 1-7.72 3.197 7.55 7.55 0 0 1-3.85-2.058 7.5 7.5 0 0 1-2.05-3.85 7.5 7.5 0 0 1 .42-4.345 7.57 7.57 0 0 1 2.77-3.375 7.53 7.53 0 0 1 9.5.935 7.52 7.52 0 0 1 2.2 5.318" opacity=".37"/><path fill="#614ce1" fill-opacity=".05" d="M64 18.78a6.72 6.72 0 0 1-6.08 6.72A6.88 6.88 0 1 1 64 18.78" opacity=".71"/><path fill="#614ce1" fill-opacity=".05" d="M130.4 18.78a6.081 6.081 0 0 1-12.043 1.185 6.078 6.078 0 0 1 5.963-7.266 6.08 6.08 0 0 1 6.08 6.08" opacity=".29"/></g></svg>