<svg xmlns="http://www.w3.org/2000/svg" width="66" height="54" fill="none" viewBox="0 0 66 54"><path fill="#0c1018" fill-rule="evenodd" d="M41.041 11.007c-.022.575.35.38.35.518 0 .015.016.054-.082.054-.121 0-.192-.013-.347-.013-.165 0-.282.013-.336.013-.05 0-.061-.027-.061-.047 0-.121.276-.037.29-.392l.046-1.357c.018-.557-.344-.397-.344-.547 0-.02.018-.045.043-.045.043 0 .093.012.205.012.074 0 .2-.012.311-.012.036 0 .071-.004.117.095l.745 1.62c.01.031.021.056.043.056s.05-.063.054-.072l.783-1.635c.01-.023.022-.064.083-.064.082 0 .146.012.2.012.057 0 .122-.012.215-.012.092 0 .1.012.1.04 0 .123-.333-.011-.316.377l.055 1.495c.017.442.33.295.33.418 0 .058-.048.058-.166.058-.096 0-.189-.013-.286-.013-.222 0-.3.013-.38.013-.07 0-.157.01-.157-.05 0-.115.265-.004.243-.378l-.05-1.022c-.003-.103-.007-.155-.024-.155-.015 0-.058.07-.108.18l-.636 1.332c-.019.046-.034.096-.09.096-.05 0-.068-.057-.082-.096l-.655-1.454c-.01-.02-.025-.057-.036-.057-.025 0-.025.062-.025.087zm3.764.19c0 .167.004.207.09.207.043 0 .085-.016.11-.016q.037.002.036.03c0 .066-.204.184-.325.184-.157 0-.208-.134-.222-.204a.88.88 0 0 1-.526.204.305.305 0 0 1-.318-.316c0-.415.45-.472.797-.562 0-.288-.021-.495-.29-.495-.128 0-.153.035-.153.19 0 .157-.218.157-.24.157-.029 0-.089-.006-.089-.07 0-.296.383-.387.619-.387.347 0 .511.156.511.496zm-.358-.235c0-.091.008-.121-.021-.121-.132 0-.4.114-.4.34 0 .055.002.223.179.223.074 0 .242-.038.242-.117zm.967-1.469c0-.202-.222-.091-.222-.191 0-.056.05-.043.265-.115.257-.078.25-.138.308-.138.042 0 .007.099.007.289v1.93c0 .24.247.191.247.268 0 .034-.011.043-.069.043-.068 0-.279-.013-.375-.013-.079 0-.233.013-.305.013-.025 0-.056 0-.056-.034 0-.105.2.032.2-.288zm1.599.627c.11 0 .426.054.426.248 0 .065-.194.208-.25.208-.033 0-.04-.027-.043-.05-.043-.163-.096-.275-.283-.275-.261 0-.315.242-.315.45 0 .326.18.69.498.69.196 0 .36-.179.415-.179.013 0 .032.004.032.04 0 .084-.28.35-.63.35-.383 0-.655-.29-.655-.675 0-.45.348-.807.805-.807m1.471 1.482c-.408 0-.727-.282-.727-.699 0-.44.315-.784.766-.784.422 0 .744.278.744.706 0 .458-.318.777-.783.777m-.369-.89c-.01.222.097.772.473.772.265 0 .34-.197.34-.426 0-.266-.097-.831-.462-.831-.294 0-.34.244-.35.485m1.596-1.219c0-.202-.225-.091-.225-.191 0-.056.054-.043.268-.115.258-.078.247-.138.308-.138.043 0 .007.099.007.289v1.93c0 .24.247.191.247.268 0 .034-.01.043-.068.043-.07 0-.28-.013-.38-.013-.078 0-.232.013-.3.013-.025 0-.057 0-.057-.034 0-.105.2.032.2-.288zm2.226 1.794c0 .226.218.144.218.238 0 .023-.007.054-.046.054-.072 0-.143-.013-.293-.013-.19 0-.258.013-.312.013-.042 0-.056-.013-.056-.043 0-.08.131-.041.131-.22v-.6c0-.323-.117-.385-.271-.385-.2 0-.243.155-.243.198v.766c0 .218.222.126.222.241 0 .054-.076.043-.111.043-.111 0-.215-.013-.326-.013-.082 0-.164.013-.229.013s-.082.011-.082-.046c0-.086.164-.029.164-.183v-.863c0-.163-.214-.068-.214-.163 0-.052.05-.056.172-.088.275-.066.325-.143.365-.143s.04.024.04.064v.17c.11-.116.24-.207.425-.207.176 0 .305.095.405.23a.57.57 0 0 1 .45-.23c.387 0 .466.243.466.605v.57c0 .196.214.133.214.227 0 .064-.057.057-.104.057-.064 0-.135-.013-.204-.013-.121 0-.264.013-.325.013-.05 0-.071-.005-.071-.05 0-.057.135-.07.135-.162v-.608c0-.199-.003-.44-.275-.44s-.244.305-.244.347zm2.576-1.599c0-.468-.354-.282-.354-.449 0-.052.036-.048.055-.048.025 0 .046.013.203.013.287 0 .573-.013.859-.013.827 0 .827.5.827.58 0 .211-.13.398-.365.476v.008c.411.101.54.284.54.59 0 .443-.311.735-.862.735-.501 0-.67-.013-.84-.013-.08 0-.17.013-.238.013-.078 0-.114-.006-.114-.054 0-.11.29-.022.29-.347zm.416.36c0 .163.036.179.228.194h.204c.258 0 .355-.13.355-.38 0-.31-.247-.524-.548-.524-.232 0-.24.123-.24.315zm0 .982c0 .32.09.413.418.413.33 0 .501-.218.501-.547 0-.2-.1-.505-.712-.505-.2 0-.207.086-.207.262zm2.773.166c0 .168.004.208.089.208.04 0 .086-.016.11-.016q.036.002.037.03c0 .066-.204.184-.33.184-.156 0-.203-.134-.217-.204a.9.9 0 0 1-.527.204.305.305 0 0 1-.318-.316c0-.415.45-.472.798-.562 0-.288-.025-.495-.29-.495-.129 0-.157.035-.157.19 0 .157-.215.157-.24.157s-.086-.006-.086-.07c0-.296.383-.387.619-.387.348 0 .512.156.512.496zm-.358-.234c0-.091.007-.121-.025-.121-.13 0-.398.114-.398.34 0 .055.004.223.18.223.075 0 .243-.038.243-.117zm.952-1.469c0-.202-.226-.091-.226-.191 0-.056.054-.043.269-.115.26-.078.25-.138.307-.138.043 0 .008.099.008.289v1.93c0 .24.247.191.247.268 0 .034-.011.043-.069.043-.068 0-.278-.013-.379-.013-.08 0-.229.013-.3.013-.026 0-.054 0-.054-.034 0-.105.196.032.196-.288zm1.764.033c0-.255-.225-.104-.225-.224 0-.088.179-.036.493-.228a.1.1 0 0 1 .061-.024c.036 0 .028.037.028.093v2.053c0 .278.226.133.226.242 0 .066-.229.066-.4.123a1 1 0 0 1-.136.041c-.047 0-.047-.05-.047-.22-.128.13-.275.22-.475.22-.462 0-.573-.513-.498-.869.068-.321.314-.614.665-.614.09 0 .243.018.308.083zm0 .94a.43.43 0 0 0-.372-.22c-.265 0-.325.296-.325.505 0 .217.132.619.415.619a.4.4 0 0 0 .24-.075c.053-.047.042-.086.042-.155zm1.31.75c0 .31.315.207.315.305 0 .022-.014.058-.05.058-.083 0-.276-.013-.387-.013-.157 0-.257.013-.343.013-.04 0-.054-.006-.054-.034 0-.106.161-.017.161-.269v-.79c0-.163-.214-.068-.214-.163 0-.052.05-.056.168-.088.282-.066.325-.143.364-.143.04 0 .04.024.04.065v.261c.15-.173.268-.299.354-.299.082 0 .269.152.269.215 0 .125-.116.284-.176.284-.068 0-.09-.136-.272-.136-.186 0-.175.255-.175.285zm1.063-.73c0-.162-.215-.067-.215-.162 0-.052.05-.056.168-.088.283-.066.322-.143.361-.143.044 0 .044.024.044.064v1.138c0 .218.247.126.247.241 0 .054-.101.043-.137.043-.11 0-.214-.013-.322-.013-.083 0-.167.013-.25.013-.057 0-.093.011-.093-.046 0-.086.197-.029.197-.183zm.182-.655c-.054 0-.221-.214-.221-.263 0-.048.167-.271.221-.271.057 0 .225.223.225.271s-.167.263-.225.263m.59 2.124c0-.202.219-.265.255-.265-.036-.03-.147-.104-.147-.308 0-.142.06-.242.179-.325-.182-.116-.276-.202-.276-.43 0-.324.269-.508.605-.508.233 0 .366.117.473.117.2 0 .196-.213.247-.213.028 0 .036.032.036.093 0 .32-.098.326-.151.361.004.055 0 .013.004.099.007.216-.118.53-.623.53-.05 0-.107-.008-.17-.008-.105 0-.145.07-.145.15 0 .134.022.15.515.15.473 0 .57.141.57.345 0 .2-.14.356-.315.423-.197.078-.307.084-.52.084-.136 0-.536-.03-.536-.295m.408-.233c-.09 0-.136.086-.136.166 0 .224.222.262.38.262.175 0 .458-.038.458-.269 0-.154-.122-.159-.702-.159m.193-1.508c-.06 0-.264.031-.264.398 0 .168.071.406.279.406.214 0 .272-.195.272-.377 0-.19-.06-.427-.287-.427m1.318.537c-.061 0-.08-.023-.08.088 0 .285.212.552.501.552.201 0 .366-.179.423-.179.01 0 .032.004.032.04 0 .084-.282.35-.634.35-.332 0-.661-.21-.661-.675 0-.389.218-.807.654-.807.452 0 .634.383.634.56 0 .071-.022.071-.04.071zm.425-.114c.057 0 .079.003.079-.095 0-.127-.093-.328-.308-.328-.2 0-.275.201-.275.357 0 .053.007.066.018.066zm-26.022 3.717c0-1.451-.826-.96-.826-1.32 0-.069.039-.131.125-.131.14 0 .275.032.415.032.193 0 .383-.032.776-.032.236 0 .148.056.28.198l2.974 3.33c.096.104.185.195.228.195.047 0 .061-.091.061-.28v-2.513c0-.687-.902-.551-.902-.8 0-.053.022-.13.118-.13.118 0 .33.032.841.032.465 0 .727-.032.794-.032.136 0 .136.077.136.1 0 .226-.626.045-.626.837v4.233c0 .165 0 .228-.09.228-.103 0-.139-.047-.193-.106l-3.553-3.925c-.054-.06-.097-.095-.136-.095-.043 0-.057.05-.057.118v2.564c0 1.45.945.94.945 1.293 0 .104-.183.097-.283.097-.361 0-.612-.03-.87-.03-.24 0-.436.03-.636.03-.083 0-.23.04-.23-.09 0-.302.71-.164.71-.937zm7.726 3.035c0 .375.007.466.2.466.09 0 .186-.036.237-.036.054 0 .082.029.082.067 0 .15-.45.415-.715.415-.348 0-.455-.301-.484-.46-.308.258-.743.46-1.152.46-.404 0-.694-.294-.694-.71 0-.93.984-1.056 1.746-1.253 0-.65-.053-1.11-.636-1.11-.28 0-.34.078-.34.423 0 .356-.473.356-.527.356-.06 0-.193-.016-.193-.157 0-.659.837-.87 1.357-.87.758 0 1.119.35 1.119 1.11zm-.78-.523c0-.204.014-.27-.053-.27-.287 0-.874.254-.874.762 0 .12.011.498.394.498.162 0 .533-.084.533-.258zm1.822-1.372h-.23c-.138 0-.19-.068-.19-.114 0-.165.126-.188.334-.383.555-.537.659-.884.783-.884.057 0 .086.052.086.084v.807c0 .075.087.075.165.075h.511c.173 0 .127-.166.233-.166.032 0 .047.023.047.053 0 .052-.075.22-.093.278-.05.107-.05.243-.15.243h-.713v1.97c0 .265.055.413.34.413.373 0 .515-.18.594-.18.054 0 .083.025.083.114 0 .128-.423.498-1.028.498-.843 0-.772-.65-.772-.845zm2.551.31c0-.364-.476-.153-.476-.364 0-.12.114-.127.368-.197.63-.141.712-.322.805-.322.086 0 .086.052.086.15v2.545c0 .483.54.28.54.535 0 .122-.214.096-.307.096-.232 0-.461-.03-.694-.03-.179 0-.361.03-.548.03-.128 0-.21.026-.21-.105 0-.19.436-.059.436-.407zm.4-1.459c-.12 0-.49-.481-.49-.595 0-.111.37-.604.49-.604.13 0 .491.493.491.604 0 .114-.361.595-.49.595m2.728 3.956c-.895 0-1.592-.635-1.592-1.562 0-.99.69-1.759 1.677-1.759.927 0 1.64.626 1.64 1.576-.001 1.027-.706 1.745-1.725 1.745m-.81-1.993c-.022.499.219 1.728 1.038 1.728.576 0 .748-.438.748-.95 0-.604-.214-1.864-1.012-1.864-.648 0-.748.542-.774 1.086m3.36-.505c0-.363-.472-.152-.472-.363 0-.12.108-.127.37-.197.618-.141.707-.322.796-.322s.09.052.09.15v.43h.014c.2-.33.57-.52 1.006-.52.798 0 1.124.67 1.124 1.402v1.224c0 .476.461.361.461.527 0 .09-.046.113-.171.113-.24 0-.472-.03-.63-.03-.182 0-.45.03-.54.03-.14 0-.244.04-.244-.096 0-.13.34-.199.34-.478v-1.282c0-.49-.168-.92-.723-.92-.49 0-.636.286-.636.724v1.396c0 .43.6.36.6.543 0 .069-.053.113-.232.113-.079 0-.347-.03-.723-.03-.261 0-.519.03-.741.03-.074 0-.078-.045-.078-.08 0-.222.39-.016.39-.642zm6.396 1.586c0 .375.006.466.2.466.09 0 .186-.036.236-.036s.082.029.082.067c0 .15-.45.415-.716.415-.35 0-.454-.301-.483-.46-.31.258-.743.46-1.155.46-.405 0-.69-.294-.69-.71 0-.93.98-1.056 1.742-1.253 0-.65-.054-1.11-.634-1.11-.282 0-.343.078-.343.423 0 .356-.473.356-.523.356-.06 0-.193-.016-.193-.157 0-.659.834-.87 1.353-.87.762 0 1.124.35 1.124 1.11zm-.784-.523c0-.204.014-.27-.054-.27-.286 0-.87.254-.87.762 0 .12.008.498.39.498.165 0 .534-.084.534-.258zm2.15-3.28c0-.447-.487-.205-.487-.425 0-.127.112-.097.584-.263.57-.165.547-.3.673-.3.097 0 .018.209.018.63v4.327c0 .535.547.43.547.596 0 .074-.032.096-.157.096-.15 0-.608-.03-.83-.03-.172 0-.502.03-.659.03-.06 0-.125 0-.125-.073 0-.236.436.064.436-.64zM35.62 25.094c-.053-.029-.089-.074-.196-.074-.662 0-.63 1-.798 1s-.175-.137-.175-.275c0-.782.5-.954.5-1.05 0-.16-.973-.675-.973-2.144 0-1.653 1.01-2.898 2.812-2.912 1.47-.017 2.594.957 2.594 2.557 0 2.399-1.961 2.793-1.961 2.912 0 .152.899.658 1.328.658.34 0 .494-.21.604-.21.043 0 .069.044.069.096 0 .114-.62.739-1.253.739-.229 0-.537-.014-1.07-.356zm1.117-.278c1.578 0 1.72-1.58 1.72-2.326 0-1.667-.923-2.544-1.892-2.528-1.278.024-1.653 1.063-1.653 2.157 0 1.11.48 2.697 1.825 2.697m6.534-.386c0 .467.58.195.58.41 0 .115-.09.1-.19.115l-1.138.145c-.037-.073-.054-.16-.054-.505-.154.121-.444.505-1.085.505-.9 0-1.034-.608-1.034-1.291v-1.281c0-.363-.482-.152-.482-.363 0-.21.51-.106.987-.294.114-.053.161-.091.204-.091.09 0 .09.066.09.168v1.907c0 .476.128.77.658.77.29 0 .662-.165.662-.489V22.53c0-.363-.483-.152-.483-.363 0-.21.515-.106.991-.294.11-.053.157-.091.2-.091.094 0 .094.066.094.168zm3.424-.244c0 .378.007.47.204.47.09 0 .19-.038.243-.038s.082.03.082.07c0 .152-.461.413-.733.413-.354 0-.462-.3-.49-.46-.316.256-.762.46-1.174.46-.418 0-.712-.293-.712-.71 0-.93 1.002-1.056 1.778-1.251 0-.65-.05-1.112-.648-1.112-.286 0-.347.076-.347.425 0 .356-.483.356-.533.356-.06 0-.2-.016-.2-.161 0-.655.855-.868 1.385-.868.776 0 1.145.347 1.145 1.11zm-.802-.518c0-.206.018-.27-.05-.27-.293 0-.891.253-.891.76 0 .121.008.499.398.499.167 0 .543-.086.543-.26zm2.18-3.284c0-.447-.494-.203-.494-.422 0-.129.111-.1.594-.265.583-.166.558-.302.687-.302.1 0 .015.213.015.635v4.323c0 .537.554.431.554.594 0 .08-.025.102-.157.102-.147 0-.616-.029-.841-.029-.172 0-.515.029-.673.029-.06 0-.129 0-.129-.078 0-.234.444.07.444-.64zm2.168 2.219c0-.363-.487-.15-.487-.363 0-.122.115-.129.38-.195.634-.143.722-.324.812-.324.093 0 .093.052.093.15v2.543c0 .483.55.281.55.533 0 .125-.217.102-.31.102-.24 0-.473-.029-.72-.029-.179 0-.364.029-.554.029-.129 0-.214.023-.214-.11 0-.188.45-.057.45-.404zm.408-1.456c-.125 0-.501-.485-.501-.596 0-.113.376-.605.5-.605.126 0 .502.492.502.605 0 .11-.376.596-.501.596m1.577 1.146h-.231c-.148 0-.194-.066-.194-.113 0-.165.13-.187.34-.386.566-.535.669-.882.798-.882.061 0 .093.052.093.083v.808c0 .076.079.076.165.076h.518c.176 0 .13-.165.244-.165.028 0 .042.021.042.052 0 .052-.074.218-.096.279-.054.106-.054.241-.15.241h-.723v1.97c0 .265.05.417.347.417.376 0 .519-.18.601-.18.05 0 .082.021.082.11 0 .128-.429.498-1.044.498-.863 0-.791-.648-.791-.844zm2.506.122c-.15-.311-.398-.288-.398-.438 0-.106.118-.113.262-.113.12 0 .243.03.59.03.376 0 .511-.03.655-.03.129 0 .214-.007.214.099 0 .202-.418.148-.418.375 0 .077.068.228.136.37l.619 1.248c.053.102.075.188.135.188.036 0 .075-.108.107-.188l.37-.952c.089-.236.12-.408.12-.485 0-.46-.504-.338-.504-.535 0-.126.104-.12.269-.12.086 0 .203.03.426.03.207 0 .322-.03.415-.03.096 0 .19 0 .19.085 0 .141-.29.17-.387.413l-1.611 4.044c-.025.086-.042.144-.117.144h-.358c-.05 0-.068-.021-.068-.058a.36.36 0 0 1 .068-.174l.472-.746c.129-.204.172-.333.172-.396 0-.082-.05-.187-.19-.452zm-23.785 7.346c-.136 0-.297.031-.476.526-.053.153-.164.419-.164.6 0 .54.841.42.841.623 0 .163-.236.105-.4.105-.252 0-.484-.029-.73-.029-.237 0-.462.029-.688.029-.107 0-.233.016-.233-.083 0-.171.394-.127.59-.547l2.109-4.57c.053-.116.093-.26.193-.26.068 0 .086.014.19.239l2.093 4.62c.247.535.669.242.669.489 0 .128-.071.112-.28.112-.278 0-.489-.029-.998-.029-.343 0-.636.029-.858.029-.143 0-.24.016-.24-.09 0-.217.555-.133.555-.593 0-.166-.061-.301-.143-.508-.255-.587-.3-.663-.5-.663zm1.292-.411c.14 0 .243.012.243-.064 0-.108-.043-.188-.082-.282l-.64-1.365c-.048-.057-.023-.057-.062-.057-.014 0-.043.008-.082.086l-.601 1.337c-.04.093-.083.174-.083.281 0 .077.108.064.247.064zm5.732 1.022c.032.068.06.205.114.205.047 0 .079-.085.118-.168l.426-.975c.079-.179.15-.322.15-.502 0-.398-.458-.145-.458-.407 0-.079.061-.093.147-.093.104 0 .211.03.483.03.193 0 .326-.03.38-.03.078 0 .157-.007.157.079 0 .142-.18.11-.275.306l-1.23 2.685c-.07.136-.084.245-.184.245-.107 0-.153-.168-.232-.349l-.612-1.412c-.032-.075-.057-.105-.089-.105-.022 0-.043.038-.083.112l-.808 1.51c-.069.128-.079.244-.18.244-.11 0-.157-.168-.232-.349l-1.098-2.521c-.09-.211-.386-.156-.386-.33 0-.137.107-.116.214-.116.097 0 .21.03.615.03.311 0 .498-.03.61-.03.088 0 .207-.021.207.11 0 .171-.333.102-.333.313 0 .07.047.22.107.384l.458 1.2c.025.07.065.206.118.206.04 0 .121-.168.147-.205l.412-.754a.4.4 0 0 0 .071-.233c0-.214-.165-.552-.318-.702-.087-.085-.273-.069-.273-.203 0-.116.1-.116.186-.116.093 0 .265.03.655.03.418 0 .525-.03.626-.03.146 0 .217.014.217.11 0 .171-.385.11-.385.368 0 .071.042.179.067.244zm4.384.386c0 .376.007.466.207.466.093 0 .197-.037.25-.037.058 0 .087.03.087.068 0 .15-.477.418-.756.418-.365 0-.472-.305-.505-.462-.325.254-.783.462-1.212.462-.427 0-.73-.298-.73-.713 0-.927 1.034-1.056 1.832-1.252 0-.65-.05-1.11-.666-1.11-.293 0-.357.077-.357.422 0 .353-.498.353-.551.353-.065 0-.204-.01-.204-.158 0-.652.876-.862 1.424-.862.801 0 1.181.345 1.181 1.107zm-.827-.522c0-.202.018-.27-.05-.27-.304 0-.92.255-.92.761 0 .123.01.497.411.497.173 0 .559-.083.559-.257zm2.949.569c0 .69.723.464.723.683 0 .044-.033.127-.119.127-.185 0-.63-.029-.887-.029-.365 0-.59.029-.784.029-.1 0-.132-.014-.132-.074 0-.234.372-.039.372-.595V29.17c0-.362-.498-.15-.498-.362 0-.118.12-.126.39-.195.652-.142.745-.326.838-.326.097 0 .097.06.097.152v.581c.34-.393.62-.667.812-.667.194 0 .616.337.616.478 0 .281-.265.639-.4.639-.162 0-.198-.308-.627-.308-.426 0-.4.576-.4.637zm4.154-3.78c0-.557-.52-.231-.52-.493 0-.204.412-.087 1.143-.515.039-.022.078-.05.132-.05.086 0 .068.079.068.202v4.59c0 .624.523.3.523.541 0 .15-.53.15-.928.279-.16.052-.278.094-.318.094-.1 0-.1-.117-.1-.5-.293.292-.636.5-1.095.5-1.063 0-1.325-1.15-1.145-1.942.157-.727.723-1.378 1.531-1.378.204 0 .562.043.71.189zm0 2.101c-.183-.294-.49-.498-.856-.498-.611 0-.75.672-.75 1.14 0 .482.307 1.38.962 1.38.178 0 .404-.052.543-.162.126-.108.101-.197.101-.348zm-32.413 2.397h10.656L43.205 1.339c.297-.61-.181-1.339-.708-1.324h-9.593c-.618.059-.347.419-.168.597.071.073 0 .281-.125.557-.079.171-7.854 14.667-7.854 14.667h4.433l-4.169 3.241 2.119 5.96-5.36-3.773zm-1.657 0 4.24-7.812-2.317 1.587 2.515-6.221-4.237-3.11h5.429l1.985-5.231 1.457 3.84 7.164-13.22c.354-.623.386-.538.83-.73.78-.337.064-.612.064-.612L22.126 0c-1.524.048-1.439.662-1.821 1.24-.426.647-18.847 35.081-18.847 35.081-.465.663-.2 1.359.33 1.058.904-.508 9.929-5.856 9.929-5.856z" clip-rule="evenodd"/><path fill="#0c1018" fill-rule="evenodd" d="m2.749 37.413 7.36-4.352-2.433 4.352zm8.369-4.897h10.13l-6.29 11.516L0 52.772zm20.855 1.192-10.46 19.458-5.432-9.134 6.29-11.516h7.945c.86 0 2.18 0 1.657 1.192" clip-rule="evenodd"/></svg>