<svg xmlns="http://www.w3.org/2000/svg" width="74" height="31" fill="none" viewBox="0 0 74 31"><path fill="#0c1018" fill-rule="evenodd" d="M42.701 21.57h.727l-.146-1.236zm4.212-1.453h-.509l-.145.653h.435c.364 0 .582-.072.654-.29 0-.29-.145-.363-.435-.363M35.075 21.57h.727l-.145-1.235z" clip-rule="evenodd"/><path fill="#0c1018" fill-rule="evenodd" d="M73.274 17.864c0-4.357-1.453-4.938-3.704-5.81 2.542-.653 3.631-2.76 3.631-5.3 0-4.212-2.396-6.173-9.586-6.173H53.303v5.01L50.76.508H36.673L35.44 2.904V.581h-19.9v.726C14.16.508 12.273 0 9.876 0 4.43 0 .436 2.324.436 6.971c0 8.28 12.49 6.028 12.49 9.296 0 1.017-1.161 1.598-2.904 1.598-.726 0-1.453-.146-2.034-.509s-1.017-.944-1.161-1.742H0c.145 3.92 3.849 7.261 9.586 7.261 6.027 0 10.167-2.396 10.167-7.48 0-7.915-12.491-5.882-12.491-9.15 0-.726.726-1.234 2.323-1.234.654 0 1.307.145 1.816.435.509.218.872.727 1.017 1.453h6.754c0-.218-.073-.436-.073-.581h2.832v15.977h3.777l-4.14 8.35h13.58l1.525-3.993h13.798l1.67 3.994H65.94l-5.52-10.893v-5.011h2.18c3.34 0 3.849.944 3.849 3.776 0 1.96.145 3.34.363 3.777H74v-.654c-.872 0-.726-.944-.726-3.777m-31.517-8.86c.217-.508 1.307-3.412 1.307-3.412l.436-1.09s1.525 3.995 1.67 4.503h5.883s-4.212 2.614-4.72 2.905c.217.58 1.815 4.647 1.815 4.647s-4.212-2.614-4.648-2.832c-.435.218-4.648 2.832-4.648 2.832s1.598-4.067 1.816-4.647c-.508-.29-4.72-2.905-4.72-2.905zM29.048 6.319h4.72l-4.72 9.368zm6.826 16.485v-.508h-1.162l-.217.508h-1.09l1.816-3.486h1.162l.653 3.486zm3.559 0V20.77l-.8 2.034h-1.088l-.29-3.486h1.161v2.106l.799-2.106h.944v2.106l.798-2.106h1.09l-1.452 3.486zm4.066 0-.072-.508h-1.162l-.218.508h-1.09l1.888-3.486h1.162l.58 3.486zm4.576-.146v.146h-1.163c0-.146 0-.364.073-.654.073-.436 0-.58-.508-.58h-.363l-.218 1.234h-1.09l.582-3.486h1.67c1.162 0 1.452.29 1.38.944-.073.436-.363.726-.8.872.364.144.582.218.437.944-.073.435-.146.58 0 .58m3.848-1.67c-.218 1.307-1.016 1.815-2.178 1.815h-1.453l.581-3.486h1.526c1.162 0 1.742.509 1.524 1.67m11.33-11.038H60.42V5.664h3.34c1.671 0 2.905.726 2.905 2.251S63.252 9.95 63.252 9.95" clip-rule="evenodd"/><path fill="#0c1018" fill-rule="evenodd" d="M50.108 20.117h-.218l-.364 1.815h.291c.508 0 .871-.218.944-.944.145-.654-.073-.87-.653-.87" clip-rule="evenodd"/><path fill="#fff" fill-rule="evenodd" d="m42.191 9.44-.072.073h-4.357c.508.29 3.63 2.178 3.63 2.178s-1.306 3.123-1.452 3.559c.363-.218 3.559-2.179 3.559-2.179s3.195 1.961 3.558 2.179c-.146-.436-1.38-3.559-1.38-3.559s3.05-1.888 3.486-2.178h-4.358s-1.162-3.123-1.307-3.486a845 845 0 0 0-1.307 3.413m-7.044 9.005h16.776v-.435H35.148zm-2.614 5.52H52.65v-.436H32.533z" clip-rule="evenodd"/><path fill="#0c1018" fill-rule="evenodd" d="M.872 29.628h1.235v-.435H.872v-.581h1.38v-.436H.436v2.542h1.816v-.436H.872z" clip-rule="evenodd"/><path fill="#0c1018" fill-rule="evenodd" d="M4.503 28.174h-.509s-.508.654-.58.872c-.073-.218-.509-.872-.509-.872h-.58s.798 1.163.798 1.236-.872 1.307-.872 1.307h.581s.508-.799.581-.944c.073.145.581.944.581.944h.509s-.8-1.235-.8-1.307c0-.073.8-1.236.8-1.236m1.742 1.598c-.072.509-.435.58-.58.58-.436 0-.654-.362-.654-.942q0-.873.653-.872c.218 0 .509.073.581.436v.072h.436v-.072c-.072-.436-.363-.872-1.017-.872-.726 0-1.161.509-1.161 1.308 0 1.016.58 1.379 1.089 1.379.218 0 .944-.073 1.09-1.017V29.7h-.437zm1.162-.145h1.235v-.435H7.407v-.581h1.307v-.436H6.971v2.542h1.816v-.436h-1.38zm2.034-1.453h-.436v2.542h1.597v-.436h-1.16zm1.815 0h-.508v2.542h1.598v-.436h-1.09zM13 29.627h1.235v-.435H13v-.581h1.38v-.436h-1.816v2.542h1.816v-.436H13zm3.123-1.453v1.744c-.146-.363-1.017-1.744-1.017-1.744h-.436v2.542h.436v-1.815c.145.363 1.017 1.815 1.017 1.815h.436v-2.542zm2.396 1.598c-.072.509-.435.58-.58.58-.436 0-.654-.362-.654-.942q0-.873.654-.872c.217 0 .508.073.58.436v.072h.436v-.072c-.073-.436-.363-.872-1.017-.872s-1.089.509-1.089 1.308c0 1.016.509 1.379 1.09 1.379.217 0 .943-.073 1.016-1.017l.073-.072h-.436zm1.162.509v-.654h1.235v-.435H19.68v-.582h1.38v-.436h-1.815v2.542h1.815v-.436zM1.307 27.449c.509 0 .944-.219.944-.799 0-.363-.145-.654-.508-.726l-.653-.146c-.22-.072-.22-.145-.22-.218 0-.29.219-.362.436-.362.145 0 .436 0 .509.435v.073h.436v-.073c-.073-.581-.363-.871-1.017-.871-.581 0-.872.436-.872.798 0 .218.145.582.581.654l.436.146c.436.072.436.145.436.362 0 .29-.363.29-.509.29-.145 0-.58-.072-.58-.508v-.072H.29v.072c0 .218.072.508.29.654.146.146.29.29.726.29m3.05-.509h-1.38v-.654h1.308v-.435H2.978v-.581h1.38v-.436H2.541v2.542h1.815zm.727-.58h.726c.29 0 .29.145.29.362 0 0 0 .436.073.582v.072h.508v-.218c-.072 0-.072 0-.072-.146l-.073-.435c0-.29-.072-.363-.145-.436.072-.145.218-.29.218-.581 0-.508-.29-.726-.799-.726H4.648v2.542h.436zm1.089-.8c0 .291-.145.363-.436.363h-.653v-.653h.726c.145 0 .363 0 .363.29m2.178-.726s-.508 1.598-.58 1.888c-.146-.29-.654-1.888-.654-1.888h-.509l.944 2.542h.436l.872-2.542zm.654 2.542h.436v-2.542h-.436zm1.816.072c.218 0 .944-.072 1.09-1.016v-.072h-.436v.072c-.146.508-.436.58-.582.58-.435 0-.726-.29-.726-.943 0-.508.29-.871.726-.871.218 0 .51.072.582.436v.072h.435v-.072c-.073-.436-.435-.872-1.017-.872-.726 0-1.161.508-1.161 1.307 0 1.017.58 1.38 1.089 1.38m3.123-.508h-1.38v-.654h1.307v-.435h-1.307v-.581h1.38v-.436h-1.816v2.542h1.816z" clip-rule="evenodd"/></svg>