<svg xmlns="http://www.w3.org/2000/svg" width="80" height="47" fill="none" viewBox="0 0 80 47"><path fill="#0c1018" fill-rule="evenodd" d="M69.634 6.677c1.861 2.792 1.535 6.368-.824 8.183-1.703 1.31-4.023 1.36-6.016.341a9.44 9.44 0 0 1 1.696 5.412 9.47 9.47 0 0 1-4.267 7.918c.055.076.786 1.062 2.158 1.025 1.642-.045 2.26-1.148 2.26-1.148s.69 1.152 2.27 1.152c1.563 0 2.142-1.151 2.142-1.151.692 1.139 2.228 1.15 2.263 1.151a19.14 19.14 0 0 0 2.998-10.312 19.15 19.15 0 0 0-4.68-12.57M49.16 4.544c2.293 1.764 2.666 5.19.977 7.944a9.43 9.43 0 0 1 4.879-1.352 9.43 9.43 0 0 1 4.888 1.357c-1.678-2.751-1.302-6.168.986-7.927 1.875-1.443 4.497-1.359 6.609 0A19.23 19.23 0 0 0 55.031 0a19.23 19.23 0 0 0-12.34 4.457c2.087-1.274 4.636-1.324 6.47.087m-8.17 23.863s.578 1.15 2.143 1.15c1.579 0 2.299-1.152 2.299-1.152s.587 1.103 2.228 1.148a2.68 2.68 0 0 0 2.173-1.006 9.47 9.47 0 0 1-4.292-7.935 9.43 9.43 0 0 1 1.71-5.43c-1.994 1.016-4.31.965-6.01-.345-2.32-1.783-2.674-5.27-.917-8.04a19.15 19.15 0 0 0-4.579 12.45 19.13 19.13 0 0 0 3 10.313c.083 0 1.565-.034 2.245-1.153M80 38.8a1.411 1.411 0 0 0-2.822 0 1.411 1.411 0 0 0 2.822 0m-.15.002a1.263 1.263 0 1 1-2.527 0 1.263 1.263 0 0 1 2.526 0m-21.308-7.04-.714 2.332-.145-.058c-.408-1.925-1.866-2.303-1.866-2.303-.788-.277-1.706.014-1.706.014-.845.35-.961 1.079-.961 1.079-.087.291-.015.655-.015.655.131.408.393.583.393.583.554.38 3.062.816 3.062.816 1.253.307 1.734.773 1.734.773.234.19.365.379.365.379.7 1.312.015 2.463.015 2.463-.175.32-.365.51-.365.51-.747.984-2.241 1.39-3.766 1.422-1.387.03-2.8-.248-3.697-.678-.335-.117-.437-.19-.437-.19l.744-2.536.19.073c.076.384.203.757.378 1.108.495.977 1.502 1.472 1.502 1.472 1.456.685 2.724-.059 2.724-.059.482-.306.613-.626.613-.626.423-1.065.03-1.502.03-1.502-.336-.597-1.925-.874-1.925-.874q-.723-.136-1.443-.292c-1.151-.276-1.75-.772-1.75-.772-.364-.408-.465-.759-.465-.759-.307-1.282.072-1.967.072-1.967.703-1.352 2.605-1.725 3.976-1.735 1.197-.008 2.308.382 3.457.672m.948.962c3.571.102 6.66.015 6.66.015l.555 1.997h-.263c-1.297-1.691-3.118-1.604-3.118-1.604h-1.108v2.916h1.049c1.735-.132 1.982-1.225 1.982-1.225h.219v2.828h-.175c-.394-1.326-2.405-1.21-2.405-1.21h-.67v2.055c-.016 1.356 1.297 1.24 1.297 1.24 1.312-.058 2.113-.7 2.113-.7a33 33 0 0 0 1.633-1.516l.174.088-.83 2.55c-3.614-.072-7.361.015-7.361.015v-.204c.212.007.542-.191.67-.364.136-.184.16-.336.205-.613.074-.466.073-.889.073-.889v-3.92c-.06-.598-.132-.875-.132-.875-.175-.35-.568-.394-.568-.394zm9.503-.194c2.022.107 3.11.019 3.11.019.243.126.418.554.418.554l3.07 5.753c.127.214.476.7.476.7.244.291.574.369.574.369v.243c-1.954-.078-3.809 0-3.809 0v-.214l.456-.145.175-.428s-.203-.62-.44-1.154c-.236-.534-.512-1.052-.512-1.052h-2.468l-.427.875-.243.845a.73.73 0 0 0 .019.447c.214.554.817.602.817.602v.214c-1.303-.022-2.79.01-2.79.01v-.175c.32-.105.744-.55.744-.55l.9-1.277q.993-1.905 1.99-3.81c.022-.04-.004-.105-.004-.105-.762-1.231-2.059-1.515-2.059-1.515q0-.104.003-.206m1.24 4.246h2.076l-1.005-2.011c-.023-.048-.057.005-.057.005z" clip-rule="evenodd"/><path fill="#0c1018" fill-rule="evenodd" d="m79.245 39.35-.02-.266a.5.5 0 0 0-.044-.197q-.042-.075-.148-.104.233-.106.234-.381a.4.4 0 0 0-.131-.314.53.53 0 0 0-.367-.118l-.035-.002h-.728v1.616h.215v-.693h.438q.211 0 .275.048.068.049.079.21l.013.211q.013.171.046.224h.253v-.048q-.07-.033-.08-.186m-.308-.704q-.09.06-.302.06h-.419v-.547h.463q.184 0 .27.057.093.064.093.204 0 .16-.105.226m-58.485-16.61c-1.037 0-1.782.673-1.782 1.609s.745 1.603 1.782 1.603c1.043 0 1.789-.669 1.789-1.603 0-.936-.746-1.61-1.789-1.61m11.03.051c-1.038 0-1.783.674-1.783 1.61 0 .935.746 1.603 1.782 1.603 1.043 0 1.788-.668 1.788-1.604 0-.935-.745-1.609-1.787-1.609m-15.715 3.072v-.108c.454-.007.41-.473.432-.757l.004-1.836s-.019-.117-.135-.175c-.117-.059-.256-.008-.256-.008-.203.037-.488.3-.804.644h-.1l.227-.826 2.951.037.257.84h-.098c-.392-.403-.553-.65-.873-.687 0 0-.175-.008-.27.058-.067.047-.066.16-.066.16v1.816c0 .379.059.734.372.734v.109zm15.717-.011c-.74 0-.875-.977-.875-1.425 0-.47.117-1.463.872-1.463.718 0 .87.789.87 1.457 0 .782-.317 1.43-.867 1.43m-5.34-3.033c.52.054 1.614.039 1.614.039v.053c-.234.024-.253.136-.253.136a.11.11 0 0 0 0 .117c.243.476.714 1.05.714 1.05.049.082.078.014.078.014.398-.593.51-.826.51-.826.16-.321-.122-.447-.122-.447l-.14-.015v-.077c.645.03 1.258 0 1.258 0v.077l-.792.627a.3.3 0 0 0-.063.068l-.627.855v.55c0 .835.354.786.354.786v.102c-.777-.048-1.554-.024-1.554-.024v-.078c.403-.01.389-.792.389-.792v-.446l-.924-1.308a1.8 1.8 0 0 0-.442-.364zm-3.56.01c.68.048 1.34-.005 1.34-.005v.073c-.272.087-.248.524-.248.524v.773l.885-.855c.267-.37-.122-.432-.122-.432v-.078c.637.048 1.303-.01 1.303-.01v.117c-.933.437-1.764 1.19-1.764 1.19-.045.049-.01.058-.01.058.437.04.704.127.704.127.34.14.734.986.734.986.17.315.471.549.471.549v.058c-.655-.039-1.141-.02-1.141-.02q-.27-.642-.56-1.277c-.068-.195-.31-.243-.31-.243-.175 0-.195.155-.195.155v.515l.029.48c0 .074.025.074.025.074l.252.209v.078h-1.481v-.078c.364.005.335-.826.335-.826v-1.564c0-.496-.244-.525-.244-.525zm-2.129 2.97c-.74 0-.874-.976-.874-1.424 0-.47.116-1.463.871-1.463.718 0 .87.789.87 1.458 0 .781-.318 1.43-.867 1.43M.895 26.503s-.394.131.014.248l.598.146s.422.276-.103.422c0 0-.7.03-.99-.116 0 0-.686-.132-.292-.904.468-.752 1.622-1.024 2.69-1.149a13.5 13.5 0 0 1 1.92-.11s.244 0 .673.03c2.067.149 8.449 1.015 12.738 6.09 1.092 1.293 1.84 2.767 1.846 4.531 0 0 .019 3.362-4.441 4.567-.17.046-1.128.299-2.108.398a9.3 9.3 0 0 1-1.885-.01c-.76-.078-1.503-.278-2.255-.417l-.024.36s-.03.237-.141.495c0 0-.093.053-.282.126 0 0-.19.034-.715.053 0 0-.305-.13-.412-.5l-.214-1.176s-2.76-1.477-4.325-3.401c0 0-.709-.739-.038-1.545 0 0 1.01-1.225 4.557-1.71 0 0 .068-1.546.418-3.314 0 0 .252-.583.739.058 0 0 .398.496.446 1.963v1.108s1.536.039 3.275.253c0 0 2.507.564 2.798 2.031.18.9-.738 1.321-.738 1.321s-.35.2-.612.204-.778-.136-.778-.136-.184-.107-.048-.184l.156-.098s.592-.214.66-.544c.145-.704-1.797-.943-1.797-.943l-2.867-.32v4.587s1.424.29 2.575.286c1.127-.005 2.964-.306 2.964-.306s3.07-.855 3.246-3.324c.18-2.548-2.663-4.936-2.663-4.936s-1.379-1.342-4.741-2.837c-2.624-1.167-4.879-1.42-4.879-1.42-.001-.135-2.168-.192-4.967.122m23.544 1.317c2.527-.039 1.166 2.215 1.166 2.215-2.264 2.94-4.975 1.944-4.975 1.944-.073.311-.194.427-.194.427-.141.175-.272.078-.272.078a1.2 1.2 0 0 1-.365-.194c-.087-.131-.102-.35-.102-.35v-.544c-.423-.52-.505-.894-.505-.894a2.4 2.4 0 0 1 .038-.865c.059-.204.292-.481.292-.481.059-.146.438-.656.438-.656 1.399-1.516 3.308-1.472 3.308-1.472 1.224.014 1.171.792 1.171.792m-3.809 1.19s-.379.365-.524.787c0 0-.103.277.116.568 0 0 .86-1.21 2.128-1.953 0 0-.685-.218-1.72.598m-16.83 6s-.777.312-.156.856c0 0 .816 1.205 3.77 2.449 0 0 .078-2.138.195-3.926 0 0-1.75-.078-3.81.622m40.618-1.496c1.263-1.069.457.787.457.787a22 22 0 0 1-.806 1.468c-.399.67-.36.64-.36.64-.34.7-.078 1.303-.078 1.303.058.165.087.01.087.01a91 91 0 0 1 1.487-1.827l1.235-1.263q.428-.327.879-.622c.466-.044.598-.02.598-.02.305-.067.437.068.437.068.466.33.612.865.612.865.408 1.273.019 2.312.019 2.312-.739 2.313-2.76 2.887-2.76 2.887l-.864.262c-.553.058-1.03.039-1.03.039-.408 1.04-.952 2.934-.952 2.934-.34 1.322-.516 2.498-.516 2.498-.126.544-.485.223-.485.223-.175-.126-.34-.233-.34-.233-.184-.098-.563-.622-.563-.622l-.118-.573c-.047-.166.01-.419.01-.419.068-.738.282-1.39.282-1.39.224-1.155 1.147-3.76 1.147-3.76.029-.068-.02-.145-.02-.145-.71-1.157-.058-2.634-.058-2.634.757-2.01 1.7-2.788 1.7-2.788m.943 5.199s.611-.233 1.311-.398l.622-.486s.146-.087.243-.165c0 0 .38-.388.574-.894 0 0 .262-.778.038-1.419 0 0-.01-.174-.281-.117 0 0-.875.331-2.566 3.45 0 0-.02.063.059.029m-8.326-4.856c-.67.299.329.765.329.765.269.11.685.24.685.24a30 30 0 0 0-.488 1.174c-.278.066-.503.168-.503.168-.263.116-.124.32-.124.32.102.27.11.408.11.408a.33.33 0 0 1-.008.182 28 28 0 0 0-.415 1.188c-.27.954.174 1.523.174 1.523.204.408.816.62.816.62.714.269 1.546-.051 1.546-.051.934-.218 2.297-1.208 2.229-1.276.227-.248.066-.43.066-.43l-.277-.407c-.641-.154-1.184.028-1.785.13-.642.11-1.203.19-1.203.19-.124-.03-.066-.19-.066-.19.176-.626.481-1.26.481-1.26l1.975-.11c.358-.044.562-.094.562-.094.276-.7-.059-.845-.059-.845q-1.041-.076-2.084-.132c.175-.524.313-1.005.313-1.005a15 15 0 0 0 2.74-.176c.256-.087.328-.16.328-.16.11-.256.008-.408.008-.408-.262-.547-.787-.816-.787-.816-.816-.153-3.214.167-3.214.167-.656.146-1.349.285-1.349.285m-3.214 5.313c.321.328.57.473.57.473.45.24.823-.072.823-.072.75-.62.867-1.451.867-1.451.094-.313.087-.925.087-.925a5.2 5.2 0 0 0-.11-1.298c-.458-2.893-1.93-3.607-1.93-3.607-.059-.08-.307.036-.307.036-.029.262.022.416.022.416.554 2.047.671 2.623.671 2.623.263 1.596.248 2.216.248 2.216-.008.357-.248.073-.248.073-1.02-1.422-2.011-3.004-2.011-3.004-.248-.32-.686-.83-.686-.83-.21-.11-.379-.007-.379-.007-.116.08-.204.204-.204.204-1.057 2.215-.94 4.803-.94 4.803a3 3 0 0 0 .037.539l.24.568.365.175c.087.037.145 0 .145 0L31.37 40c.08-.146.146-.32.146-.32l.277-3.528c.043-.452.209-.034.209-.034l.374.625c.385.89 1.442 2.427 1.442 2.427m-4.183-5.627c1.064.452-.132.933-.132.933-4.11.277-5.086.641-5.086.641-.584.161 0 .38 0 .38 4.226.276 4.518.626 4.518.626.918.554.933 1.268.933 1.268 0 .83-.131 1.224-.131 1.224-.38 1.094-1.94 1.327-1.94 1.327-1.137.268-2.04.202-2.04.087-1.69-.277-2.36-1.676-2.36-1.676 0-.16.028-.51.028-.51.306-.948 1.24-.963 1.24-.963 1.049-.014 1.253.03 1.253.03 1.093.13 1.764.466 1.764.466.714.277-.409.67-.409.67-.29.073-1.428-.072-1.428-.072a6.6 6.6 0 0 0-1.18-.38c-.234-.072-.511.045-.511.045l-.233.262c-.292.816 1.836.758 1.836.758 1.662.014 2.828-.73 2.828-.73.087-.086.218-.305.218-.305.088-.058-.029-.204-.029-.204-.466-.627-1.574-.773-1.574-.773-3.177-.175-3.687-.407-3.687-.407-.292-.146-.452-.467-.452-.467-.03-.306-.015-.7-.015-.7.117-.247.19-.451.19-.451.291-.408.48-.466.48-.466.248-.19.438-.292.438-.292l.626-.233 2.39-.35c.117-.015.263 0 .263 0q1.282.132 2.202.262m-7.463.933c.16 1.181.146 2.317.146 2.317l.015 2.858c0 .35-.277.466-.277.466H21.3c-.364-.131-.408-.394-.408-.394-.103-1.064-.103-2.711-.103-2.711.074-2.273.321-3.265.321-3.265.307-.845.773-.189.773-.189.168.279.267.593.291.918m.336-3.498.918-.248.7-.364.13-.059s.234-.174.554-.539c0 0 .263-.263.248-.612-.014-.335-.123-.643-.962-.466 0 0-1.18.058-2.74 2.244z" clip-rule="evenodd"/></svg>