<svg xmlns="http://www.w3.org/2000/svg" width="110" height="41" fill="none" viewBox="0 0 110 41"><path fill="#0c1018" fill-rule="evenodd" d="M64.868 15.685V9.89h2.135v5.794h3.963v1.917h-3.963v14.725h-2.135V17.6H62.08v14.725h-2.178v-2.788a8.6 8.6 0 0 1-6.71 3.223c-4.748 0-8.626-3.877-8.626-8.67 0-4.748 3.878-8.625 8.627-8.625 2.7 0 5.14 1.22 6.709 3.18v-2.962h4.965m22 16.64v-16.64h2.047v2.44c.959-2.005 2.7-2.614 4.792-2.745V17.6c-3.137.392-4.66 2.222-4.66 5.446v9.279zm14.115-14.68c3.572 0 6.447 2.919 6.447 6.447a6.44 6.44 0 0 1-3.978 5.961 6.4 6.4 0 0 1-2.469.487c-3.529 0-6.448-2.875-6.448-6.448 0-3.529 2.92-6.447 6.448-6.447m8.887-1.96v16.598h-2.178v-2.745a8.6 8.6 0 0 1-6.709 3.224c-4.749 0-8.626-3.921-8.626-8.67 0-4.748 3.877-8.625 8.626-8.625 2.701 0 5.14 1.22 6.709 3.18v-2.962zm-56.677 1.96c3.528 0 6.447 2.919 6.447 6.447 0 3.573-2.919 6.448-6.447 6.448s-6.448-2.875-6.448-6.448c0-3.529 2.92-6.447 6.448-6.447m33.239 6.883H71.359c.218 3.354 3.05 6.012 6.447 6.012 2.615 0 4.837-1.569 5.839-3.79h2.352c-1.09 3.484-4.356 5.967-8.19 5.967-4.749 0-8.626-3.877-8.626-8.625s3.877-8.626 8.625-8.626c4.75 0 8.626 3.877 8.626 8.626zm-2.396-1.917H71.534c.696-2.831 3.266-4.966 6.272-4.966 3.005 0 5.577 2.134 6.23 4.966m3.31-13.327v4.182h1.089c.653 0 1.176-.174 1.524-.565q.524-.524.524-1.569c0-.349-.044-.653-.175-.915-.13-.305-.304-.566-.523-.74-.174-.131-.349-.261-.566-.305-.218-.087-.522-.087-.914-.087zm-.48-.523h1.48c.393 0 .742.044 1.003.131.306.087.523.218.741.392.304.261.523.567.697.915s.261.74.261 1.133c0 .48-.087.915-.304 1.264-.16.366-.416.681-.74.915-.22.174-.48.26-.699.348a7 7 0 0 1-1.176.087h-1.263zm5.359 2.353h2.178v.48h-2.178v1.872h2.178v.48h-2.658V8.759h2.658v.523h-2.178zm2.874 1.35h.523c0 .349.088.567.262.784a.9.9 0 0 0 .653.262c.305 0 .567-.087.741-.261.175-.218.262-.436.262-.785 0-.48-.349-.827-1.09-1.045-.043-.044-.086-.044-.13-.044-.393-.13-.653-.305-.828-.522q-.261-.261-.261-.785c0-.391.13-.74.392-1.002.262-.26.61-.392 1.003-.392.391 0 .696.131.914.35.262.26.393.566.393 1.001h-.48a.9.9 0 0 0-.261-.653.76.76 0 0 0-.566-.218.8.8 0 0 0-.61.262.88.88 0 0 0-.262.653c0 .13.042.218.087.349.044.087.13.174.218.261q.195.13.654.261.26.066.392.13c.349.131.566.305.74.523.13.175.22.436.22.784 0 .523-.132.915-.437 1.22-.262.305-.61.48-1.09.48-.39 0-.74-.174-1-.436a1.77 1.77 0 0 1-.439-1.177m4.182 1.481h-.522V8.76h.522zm2.789-2.482h3.223a2.86 2.86 0 0 1-.827 1.873c-.523.48-1.132.74-1.83.74-.784 0-1.394-.26-1.917-.784-.479-.522-.74-1.176-.74-1.96 0-.349.087-.697.218-1.046.131-.305.349-.61.61-.871.236-.242.517-.435.828-.566.304-.131.653-.175 1.045-.175.523 0 .958.13 1.351.348.391.261.741.61.958 1.046h-.61a3.8 3.8 0 0 0-.785-.698 2.4 2.4 0 0 0-.958-.217 1.95 1.95 0 0 0-1.481.653c-.436.436-.654.915-.654 1.525 0 .654.218 1.176.654 1.612.392.392.915.61 1.525.61a2.02 2.02 0 0 0 1.263-.435c.359-.31.618-.719.741-1.176h-2.614zm7.363 1.873-.087-4.575h.522v5.184h-.61l-2.831-4.574.042 4.574h-.479V8.76h.61zM30.409 5.315a2.8 2.8 0 0 1-1.35-.349c-.437-.26-.741-.566-.96-1.002a2.3 2.3 0 0 1-.391-1.306c0-.48.13-.915.392-1.351.218-.392.522-.74.958-.958.392-.261.828-.349 1.35-.349.48 0 .916.087 1.308.349.435.217.74.566.958.958.261.436.392.871.392 1.35q0 .72-.392 1.307c-.218.436-.523.74-.958 1.002-.4.222-.85.342-1.307.35m-.043-.436c.304 0 .61-.043.87-.174.262-.087.48-.26.698-.479a2.5 2.5 0 0 0 .48-.697c.087-.305.173-.567.173-.871 0-.392-.087-.785-.304-1.133-.175-.349-.48-.61-.785-.785-.348-.217-.697-.304-1.132-.304a1.97 1.97 0 0 0-1.09.304c-.304.174-.61.436-.784.785-.174.348-.305.74-.305 1.133 0 .392.131.784.305 1.132.218.305.48.61.784.785.326.206.704.312 1.09.304m-.915-.784v-2.92h.74c.392 0 .653.044.828.13a.68.68 0 0 1 .349.35.886.886 0 0 1-.13 1.089c-.131.13-.35.217-.61.261l.827 1.09h-.48l-1.002-1.308h.479c.174 0 .305-.087.436-.217.13-.131.217-.261.217-.436a.5.5 0 0 0-.13-.349c-.044-.13-.174-.174-.305-.26a1.3 1.3 0 0 0-.48-.088h-.348v2.658zM18.036 17.34c3.572 0 6.448 2.918 6.448 6.447a6.43 6.43 0 0 1-6.448 6.448c-3.529 0-6.447-2.875-6.447-6.448 0-3.529 2.918-6.447 6.447-6.447" clip-rule="evenodd"/><path fill="#0c1018" fill-rule="evenodd" d="M21.826 31.543H36.07L18.123.656 0 31.543h14.245c-2.831-1.438-4.835-4.356-4.835-7.755 0-4.748 3.877-8.625 8.625-8.625s8.626 3.877 8.626 8.625c0 3.399-1.96 6.318-4.835 7.755M.784 40.692l1.699-3.964h.436l1.698 3.964h-.435l-.567-1.35h-1.83l-.609 1.35zm1.917-3.441v-.131l-.044.13-.74 1.743H3.44zm5.358 3.44v-3.963h1.09c.653 0 1.175.173 1.524.48.174.086.305.26.392.391q.195.261.261.523c.043.218.087.392.087.566 0 .305-.043.566-.174.828-.13.261-.26.48-.48.653a1.6 1.6 0 0 1-.435.305c-.13.088-.305.13-.522.174-.174 0-.392.043-.654.043zm.392-.348h.523c.261 0 .436-.043.61-.043a3 3 0 0 0 .436-.13c.13-.044.261-.132.392-.219.174-.13.348-.348.435-.566.13-.218.174-.436.174-.697 0-.522-.217-.915-.61-1.22-.174-.13-.305-.218-.48-.26-.13-.044-.26-.088-.391-.088-.13 0-.305-.043-.567-.043h-.522zm7.886.349-1.612-3.964h.436l1.35 3.484 1.394-3.484h.436l-1.612 3.964zm5.489 0v-3.964h2.178v.349h-1.787v1.393h1.7v.349h-1.7v1.525h1.787v.349zm5.88 0v-3.964h.959c.261 0 .48 0 .653.043.175.043.305.087.436.174.218.087.348.218.48.435.086.175.13.392.13.61 0 .349-.088.654-.305.872-.13.087-.218.131-.305.174s-.174.088-.26.088c-.044.043-.175.043-.305.043l1.133 1.525h-.48l-1.35-1.787h.13c.218 0 .349 0 .48-.043.13 0 .26 0 .392-.087.13-.044.26-.174.348-.305a.87.87 0 0 0 .13-.48c0-.13 0-.26-.086-.392-.044-.13-.175-.218-.262-.304-.087-.087-.217-.131-.348-.174-.131 0-.305-.043-.567-.043h-.61v3.615zm6.796 0v-3.615h-.914v-.35h2.222v.35h-.915v3.615zm4.75 0v-3.964h.391v3.964zm3.92-1.133h.436c0 .262.087.435.261.61a.72.72 0 0 0 .523.218.74.74 0 0 0 .435-.13.4.4 0 0 0 .262-.262.7.7 0 0 0-.13-.958c-.132-.088-.35-.174-.611-.262-.043 0-.087-.043-.13-.043h-.044a3 3 0 0 1-.349-.13 1.04 1.04 0 0 1-.392-.35 1.2 1.2 0 0 1-.13-.522q0-.327.13-.523c.13-.174.261-.305.436-.392.13-.087.349-.13.566-.13.175 0 .392.043.523.13.174.087.305.218.392.349.087.174.174.348.174.566h-.436c0-.218-.087-.392-.218-.48-.13-.13-.26-.218-.479-.218a.8.8 0 0 0-.349.088l-.26.26c-.044.131-.088.22-.088.35 0 .218.087.349.218.436.087.13.305.217.61.304.218.044.35.087.436.13s.218.088.305.175c.218.218.349.479.349.828a.87.87 0 0 1-.174.565c-.087.174-.261.305-.436.436-.191.09-.4.134-.61.13-.174 0-.305 0-.48-.087a.63.63 0 0 1-.392-.261c-.13-.087-.174-.218-.26-.349-.044-.13-.044-.26-.088-.478m5.968 1.133v-3.964h.392v3.964zm4.226 0v-3.964h.523l2.179 3.223.042.087v-3.31h.393v3.964h-.393l-2.352-3.441v-.088 3.529zm8.321-1.83h2.658c0 .174-.044.305-.044.392-.044.088-.087.218-.131.305-.087.174-.173.349-.304.48-.128.165-.292.3-.48.392a1.9 1.9 0 0 1-.523.218c-.175.087-.392.087-.566.087-.305 0-.567-.044-.827-.13a2.5 2.5 0 0 1-.698-.48c-.173-.174-.349-.392-.435-.654-.13-.218-.175-.479-.175-.784 0-.349.089-.697.262-1.002.22-.305.48-.566.785-.74a2.3 2.3 0 0 1 1.045-.262c.435 0 .828.087 1.176.304q.329.196.523.523c.087.044.131.174.175.261h-.436c-.131-.13-.218-.261-.304-.348a1.5 1.5 0 0 0-.524-.262 1.4 1.4 0 0 0-.61-.13c-.304 0-.566.087-.827.218a3 3 0 0 0-.654.61c-.13.261-.218.566-.218.828a2 2 0 0 0 .218.87c.174.22.392.436.654.611.261.13.523.218.872.218.217 0 .479-.043.696-.174.223-.094.418-.244.566-.435.088-.088.13-.174.175-.218.042-.088.087-.175.173-.35h-2.221zm10.412 1.83 1.7-3.964h.434l1.7 3.964h-.436l-.567-1.35h-1.829l-.567 1.35zm1.96-3.441-.043-.131-.044.13-.74 1.743h1.525zm6.71 1.611h2.657c0 .174-.044.305-.044.392-.043.088-.087.218-.13.305q-.138.266-.349.48a1.25 1.25 0 0 1-.435.392c-.175.087-.35.174-.523.218-.218.087-.393.087-.61.087q-.394 0-.784-.13a2.5 2.5 0 0 1-.698-.48c-.173-.174-.349-.392-.435-.654-.13-.218-.175-.479-.175-.784 0-.349.089-.697.262-1.002.22-.305.436-.566.785-.74a2.07 2.07 0 0 1 1.045-.262c.435 0 .828.087 1.176.304q.262.196.523.523c.043.044.131.174.174.261h-.48c-.087-.13-.173-.261-.304-.348a1.04 1.04 0 0 0-.48-.262 1.5 1.5 0 0 0-.61-.13c-.304 0-.61.087-.871.218-.26.174-.435.392-.61.61-.13.261-.218.566-.218.828 0 .304.088.61.218.87.174.22.392.436.654.611.261.13.523.218.827.218.262 0 .523-.043.741-.174.223-.094.418-.244.566-.435.087-.088.13-.174.174-.218.043-.088.088-.175.131-.35h-2.178zm6.316 1.83v-3.964h2.135v.349h-1.742v1.393h1.7v.349h-1.7v1.525h1.742v.349zm5.837 0v-3.964h.568l2.178 3.223.042.087v-3.31h.393v3.964h-.393l-2.352-3.441v-.088 3.529zm10.674-2.963h-.435a1 1 0 0 0-.304-.304 2 2 0 0 0-.524-.305c-.174-.043-.348-.088-.523-.088-.304 0-.566.088-.827.262a1.38 1.38 0 0 0-.611.61c-.173.218-.217.523-.217.784 0 .305.043.566.217.828.133.263.347.477.611.61.261.174.523.26.827.26.262 0 .523-.086.741-.217.131-.043.262-.13.349-.174.044-.087.174-.174.261-.348h.435c-.042.174-.13.26-.173.348a1.2 1.2 0 0 0-.262.218c-.37.335-.851.521-1.35.523a2.07 2.07 0 0 1-1.045-.261 2 2 0 0 1-.742-.742c-.173-.304-.304-.653-.304-1.045 0-.349.131-.697.304-1.002.175-.305.437-.566.742-.74a2 2 0 0 1 1.002-.262c.435 0 .828.087 1.132.304.218.131.393.305.524.48.085.043.129.174.172.261m4.662 2.963v-1.35l-1.395-2.614h.436l1.133 2.221 1.133-2.221H110l-1.351 2.614v1.35z" clip-rule="evenodd"/></svg>