<svg xmlns="http://www.w3.org/2000/svg" width="110" height="24" fill="none" viewBox="0 0 110 24"><path fill="#0c1018" fill-rule="evenodd" d="M35.447 11.142h73.831v11.89h-73.83zm65.711-3.741c0 .47 0 .803-.111.97-.083.083-.222.083-.553.165l-.555.028v.443c.499 0 1.026-.083 1.469-.083.554 0 .97.083 1.525.083v-.443l-.554-.028c-.306-.083-.416-.083-.5-.166-.138-.166-.138-.498-.138-.97V1.637l5.959 7.372 1.136.194c0-.11-.083-.332-.083-.499v-6.9c0-.527.083-.86.111-.943.084-.194.221-.194.554-.194L110 .583V.251c-.582 0-1.053.028-1.553.028-.415 0-.969-.028-1.468-.028v.332l.582.083c.304 0 .471 0 .526.194.084.084.111.416.111.943v5.82h-.028L102.156.25c-.194 0-.443.028-.694.028-.415 0-.968-.028-1.523-.028v.333l.554.083c.332 0 .471 0 .553.194.111.083.111.415.111.942zm-7.594 0c0 .47 0 .803-.11.97-.057.083-.167.083-.473.165l-.498.028v.443c.498 0 .886-.083 1.385-.083.804 0 1.774.083 2.772.083.886 0 1.829-.055 2.438-.083 0-.693.083-1.469.194-2.107h-.47c-.085.749-.251 1.33-.416 1.414-.194.138-1.498.166-2.495.166-.387 0-.775 0-1.109-.083v-3.52c.388-.027.887-.027 1.469-.027.804 0 1.192.027 1.359.11.083.055.082.166.11.305l.057.748h.359c0-.36-.028-.914-.028-1.386 0-.415.028-.914.028-1.413h-.36l-.056.637c-.028.167-.027.277-.11.277-.167.139-.555.222-1.36.222-.581 0-1.052 0-1.468-.083V.858c.333-.11.722-.11 1.109-.11.748 0 1.801 0 2.411.249.139.082.139.194.139.36v.775h.416c0-.61.083-1.302.221-1.856a31 31 0 0 0-1.635-.028c-.72 0-1.856.028-2.937.028-.722 0-1.441-.028-2.19-.028V.58l.665.083c.305 0 .415 0 .472.194.11.084.11.416.11.943zM91.07 2.3c0-.554.084-1.109.194-1.774C90.765.361 90.017 0 89.019 0c-1.524 0-3.242.914-3.242 2.826 0 1.359.747 1.94 2.771 2.19 1.247.138 2.217.47 2.217 1.663 0 1.274-1.164 1.884-2.245 1.884-1.025 0-2.023-.443-2.078-.998l-.111-.803h-.416c.028.61.028 1.302-.055 1.94.388.166 1.275.498 2.134.498 1.884 0 3.77-1.08 3.77-3.27 0-1.386-1.082-1.801-2.828-1.995-1.607-.222-2.106-.72-2.106-1.552 0-1.275.97-1.857 1.857-1.857.499 0 1.025.056 1.358.333.526.249.526.388.554.776l.083.665zM76.409 7.4c0 .47 0 .803-.083.97-.139.083-.278.083-.555.165l-.554.028v.443c.472 0 .97-.083 1.441-.083.527 0 .998.083 1.553.083v-.443l-.555-.028c-.304-.083-.47-.083-.553-.166-.111-.166-.111-.498-.111-.97V1.637l5.931 7.372 1.19.194c0-.11-.082-.332-.082-.499v-6.9c0-.527.083-.86.111-.943.083-.194.25-.194.499-.194l.61-.083V.251c-.61 0-1.026.028-1.525.028-.443 0-.97-.028-1.468-.028v.332l.553.083c.333 0 .472 0 .554.194.083.084.11.416.11.943v5.82h-.027L77.434.25c-.25 0-.443.028-.692.028-.416 0-.97-.028-1.526-.028v.333l.555.083c.277 0 .415 0 .554.194.083.083.083.415.083.942zm-7.565 0c0 .47 0 .803-.112.97-.082.083-.221.083-.554.165l-.416.028v.443c.416 0 .888-.083 1.331-.083.804 0 1.774.083 2.771.083.944 0 1.885-.055 2.44-.083 0-.693.11-1.469.22-2.107h-.387c-.138.749-.305 1.33-.471 1.414-.25.138-1.553.166-2.55.166-.388 0-.72 0-1.052-.083v-3.52c.386-.027.83-.027 1.44-.027.775 0 1.191.027 1.33.11.083.055.083.166.14.305L73 5.93h.388c0-.36-.056-.914-.056-1.386 0-.415.056-.914.056-1.413H73l-.028.637c-.056.167-.056.277-.138.277-.14.139-.555.222-1.332.222-.608 0-1.025 0-1.44-.083V.858c.332-.11.665-.11 1.053-.11.803 0 1.8 0 2.467.249.083.082.083.194.083.36v.775h.47c0-.61.029-1.302.167-1.856-.47-.028-.998-.028-1.607-.028-.693 0-1.83.028-2.91.028-.776 0-1.469-.028-2.217-.028V.58l.61.083c.332 0 .472 0 .554.194.111.084.111.416.111.943zm-3.604.25c0 .332 0 .415-.083.553-.028.194-.748.471-1.747.471-2.55 0-4.073-1.857-4.073-4.324 0-2.217 1.302-3.824 3.658-3.824.83 0 1.385.056 1.801.221.527.25.998.444.998 1.054v.582h.416c0-.582.082-1.275.221-1.857C65.877.36 64.906 0 63.355 0c-3.05 0-5.35 1.801-5.35 4.545 0 3.16 2.3 4.656 5.1 4.656.832 0 2.19-.332 3.27-.665V6.429c0-.415 0-.415.166-.499l.333-.11-.028-.25H63.77v.333l1.054.028c.332.083.415.221.415.499zM52.603 9.201c2.77 0 4.821-2.217 4.821-4.905C57.424 1.525 55.568 0 52.852 0c-2.938 0-4.74 1.995-4.74 4.544 0 2.856 1.94 4.657 4.49 4.657M52.63.527c2.356 0 3.492 1.635 3.492 4.158 0 2.3-1.025 3.99-3.16 3.99-2.466 0-3.464-2.355-3.464-4.544 0-2.079.97-3.604 3.132-3.604m-6.29 1.276c0-.527.054-.86.137-.943.028-.194.222-.194.5-.194l.553-.083V.251c-.332 0-.748.028-1.19.028-.361 0-.777-.028-1.193-.028l-3.27 6.984L38.523.25c-.388 0-.776.028-1.191.028-.36 0-.776-.028-1.192-.028v.332l.582.083c.277 0 .416 0 .527.194.083.084.083.416.083.943V7.4c0 .47 0 .803-.083.97-.11.083-.25.083-.527.165l-.582.028v.443c.527 0 .998-.083 1.496-.083.471 0 .887.083 1.496.083v-.443l-.61-.028c-.248-.083-.415-.083-.498-.166-.056-.166-.083-.498-.083-.97V1.748h.027L41.46 9.09h.25c.249-.554.36-1.108.664-1.635l2.218-4.74c.166-.332.388-.665.553-.97V7.4c0 .47 0 .804-.083.97-.083.083-.222.083-.554.166l-.416.028v.443a15 15 0 0 1 1.663-.084c.582 0 1.192.028 1.802.084v-.443l-.582-.028c-.277 0-.471-.084-.5-.167-.083-.166-.138-.498-.138-.969V1.803z" clip-rule="evenodd"/><path fill="#fff" fill-rule="evenodd" d="m95.974 20.177 1.164-.083v-3.27l3.436 3.437v-5.987l-1.136.083v3.27l-3.465-3.436zm-7.427-.775v-2.688H86.08l-.333 1.053h1.663v1.025c-.36.305-.802.443-1.302.443-.998 0-1.802-.859-1.802-2.023 0-1.136.804-1.967 1.802-1.967.637 0 1.137.25 1.69.72l.61-.859c-.61-.61-1.358-.859-2.3-.859-.776 0-1.552.277-2.079.86a2.93 2.93 0 0 0-.886 2.105c0 .888.331 1.553.886 2.19a3 3 0 0 0 2.079.86c.886-.001 1.69-.278 2.439-.86m-13.83.775 1.136-.083v-5.82l-1.136.083zm-11.141-.86c.47.667 1.08.944 1.884.944 1.137 0 1.885-.776 1.885-1.802 0-.831-.387-1.384-1.22-1.718-.747-.277-1.247-.277-1.247-.776 0-.388.25-.637.694-.637.36 0 .637.166.942.498l.748-.802c-.415-.527-.97-.776-1.718-.776-1.053 0-1.856.747-1.856 1.745 0 .832.47 1.304 1.44 1.636.638.221 1.054.332 1.054.83 0 .417-.306.695-.776.695-.36 0-.666-.223-.998-.694zm-10.366.777h3.187l.416-1.08h-2.411v-1.386h1.663v-1.08h-1.663V15.41h2.134l-.25-1.054H53.21zm-10.586-1.08v-3.575h.194c1.275 0 2.023.72 2.023 1.773 0 1.081-.748 1.802-2.023 1.802zm-1.164-4.657v5.737h1.247c2.05 0 3.27-1.136 3.27-2.882 0-1.69-1.163-2.854-3.27-2.854z" clip-rule="evenodd"/><path fill="#0c1018" fill-rule="evenodd" d="M11.307.114.027.086l.028 7.04C2.632 4.685 7.29 1.775 11.307.113m4.213-.03c.305.415.748.997 1.054 1.69.027.388 0 .97-.167 1.442-2.05 4.018-4.517 7.842-7.538 11.362 4.38-3.464 5.987-4.351 9.395-6.18l1.774.776c-1.026.36-4.545 4.24-5.266 5.543.721-.693 8.065-5.044 8.509-4.906.388.056 4.046 1.635 3.131 1.47-.886-.14-5.487 3.603-6.706 4.794-1.303 1.22-3.603 4.961-2.301 5.432 3.437 1.247 15.742-7.15 15.604-8.231L33.036.027z" clip-rule="evenodd"/><path fill="#33348e" fill-rule="evenodd" d="M16.657 22.923 0 22.95V10.923c3.77-3.77 8.12-7.095 13.497-9.7 1.22-.444 1.608-.195 1.08.693a200 200 0 0 1-9.505 13.607l.886 3.27c-.443-.194 8.453-7.288 8.868-7.094-.11-.111-4.074 4.961-3.88 5.404.194.416.194 1.496.5 1.441-.084-.416 10.115-6.79 10.836-6.956-.942.166-8.48 6.596-7.233 9.117.97 1.69.61 1.081 1.608 2.218" clip-rule="evenodd"/><path fill="#0c1018" fill-rule="evenodd" d="M22.422 22.866c4.351-1.857 10.531-5.128 10.531-5.1l.056 5.1z" clip-rule="evenodd"/></svg>