<svg xmlns="http://www.w3.org/2000/svg" fill="none" viewBox="0 0 630 402"><mask id="a" width="630" height="402" x="0" y="0" maskUnits="userSpaceOnUse" style="mask-type:alpha"><rect width="630" height="402" fill="#050d20" rx="10"/></mask><g mask="url(#a)"><mask id="b" width="949" height="570" x="-150" y="-50" maskUnits="userSpaceOnUse" style="mask-type:luminance"><path fill="#fff" d="M798.043 519.102h-947.087V-49.897h947.087z"/></mask><g fill-opacity=".2" mask="url(#b)"><path fill="url(#c)" d="M923.891 23.353c-21.158 59.935-43.017 121.918-81.753 174.55-41.747 56.729-100.921 94.226-166.611 105.587-16.745 2.902-34.076 4.343-52.052 4.343-49.154 0-103.176-10.849-163.714-32.755-36.917-13.371-72.793-30.555-107.475-47.17-27.522-13.182-55.992-26.838-84.802-38.483-15.608-6.316-35.914-13.523-54.969-13.523h-.568c-9.509.075-18.203 1.972-25.856 5.652-8.486 4.077-16.062 10.507-22.502 19.137-12.919 17.297-21.518 37.895-29.834 57.829-1.326 3.168-2.689 6.449-4.053 9.635-11.29 26.572-24.094 56.691-39.475 84.971-33.015 60.655-80.029 97.545-157.254 123.32-72.509 24.202-189.967 20.579-261.832-8.098-127.345-50.812-148.882-86.64-169.718-121.273-5.928-9.862-11.535-19.194-19.548-28.734-16.593-19.782-10.91-41.461-4.887-64.411 2.349-8.971 4.793-18.265 6.005-27.767l-.189-.019c-1.213 9.502-3.656 18.777-6.005 27.748-3.068 11.703-5.967 22.76-6.061 33.533-.095 12.12 3.39 21.983 10.986 31.049 7.993 9.521 13.6 18.852 19.529 28.715 10.228 17.013 20.798 34.595 44.778 54.339 12.975 10.66 28.545 20.921 47.639 31.371 21.536 11.797 46.861 23.443 77.396 35.638 17.388 6.942 37.788 12.537 60.651 16.653 22.124 3.983 45.555 6.392 69.63 7.15 24.15.778 47.695-.132 69.971-2.712 23.146-2.674 43.906-7.055 61.693-12.992 38.167-12.745 67.357-27.293 91.83-45.804 26.612-20.124 48.055-45.501 65.519-77.612 15.399-28.279 28.185-58.417 39.493-84.989 1.345-3.186 2.728-6.468 4.054-9.635 8.315-19.915 16.896-40.513 29.814-57.772 26.784-35.847 65.671-26.573 103.687-11.191 28.811 11.646 57.28 25.283 84.802 38.465 34.683 16.614 70.558 33.817 107.495 47.189 38.357 13.883 73.134 23.12 106.301 28.222 18.79 2.883 37.22 4.419 54.76 4.552 18.847.152 37.278-1.328 54.799-4.343 33.394-5.766 64.894-18.057 93.629-36.492 27.939-17.924 52.544-41.196 73.115-69.171 17.256-23.443 32.712-50.983 47.278-84.174 13.165-30.005 24.019-60.731 34.493-90.433z"/><path fill="url(#d)" d="M923.817 33.558c-27.163 60.484-52.905 110.328-90.201 156.91-41.35 51.76-100.827 87.967-167.502 101.984-69.459 14.604-142.006 8.857-215.651-17.089-38.945-13.884-76.639-32.585-113.083-50.641-25.211-12.499-51.275-25.434-77.547-36.663-15.494-6.619-35.724-14.3-54.704-14.831-9.357-.266-17.956 1.251-25.533 4.476-8.41 3.584-15.93 9.426-22.389 17.392-12.293 15.173-20.855 33.305-29.152 50.85a1290 1290 0 0 1-5.568 11.683c-3.827 7.852-7.577 15.761-11.555 24.107-9.395 19.763-19.112 40.19-29.814 60.143-33.432 62.039-79.574 100.03-154.262 127.076-70.52 25.529-185.117 23.101-255.429-5.387-123.235-49.939-144.488-85.217-165.039-119.319-5.797-9.616-11.271-18.72-18.999-28.07-16.612-20.124-11.592-42.163-6.289-65.492 2.046-9.009 4.168-18.322 5.115-27.843l-.228-.019c-.966 9.502-3.068 18.815-5.114 27.824-5.304 23.367-10.323 45.463 6.346 65.682 7.709 9.331 13.183 18.416 18.979 28.032 10.115 16.786 20.571 34.14 43.926 53.562 12.615 10.488 27.75 20.579 46.256 30.84 20.874 11.588 45.403 23.044 74.971 35.012 37.732 15.306 88.193 23.082 137.744 23.082 42.885 0 85.106-5.822 117.856-17.677 18.09-6.543 33.944-13.485 48.49-21.185 15.363-8.137 28.906-16.975 41.426-26.99 25.913-20.749 46.995-46.582 64.46-78.996 10.701-19.971 20.418-40.398 29.813-60.162 3.978-8.364 7.729-16.254 11.555-24.106 1.875-3.869 3.75-7.833 5.569-11.684 8.277-17.525 16.839-35.657 29.113-50.811 26.841-33.116 65.065-22.931 102.361-6.98 26.254 11.228 52.317 24.145 77.529 36.644 36.444 18.075 74.138 36.757 113.101 50.659 73.683 25.947 146.287 31.713 215.784 17.089 33.47-7.036 64.932-19.44 93.497-36.852 28.507-17.373 53.434-39.318 74.138-65.207 18.089-22.589 34.663-47.587 50.669-76.435 15.854-28.564 29.473-58.038 39.569-80.514z"/><path fill="url(#e)" d="M923.759 43.763c-29.53 51.817-60.86 96.085-98.649 139.272-41.122 47.246-99.368 81.253-168.411 98.38-78.077 19.365-148.579 17.468-215.557-5.766-40.914-14.187-80.275-34.481-118.329-54.074-22.995-11.854-46.767-24.087-70.633-34.879-15.248-6.885-35.137-14.927-53.852-16.122a83 83 0 0 0-4.811-.152c-17.313 0-31.311 6.278-42.676 19.119-11.744 13.257-20.248 29.189-28.488 44.59-2.292 4.286-4.66 8.725-7.065 13.03-7.88 14.13-15.703 29.626-24 46.051-6.193 12.29-12.615 24.979-19.263 37.497C38.403 394.057-6.83 433.186-79.206 461.503c-68.55 26.837-180.269 25.624-249.046-2.694-119.162-49.066-140.131-83.813-160.418-117.403-5.663-9.369-11.005-18.227-18.43-27.388-16.612-20.484-12.293-42.883-7.728-66.61 1.743-9.047 3.542-18.398 4.262-27.919l-.246-.019c-.701 9.521-2.501 18.872-4.243 27.9-4.584 23.784-8.922 46.24 7.766 66.819 7.406 9.123 12.748 17.98 18.411 27.35 10.001 16.577 20.344 33.704 43.074 52.803 12.274 10.318 26.954 20.218 44.892 30.309 20.229 11.361 43.963 22.627 72.565 34.405 16.858 6.942 36.482 12.385 58.36 16.198 21.12 3.679 43.433 5.652 66.315 5.917 22.881.247 45.176-1.252 66.277-4.457 21.859-3.319 41.463-8.345 58.284-14.946 17.616-6.904 33.148-14.206 47.487-22.361 14.982-8.535 28.242-17.734 40.554-28.166 25.25-21.375 45.972-47.682 63.36-80.418 6.648-12.518 13.05-25.226 19.264-37.497 8.277-16.406 16.119-31.921 23.98-46.032 2.406-4.306 4.773-8.744 7.065-13.03 8.221-15.401 16.745-31.314 28.451-44.534 26.897-30.384 64.458-19.289 101.035-2.769 23.848 10.773 47.619 23.026 70.615 34.861 38.073 19.611 77.434 39.886 118.367 54.092 17.597 6.108 35.705 10.792 53.794 13.941 17.54 3.054 35.63 4.742 53.776 5.026 17.502.285 35.648-.74 53.908-3.016 17.521-2.181 35.762-5.614 54.211-10.185 33.697-8.364 65.122-20.882 93.383-37.193 29.132-16.824 54.401-37.44 75.142-61.262 37.789-43.206 69.137-87.474 98.667-139.31z"/><path fill="url(#f)" d="M923.684 53.967c-29.89 41.196-64.383 77.138-104.331 118.75l-2.766 2.883c-40.289 42.277-97.247 74.16-169.301 94.776-37.543 10.754-79.499 20.314-124.201 20.314-29.379 0-59.932-4.135-91.243-14.775-42.543-14.453-83.248-36.227-122.628-57.298-21.082-11.267-42.866-22.931-64.649-33.306-14.982-7.131-34.53-15.552-53.018-17.411-19.225-1.935-34.606 3.3-47.032 16.046-11.251 11.55-19.718 25.472-27.901 38.957-2.747 4.514-5.569 9.18-8.486 13.732-11.535 17.98-22.976 40.095-35.099 63.519-3.277 6.316-6.648 12.859-10.04 19.308-33.545 63.917-79.27 105.435-148.275 134.587-66.599 28.128-175.457 28.128-242.644 0-115.09-48.175-135.774-82.391-155.776-115.469-5.513-9.123-10.74-17.752-17.863-26.686-16.63-20.825-12.994-43.604-9.148-67.71 1.439-9.085 2.936-18.455 3.39-27.995l-.284-.019c-.455 9.521-1.951 18.91-3.391 27.976-3.864 24.163-7.5 46.98 9.206 67.919 7.122 8.933 12.331 17.544 17.843 26.667 9.888 16.368 20.116 33.268 42.221 52.044 11.934 10.129 26.178 19.859 43.547 29.778 19.567 11.152 42.506 22.21 70.142 33.78 32.712 13.693 75.88 21.242 121.587 21.242h.265c22.238-.019 43.926-1.802 64.44-5.348 21.196-3.642 40.232-8.991 56.579-15.894 34.436-14.548 62.602-31.845 86.147-52.898 24.548-21.964 44.91-48.707 62.28-81.803 3.39-6.449 6.762-12.992 10.04-19.308 12.122-23.424 23.563-45.539 35.079-63.501 2.917-4.551 5.759-9.217 8.486-13.731 8.543-14.093 16.631-27.388 27.864-38.92 26.954-27.634 63.852-15.647 99.709 1.442 21.783 10.374 43.566 22.02 64.648 33.305 39.38 21.072 80.105 42.846 122.667 57.317 34.531 11.721 69.914 16.425 108.214 14.377 31.765-1.707 65.898-8.042 107.4-19.915 34.227-9.787 65.614-22.419 93.25-37.535 29.833-16.311 55.461-35.581 76.164-57.317l2.766-2.883c39.948-41.613 74.46-77.554 104.35-118.769z"/><path fill="url(#g)" d="M923.646 64.15c-19.207 20.56-40.554 38.635-63.152 57.772-16.991 14.396-34.55 29.266-52.412 46.203-38.698 36.719-94.386 66.554-170.21 91.172-48.529 15.762-94.197 28.849-141.04 28.849-24.264 0-48.851-3.509-74.309-11.987-43.982-14.642-85.881-37.914-126.379-60.409-19.339-10.735-39.323-21.849-59.231-31.845-14.698-7.378-33.924-16.159-52.165-18.701q-5.37-.74-10.342-.74c-14.226 0-26.14 4.571-36.217 13.865-10.854 9.995-18.904 21.622-27.409 33.912-3.144 4.552-6.421 9.256-9.812 13.865-14.888 20.105-29.416 48.156-44.816 77.858l-2.216 4.267C20.012 373.609-24.786 416.284-91.347 446.574c-65.747 29.929-169.529 31.105-236.26 2.712-111.018-47.246-131.418-80.968-151.155-113.553-5.134-8.497-10.456-17.26-17.294-25.984-16.631-21.186-13.695-44.325-10.607-68.83 1.155-9.104 2.348-18.531 2.557-28.071h-.303c-.209 9.54-1.402 18.948-2.558 28.052-3.106 24.562-6.061 47.758 10.665 69.057 6.838 8.706 12.141 17.488 17.275 25.966 19.756 32.641 40.194 66.402 151.268 113.685 32.201 13.713 74.479 20.94 119.049 20.371 21.613-.285 42.657-2.371 62.584-6.221 20.551-3.965 39.001-9.636 54.874-16.862 33.394-15.192 60.954-33.286 84.234-55.287 23.828-22.514 43.83-49.712 61.2-83.188l2.217-4.268c15.38-29.682 29.927-57.715 44.778-77.801 3.409-4.589 6.667-9.312 9.812-13.864 8.505-12.29 16.536-23.879 27.37-33.855 12.35-11.38 27.504-15.648 46.332-13.031 18.203 2.523 37.391 11.305 52.071 18.664 19.908 9.995 39.891 21.09 59.231 31.826 40.516 22.513 82.434 45.785 126.436 60.427 18.203 6.051 36.292 9.73 55.253 11.228 17.218 1.366 34.758.873 53.605-1.46 36.917-4.59 74.422-16.16 106.699-26.629 35.743-11.608 66.201-24.012 93.098-37.895 14.869-7.682 28.735-15.913 41.218-24.448 13.24-9.066 25.362-18.796 36.008-28.906 17.843-16.937 35.402-31.807 52.393-46.202 22.597-19.137 43.944-37.232 63.17-57.791z"/><path fill="url(#h)" d="M923.59 74.355c-16.745 13.618-34.986 25.093-54.306 37.25-22.92 14.434-46.635 29.341-69.706 49.086-45.233 38.711-108.972 64.979-171.1 87.587q-5.314 1.935-10.57 3.87c-47.752 17.468-93.648 34.253-142.196 34.253-20.248 0-40.971-2.92-62.469-9.919-45.29-14.756-88.193-39.527-129.694-63.481-17.73-10.242-36.066-20.807-54.269-30.423-14.433-7.624-33.318-16.766-51.332-19.991-4.621-.815-9.035-1.232-13.221-1.232-12.71 0-23.545 3.774-32.883 11.417-10.55 8.63-18.582 18.72-27.068 29.399-3.504 4.419-7.14 8.99-10.986 13.447-16.441 19.137-32.523 49.427-48.926 81.405C10.54 363.918-33.328 407.75-97.426 439.121c-33.982 16.633-78.533 25.073-122.554 25.073-38.641 0-76.884-6.505-107.305-19.668-106.926-46.297-127.061-79.527-146.533-111.656-5.001-8.251-10.172-16.786-16.725-25.283-16.631-21.546-14.415-45.065-12.066-69.949.871-9.142 1.761-18.587 1.723-28.146h-.341c.038 9.54-.852 18.985-1.723 28.108-2.368 24.96-4.603 48.517 12.122 70.177 6.554 8.497 11.725 17.013 16.707 25.244 19.491 32.168 39.664 65.454 146.647 111.789 31.614 13.694 72.907 20.617 116.245 19.479 20.969-.55 41.407-2.94 60.747-7.093 19.888-4.287 37.788-10.28 53.15-17.791 64.175-31.409 108.1-75.278 142.46-142.25 16.385-31.958 32.467-62.229 48.87-81.347 3.846-4.476 7.482-9.047 10.987-13.467 8.486-10.678 16.498-20.749 27.03-29.341 12.35-10.09 27.351-13.39 45.839-10.109 17.975 3.205 36.822 12.347 51.237 19.953 18.203 9.597 36.52 20.18 54.249 30.422 41.52 23.955 84.442 48.744 129.751 63.5 17.635 5.747 35.061 8.934 53.302 9.768 16.347.74 33.034-.455 51.01-3.641 33.546-5.937 66.107-17.848 100.581-30.461 3.504-1.29 7.046-2.579 10.569-3.869 26.576-9.673 61.163-22.76 92.947-38.218 32.012-15.571 57.621-31.75 78.268-49.408 23.052-19.725 46.748-34.633 69.649-49.066 19.32-12.158 37.58-23.652 54.343-37.289z"/><path fill="url(#i)" d="M923.551 84.54c-15.949 9.502-33.223 17.013-51.502 24.941-27.068 11.759-55.083 23.917-80.957 43.756-41.217 31.579-95.921 53.486-153.826 76.682-5.948 2.39-12.104 4.855-18.184 7.302-9.111 3.679-18.203 7.492-27.011 11.19-44.703 18.777-87.625 36.814-134.108 36.814-17.426 0-35.326-2.522-54.04-8.497-46.464-14.832-90.277-41.1-132.63-66.497-16.252-9.748-33.035-19.82-49.666-29.037-14.168-7.853-32.693-17.374-50.517-21.262-18.279-4.002-33.205-1.631-45.631 7.226-10.342 7.378-18.411 16.122-26.954 25.359-3.807 4.115-7.747 8.383-11.933 12.574-17.56 17.507-34.796 49.124-50.82 80.703-34.74 68.489-77.7 113.478-139.317 145.854-61.864 32.508-160.02 36.074-223.456 8.098-102.797-45.311-122.667-78.066-141.874-109.759-4.849-8.004-9.868-16.274-16.157-24.562-16.65-21.926-15.134-45.786-13.524-71.068.587-9.161 1.174-18.644.909-28.203l-.379.019c.265 9.54-.322 19.023-.909 28.165-1.61 25.339-3.126 49.275 13.6 71.314 6.27 8.27 11.289 16.52 16.138 24.524 9.566 15.78 19.453 32.092 39.702 49.92 10.911 9.597 23.81 18.815 39.475 28.166 17.597 10.507 38.167 20.92 62.867 31.807 31.046 13.675 71.316 20.294 113.442 18.606 20.325-.816 40.138-3.509 58.909-7.985 19.245-4.59 36.558-10.906 51.446-18.739C-41.682 399.537 1.335 354.51 36.112 285.946c16.006-31.541 33.224-63.14 50.745-80.608 4.205-4.192 8.145-8.459 11.952-12.575 8.524-9.237 16.574-17.942 26.897-25.301 12.331-8.801 27.163-11.153 45.347-7.17 17.767 3.888 36.273 13.391 50.423 21.224 16.612 9.218 33.413 19.289 49.646 29.038 42.373 25.415 86.185 51.703 132.706 66.535 68.758 21.944 126.872-2.466 188.394-28.317 8.789-3.699 17.9-7.511 26.992-11.191 6.081-2.446 12.237-4.912 18.185-7.302 57.923-23.196 112.646-45.121 153.92-76.739 25.855-19.801 53.832-31.958 80.881-43.718 18.298-7.947 35.573-15.458 51.541-24.979z"/><path fill="url(#j)" d="M923.513 94.724c-15.797 6.467-32.845 10.981-50.915 15.742-30.591 8.08-62.224 16.425-90.03 35.335-32.883 22.362-74.385 39.375-118.31 57.393-17.862 7.321-36.312 14.889-54.609 23.006-12.672 5.614-25.193 11.665-37.278 17.525-42.998 20.788-84.215 40.722-129.997 40.722-15.343 0-31.178-2.238-47.771-7.416-47.563-14.87-92.152-42.656-135.263-69.532-14.85-9.255-30.212-18.834-45.365-27.653-13.885-8.08-32.069-17.942-49.703-22.532-17.976-4.666-32.751-3.263-45.158 4.286-10.285 6.259-18.468 13.789-27.124 21.755-4.016 3.698-8.164 7.511-12.615 11.266-19.226 16.235-37.448 49.56-52.715 80.001-35.194 70.158-77.244 116.284-136.324 149.609-59.931 33.798-155.284 38.54-217.072 10.792-98.686-44.306-118.291-76.625-137.252-107.882-4.697-7.758-9.565-15.781-15.57-23.822-16.631-22.305-15.854-46.544-15.002-72.187.303-9.18.606-18.682.095-28.261l-.398.019c.512 9.56.19 19.043-.095 28.223-.833 25.737-1.629 50.034 15.097 72.452 5.986 8.023 10.854 16.046 15.551 23.784 9.471 15.61 19.245 31.731 38.869 49.257 10.569 9.426 23.033 18.473 38.11 27.653 16.953 10.299 36.709 20.484 60.443 31.143 30.459 13.675 69.744 19.953 110.639 17.715 19.681-1.081 38.869-4.078 57.053-8.877 18.581-4.912 35.326-11.531 49.741-19.649C-50.3 391.248-8.212 345.045 27.02 274.812c15.248-30.404 33.432-63.671 52.62-79.869 4.451-3.755 8.6-7.567 12.615-11.266 8.638-7.947 16.82-15.458 27.068-21.698 12.312-7.491 26.973-8.895 44.835-4.248 17.578 4.571 35.743 14.415 49.608 22.494 15.154 8.82 30.497 18.398 45.347 27.654 43.13 26.894 87.738 54.699 135.357 69.569 16.631 5.197 32.523 7.435 47.904 7.435 45.858 0 87.113-19.953 130.149-40.759 12.103-5.842 24.605-11.892 37.277-17.525 18.279-8.118 36.747-15.686 54.609-23.007 43.945-18.018 85.465-35.05 118.386-57.431 27.75-18.853 59.344-27.198 89.897-35.278 18.071-4.779 35.137-9.274 50.954-15.76z"/><path fill="url(#k)" d="M923.476 104.93c-15.949 3.964-33.167 5.955-51.37 8.041-33.811 3.888-68.758 7.928-98.042 25.378-26.86 16.008-59.364 28.943-93.762 42.637-26.196 10.412-53.283 21.185-80.066 34.158-15.116 7.322-29.891 15.477-44.173 23.367-41.918 23.159-82.055 45.349-127.799 45.349-13.752 0-27.996-1.991-42.96-6.581-48.567-14.87-93.838-44.192-137.631-72.566-13.543-8.782-27.541-17.848-41.331-26.269-20.192-12.347-35.288-19.687-48.907-23.803-17.673-5.349-32.277-4.912-44.646 1.347-10.38 5.253-18.81 11.702-27.73 18.53-4.092 3.129-8.316 6.354-12.843 9.559-9.149 6.468-18.468 17.032-28.489 32.319-7.917 12.063-16.214 26.99-26.14 46.981-35.685 71.902-76.808 119.205-133.33 153.364-58.037 35.069-150.568 40.986-210.67 13.504-94.576-43.263-113.934-75.165-132.63-106.005-4.546-7.51-9.262-15.268-14.983-23.063-16.631-22.684-16.574-47.284-16.498-73.325.019-9.218.057-18.739-.701-28.317l-.436.038c.739 9.559.72 19.08.682 28.279-.057 26.117-.132 50.793 16.593 73.591 5.702 7.776 10.399 15.533 14.964 23.025 9.357 15.439 19.037 31.39 38.035 48.611 10.229 9.275 22.257 18.132 36.766 27.123 16.29 10.09 35.27 20.047 58.019 30.441 29.871 13.656 68.152 19.631 107.835 16.804 38.774-2.75 75.426-13.523 103.232-30.327 29.417-17.772 54.477-39.014 76.62-64.942 20.74-24.296 39.36-53.277 56.882-88.593 15.361-30.953 33.849-64.562 54.476-79.129 4.527-3.205 8.751-6.429 12.843-9.578 8.902-6.809 17.312-13.257 27.654-18.473 12.275-6.202 26.765-6.638 44.324-1.309 13.6 4.116 28.64 11.437 48.813 23.765 13.771 8.422 27.769 17.488 41.312 26.269 43.812 28.393 89.102 57.734 137.744 72.623 64.932 19.877 116.511-8.63 171.101-38.805 14.282-7.891 29.057-16.046 44.153-23.367 26.784-12.955 53.851-23.728 80.029-34.14 34.436-13.694 66.94-26.629 93.837-42.656 29.19-17.411 64.099-21.432 97.872-25.32 18.222-2.106 35.44-4.078 51.427-8.061z"/><path fill="url(#l)" d="M923.456 115.114c-16.29 1.745-33.83 1.479-52.412 1.195-6.894-.114-13.827-.209-20.76-.209-30.079 0-59.894 2.011-84.707 14.794-22.124 11.399-47.98 21.015-75.351 31.181-32.579 12.101-66.277 24.619-99.406 42.011-16.877 8.858-33.205 19.081-49.002 28.962-52.336 32.756-101.793 63.69-165.835 44.496-49.514-14.832-95.41-45.748-139.79-75.639-12.293-8.288-25.022-16.842-37.505-24.846-19.775-12.67-34.625-20.408-48.131-25.093-17.369-6.031-31.803-6.543-44.115-1.593-10.759 4.324-19.624 9.825-29.019 15.666-3.94 2.447-8.031 4.988-12.369 7.511-9.736 5.652-19.49 15.78-29.814 31.01-8.202 12.082-16.688 27.199-26.708 47.588-36.216 73.761-76.43 122.22-130.357 157.119-57.071 36.928-144.885 43.889-204.268 16.198-90.465-42.22-109.559-73.724-128.027-104.184-4.394-7.245-8.94-14.756-14.376-22.286-16.631-23.063-17.294-48.042-18.014-74.482-.246-9.236-.512-18.777-1.478-28.355l-.454.038c.966 9.559 1.231 19.1 1.477 28.317.72 26.516 1.383 51.552 18.109 74.729 5.417 7.529 9.963 15.021 14.357 22.248 9.263 15.287 18.829 31.086 37.221 48.004 9.888 9.104 21.48 17.81 35.421 26.591 15.646 9.863 33.83 19.593 55.594 29.74 14.983 6.999 31.917 11.892 50.328 14.566 17.578 2.542 35.971 2.997 54.685 1.347 37.372-3.3 72.774-14.718 99.69-32.13 28.45-18.416 52.886-40.455 74.707-67.388 19.926-24.581 38.167-53.998 55.802-89.921 10.001-20.37 18.468-35.467 26.67-47.53 10.304-15.154 20.002-25.263 29.663-30.859 4.356-2.522 8.429-5.064 12.388-7.51 9.376-5.823 18.221-11.304 28.943-15.629 12.217-4.912 26.537-4.381 43.793 1.612 13.486 4.666 28.299 12.404 48.036 25.036 12.483 8.004 25.193 16.558 37.505 24.846 44.399 29.911 90.333 60.826 139.903 75.696 15.457 4.628 30.421 6.506 45.745 5.747 13.695-.683 27.408-3.49 41.918-8.573 26.992-9.464 52.033-25.131 78.551-41.726 15.779-9.882 32.106-20.086 48.965-28.943 33.11-17.374 66.788-29.892 99.349-41.992 27.39-10.186 53.264-19.783 75.407-31.201 30.402-15.685 68.455-15.097 105.24-14.528 18.601.285 36.16.55 52.469-1.195z"/><path fill="url(#m)" d="M807.155 114.676c-18.07 0-35.137 2.238-50.082 8.781-18.203 7.966-38.83 14.889-60.689 22.229-36.046 12.101-76.884 25.795-114.976 47.379-18.184 10.299-35.611 22.532-52.469 34.367-50.65 35.544-98.478 69.115-162.255 50.414-50.404-14.794-96.849-47.303-141.741-78.731-11.119-7.776-22.616-15.837-33.868-23.386-24.813-16.652-52.677-32.831-77.168-32.831-4.736 0-9.339.607-13.771 1.935-11.611 3.471-21.31 8.174-31.595 13.144-3.41 1.65-6.932 3.357-10.645 5.083-10.323 4.798-20.533 14.509-31.197 29.682C18.25 204.767 9.595 220.073-.54 240.956c-37.315 76.776-75.407 124.876-127.365 160.874-55.158 38.199-140.225 46.317-197.865 18.891-86.374-41.101-104.388-70.859-123.443-102.344-4.224-6.979-8.6-14.206-13.752-21.489-16.612-23.462-18.032-48.801-19.529-75.639-.511-9.255-1.061-18.815-2.235-28.374l-.492.057c1.193 9.559 1.723 19.118 2.235 28.355 1.496 26.895 2.917 52.31 19.623 75.886 5.134 7.264 9.509 14.471 13.733 21.451 9.168 15.135 18.639 30.783 36.406 47.416 9.547 8.915 20.703 17.45 34.076 26.06 14.983 9.654 32.372 19.138 53.17 29.038 14.717 6.999 31.273 11.817 49.191 14.32 17.067 2.371 34.91 2.599 53.037.664 35.971-3.85 70.123-15.894 96.149-33.912 27.503-19.043 51.313-41.898 72.793-69.835 19.32-25.131 36.709-54.112 54.741-91.23 10.134-20.844 18.772-36.15 27.2-48.137 10.608-15.097 20.742-24.77 30.99-29.512 3.712-1.726 7.235-3.433 10.645-5.083 10.266-4.969 19.945-9.673 31.519-13.125 27.181-8.099 61.011 11.039 90.522 30.84 11.27 7.567 22.749 15.609 33.868 23.386 44.93 31.465 91.413 63.993 141.892 78.806 15.4 4.514 30.231 6.164 45.347 5.007 13.505-1.024 26.954-4.286 41.122-9.957 26.367-10.546 50.575-27.54 76.184-45.52 16.839-11.817 34.266-24.05 52.431-34.349 38.054-21.546 78.873-35.259 114.9-47.341 21.859-7.34 42.506-14.262 60.728-22.247 31.462-13.77 72.546-8.403 112.286-3.225 19.093 2.485 37.107 4.856 53.852 5.121v-.493c-16.726-.284-34.739-2.636-53.795-5.121-20.987-2.731-42.335-5.519-62.47-5.519"/><path fill="url(#n)" d="M782.851 110.714c-12.312 0-23.885 1.517-34.265 5.291-14.813 5.368-31.178 10.167-48.51 15.231-40.308 11.797-85.977 25.149-128.084 50.792-19.188 11.684-37.391 25.89-55.007 39.64-49.267 38.465-95.788 74.786-159.603 56.445-51.256-14.718-98.175-48.877-143.559-81.898-9.983-7.264-20.306-14.775-30.402-21.868-18.658-13.106-33.47-21.907-46.616-27.673-16.801-7.378-30.875-9.824-43.016-7.453-13.468 2.617-24.378 6.562-37.012 11.133-1.97.721-3.997 1.441-6.062 2.181-10.948 3.907-21.593 13.182-32.58 28.336-8.637 11.93-17.464 27.445-27.75 48.858-37.958 78.92-75.16 128.158-124.39 164.63-53.245 39.432-135.547 48.726-191.444 21.565-82.264-39.962-100.05-69.398-118.878-100.561-4.053-6.714-8.259-13.655-13.127-20.654-16.593-23.86-18.771-49.579-21.063-76.796-.776-9.256-1.591-18.834-2.993-28.393l-.511.076c1.402 9.559 2.216 19.118 2.993 28.374 2.311 27.293 4.47 53.087 21.158 77.061 4.868 6.98 9.054 13.922 13.107 20.636 9.073 15.003 18.45 30.517 35.611 46.885 9.224 8.801 19.946 17.165 32.731 25.567 14.339 9.427 30.932 18.683 50.745 28.318 14.453 7.017 30.61 11.759 48.036 14.092 16.555 2.219 33.83 2.2 51.37-.019 34.569-4.382 67.452-17.07 92.587-35.695 26.557-19.669 49.723-43.32 70.862-72.301 18.392-25.207 35.44-54.605 53.68-92.519 10.286-21.376 19.094-36.871 27.712-48.782 10.91-15.06 21.5-24.278 32.334-28.147 2.064-.739 4.091-1.46 6.061-2.181 12.615-4.552 23.526-8.497 36.937-11.114 12.046-2.352 26.006.075 42.713 7.416 13.108 5.765 27.882 14.547 46.521 27.634 10.096 7.093 20.419 14.604 30.383 21.868 45.422 33.059 92.378 67.237 143.71 81.974 15.419 4.438 30.194 5.842 45.176 4.287 13.392-1.385 26.67-5.102 40.574-11.361 25.893-11.665 49.4-30.025 74.308-49.465 17.597-13.751 35.8-27.957 54.969-39.603 42.051-25.586 87.7-38.938 127.97-50.735 17.332-5.064 33.698-9.863 48.529-15.23 32.428-11.76 76.487-1.499 119.087 8.44 19.661 4.59 38.224 8.914 55.48 11.114l.057-.512c-17.218-2.2-35.781-6.525-55.424-11.095-29.056-6.847-58.795-13.789-85.105-13.789"/><path fill="url(#o)" d="M763.853 105.516c-8.467 0-16.423.93-23.753 3.054-11.82 3.414-24.53 6.524-37.997 9.825-44.078 10.773-94.046 22.987-139.506 52.594-19.946 12.992-38.736 29.171-56.882 44.818-39.835 34.33-77.87 67.085-126.152 67.085-10.02 0-20.476-1.404-31.481-4.495-52.071-14.642-99.426-50.47-145.227-85.141-8.883-6.733-18.07-13.675-27.067-20.276-18.26-13.428-32.826-22.627-45.877-29-14.491-7.074-26.973-10.545-37.94-10.545-1.535 0-3.031.076-4.509.209-16.309 1.498-29.53 4.684-43.907 8.383-11.573 2.978-22.692 11.797-34 26.951-8.808 11.817-17.786 27.559-28.261 49.541-28.659 60.2-63.209 122.259-121.398 168.386-44.778 35.486-122.704 55.231-185.061 24.277-78.134-38.787-95.712-67.938-114.313-98.797-3.883-6.43-7.899-13.087-12.483-19.801-16.592-24.277-19.509-50.375-22.616-77.991-1.042-9.256-2.121-18.834-3.75-28.412l-.55.095c1.629 9.54 2.709 19.118 3.732 28.374 3.106 27.691 6.042 53.846 22.711 78.237 4.565 6.696 8.581 13.353 12.464 19.782 9.395 15.572 18.259 30.29 34.815 46.374 8.902 8.649 19.169 16.842 31.405 25.074 13.695 9.198 29.492 18.227 48.32 27.577 14.188 7.037 29.966 11.703 46.881 13.865 16.044 2.048 32.75 1.802 49.703-.721 33.167-4.931 64.781-18.246 89.064-37.478 25.609-20.294 48.15-44.761 68.93-74.766 17.407-25.131 34.113-54.947 52.62-93.809 10.455-21.945 19.415-37.649 28.204-49.446 11.232-15.041 22.256-23.784 33.697-26.743 14.358-3.699 27.56-6.885 43.831-8.383 11.933-1.1 25.723 2.276 42.146 10.299 13.013 6.353 27.56 15.552 45.782 28.943 8.978 6.6 18.165 13.561 27.049 20.275 45.838 34.69 93.231 70.556 145.396 85.217 15.495 4.362 30.269 5.538 45.176 3.604 13.316-1.726 26.462-5.899 40.195-12.784 25.514-12.802 48.472-32.585 72.774-53.524 18.146-15.628 36.898-31.807 56.825-44.78 45.384-29.55 95.296-41.764 139.335-52.518 13.468-3.301 26.197-6.411 38.035-9.825 33.338-9.654 80.313 5.595 125.736 20.351 20.286 6.581 39.455 12.802 57.261 16.842l.113-.531c-17.767-4.021-36.917-10.242-57.204-16.823-35.516-11.589-72.035-23.443-102.266-23.443"/><path fill="url(#p)" d="M747.621 99.503c-5.626 0-10.986.512-16.006 1.612-9.073 1.992-18.6 3.831-28.696 5.766-22.768 4.381-48.567 9.351-74.138 17.298-29.341 9.122-54.06 20.825-75.578 35.771-20.552 14.262-39.721 32.376-58.246 49.901-47.127 44.533-91.621 86.582-156.155 68.83-52.848-14.548-100.6-52.121-146.78-88.442-7.842-6.164-15.93-12.537-23.829-18.606-13.297-10.223-29.852-22.931-45.214-31.674-14.395-8.175-26.575-12.196-37.012-12.196-1.648 0-3.239.095-4.81.304-7.18.91-13.923 1.176-20.439 1.441-7.728.304-15.703.607-24.283 2.03-12.199 2.01-23.791 10.374-35.421 25.529-9.092 11.854-17.976 27.349-28.754 50.242-33.81 71.732-66.883 128.461-118.424 172.16-43.13 36.587-118.348 57.583-178.658 26.971-74.024-37.592-91.394-66.478-109.786-97.072-3.694-6.145-7.52-12.499-11.801-18.909-16.574-24.695-20.268-51.172-24.189-79.205-1.288-9.255-2.633-18.834-4.47-28.393l-.568.114c1.837 9.521 3.163 19.099 4.47 28.355 3.921 28.09 7.634 54.643 24.283 79.451 4.281 6.392 8.107 12.746 11.801 18.872 9.3 15.477 18.07 30.081 34.038 45.918 8.581 8.497 18.412 16.539 30.08 24.581 13.051 8.99 28.071 17.753 45.915 26.819 13.922 7.074 29.302 11.645 45.725 13.637 15.532 1.877 31.689 1.384 48.036-1.423 31.747-5.462 62.11-19.403 85.522-39.261 24.662-20.92 46.578-46.183 66.978-77.251 21.196-32.281 38.698-67.767 51.578-95.079 16.404-34.804 36.823-70.992 63.74-75.449 8.523-1.404 16.498-1.726 24.207-2.03 6.535-.246 13.278-.512 20.495-1.441 25.78-3.282 58.094 21.546 86.601 43.452 7.899 6.069 16.006 12.442 23.829 18.606 46.218 36.359 94.008 73.97 146.969 88.555 15.608 4.287 30.421 5.254 45.309 2.94 13.297-2.067 26.348-6.733 39.929-14.244 25.23-13.959 47.695-35.183 71.467-57.658 18.525-17.506 37.675-35.6 58.189-49.844 48.207-33.476 102.039-43.832 149.507-52.974 10.096-1.935 19.643-3.774 28.716-5.766 34.19-7.492 84.063 12.802 132.308 32.433 20.95 8.535 40.744 16.596 59.136 22.381l.171-.551c-18.355-5.784-38.149-13.845-59.08-22.361-41.293-16.861-83.741-34.14-116.662-34.14"/><path fill="url(#q)" d="M733.113 92.961c-3.466 0-6.8.228-10.001.72-6.497.987-13.184 1.898-20.268 2.865-24.132 3.319-51.465 7.055-78.779 14.623-31.424 8.706-57.696 21.053-80.313 37.744-21.025 15.514-40.44 35.543-59.249 54.889-46.256 47.663-89.955 92.671-155.057 75.146-53.605-14.434-101.717-53.79-148.219-91.856-6.801-5.576-13.847-11.342-20.723-16.842-25.666-20.617-58.586-44.666-85.673-47.796-3.77-.436-7.463-1.024-11.043-1.574-11.763-1.859-22.882-3.604-34.626.133-12.672 4.04-24.89 12.916-36.311 26.401-10.361 12.234-20.362 28.602-29.72 48.65-29.15 62.476-62.09 127.512-115.43 175.915-41.502 37.668-113.992 59.953-172.238 29.664-69.914-36.34-87.094-65.037-105.278-95.402-3.504-5.842-7.103-11.873-11.119-17.962-16.555-25.131-21.025-52.006-25.76-80.437-1.535-9.256-3.145-18.815-5.172-28.336l-.606.132c2.046 9.503 3.637 19.062 5.171 28.318 4.755 28.506 9.244 55.439 25.856 80.665 3.997 6.069 7.614 12.1 11.1 17.942 9.205 15.382 17.9 29.91 33.28 45.501 8.259 8.364 17.654 16.254 28.754 24.088 12.407 8.762 26.632 17.297 43.49 26.041 13.657 7.093 28.64 11.607 44.57 13.409 15.002 1.707 30.61.986 46.35-2.124 30.326-5.994 59.459-20.579 81.999-41.044 23.715-21.527 44.987-47.606 65.027-79.755 19.53-31.332 36.52-66.288 50.537-96.35 19.567-41.935 41.672-67.066 65.652-74.728 11.592-3.699 22.635-1.954 34.341-.114 3.58.569 7.293 1.157 11.062 1.593 26.935 3.092 59.761 27.103 85.352 47.663 6.857 5.519 13.903 11.285 20.703 16.842 46.559 38.104 94.709 77.498 148.446 91.97 15.741 4.248 30.629 4.988 45.517 2.276 13.297-2.409 26.291-7.549 39.759-15.705 25.003-15.154 47.051-37.838 70.369-61.869 18.771-19.346 38.186-39.337 59.174-54.832 50.688-37.421 110.638-45.634 158.807-52.253 7.084-.968 13.771-1.897 20.287-2.864 35.023-5.292 87.757 20.104 138.786 44.666 21.65 10.432 42.107 20.275 61.087 27.786l.227-.569c-18.96-7.511-39.399-17.354-61.049-27.767-46.388-22.4-94.292-45.463-129.069-45.463"/><path fill="url(#r)" d="M719.796 86a65 65 0 0 0-5.152.208c-4.054.341-8.145.664-12.483 1.005-51.143 4.078-114.806 9.142-167.824 50.622-21.385 16.728-40.971 38.635-59.931 59.821-45.498 50.849-88.477 98.873-154.243 81.537-54.363-14.32-102.778-55.534-149.583-95.364-5.815-4.95-11.82-10.071-17.692-14.984-25.173-21.128-57.526-46.145-84.347-52.006-3.902-.854-7.728-1.878-11.422-2.845-8.656-2.295-16.972-4.514-25.571-4.514-3.126 0-6.289.284-9.51.967-6.932 1.461-13.694 4.4-20.134 8.706-6.08 4.059-12.066 9.502-17.805 16.14-10.361 12.025-20.173 28.204-30.004 49.503-32.334 69.949-63.114 131.761-112.457 179.671-38.66 37.554-107.04 63.69-165.835 32.357-65.823-35.031-82.813-63.557-100.808-93.752-3.296-5.519-6.686-11.228-10.38-16.956-16.517-25.586-21.783-52.841-27.371-81.708-1.78-9.237-3.637-18.777-5.872-28.261l-.625.152c2.235 9.465 4.073 19.005 5.872 28.241 5.588 28.925 10.873 56.236 27.466 81.936 3.693 5.728 7.084 11.418 10.38 16.937 18.051 30.29 35.08 58.892 101.054 94.037 26.083 13.883 56.541 17.468 88.098 10.356 28.905-6.525 56.787-21.736 78.494-42.827 12.085-11.74 23.261-24.448 34.171-38.863 9.907-13.087 19.359-27.293 28.886-43.395 18.563-31.39 34.645-65.416 49.514-97.602 20.874-45.141 42.316-68.659 67.509-73.989 11.97-2.542 23.052.417 34.777 3.528 3.712.986 7.538 1.991 11.46 2.864 26.688 5.841 58.946 30.782 84.063 51.873a2749 2749 0 0 1 17.672 14.984c23.128 19.687 47.033 40.038 71.884 57.165 28.053 19.365 53.549 31.902 77.964 38.332 15.911 4.191 30.894 4.723 45.82 1.631 13.317-2.769 26.292-8.383 39.646-17.184 24.832-16.349 47.505-41.669 69.421-66.155 18.942-21.167 38.527-43.036 59.856-59.745 52.866-41.385 116.416-46.43 167.483-50.49 4.337-.34 8.41-.663 12.482-1.005 35.819-3.034 91.432 27.483 145.208 57.014 22.37 12.291 43.509 23.879 63.114 33.078l.265-.588c-19.586-9.18-40.706-20.787-63.076-33.059-51.389-28.26-104.407-57.374-140.434-57.374"/><path fill="url(#s)" d="M707.333 78.755c-.398 0-.777 0-1.175.02-1.704.037-3.409.075-5.152.094-26.556.531-56.636 1.12-87.189 7.283-35.383 7.132-64.477 20.446-88.893 40.665-21.651 17.923-41.35 41.688-60.386 64.657-44.817 54.074-87.151 105.151-153.694 88.005-55.101-14.206-103.782-57.317-150.871-99.006a3324 3324 0 0 0-14.717-12.992c-24.738-21.698-56.541-47.682-83.022-56.217-3.94-1.271-7.785-2.693-11.517-4.078-10.36-3.85-20.23-7.51-30.875-7.51a48 48 0 0 0-4.943.265c-14.34 1.574-27.276 9.161-39.55 23.196-10.23 11.703-20.155 28.204-30.326 50.451-31.273 68.318-60.803 132.824-109.465 183.445-37.126 38.597-102.834 66.023-159.451 35.07-61.694-33.742-78.533-62.173-96.357-92.254-3.068-5.159-6.232-10.507-9.622-15.875-16.499-26.06-22.579-53.732-29-83.017-2.008-9.199-4.11-18.701-6.535-28.146l-.644.17c2.425 9.427 4.508 18.929 6.535 28.109 6.44 29.36 12.52 57.089 29.075 83.244 3.391 5.349 6.554 10.698 9.623 15.856 17.881 30.176 34.758 58.664 96.622 92.501 25.457 13.921 54.95 17.183 85.237 9.426 27.485-7.037 54.117-22.874 74.991-44.59 11.668-12.139 22.503-25.302 33.11-40.21 9.509-13.39 18.677-27.975 27.996-44.552 17.616-31.371 33.318-65.682 48.51-98.854 10.152-22.191 20.04-38.635 30.23-50.281 12.142-13.902 24.947-21.413 39.115-22.968 12.426-1.366 23.64 2.788 35.516 7.188 3.732 1.385 7.596 2.826 11.554 4.097 26.367 8.497 58.095 34.424 82.776 56.084 4.868 4.268 9.888 8.706 14.718 12.992 23.222 20.56 47.221 41.803 72.281 59.669 28.337 20.2 54.136 33.116 78.874 39.489 16.1 4.153 31.216 4.457 46.18.967 13.353-3.129 26.31-9.237 39.607-18.701 24.7-17.563 46.994-44.477 68.569-70.499 19.017-22.95 38.698-46.677 60.291-64.562 54.837-45.387 121.834-46.715 175.666-47.796 1.743-.038 3.447-.076 5.152-.095.379 0 .777-.019 1.156-.019 36.652 0 94.5 35.316 150.435 69.475 23.109 14.111 44.911 27.425 65.159 38.274l.323-.588c-20.23-10.83-42.032-24.144-65.122-38.255-56.03-34.254-113.954-69.627-150.795-69.627"/><path fill="url(#t)" d="M661.302 70.37c-17.142 0-35.497.892-53.946 3.946-36.823 6.088-66.883 19.668-91.848 41.48-21.859 19.099-41.577 44.685-60.652 69.417-21.234 27.54-43.187 56.028-67.698 74.767-27.389 20.939-55.385 27.406-85.616 19.782-55.84-14.073-104.767-59.157-152.102-102.761a3342 3342 0 0 0-11.82-10.868c-16.707-15.287-30.098-26.705-42.126-35.904-15.21-11.626-28.148-19.649-39.57-24.524l-3.352-1.422C37.645 97.891 23.534 91.86 7.793 89.47a37.4 37.4 0 0 0-5.587-.436c-12.464 0-24.113 6.562-35.44 19.934-12.616 14.869-23.11 36.359-30.838 53.429a2201 2201 0 0 0-5.512 12.195c-29.284 64.752-56.938 125.938-100.978 175.005-36.747 40.949-98.327 68.507-153.03 37.744-57.602-32.395-74.29-60.77-91.981-90.813-2.823-4.779-5.74-9.748-8.808-14.699-16.48-26.534-23.374-54.643-30.648-84.401-2.235-9.142-4.546-18.587-7.16-27.957l-.682.19c2.614 9.35 4.925 18.796 7.16 27.938 7.293 29.815 14.206 57.962 30.743 84.591 3.068 4.95 5.985 9.9 8.807 14.68 17.73 30.138 34.474 58.588 92.228 91.077 24.851 13.979 53.34 16.919 82.377 8.497 26.045-7.548 51.446-24.011 71.505-46.392 44.116-49.161 71.79-110.367 101.092-175.194 1.838-4.059 3.675-8.118 5.513-12.196 7.709-17.013 18.184-38.445 30.742-53.258C-19.862 94.25-6.659 87.953 7.68 90.134c15.646 2.39 29.7 8.402 44.608 14.775 1.117.474 2.216.948 3.352 1.422 25.742 10.982 55.651 36.644 81.488 60.295a3341 3341 0 0 1 11.819 10.868c23.28 21.451 47.355 43.642 72.623 62.229 28.621 21.072 54.703 34.368 79.763 40.684 8.259 2.086 16.442 3.129 24.322 3.148h.056c7.501 0 14.983-.948 22.238-2.826 13.411-3.49 26.386-10.09 39.626-20.218 24.586-18.796 46.578-47.322 67.831-74.899 19.055-24.714 38.754-50.281 60.556-69.323 56.617-49.446 128.899-46.469 181.67-44.287 37.354 1.536 98.668 42.428 157.975 81.992 23.847 15.894 46.35 30.916 67.243 43.377l.36-.607c-20.855-12.461-43.377-27.464-67.206-43.358-59.382-39.602-120.791-80.55-158.334-82.106-11.118-.436-23.393-.93-36.368-.93"/><path fill="url(#u)" d="M635.314 60.585c-12.274 0-24.833.683-37.41 2.465-17.161 2.428-33.129 6.79-47.449 12.955a157.6 157.6 0 0 0-44.362 28.753c-22.01 20.237-41.709 47.625-60.746 74.122-20.93 29.113-42.6 59.213-67.016 79.204-27.295 22.324-55.461 29.512-86.09 21.963-56.579-13.94-105.733-61.091-153.257-106.668-3.012-2.883-6.005-5.766-8.979-8.611-25.609-24.467-55.196-51.266-80.37-64.619-1.42-.758-2.822-1.498-4.224-2.257C30.524 89.945 16.45 82.453.671 78.964c-7.88-1.745-15.589-.93-22.92 2.427-6.705 3.073-13.07 8.137-19.472 15.515-12.918 14.87-23.563 36.814-31.405 54.282-3.674 8.175-7.33 16.444-10.891 24.429-27.125 61.13-52.734 118.864-92.625 166.546-32.58 38.957-90.542 72.927-146.609 40.437-53.511-30.992-70.085-59.404-87.644-89.504-2.557-4.362-5.19-8.895-7.936-13.39-16.48-27.084-24.208-55.648-32.372-85.881-2.443-9.066-4.982-18.435-7.747-27.691l-.701.209c2.766 9.255 5.304 18.625 7.747 27.672 8.183 30.29 15.911 58.891 32.447 86.051 2.747 4.514 5.38 9.029 7.918 13.391 17.616 30.176 34.247 58.664 87.909 89.769 12.558 7.264 25.969 11.513 39.872 12.613 12.937 1.024 26.272-.664 39.626-5.027 24.605-8.041 48.775-25.149 68.039-48.175 39.948-47.758 65.595-105.53 92.739-166.716a5402 5402 0 0 1 10.891-24.429c7.823-17.412 18.45-39.299 31.292-54.093C-27.988 82.207-14.35 76.422.5 79.703c15.665 3.471 29.7 10.944 44.55 18.853 1.402.74 2.804 1.498 4.225 2.257 25.097 13.315 54.628 40.076 80.199 64.505l8.978 8.592c23.337 22.381 47.468 45.52 72.926 64.904 28.886 21.982 55.272 35.695 80.654 41.954 8.372 2.068 16.65 3.054 24.605 2.94a86.6 86.6 0 0 0 22.465-3.3c13.487-3.85 26.462-10.963 39.664-21.755 24.511-20.029 46.18-50.186 67.148-79.337 19.037-26.459 38.698-53.808 60.652-74.008 53.491-49.218 122.269-46.79 182.541-40.664 38.092 3.869 102.267 49.996 164.32 94.586 24.586 17.677 47.809 34.349 69.327 48.422l.397-.626c-21.517-14.054-44.721-30.745-69.307-48.403-62.129-44.647-126.38-90.83-164.68-94.719-16.593-1.707-34.89-3.32-53.851-3.32"/><path fill="url(#v)" d="M615.256 50.286c-8.902 0-17.881.436-26.821 1.498-17.218 2.03-33.243 6.202-47.62 12.404-16.308 7.037-31.159 16.975-44.134 29.531-22.105 21.375-41.747 50.546-60.727 78.749-20.665 30.707-42.051 62.457-66.41 83.681-27.238 23.746-55.575 31.636-86.62 24.164-57.337-13.808-108.896-65.302-154.394-110.746-2.065-2.068-4.13-4.116-6.175-6.165-24.947-24.865-53.681-52.727-79.044-68.83a1534 1534 0 0 0-4.357-2.769C23.858 82.169 9.614 73.065-6.487 68.476c-8.164-2.333-16.12-1.954-23.677 1.157-6.82 2.788-13.563 7.908-20.04 15.21-13.24 14.908-24.057 37.308-31.993 55.137-5.304 11.911-10.513 23.954-15.57 35.619-25.117 57.962-48.832 112.718-84.954 159.111-31.159 39.925-86.564 75.202-140.226 43.092-49.438-29.569-65.936-58.114-83.419-88.347-2.254-3.888-4.584-7.928-6.971-11.93-16.46-27.615-25.041-56.672-34.114-87.436-2.633-8.933-5.36-18.189-8.296-27.311l-.72.227c2.917 9.123 5.645 18.36 8.278 27.293 9.092 30.802 17.672 59.897 34.189 87.607a951 951 0 0 1 6.971 11.93c17.521 30.308 34.076 58.948 83.684 88.612 12.256 7.34 25.269 11.531 38.68 12.442 12.425.853 25.192-1.081 37.94-5.766 11.895-4.381 23.658-11.076 34.909-19.934 10.703-8.421 20.685-18.53 29.663-30.043 16.479-21.167 31.368-45.178 46.805-75.582 13.638-26.838 25.59-54.453 38.263-83.7 5.057-11.664 10.266-23.708 15.57-35.619 7.917-17.791 18.695-40.114 31.86-54.946 13.543-15.25 27.579-20.522 42.94-16.14C9.273 73.727 23.48 82.793 38.519 92.39c1.44.93 2.898 1.86 4.357 2.77 25.306 16.064 54.003 43.888 78.911 68.735 2.046 2.048 4.111 4.096 6.175 6.164 23.355 23.329 47.525 47.454 73.191 67.654 29.151 22.93 55.822 37.098 81.563 43.281 8.486 2.049 16.858 2.959 24.909 2.732a84.5 84.5 0 0 0 22.654-3.756c13.562-4.21 26.575-11.835 39.74-23.31 24.435-21.299 45.839-53.087 66.542-83.832 18.961-28.166 38.584-57.298 60.633-78.617 51.805-50.09 118.764-47.416 183.394-37.06 38.83 6.22 105.865 57.582 170.665 107.256 25.325 19.421 49.267 37.743 71.429 53.391l.435-.626c-22.161-15.629-46.085-33.969-71.41-53.372C786.812 114.07 719.72 62.651 680.681 56.393c-19.889-3.13-42.391-6.108-65.425-6.108"/><path fill="url(#w)" d="M598.075 39.646c-6.346 0-12.729.266-19.093.873-17.294 1.63-33.376 5.614-47.79 11.854-16.29 7.055-31.065 17.26-43.945 30.308-22.162 22.476-41.691 53.391-60.595 83.302-20.419 32.3-41.52 65.7-65.841 88.213-27.201 25.169-55.727 33.799-87.208 26.402-58.094-13.675-109.824-67.502-155.474-114.995l-3.428-3.565c-27.314-28.393-53.833-55.364-77.718-73.04-1.345-.987-2.69-1.992-4.016-2.979C17.53 74.565 2.964 63.735-13.648 57.968c-8.43-2.921-16.631-2.978-24.435-.133-7.028 2.56-13.96 7.568-20.609 14.908-13.6 14.965-24.567 37.8-32.598 56.008-6.763 15.344-13.335 30.954-19.681 46.051-23.223 55.174-45.157 107.294-77.869 152.454-31.122 42.94-82.605 77.535-133.786 45.804-45.384-28.127-61.864-56.938-79.29-87.436-1.913-3.338-3.883-6.809-5.891-10.223-16.479-28.241-25.95-57.848-35.97-89.181-2.804-8.762-5.702-17.829-8.732-26.762l-.758.266c3.031 8.933 5.929 17.999 8.732 26.743 10.039 31.37 19.51 61.015 36.027 89.332 2.008 3.433 3.978 6.885 5.891 10.223 17.483 30.594 34.001 59.48 79.574 87.721 11.971 7.416 24.568 11.551 37.448 12.309 11.915.702 24.094-1.498 36.236-6.524 11.251-4.647 22.389-11.684 33.091-20.92 10.058-8.668 19.491-19.062 28.072-30.897 14.717-20.313 28.677-44.154 42.694-72.908 12.54-25.699 24.075-53.144 35.251-79.697 6.345-15.098 12.918-30.707 19.68-46.051 8.013-18.151 18.923-40.911 32.447-55.781 13.904-15.306 28.356-20.067 44.192-14.566 16.498 5.728 31.026 16.52 46.407 27.937 1.345.987 2.67 1.992 4.034 2.978 23.848 17.639 50.329 44.572 77.624 72.946l3.428 3.565c23.374 24.316 47.544 49.465 73.418 70.537 29.417 23.936 56.39 38.559 82.454 44.686 8.599 2.029 17.104 2.883 25.23 2.541a82.7 82.7 0 0 0 22.844-4.229c13.657-4.571 26.689-12.727 39.853-24.885 24.397-22.57 45.536-56.027 65.974-88.365 18.866-29.853 38.395-60.731 60.481-83.169 52.544-53.315 122.629-46.828 184.246-33.457 39.57 8.592 109.446 65.226 177.03 119.983 26.082 21.148 50.726 41.101 73.532 58.303l.473-.644c-22.806-17.184-47.43-37.156-73.513-58.285C781.942 114.318 711.99 57.626 672.232 49.016c-20.931-4.552-47.165-9.37-74.157-9.37"/><path fill="url(#x)" d="M582.6 28.796c-37.107 0-74.252 10.394-104.767 42.846-22.181 23.576-41.596 56.217-60.367 87.777-20.173 33.913-41.028 69.001-65.33 92.785-27.182 26.61-55.916 35.98-87.852 28.64-58.871-13.524-110.752-69.797-156.535-119.452l-3.22-3.49c-24.794-26.895-50.441-54.7-73.872-74.482a244 244 0 0 1-3.372-2.864C11.43 67.128-3.552 54.44-20.808 47.441c-5.152-2.087-10.058-3.054-14.737-3.054-28.583 0-48.68 36.17-64.818 73.116-8.107 18.569-15.855 37.573-23.337 55.952-21.442 52.651-41.671 102.362-71.239 146.308-11.915 17.715-31.557 41.366-57.413 53.372-24.056 11.171-47.6 9.54-69.952-4.874-41.387-26.648-57.886-55.876-75.35-86.829-1.515-2.675-3.068-5.444-4.641-8.194-16.536-28.962-26.935-59.195-37.94-91.191-2.917-8.497-5.948-17.279-9.054-25.947l-.777.285c3.107 8.649 6.137 17.43 9.054 25.927 11.025 32.054 21.424 62.305 37.998 91.343 1.553 2.731 3.125 5.501 4.64 8.175 17.521 31.048 34.076 60.371 75.616 87.151 11.668 7.511 23.847 11.627 36.216 12.196 11.384.531 23.015-1.916 34.55-7.264 10.607-4.932 21.139-12.31 31.273-21.907 9.414-8.914 18.317-19.611 26.499-31.75 13.297-19.763 26.007-42.788 38.888-70.385 11.497-24.656 22.143-50.792 32.428-76.075 7.482-18.379 15.229-37.383 23.317-55.932 18.62-42.637 42.506-84.231 78.495-69.627C-3.95 55.197 10.976 67.83 26.774 81.22l3.371 2.864c23.393 19.744 49.021 47.53 73.797 74.406l3.22 3.49c23.374 25.339 47.525 51.551 73.589 73.514 29.682 25.017 56.958 40.115 83.362 46.184 8.733 2.011 17.332 2.788 25.572 2.333 7.842-.436 15.608-2.029 23.071-4.704 13.751-4.95 26.84-13.618 39.986-26.496 24.378-23.86 45.252-58.986 65.462-92.955 18.753-31.523 38.13-64.126 60.254-87.626 53.245-56.615 126.891-45.69 185.099-29.835 40.289 10.963 113.025 72.889 183.375 132.786 26.821 22.835 52.165 44.419 75.634 63.139l.511-.644c-23.45-18.72-48.793-40.285-75.615-63.121-70.406-59.954-143.218-121.937-183.697-132.956-25.136-6.866-53.15-12.803-81.165-12.803"/><path fill="url(#y)" d="M568.072 17.851c-2.671 0-5.342.057-8.012.19-17.446.834-33.641 4.438-48.112 10.735-16.271 7.074-30.913 17.79-43.528 31.845-22.162 24.657-41.426 58.986-60.046 92.197-19.945 35.543-40.573 72.319-64.837 97.412-27.163 28.071-56.125 38.199-88.534 30.935-59.648-13.372-112.817-73.515-155.55-121.842-3.788-4.286-7.614-8.63-11.327-12.859-21.215-24.107-43.149-49.029-63.758-68.583a309 309 0 0 0-2.519-2.39C6.222 60.64-9.935 45.277-27.949 36.97c-10.001-4.61-19.737-5.178-28.924-1.65-10.21 3.907-19.832 12.67-29.416 26.761-7.463 10.982-14.813 25.036-23.128 44.249-9.357 21.622-18.108 43.927-26.575 65.53-18.866 48.08-38.376 97.792-65.008 140.524-21.556 34.576-47.165 56.558-72.112 61.888-16.612 3.546-33.034-.057-48.85-10.697-37.467-25.283-54.098-55.193-71.695-86.868-1.042-1.858-2.083-3.736-3.125-5.614-16.65-29.815-28.583-62.286-40.119-93.676-2.974-8.079-6.042-16.425-9.168-24.656l-.795.303c3.125 8.213 6.194 16.577 9.149 24.657 11.554 31.427 23.506 63.917 40.175 93.79 1.042 1.877 2.084 3.736 3.125 5.614 8.884 15.989 17.275 31.086 28.375 45.785 12.577 16.653 26.424 29.797 43.547 41.328 16.006 10.792 32.675 14.434 49.514 10.83 13.354-2.864 26.746-10.242 39.797-21.944 11.63-10.451 22.692-24.012 32.863-40.323 11.972-19.213 23.526-41.442 35.308-67.957 10.512-23.671 20.305-48.593 29.757-72.718 8.467-21.584 17.218-43.889 26.576-65.492 12.217-28.241 29.189-61.793 52.07-70.537 8.96-3.433 18.469-2.883 28.261 1.631 17.9 8.25 34 23.557 49.571 38.37.833.796 1.667 1.593 2.52 2.39 20.57 19.535 41.52 43.338 63.7 68.526 3.713 4.21 7.558 8.573 11.328 12.859 20.589 23.291 46.217 52.272 72.868 75.336 29.512 25.529 56.693 40.835 83.136 46.771 8.864 1.992 17.596 2.712 25.912 2.124a80 80 0 0 0 23.298-5.196c13.866-5.33 26.992-14.529 40.119-28.109 24.359-25.169 45.005-61.983 64.97-97.583 18.601-33.154 37.846-67.445 59.951-92.026 53.359-59.366 127.402-45.197 185.951-26.23 41.009 13.446 116.662 80.702 189.853 145.757 27.541 24.467 53.548 47.588 77.623 67.825l.549-.664c-24.075-20.218-50.063-43.319-77.604-67.805C772.15 114.96 696.421 47.648 655.242 34.143c-22.01-7.15-54.268-16.292-87.17-16.292"/><path fill="url(#z)" d="M554.472 6.72c-1.288 0-2.576.02-3.864.039-17.54.436-33.773 3.869-48.263 10.204-16.252 7.093-30.838 18.075-43.339 32.603-22.124 25.719-41.217 61.718-59.686 96.521-19.718 37.194-40.118 75.658-64.383 102.06-27.162 29.569-56.37 40.436-89.253 33.229-60.367-13.201-114.408-76.947-153.864-123.473a3836 3836 0 0 1-19.718-23.48c-18.639-22.324-36.255-43.396-54.06-62.154l-1.477-1.555C.445 53.72-16.224 36.138-35.108 26.427c-10.437-5.368-20.59-6.335-30.175-2.864-10.399 3.755-20.192 12.499-29.909 26.743-7.633 11.171-15.039 25.377-23.317 44.742-10.664 24.771-20.419 50.641-29.833 75.658-17.218 45.691-35.005 92.917-58.776 134.151-14.889 25.832-39.001 58-69.308 64.657-15.229 3.338-30.44-.285-45.233-10.773-33.641-23.822-51.332-56.255-68.437-87.645l-1.174-2.143c-16.877-30.954-30.023-64.543-42.714-97.014a3459 3459 0 0 0-8.864-22.514l-.815.323c2.993 7.511 5.967 15.135 8.865 22.494 12.71 32.509 25.855 66.118 42.77 97.128l1.175 2.143c8.58 15.743 17.445 32.016 28.204 47 12.066 16.804 25.306 30.214 40.478 40.968 15.002 10.64 30.459 14.319 45.953 10.924 12.881-2.826 25.799-10.526 38.395-22.911 11.005-10.83 21.613-25.017 31.5-42.163 23.81-41.309 41.615-88.574 58.833-134.284 9.414-24.998 19.169-50.849 29.814-75.62 8.259-19.308 15.627-33.476 23.223-44.59 9.623-14.073 19.264-22.722 29.492-26.402 9.358-3.376 19.264-2.427 29.474 2.827 18.752 9.635 35.364 27.16 51.427 44.097l1.477 1.555C35.184 91.654 52.8 112.725 71.44 135.03c6.44 7.719 13.108 15.704 19.718 23.499 23.488 27.711 46.673 54.435 71.827 76.739 29.171 25.871 56.163 41.253 82.529 47.019 9.017 1.972 17.844 2.617 26.273 1.915 8.031-.664 15.949-2.579 23.525-5.69 13.979-5.728 27.163-15.439 40.289-29.739 24.34-26.497 44.779-64.999 64.516-102.249 18.43-34.766 37.505-70.727 59.572-96.37 54.173-62.95 132.554-43.073 186.803-22.627 41.71 15.837 120.261 88.441 196.218 158.656 28.28 26.136 54.988 50.83 79.707 72.566l.587-.664c-24.719-21.717-51.427-46.411-79.688-72.547-76.013-70.271-154.622-142.951-196.502-158.827-17.104-6.448-32.409-11.17-46.786-14.433-16.195-3.699-31.481-5.557-45.555-5.557"/><path fill="url(#A)" d="M541.536-4.51h-.36c-17.616.039-33.906 3.301-48.434 9.655-16.252 7.112-30.762 18.36-43.169 33.381-22.067 26.762-40.952 64.392-59.23 100.77-19.51 38.824-39.683 78.996-63.948 106.725-27.181 31.067-56.616 42.713-90.011 35.657-56.408-12.12-106.111-68.45-152.197-125.104-9.148-11.247-18.335-22.873-27.2-34.121-14.793-18.758-30.117-38.16-45.27-55.724l-.323-.379c-16.63-19.27-33.83-39.204-53.662-50.394-10.834-6.107-21.385-7.492-31.348-4.097-10.589 3.604-20.533 12.347-30.421 26.743-7.766 11.323-15.248 25.7-23.544 45.254-11.706 27.502-22.181 56.521-32.296 84.591-15.759 43.737-32.068 88.954-53.34 128.973-9.565 18-19.661 32.794-29.966 43.927-12.009 12.954-24.283 20.901-36.481 23.613-13.904 3.092-27.921-.607-41.672-10.962-30.004-22.627-48.283-56.919-64.402-87.19-17.427-32.717-32.068-68.09-46.237-102.306-2.5-6.031-5.076-12.271-7.652-18.416l-.853.36c2.557 6.145 5.152 12.385 7.653 18.417 14.168 34.234 28.829 69.626 46.274 102.381 9.225 17.317 17.673 32.851 27.769 47.55 11.611 16.937 23.677 30.005 36.88 39.943 13.979 10.527 28.242 14.282 42.41 11.134 12.388-2.75 24.833-10.792 36.955-23.879 10.362-11.19 20.495-26.041 30.099-44.117 21.309-40.076 37.618-85.33 53.397-129.105 10.114-28.071 20.57-57.071 32.276-84.553 8.278-19.498 15.722-33.837 23.469-45.084 9.755-14.225 19.567-22.855 29.947-26.382 9.717-3.32 20.021-1.954 30.61 4.02 19.7 11.115 36.842 30.992 53.416 50.205l.321.38c15.135 17.543 30.44 36.946 45.233 55.685 8.865 11.247 18.052 22.874 27.2 34.14 20.799 25.567 45.12 54.795 70.805 78.124 28.848 26.193 55.632 41.669 81.904 47.302 9.149 1.935 18.127 2.504 26.651 1.669 8.126-.796 16.138-2.883 23.772-6.202 14.093-6.126 27.333-16.387 40.478-31.408 24.341-27.824 44.551-68.034 64.08-106.915 18.26-36.34 37.126-73.913 59.117-100.599 23.356-28.336 53.511-42.466 91.091-42.466 27.977 0 60.064 7.833 96.565 23.461 42.43 18.227 123.841 96.199 202.582 171.61 29.019 27.786 56.428 54.036 81.791 77.251l.625-.682c-25.363-23.197-52.753-49.446-81.772-77.233-78.797-75.468-160.285-153.496-202.866-171.8-37.277-16.026-68.948-23.802-96.716-23.802"/><path fill="url(#B)" d="M529.053-15.792c-16.669 0-32.106 3.072-45.915 9.141-16.233 7.132-30.704 18.626-42.978 34.16-21.973 27.785-40.687 67.046-58.758 104.998-19.301 40.513-39.266 82.429-63.549 111.505-27.2 32.585-56.901 44.989-90.788 37.933-56.901-11.835-105.562-69.095-150.51-126.754-11.271-14.452-22.504-29.569-33.338-44.173C30.942 94.479 18.25 77.39 5.409 61.155c-15.93-20.124-33.963-42.96-54.817-55.705C-60.641-1.416-71.59-3.218-81.95.12c-5.57 1.802-11.12 5.121-16.46 9.901-4.85 4.343-9.718 10.014-14.453 16.861-7.804 11.305-15.589 26.27-23.791 45.748-12.729 30.195-23.829 62.495-34.55 93.733-14.358 41.764-29.189 84.951-48.093 123.624-9.3 19.005-18.923 34.5-28.602 46.013-11.535 13.713-23.317 21.982-35.023 24.562-12.634 2.788-25.439-1.024-38.092-11.304-24.397-19.858-43.358-54.074-59.212-84.591-18.904-36.397-36.008-75.658-52.563-113.629-1.212-2.769-2.406-5.538-3.618-8.308l-.871.38c1.212 2.769 2.405 5.538 3.618 8.307 16.555 37.99 33.659 77.251 52.582 113.686 15.892 30.593 34.909 64.923 59.439 84.895 12.88 10.469 25.969 14.338 38.887 11.493 11.915-2.617 23.867-11 35.535-24.884 9.736-11.57 19.396-27.122 28.735-46.203 18.941-38.729 33.792-81.954 48.15-123.738 10.721-31.219 21.82-63.5 34.53-93.657 11.403-27.084 29.436-64.012 54.117-71.978 10.077-3.243 20.76-1.498 31.765 5.235 20.704 12.67 38.698 35.41 54.571 55.477 12.824 16.216 25.515 33.305 37.789 49.844 10.854 14.623 22.067 29.74 33.356 44.192 20.135 25.814 43.794 55.383 69.782 79.546 28.526 26.554 55.12 42.087 81.298 47.531 9.3 1.934 18.373 2.427 27.011 1.479 8.22-.91 16.308-3.148 24.037-6.676 14.206-6.506 27.503-17.317 40.649-33.059 24.359-29.171 44.342-71.125 63.682-111.694 18.07-37.915 36.747-77.119 58.643-104.829 40.763-51.551 102.418-56.577 188.527-15.42 43.15 20.636 127.459 103.994 208.985 184.621 29.757 29.418 57.848 57.204 83.855 81.879l.644-.683c-25.988-24.656-54.079-52.442-83.836-81.859-81.583-80.684-165.949-164.1-209.231-184.811-37.675-18.018-69.762-27.046-98.099-27.596z"/></g></g><defs><linearGradient id="c" x1="197.408" x2="197.408" y1="492.609" y2="23.353" gradientUnits="userSpaceOnUse"><stop stop-color="#07122f" stop-opacity=".3"/><stop offset="1" stop-color="#050d20" stop-opacity=".3"/></linearGradient><linearGradient id="d" x1="199.912" x2="199.912" y1="486.859" y2="33.557" gradientUnits="userSpaceOnUse"><stop stop-color="#07122f" stop-opacity=".3"/><stop offset="1" stop-color="#050d20" stop-opacity=".3"/></linearGradient><linearGradient id="e" x1="202.373" x2="202.373" y1="481.197" y2="43.763" gradientUnits="userSpaceOnUse"><stop stop-color="#07122f" stop-opacity=".3"/><stop offset="1" stop-color="#050d20" stop-opacity=".3"/></linearGradient><linearGradient id="f" x1="204.815" x2="204.815" y1="475.576" y2="53.967" gradientUnits="userSpaceOnUse"><stop stop-color="#07122f" stop-opacity=".3"/><stop offset="1" stop-color="#050d20" stop-opacity=".3"/></linearGradient><linearGradient id="g" x1="207.25" x2="207.25" y1="470.01" y2="64.15" gradientUnits="userSpaceOnUse"><stop stop-color="#07122f" stop-opacity=".3"/><stop offset="1" stop-color="#050d20" stop-opacity=".3"/></linearGradient><linearGradient id="h" x1="209.59" x2="209.59" y1="464.41" y2="74.355" gradientUnits="userSpaceOnUse"><stop stop-color="#07122f" stop-opacity=".3"/><stop offset="1" stop-color="#050d20" stop-opacity=".3"/></linearGradient><linearGradient id="i" x1="211.936" x2="211.936" y1="458.934" y2="84.54" gradientUnits="userSpaceOnUse"><stop stop-color="#07122f" stop-opacity=".3"/><stop offset="1" stop-color="#050d20" stop-opacity=".3"/></linearGradient><linearGradient id="j" x1="214.165" x2="214.165" y1="453.561" y2="94.724" gradientUnits="userSpaceOnUse"><stop stop-color="#07122f" stop-opacity=".3"/><stop offset="1" stop-color="#050d20" stop-opacity=".3"/></linearGradient><linearGradient id="k" x1="215.946" x2="215.946" y1="448.133" y2="104.93" gradientUnits="userSpaceOnUse"><stop stop-color="#07122f" stop-opacity=".3"/><stop offset="1" stop-color="#050d20" stop-opacity=".3"/></linearGradient><linearGradient id="l" x1="217.526" x2="217.526" y1="442.709" y2="115.114" gradientUnits="userSpaceOnUse"><stop stop-color="#07122f" stop-opacity=".3"/><stop offset="1" stop-color="#050d20" stop-opacity=".3"/></linearGradient><linearGradient id="m" x1="219.1" x2="219.1" y1="437.422" y2="114.676" gradientUnits="userSpaceOnUse"><stop stop-color="#07122f" stop-opacity=".3"/><stop offset="1" stop-color="#050d20" stop-opacity=".3"/></linearGradient><linearGradient id="n" x1="220.68" x2="220.68" y1="432.184" y2="110.714" gradientUnits="userSpaceOnUse"><stop stop-color="#07122f" stop-opacity=".3"/><stop offset="1" stop-color="#050d20" stop-opacity=".3"/></linearGradient><linearGradient id="o" x1="222.223" x2="222.223" y1="426.932" y2="105.516" gradientUnits="userSpaceOnUse"><stop stop-color="#07122f" stop-opacity=".3"/><stop offset="1" stop-color="#050d20" stop-opacity=".3"/></linearGradient><linearGradient id="p" x1="223.863" x2="223.863" y1="421.727" y2="99.503" gradientUnits="userSpaceOnUse"><stop stop-color="#07122f" stop-opacity=".3"/><stop offset="1" stop-color="#050d20" stop-opacity=".3"/></linearGradient><linearGradient id="q" x1="225.38" x2="225.38" y1="416.504" y2="92.961" gradientUnits="userSpaceOnUse"><stop stop-color="#07122f" stop-opacity=".3"/><stop offset="1" stop-color="#050d20" stop-opacity=".3"/></linearGradient><linearGradient id="r" x1="227.026" x2="227.026" y1="411.367" y2="85.999" gradientUnits="userSpaceOnUse"><stop stop-color="#07122f" stop-opacity=".3"/><stop offset="1" stop-color="#050d20" stop-opacity=".3"/></linearGradient><linearGradient id="s" x1="228.599" x2="228.599" y1="406.229" y2="78.755" gradientUnits="userSpaceOnUse"><stop stop-color="#07122f" stop-opacity=".3"/><stop offset="1" stop-color="#050d20" stop-opacity=".3"/></linearGradient><linearGradient id="t" x1="230.169" x2="230.169" y1="401.143" y2="70.371" gradientUnits="userSpaceOnUse"><stop stop-color="#07122f" stop-opacity=".3"/><stop offset="1" stop-color="#050d20" stop-opacity=".3"/></linearGradient><linearGradient id="u" x1="231.751" x2="231.751" y1="396.129" y2="60.585" gradientUnits="userSpaceOnUse"><stop stop-color="#07122f" stop-opacity=".3"/><stop offset="1" stop-color="#050d20" stop-opacity=".3"/></linearGradient><linearGradient id="v" x1="233.325" x2="233.325" y1="391.084" y2="50.285" gradientUnits="userSpaceOnUse"><stop stop-color="#07122f" stop-opacity=".3"/><stop offset="1" stop-color="#050d20" stop-opacity=".3"/></linearGradient><linearGradient id="w" x1="234.915" x2="234.915" y1="386.18" y2="39.646" gradientUnits="userSpaceOnUse"><stop stop-color="#07122f" stop-opacity=".3"/><stop offset="1" stop-color="#050d20" stop-opacity=".3"/></linearGradient><linearGradient id="x" x1="236.506" x2="236.506" y1="381.248" y2="28.796" gradientUnits="userSpaceOnUse"><stop stop-color="#07122f" stop-opacity=".3"/><stop offset="1" stop-color="#050d20" stop-opacity=".3"/></linearGradient><linearGradient id="y" x1="238.069" x2="238.069" y1="376.414" y2="17.851" gradientUnits="userSpaceOnUse"><stop stop-color="#07122f" stop-opacity=".3"/><stop offset="1" stop-color="#050d20" stop-opacity=".3"/></linearGradient><linearGradient id="z" x1="239.67" x2="239.67" y1="371.629" y2="6.721" gradientUnits="userSpaceOnUse"><stop stop-color="#07122f" stop-opacity=".3"/><stop offset="1" stop-color="#050d20" stop-opacity=".3"/></linearGradient><linearGradient id="A" x1="241.205" x2="241.205" y1="366.949" y2="-4.509" gradientUnits="userSpaceOnUse"><stop stop-color="#07122f" stop-opacity=".3"/><stop offset="1" stop-color="#050d20" stop-opacity=".3"/></linearGradient><linearGradient id="B" x1="242.815" x2="242.815" y1="362.396" y2="-15.793" gradientUnits="userSpaceOnUse"><stop stop-color="#07122f" stop-opacity=".3"/><stop offset="1" stop-color="#050d20" stop-opacity=".3"/></linearGradient></defs></svg>