<svg xmlns="http://www.w3.org/2000/svg" width="40" height="40" fill="none" viewBox="0 0 40 40"><g fill="#132a64" clip-path="url(#a)"><path d="M39.359 26.607a3.33 3.33 0 0 0-4.785-1.094l-2.587 1.451a47 47 0 0 0-4.294 2.701c.24-.491.294-.99.147-1.463-.217-.7-.952-1.568-3.22-1.722-4.667-.315-5.547-1.18-5.633-1.278-.508-.583-1.028-1.018-1.59-1.332-6.498-3.63-12.723 1.823-12.985 2.058L.78 27.788a.937.937 0 0 0-.4 1.276l4.918 9.21a.936.936 0 0 0 1.322.354l3.667-2.28.034-.026.041-.02c.307-.168.676-.169.99-.001 4.44 2.362 7.177 2.885 8.73 2.885a5.5 5.5 0 0 0 .914-.07c.905-.047 8.928-.674 17.222-8.39l.679-.68a2.87 2.87 0 0 0 .462-3.439m-32.88 9.9L2.484 29.02l2.094-1.072 3.967 7.274zm31.07-7.767-.634.635c-8.05 7.49-15.978 7.866-16.056 7.869a1 1 0 0 0-.143.016c-.792.15-3.203.195-8.484-2.616a2.92 2.92 0 0 0-1.967-.285l-4.03-7.485c1.536-1.123 5.918-3.786 10.247-1.368.37.208.728.511 1.092.928.903 1.036 3.166 1.663 6.919 1.916 1.104.075 1.509.337 1.553.385-.001.056-.11.348-.63.76-1.25 1.031-4.57 2.197-8.16.936a.938.938 0 0 0-.898 1.615c.147.1.305.171.47.232.609.227 1.242.38 1.89.437 6.752.587 9.916-1.452 9.916-1.452l4.27-2.664 2.628-1.474q.045-.025.087-.055a1.44 1.44 0 0 1 1.158-.237c.398.088.729.327.937.676.22.368.138.927-.165 1.231M24.372 15.235a3.93 3.93 0 0 0 3.928-3.927 3.93 3.93 0 0 0-3.928-3.928 3.93 3.93 0 0 0-3.927 3.928 3.93 3.93 0 0 0 3.927 3.927m0-5.98c1.132 0 2.053.92 2.053 2.053a2.055 2.055 0 0 1-2.053 2.052 2.055 2.055 0 0 1-2.052-2.052c0-1.132.92-2.053 2.052-2.053"/><path d="m15.289 13.622.68.17q.16.542.39 1.06l-.4.544a1.85 1.85 0 0 0 .076 2.29l.674.801a1.85 1.85 0 0 0 2.242.469l.63-.313a8.7 8.7 0 0 0 2.303 1.067l.157.656c.198.835.935 1.42 1.794 1.425l1.046.006h.01a1.85 1.85 0 0 0 1.8-1.406l.17-.68a8.6 8.6 0 0 0 2.16-.976l.596.318a1.85 1.85 0 0 0 2.255-.4l.698-.78a1.85 1.85 0 0 0 .146-2.286l-.4-.582q.274-.587.457-1.21l.676-.164a1.85 1.85 0 0 0 1.416-1.8v-1.047a1.85 1.85 0 0 0-1.414-1.801l-.678-.166a9 9 0 0 0-.388-1.056l.408-.563a1.85 1.85 0 0 0-.089-2.289l-.677-.797a1.85 1.85 0 0 0-2.245-.457l-.624.313a8.7 8.7 0 0 0-2.3-1.064l-.166-.676A1.85 1.85 0 0 0 24.89.814h-1.046c-.856 0-1.597.582-1.802 1.415l-.165.678a8.7 8.7 0 0 0-2.143.966l-.617-.325a1.85 1.85 0 0 0-2.253.41l-.694.785a1.85 1.85 0 0 0-.134 2.286l.396.57q-.277.592-.462 1.217l-.658.157a1.85 1.85 0 0 0-1.425 1.793l-.006 1.046a1.856 1.856 0 0 0 1.408 1.81m1.665-3.112a.94.94 0 0 0 .698-.707 7 7 0 0 1 .692-1.824.94.94 0 0 0-.05-.989l-.717-1.004.668-.78 1.112.587a.94.94 0 0 0 .987-.07 6.8 6.8 0 0 1 2.519-1.135.94.94 0 0 0 .706-.692l.278-1.206 1.027-.016.297 1.22a.94.94 0 0 0 .707.693c.96.214 1.848.624 2.637 1.22a.94.94 0 0 0 .985.089l1.1-.57.677.772-.738 1.017a.94.94 0 0 0-.07.988c.282.534.493 1.105.625 1.698a.94.94 0 0 0 .692.705l1.206.295.015 1.01-1.22.297a.94.94 0 0 0-.693.707 7 7 0 0 1-.685 1.81.94.94 0 0 0 .048.984l.717 1.016-.672.774-1.094-.584a.94.94 0 0 0-.993.068 6.8 6.8 0 0 1-2.533 1.145.94.94 0 0 0-.705.688l-.285 1.205-1.026.01-.288-1.205a.94.94 0 0 0-.708-.698 6.8 6.8 0 0 1-2.64-1.221.94.94 0 0 0-.981-.092l-1.105.565-.672-.776.732-.999a.94.94 0 0 0 .073-.991 6.8 6.8 0 0 1-.625-1.7.94.94 0 0 0-.688-.706l-1.206-.285-.01-1.027z"/></g><defs><clipPath id="a"><path fill="#fff" d="M0 0h40v40H0z"/></clipPath></defs></svg>