<svg xmlns="http://www.w3.org/2000/svg" width="40" height="40" fill="none" viewBox="0 0 40 40"><path fill="#525252" d="m35.63 10.17-15-8.75a1.25 1.25 0 0 0-1.26 0l-15 8.75a1.25 1.25 0 0 0-.62 1.08v17.5a1.25 1.25 0 0 0 .62 1.08l15 8.75a1.25 1.25 0 0 0 1.26 0l15-8.75a1.25 1.25 0 0 0 .62-1.08v-17.5a1.25 1.25 0 0 0-.62-1.08M20 3.947l12.52 7.303L20 18.553 7.48 11.25zm-13.75 9.48 12.5 7.29v14.607l-12.5-7.292zm15 21.897V20.718l12.5-7.291v14.605z"/><path fill="#132a64" d="m35.63 10.17-15-8.75a1.25 1.25 0 0 0-1.26 0l-15 8.75a1.25 1.25 0 0 0-.62 1.08v17.5a1.25 1.25 0 0 0 .62 1.08l15 8.75a1.25 1.25 0 0 0 1.26 0l15-8.75a1.25 1.25 0 0 0 .62-1.08v-17.5a1.25 1.25 0 0 0-.62-1.08M20 3.947l12.52 7.303L20 18.553 7.48 11.25zm-13.75 9.48 12.5 7.29v14.607l-12.5-7.292zm15 21.897V20.718l12.5-7.291v14.605z"/></svg>