<svg xmlns="http://www.w3.org/2000/svg" width="40" height="40" fill="none" viewBox="0 0 40 40"><path fill="#132a64" fill-rule="evenodd" d="M20.788 37.413a1.25 1.25 0 0 0 1.237-.187l6.25-5a1.25 1.25 0 0 0 .475-.976v-9.487l4.725-4.713A13.65 13.65 0 0 0 37.5 7.325V5A2.5 2.5 0 0 0 35 2.5h-2.325a13.65 13.65 0 0 0-9.725 4.025l-4.712 4.725H8.75a1.25 1.25 0 0 0-.975.488l-5 6.25a1.25 1.25 0 0 0 .8 2.025l8.75 1.25.35-2.5-6.587-.938L9.35 13.75h9.4a1.25 1.25 0 0 0 .887-.362L24.726 8.3a11.18 11.18 0 0 1 7.95-3.3H35v2.325a11.18 11.18 0 0 1-3.3 7.95l-5.087 5.088a1.25 1.25 0 0 0-.363.887v9.4l-4.05 3.263-.937-6.588-2.5.35 1.25 8.75a1.25 1.25 0 0 0 .774.988M9.11 29.115l9.997-9.997 1.768 1.768-9.997 9.997z" clip-rule="evenodd"/></svg>