<svg xmlns="http://www.w3.org/2000/svg" width="50" height="50" fill="none" viewBox="0 0 50 50"><path fill="#615efc" d="M49.882 40.371s0-.01.01-.01c.01-.02.02-.029.03-.048v-.01c.01-.02.019-.04.029-.05v-.009c.01-.02.01-.039.02-.059v-.01c.009-.019.009-.038.019-.058v-.02c0-.019.01-.029.01-.048V5.37a3.66 3.66 0 0 0-3.653-3.652H15.44a3.66 3.66 0 0 0-3.652 3.652v7.774c-.508.029-1.036.078-1.641.156a.68.68 0 0 0-.566.498l-.547 1.953a11 11 0 0 0-1.094.45l-1.768-.997a.68.68 0 0 0-.752.049c-1.386 1.064-2.216 1.894-3.28 3.281a.68.68 0 0 0-.05.752l.996 1.768a9 9 0 0 0-.449 1.093l-1.953.547a.69.69 0 0 0-.498.567c-.244 1.826-.244 2.822 0 4.648a.68.68 0 0 0 .498.567l1.953.546c.127.372.283.733.45 1.094l-.997 1.768a.68.68 0 0 0 .05.752c1.064 1.396 1.894 2.226 3.28 3.281a.68.68 0 0 0 .752.049L7.94 34.96a10 10 0 0 0 1.094.45l.547 1.952a.69.69 0 0 0 .566.498c.615.079 1.143.137 1.64.166v6.602a3.66 3.66 0 0 0 3.653 3.652h26.338c.02 0 .039 0 .049-.01h.02c.019 0 .038-.01.058-.019.02-.01.039-.01.058-.02l.059-.029h.01c.02-.01.03-.02.049-.03 0 0 .01 0 .01-.009q.026-.015.038-.03l.01-.009c.02-.01.03-.03.049-.049l7.617-7.617.049-.049.01-.01s.01-.02.02-.029m-39.629-5.674a.67.67 0 0 0-.459-.469 9 9 0 0 1-1.552-.644.68.68 0 0 0-.655.01L5.9 34.55a14 14 0 0 1-2.393-2.393l.957-1.69a.68.68 0 0 0 .01-.654 9.3 9.3 0 0 1-.644-1.552.67.67 0 0 0-.47-.46l-1.874-.517c-.156-1.28-.156-2.11 0-3.389l1.875-.517a.67.67 0 0 0 .469-.46q.249-.804.644-1.552a.68.68 0 0 0-.01-.654l-.957-1.69A13.2 13.2 0 0 1 5.9 16.63l1.69.957a.68.68 0 0 0 .654.01 8.7 8.7 0 0 1 1.552-.645.69.69 0 0 0 .46-.469l.517-1.875a15 15 0 0 1 1.65-.107h.078c.528 0 1.045.039 1.65.107l.519 1.875c.058.225.234.4.459.47.527.155 1.044.38 1.552.644a.68.68 0 0 0 .655-.01l1.689-.957c.996.781 1.611 1.406 2.393 2.392l-.957 1.69a.68.68 0 0 0-.01.654c.244.46.478 1.016.644 1.553a.69.69 0 0 0 .469.459l1.875.517c.156 1.28.156 2.11 0 3.39l-1.875.517a.67.67 0 0 0-.469.459 9.3 9.3 0 0 1-.644 1.552.68.68 0 0 0 .01.655l.546.957c0 .01.01.01.01.02l.4.712c-.78.996-1.406 1.611-2.392 2.393l-1.69-.957a.68.68 0 0 0-.654-.01 9 9 0 0 1-1.552.644.69.69 0 0 0-.46.47l-.517 1.874c-1.28.156-2.11.156-3.389 0zm2.9 9.932v-6.602a20 20 0 0 0 1.641-.166.68.68 0 0 0 .567-.498l.547-1.953c.37-.127.742-.283 1.094-.45l1.767.997a.68.68 0 0 0 .752-.049 17 17 0 0 0 1.592-1.338h13.906a.68.68 0 0 0 .684-.683.68.68 0 0 0-.684-.684H22.343c.147-.185.293-.371.45-.576a.68.68 0 0 0 .048-.752l-.049-.088H35a.68.68 0 0 0 .684-.683.68.68 0 0 0-.684-.684H22.011l-.175-.313a10 10 0 0 0 .449-1.093l.058-.02H35a.68.68 0 0 0 .684-.683.68.68 0 0 0-.684-.684H24.786c.068-.527.107-.986.127-1.416H35a.68.68 0 0 0 .684-.684.68.68 0 0 0-.684-.683H24.912c-.03-.479-.078-.987-.157-1.592a.68.68 0 0 0-.498-.566l-1.953-.547a10 10 0 0 0-.449-1.094l.996-1.768a.68.68 0 0 0-.049-.752c-1.093-1.425-1.855-2.197-3.281-3.28a.68.68 0 0 0-.752-.05L16.992 16.2a10 10 0 0 0-1.094-.449l-.547-1.953a.69.69 0 0 0-.566-.498 19 19 0 0 0-1.641-.156V5.37a2.29 2.29 0 0 1 2.285-2.285h30.908a2.29 2.29 0 0 1 2.286 2.285v33.936h-6.016c-.879 0-1.602.722-1.602 1.601v6.016H15.42a2.3 2.3 0 0 1-2.265-2.295m34.513-3.955-5.274 5.273v-5.049c0-.127.107-.234.234-.234h5.04zM44.12 25.537a.68.68 0 0 1-.684.684H37.89a.68.68 0 0 1-.684-.684.68.68 0 0 1 .684-.683h5.547a.68.68 0 0 1 .684.683m-7.49-8.847c.302.048.595.068.898.068a5.9 5.9 0 0 0 2.793-.694c.01 0 .01 0 .02-.01s.019-.01.038-.019a6 6 0 0 0 .752-.478 6 6 0 0 0 2.383-3.975 6 6 0 0 0-1.133-4.492c-.01-.01-.01-.02-.02-.02-.009-.02-.029-.039-.038-.058a.3.3 0 0 1-.05-.059 6.02 6.02 0 0 0-3.866-2.236 6 6 0 0 0-4.492 1.133 6 6 0 0 0-2.383 3.974 6 6 0 0 0 1.133 4.492 6 6 0 0 0 3.964 2.373m.204-1.348a4.65 4.65 0 0 1-3.076-1.846 4.6 4.6 0 0 1-.771-1.611l4.15-.45 1.944 3.692a4.85 4.85 0 0 1-2.247.215m5.323-3.955a4.65 4.65 0 0 1-1.846 3.076c-.01.01-.02.01-.03.02l-1.894-3.585 3.213-2.47c.508.888.703 1.924.557 2.959m-7.432-4.444a4.67 4.67 0 0 1 3.477-.879 4.6 4.6 0 0 1 2.568 1.27l-3.525 2.705-4.415.479c.01-.166.02-.333.05-.508a4.65 4.65 0 0 1 1.845-3.067m-7.91 29.366h-9.707a.68.68 0 0 0-.684.683v2.52c0 .38.303.683.684.683h9.707a.68.68 0 0 0 .684-.683v-2.52a.686.686 0 0 0-.684-.683m-.684 2.52h-8.34v-1.153h8.34zM44.12 22.655v-2.51a.68.68 0 0 0-.684-.683h-10.36a.68.68 0 0 0-.684.683v2.51a.68.68 0 0 0 .684.684h10.361a.68.68 0 0 0 .684-.684m-1.368-.683H33.76V20.83h8.994zm1.368 6.347a.68.68 0 0 1-.684.684H37.89a.68.68 0 0 1-.684-.684.68.68 0 0 1 .684-.683h5.547a.68.68 0 0 1 .684.683m0 2.784a.68.68 0 0 1-.684.683H37.89a.68.68 0 0 1-.684-.683.68.68 0 0 1 .684-.684h5.547a.68.68 0 0 1 .684.683m-6.23 3.466a.68.68 0 0 1-.684-.683.68.68 0 0 1 .683-.684h5.547a.68.68 0 0 1 .684.684.68.68 0 0 1-.684.683zM18.74 25.586a6.287 6.287 0 0 0-6.28-6.28 6.28 6.28 0 0 0 .01 12.559 6.27 6.27 0 0 0 6.27-6.28m-6.27 4.912a4.92 4.92 0 0 1-4.912-4.912 4.916 4.916 0 0 1 4.912-4.912 4.91 4.91 0 0 1 4.912 4.912c-.01 2.705-2.207 4.912-4.912 4.912"/></svg>