<svg xmlns="http://www.w3.org/2000/svg" width="50" height="50" fill="none" viewBox="0 0 50 50"><path fill="#615efc" fill-rule="evenodd" d="M7.796.686H36.88c.476 0 .889.173 1.224.508l5.327 5.328c.335.335.508.747.508 1.224v39.836c0 .953-.78 1.732-1.732 1.732H7.796c-.958 0-1.735-.78-1.735-1.732V2.422c0-.958.777-1.736 1.735-1.736m28.69 1.569H7.795a.167.167 0 0 0-.167.167v45.16c0 .09.076.163.167.163h34.41c.09 0 .163-.073.163-.163V8.139h-4.624c-.69 0-1.26-.57-1.26-1.26zM41.26 6.57l-3.206-3.206V6.57zm-3.614 19.854c-.24 6.57-5.65 11.831-12.279 11.831-6.781 0-12.287-5.505-12.287-12.287 0-6.781 5.506-12.287 12.287-12.287a.785.785 0 0 1 0 1.569c-5.915 0-10.718 4.802-10.718 10.718s4.803 10.719 10.718 10.719c5.756 0 10.458-4.546 10.708-10.24l-.27.225A.785.785 0 0 1 34.8 25.47l1.688-1.412a.784.784 0 0 1 1.058.047l1.568 1.568a.785.785 0 0 1-1.11 1.11zM35.687 7.497v4.024a.784.784 0 0 1-.784.784H15.096a.784.784 0 0 1-.784-.784V7.497c0-.433.35-.784.784-.784h19.807c.433 0 .784.351.784.784m-1.569.785H15.88v2.454h18.238zM18.365 44.974a.785.785 0 0 1 0-1.57h20.193a.785.785 0 0 1 0 1.57zm0-3.774a.785.785 0 0 1 0-1.569h20.193a.785.785 0 0 1 0 1.569zm-4.5 0a.785.785 0 0 1 0-1.569h1.905a.785.785 0 0 1 0 1.569zm11.502-24.017a8.783 8.783 0 0 1 8.785 8.785 8.783 8.783 0 0 1-8.785 8.785 8.783 8.783 0 0 1-8.784-8.785 8.783 8.783 0 0 1 8.784-8.785m0 1.57a7.215 7.215 0 0 0-7.216 7.215 7.215 7.215 0 0 0 7.216 7.216 7.215 7.215 0 0 0 7.216-7.216 7.215 7.215 0 0 0-7.216-7.216m-.784 4.189a.785.785 0 0 1 1.569 0v2.573l1.63.941a.785.785 0 0 1-.785 1.359l-2.022-1.168a.78.78 0 0 1-.392-.679zm-3.167 8.087a.785.785 0 0 1-1.109-1.11l.49-.489a.785.785 0 0 1 1.108 1.11zm-1.109-9.012a.785.785 0 0 1 1.11-1.11l.488.49a.784.784 0 0 1-1.109 1.11zm5.845 10.32a.785.785 0 0 1-1.569 0v-.689a.785.785 0 0 1 1.569 0zm-7.154-5.584a.785.785 0 0 1 0-1.57h.69a.785.785 0 0 1 0 1.57zm12.741-1.57a.785.785 0 0 1 0 1.57h-.692a.785.785 0 0 1 0-1.57zM24.583 19.6a.785.785 0 0 1 1.569 0v.69a.785.785 0 0 1-1.569 0zm5.845 10.32a.785.785 0 0 1-1.11 1.11l-.489-.49a.785.785 0 0 1 1.11-1.109zm-1.11-9.011a.785.785 0 0 1 1.11 1.11l-.49.488a.785.785 0 0 1-1.109-1.109zM13.865 44.974a.785.785 0 0 1 0-1.57h1.906a.785.785 0 0 1 0 1.57z" clip-rule="evenodd"/></svg>