<svg xmlns="http://www.w3.org/2000/svg" width="48" height="48" fill="none" viewBox="0 0 48 48"><path fill="#615efc" d="M25.298 37.49h-2.595a2.37 2.37 0 0 1-2.377-2.36v-1.098a.49.49 0 0 0-.321-.44c-.211-.085-.42-.053-.55.076l-.787.78a2.395 2.395 0 0 1-3.362 0l-1.835-1.821a2.35 2.35 0 0 1 0-3.336l.786-.78a.48.48 0 0 0 .085-.526c-.088-.214-.262-.339-.452-.339h-1.106a2.37 2.37 0 0 1-2.378-2.36v-2.575a2.37 2.37 0 0 1 2.378-2.359h1.106a.49.49 0 0 0 .445-.32c.086-.208.053-.416-.078-.546l-.786-.78a2.35 2.35 0 0 1 0-3.336l1.835-1.82c.897-.893 2.464-.893 3.362 0l.786.78c.131.13.34.163.531.084.216-.088.342-.26.342-.448v-1.099c0-1.3 1.066-2.36 2.377-2.36h2.595a2.37 2.37 0 0 1 2.378 2.36v1.099c0 .188.126.36.32.44.212.087.42.053.551-.077l.786-.78c.897-.892 2.465-.892 3.362 0l1.835 1.82a2.35 2.35 0 0 1 0 3.337l-.786.78a.48.48 0 0 0-.085.528c.089.213.262.338.451.338h1.106a2.37 2.37 0 0 1 2.378 2.359v2.576c0 1.3-1.066 2.36-2.378 2.36h-1.106a.49.49 0 0 0-.443.317c-.089.213-.056.415.077.547l.786.78a2.347 2.347 0 0 1 0 3.336l-1.835 1.821a2.394 2.394 0 0 1-3.362 0l-.786-.78c-.133-.132-.334-.165-.53-.084l-.02.008c-.206.095-.321.26-.321.44v1.098a2.374 2.374 0 0 1-2.38 2.36m-5.525-5.838c.315 0 .633.06.938.185.93.378 1.52 1.238 1.52 2.195v1.098a.47.47 0 0 0 .472.468h2.595a.47.47 0 0 0 .472-.468v-1.098c0-.957.59-1.816 1.503-2.188l.054-.023c.896-.349 1.9-.153 2.566.51l.786.78a.475.475 0 0 0 .669 0l1.835-1.82a.466.466 0 0 0 0-.663l-.786-.78a2.35 2.35 0 0 1-.522-2.529l.039-.092a2.38 2.38 0 0 1 2.196-1.472h1.106c.26 0 .473-.21.473-.468V22.71a.47.47 0 0 0-.473-.469H34.11a2.39 2.39 0 0 1-2.205-1.492c-.38-.914-.185-1.928.492-2.6l.786-.78a.467.467 0 0 0 0-.664l-1.835-1.82a.473.473 0 0 0-.668 0l-.785.78a2.39 2.39 0 0 1-2.605.495c-.93-.379-1.519-1.238-1.519-2.195v-1.099a.47.47 0 0 0-.472-.468h-2.595c-.26 0-.473.21-.473.468v1.099c0 .958-.59 1.817-1.503 2.19-.92.376-1.944.183-2.62-.49l-.786-.78a.474.474 0 0 0-.668 0l-1.835 1.821a.467.467 0 0 0 0 .664l.786.78a2.35 2.35 0 0 1 .5 2.584c-.383.923-1.249 1.508-2.214 1.508h-1.106c-.26 0-.472.21-.472.469v2.575c0 .259.212.47.472.47h1.106a2.39 2.39 0 0 1 2.207 1.49c.38.915.184 1.93-.493 2.602l-.786.78a.466.466 0 0 0 0 .662l1.835 1.822a.475.475 0 0 0 .668 0l.786-.78a2.35 2.35 0 0 1 1.665-.681"/><path fill="#615efc" d="M23.999 29.256c-2.92 0-5.296-2.357-5.296-5.256S21.08 18.745 24 18.745s5.296 2.357 5.296 5.255c0 2.899-2.375 5.256-5.296 5.256m0-8.621c-1.87 0-3.39 1.51-3.39 3.365s1.521 3.365 3.39 3.365 3.39-1.51 3.39-3.365-1.52-3.365-3.39-3.365m-19.935 1a.947.947 0 0 1-.944-1.08c1.25-8.571 7.817-15.578 16.343-17.436a.944.944 0 1 1 .408 1.846c-7.755 1.69-13.729 8.063-14.866 15.86a.95.95 0 0 1-.94.81M19.67 44.061a1 1 0 0 1-.206-.022c-8.706-1.897-15.295-9.067-16.398-17.842a.953.953 0 0 1 1.891-.234c1.004 7.982 6.998 14.505 14.917 16.23a.945.945 0 0 1 .726 1.127.954.954 0 0 1-.93.741m7.852.163a.95.95 0 0 1-.937-.782.947.947 0 0 1 .774-1.095c8.217-1.432 14.676-8.17 15.71-16.386a.95.95 0 0 1 1.063-.82.947.947 0 0 1 .827 1.055c-1.135 9.031-8.237 16.439-17.27 18.015a1 1 0 0 1-.167.013m16.436-22.589a.95.95 0 0 1-.941-.81c-1.19-8.153-7.482-14.59-15.658-16.016a.95.95 0 0 1-.775-1.095.953.953 0 0 1 1.104-.767c8.989 1.567 15.906 8.642 17.213 17.607a.946.946 0 0 1-.943 1.08"/><path fill="#615efc" d="M18.708 8.586a.945.945 0 0 1-.896-1.268l1.233-3.375-3.483-1.252a.944.944 0 0 1-.572-1.21.956.956 0 0 1 1.22-.567l4.38 1.574a.94.94 0 0 1 .572 1.21l-1.557 4.264a.95.95 0 0 1-.897.624M44.363 22.08a.94.94 0 0 1-.47-.124l-3.97-2.247a.94.94 0 0 1-.355-1.29.954.954 0 0 1 1.299-.352l3.142 1.779 1.836-3.194a.955.955 0 0 1 1.3-.353.94.94 0 0 1 .354 1.29l-2.308 4.014a.95.95 0 0 1-.828.477M30.401 47.143a.95.95 0 0 1-.611-.221l-3.569-2.97a.94.94 0 0 1-.118-1.332l2.938-3.474a.96.96 0 0 1 1.342-.118.94.94 0 0 1 .119 1.332l-2.325 2.751 2.839 2.363a.94.94 0 0 1 .118 1.331.96.96 0 0 1-.733.338M1.326 30.399a.948.948 0 0 1-.77-1.502l2.741-3.737a.956.956 0 0 1 1.331-.207l3.695 2.668a.94.94 0 0 1 .21 1.32.96.96 0 0 1-1.33.208l-2.926-2.113-2.18 2.973a.95.95 0 0 1-.77.39"/></svg>