<svg xmlns="http://www.w3.org/2000/svg" width="50" height="50" fill="none" viewBox="0 0 50 50"><g clip-path="url(#a)"><path fill="#615efc" fill-rule="evenodd" d="m11.86 44.314.572 1.011v.002a1.887 1.887 0 0 1-.71 2.56l-2.089 1.184-.002.002a1.887 1.887 0 0 1-2.561-.712L.93 37.51a1.884 1.884 0 0 1 .708-2.563l2.09-1.184h.001a1.89 1.89 0 0 1 2.561.71l.001.001.46.814 5.43-3.144c1.655-.957 3.347-1.578 5.165-.988 1.756.57 4.624 1.798 7.55 2.326a1 1 0 0 1 .103.026c1.5.486 2.412 2.004 2.002 3.528q-.08.3-.204.562.423-.131.832-.37l7.445-4.335c2.713-1.58 4.522-1.402 5.545-.716.886.595 1.298 1.61 1.271 2.606-.026 1.007-.508 1.969-1.298 2.455l-13.51 8.318c-1.431.884-3 1.091-4.625.658l-9.486-2.543zm-.794 1.782L4.927 35.25a.315.315 0 0 0-.426-.12l-2.09 1.184a.31.31 0 0 0-.117.424l6.141 10.85v.001c.085.15.277.201.427.117l2.086-1.182a.314.314 0 0 0 .117-.427m.02-3.147 1.382-.798a.78.78 0 0 1 .595-.078l9.799 2.626c1.193.318 2.346.172 3.397-.477l13.51-8.319c.367-.225.54-.694.553-1.16.015-.553-.216-1.138-.8-1.38-.768-.32-1.946-.111-3.658.886l-7.445 4.336c-1.203.701-2.464.895-3.838.677h-.003l-.923-.15c0-.001-3.274-.86-5.004-1.325a.785.785 0 0 1 .407-1.515c1.688.454 3.209.95 4.847 1.29.805.088 1.396-.242 1.581-.932.188-.697-.25-1.372-.926-1.613-2.985-.549-5.906-1.787-7.698-2.368-1.38-.448-2.64.129-3.896.854l-5.442 3.151zm-6.904-6.58a.866.866 0 1 1 .251 1.715.866.866 0 1 1-.251-1.715m4.71-25.52a8.207 8.207 0 0 1 8.208 8.207 8.207 8.207 0 0 1-8.207 8.207 8.207 8.207 0 0 1-8.207-8.207 8.207 8.207 0 0 1 8.207-8.208m5.535 11.875a6.638 6.638 0 0 0-5.534-10.307 6.638 6.638 0 0 0-5.535 10.307 6 6 0 0 1 3.086-3.212 3.4 3.4 0 0 1-.957-2.361 3.415 3.415 0 0 1 3.406-3.406 3.415 3.415 0 0 1 3.406 3.406c0 .915-.366 1.748-.958 2.361a6 6 0 0 1 3.086 3.212M4.578 24.1a6.6 6.6 0 0 0 4.315 1.593c1.647 0 3.154-.6 4.314-1.593a4.4 4.4 0 0 0-8.629 0m4.315-5.113c1.01 0 1.837-.826 1.837-1.837s-.827-1.837-1.837-1.837-1.837.826-1.837 1.837c0 1.01.826 1.837 1.837 1.837m18.174-16.94q.681.207 1.31.544l.841-.374a.78.78 0 0 1 .874.162l1.42 1.42a.78.78 0 0 1 .162.872l-.373.841q.338.63.544 1.314l.858.33a.78.78 0 0 1 .502.732v2.008c0 .325-.2.616-.502.732l-.859.33q-.207.682-.543 1.311l.373.842a.78.78 0 0 1-.163.873l-1.42 1.42a.78.78 0 0 1-.872.162l-.84-.373a7 7 0 0 1-1.313.544l-.33.857a.78.78 0 0 1-.732.503h-2.008a.78.78 0 0 1-.732-.503l-.33-.857a7 7 0 0 1-1.313-.544l-.842.373a.785.785 0 0 1-.872-.163l-1.42-1.42a.78.78 0 0 1-.162-.873l.374-.84a7 7 0 0 1-.544-1.311l-.859-.33a.78.78 0 0 1-.503-.733V7.89c0-.324.2-.615.503-.732l.859-.33q.207-.684.544-1.313l-.374-.841a.78.78 0 0 1 .162-.873l1.42-1.42a.78.78 0 0 1 .873-.162l.841.374a7 7 0 0 1 1.312-.543l.332-.86a.78.78 0 0 1 .731-.503h2.008c.325 0 .616.2.732.503zm-1.322.935-.28-.728h-.93l-.282.73a.78.78 0 0 1-.55.48 5.5 5.5 0 0 0-1.625.673.78.78 0 0 1-.73.05l-.713-.318-.658.658.317.713a.78.78 0 0 1-.049.73 5.6 5.6 0 0 0-.675 1.628.79.79 0 0 1-.481.549l-.727.28v.93l.727.28c.24.093.42.298.48.549.139.574.366 1.124.676 1.625.136.22.155.495.05.731l-.318.713.659.659.713-.316a.78.78 0 0 1 .727.048 5.6 5.6 0 0 0 1.628.674c.252.06.458.24.551.482l.28.726h.93l.28-.726a.79.79 0 0 1 .551-.482 5.5 5.5 0 0 0 1.623-.672.79.79 0 0 1 .73-.05l.714.316.659-.66-.316-.713a.79.79 0 0 1 .048-.727 5.6 5.6 0 0 0 .674-1.626.78.78 0 0 1 .482-.55l.727-.28v-.931l-.727-.28a.79.79 0 0 1-.482-.551 5.5 5.5 0 0 0-.673-1.626.79.79 0 0 1-.05-.73l.317-.712-.659-.659-.712.317a.78.78 0 0 1-.73-.049 5.5 5.5 0 0 0-1.625-.673.79.79 0 0 1-.55-.482M25 4.605a4.287 4.287 0 1 1 0 8.576 4.287 4.287 0 0 1-4.286-4.289A4.285 4.285 0 0 1 25 4.605m0 1.569a2.719 2.719 0 1 0 .001 5.44 2.719 2.719 0 0 0 0-5.44m16.108 21.089c-4.52 0-8.206-3.687-8.206-8.206s3.687-8.206 8.206-8.206 8.206 3.686 8.206 8.206-3.686 8.206-8.206 8.206m0-1.569c3.656 0 6.637-2.982 6.637-6.637 0-3.656-2.981-6.637-6.637-6.637s-6.639 2.98-6.639 6.637 2.982 6.637 6.637 6.637m-.784-10.971v-.361a.785.785 0 0 1 1.568 0v.352a2.98 2.98 0 0 1 2.126 1.786.785.785 0 0 1-1.447.607c-.376-.895-1.38-1.073-2.1-.79-.405.16-.735.481-.711.956v.002c.017.366.259.571.542.71.289.14.624.219.94.27h.001c1.348.223 2.818.844 3.011 2.446.188 1.553-1.047 2.462-2.362 2.715v.338a.785.785 0 0 1-1.568 0v-.35c-1.11-.238-2.062-.976-2.357-2.16a.785.785 0 0 1 1.523-.379c.188.756.957 1.073 1.695 1.054h.002c.402-.009.85-.107 1.18-.334.218-.152.368-.377.33-.696v-.001c-.05-.421-.342-.65-.675-.8-.323-.148-.69-.228-1.032-.284-1.322-.215-2.723-.888-2.797-2.455-.059-1.203.678-2.088 1.703-2.492q.207-.081.428-.134m-14.54 10.5a.785.785 0 0 1-1.568 0v-5.335a.785.785 0 0 1 1.569 0zm2.067 2.918a.785.785 0 0 1-.974-1.23l4.585-3.627a.785.785 0 0 1 .973 1.23zm-4.728-1.23a.785.785 0 0 1-.973 1.23l-4.584-3.627a.785.785 0 0 1 .973-1.23z" clip-rule="evenodd"/></g><defs><clipPath id="a"><path fill="#fff" d="M0 0h50v50H0z"/></clipPath></defs></svg>