<svg xmlns="http://www.w3.org/2000/svg" width="50" height="50" fill="none" viewBox="0 0 50 50"><g fill="#615efc" clip-path="url(#a)"><path d="M24.414 17.578a.977.977 0 1 0 0-1.954.977.977 0 0 0 0 1.954m0 3.906a.977.977 0 1 0 0-1.954.977.977 0 0 0 0 1.954"/><path d="M49.714 10.052 39.948.286a1 1 0 0 0-.69-.286h-24.61a2.933 2.933 0 0 0-2.93 2.93v2.974q-.486-.044-.976-.045C4.82 5.86 0 10.68 0 16.602s4.82 10.742 10.742 10.742q.49 0 .977-.045V47.07a2.933 2.933 0 0 0 2.93 2.93H47.07A2.933 2.933 0 0 0 50 47.07V10.742a.98.98 0 0 0-.286-.69m-9.48-6.718 6.432 6.432h-6.432zM11.72 7.867c4.123.455 7.305 3.743 7.756 7.758H11.72zm-9.766 8.735c0-4.517 3.424-8.247 7.813-8.735v8.735c0 .539.437.975.976.975h8.733c-.49 4.369-4.187 7.814-8.733 7.814-4.846 0-8.789-3.943-8.789-8.79M47.07 48.047H14.648a.977.977 0 0 1-.976-.977V26.937c4.571-1.294 7.812-5.517 7.812-10.335 0-4.82-3.24-9.042-7.812-10.336V2.93c0-.539.438-.977.976-.977h23.633v8.79c0 .539.437.976.977.976h8.789V47.07a.98.98 0 0 1-.977.977"/><path d="M25 7.813h10.352a.976.976 0 1 0 0-1.954H25a.977.977 0 1 0 0 1.954m0 3.906h10.352a.976.976 0 1 0 0-1.953H25a.977.977 0 1 0 0 1.953m-14.258 9.765a4.89 4.89 0 0 1-4.883-4.882.977.977 0 1 0-1.953 0 6.844 6.844 0 0 0 6.836 6.836.977.977 0 1 0 0-1.954m32.129 4.493a2.933 2.933 0 0 0-2.93 2.93c0 .605.185 1.168.5 1.635l-6.78 7.279a2.93 2.93 0 0 0-2.025.12l-3.055-3.786a2.933 2.933 0 0 0-2.605-4.272 2.933 2.933 0 0 0-2.628 4.223l-3.561 3.86a2.933 2.933 0 0 0-4.161 2.66 2.933 2.933 0 0 0 2.929 2.929 2.933 2.933 0 0 0 2.629-4.224l3.56-3.86c.382.178.8.271 1.233.271.412 0 .81-.085 1.176-.246l3.055 3.787a2.933 2.933 0 0 0 2.605 4.272 2.933 2.933 0 0 0 2.93-2.93c0-.605-.185-1.169-.501-1.636l6.781-7.279q.404.125.848.126a2.933 2.933 0 0 0 2.93-2.93 2.933 2.933 0 0 0-2.93-2.93M18.555 41.602a.978.978 0 1 1 .002-1.956.978.978 0 0 1-.002 1.956M25 32.812a.978.978 0 1 1 1.955.002.978.978 0 0 1-1.955-.002m7.813 8.79a.978.978 0 0 1 0-1.954.978.978 0 0 1 0 1.954m10.058-11.72a.978.978 0 0 1 0-1.952.977.977 0 0 1 0 1.953M27.344 16.602c0 .539.437.976.976.976h14.844a.976.976 0 1 0 0-1.953H28.32a.976.976 0 0 0-.976.977m15.82 2.929H28.32a.976.976 0 1 0 0 1.953h14.844a.976.976 0 1 0 0-1.953"/></g><defs><clipPath id="a"><path fill="#fff" d="M0 0h50v50H0z"/></clipPath></defs></svg>