<svg xmlns="http://www.w3.org/2000/svg" width="50" height="50" fill="none" viewBox="0 0 50 50"><path fill="#615efc" d="M16.335 43.719a.684.684 0 0 1-.683.683h-5.335a.684.684 0 1 1 0-1.367h5.335c.377 0 .683.306.683.684m-3.35-28.878c-3.5 0-6.796 1.332-9.282 3.75a.684.684 0 0 0 .954.98c4.591-4.466 12.063-4.466 16.655 0a.68.68 0 0 0 .967-.013.684.684 0 0 0-.014-.966c-2.486-2.419-5.782-3.75-9.28-3.75m-.001 3.363a9.9 9.9 0 0 0-6.897 2.765.684.684 0 1 0 .948.986c3.28-3.157 8.618-3.156 11.896 0a.684.684 0 0 0 .948-.985 9.9 9.9 0 0 0-6.895-2.766m-4.509 5.141a.684.684 0 1 0 .938.995 5.213 5.213 0 0 1 7.143 0 .684.684 0 1 0 .938-.995 6.583 6.583 0 0 0-9.019 0m3.3 3.398a1.85 1.85 0 0 1 2.418 0 .68.68 0 0 0 .964-.068.684.684 0 0 0-.068-.965 3.226 3.226 0 0 0-4.21 0 .684.684 0 1 0 .897 1.033m-1.195 4.22a2.354 2.354 0 0 1 2.35-2.353 2.356 2.356 0 0 1 2.353 2.353 2.356 2.356 0 0 1-2.353 2.353 2.354 2.354 0 0 1-2.35-2.353m1.368 0a.985.985 0 1 0 1.97 0 .985.985 0 0 0-1.97 0M50 25c0 9.632-7.835 17.468-17.465 17.468-2.28 0-4.483-.43-6.566-1.28v3.508a2.237 2.237 0 0 1-2.234 2.234H2.23A2.235 2.235 0 0 1 0 44.696V5.302A2.234 2.234 0 0 1 2.231 3.07h21.504a2.235 2.235 0 0 1 2.234 2.232V8.81a17.3 17.3 0 0 1 6.566-1.278C42.165 7.533 50 15.369 50 25m-1.383.676h-5.875c-.057 2.592-.44 5.087-1.115 7.338h4.865a16 16 0 0 0 2.125-7.338M38.679 36.53c.38-.67.724-1.389 1.028-2.148h-6.488v6.669c2.036-.29 3.954-1.87 5.46-4.521m1.518-3.516c.712-2.223 1.117-4.725 1.177-7.339h-8.155v7.339zM33.22 15.616h6.487a18 18 0 0 0-1.027-2.147c-1.506-2.651-3.424-4.23-5.46-4.52zm0 1.367v7.325h8.154c-.06-2.61-.465-5.106-1.176-7.325zm-1.368 0H25.97v7.325h5.882zM25.97 33.014h5.882v-7.339H25.97zm22.647-8.706a16 16 0 0 0-2.125-7.325h-4.864c.673 2.248 1.056 4.737 1.114 7.325zM37.483 9.679c.871.82 1.674 1.863 2.385 3.115.495.87.93 1.816 1.302 2.822h4.437a16.17 16.17 0 0 0-8.124-5.937m-11.514.618v5.319h5.882v-6.7c-2.05.084-4.024.547-5.882 1.381M9.882 4.437l.4 1.681h5.405l.4-1.68zm14.72.865a.866.866 0 0 0-.867-.864h-6.242l-.6 2.522a.684.684 0 0 1-.666.526H9.741a.684.684 0 0 1-.665-.526l-.6-2.522H2.231a.875.875 0 0 0-.863.864v39.394c0 .478.387.866.863.866h21.504a.867.867 0 0 0 .866-.866zm1.367 34.4a15.9 15.9 0 0 0 5.882 1.382v-6.703h-5.882zm19.64-5.32H41.17a19 19 0 0 1-1.302 2.823c-.71 1.252-1.514 2.296-2.386 3.116a16.16 16.16 0 0 0 8.127-5.94"/></svg>