<svg xmlns="http://www.w3.org/2000/svg" width="60" height="60" fill="none" viewBox="0 0 60 60"><path fill="#0f62fe" fill-rule="evenodd" d="m15.772 52.6.81 1.43v.002a2.405 2.405 0 0 1-.907 3.264l-2.772 1.571-.003.002a2.405 2.405 0 0 1-3.264-.908L1.483 43.555a2.4 2.4 0 0 1 .902-3.267l2.776-1.572a2.407 2.407 0 0 1 3.265.904l.001.002.662 1.169 7.297-4.225c2.172-1.256 4.39-2.079 6.777-1.304 2.335.758 6.148 2.39 10.04 3.093a1 1 0 0 1 .122.03c1.942.63 3.124 2.592 2.593 4.563a4.2 4.2 0 0 1-.37.934q.69-.18 1.351-.564l9.886-5.758c3.55-2.069 5.917-1.853 7.257-.954 1.147.77 1.677 2.084 1.643 3.374-.035 1.303-.654 2.549-1.675 3.178L36.07 54.203c-1.877 1.158-3.933 1.43-6.063.862L17.37 51.677zm-5.756-10.17 4.829 8.532 1.921-1.11a.94.94 0 0 1 .715-.093l13.012 3.487c1.612.43 3.168.231 4.589-.645l17.94-11.046c.475-.293.724-.88.774-1.482.076-.927-.36-1.95-1.507-2.19-1.053-.22-2.537.127-4.556 1.303l-9.886 5.758c-1.577.919-3.23 1.172-5.03.886h-.004l-1.226-.2-.039-.007c-2.231-.458-4.3-1.132-6.595-1.75a.942.942 0 0 1 .489-1.817c2.244.603 4.267 1.264 6.445 1.715 1.13.125 1.954-.344 2.213-1.31v-.001c.264-.98-.349-1.93-1.3-2.265-3.962-.727-7.84-2.371-10.218-3.142-1.86-.604-3.562.164-5.254 1.143zM6.79 40.55a.52.52 0 0 0-.702-.196l-2.775 1.57-.001.001a.514.514 0 0 0-.192.7v.001l8.154 14.407v.001a.52.52 0 0 0 .703.194l2.77-1.57.002-.002a.517.517 0 0 0 .193-.702zm-1.076 1.536a1.15 1.15 0 1 1 .333 2.277 1.15 1.15 0 1 1-.333-2.277M21.706 11.08a.94.94 0 0 1 .47-.815l4.94-2.852 4.035-2.329 4.94-2.851a.94.94 0 0 1 .94 0l13.914 8.032c.29.168.47.479.47.815v16.066c0 .336-.18.647-.47.815L37.03 35.992a.94.94 0 0 1-.94 0L22.176 27.96a.94.94 0 0 1-.47-.815zm5.88-1.765L24.53 11.08l12.03 6.946 3.058-1.765zm4.035-2.329L29.47 8.227l12.03 6.947 2.152-1.243zm16.97 4.094-12.03-6.946-3.057 1.765 12.03 6.946zm-11.09 22.468 12.032-6.946V12.71l-3.057 1.765v5.784c0 .337-.18.647-.47.815l-4.035 2.33a.941.941 0 0 1-1.412-.816V17.89l-3.057 1.765zM23.59 12.71v13.892l12.03 6.946V19.655zm21.004 2.852-2.152 1.243v4.153l2.152-1.242zm4.84-10.155a.942.942 0 0 1-1.818-.488l.91-3.397a.942.942 0 0 1 1.818.487zm4.81 11.041a.942.942 0 0 1 .488-1.817l3.4.914a.942.942 0 0 1-.489 1.818zm-.12-6.513a.942.942 0 0 1-.941-1.63l3.051-1.762a.941.941 0 0 1 .942 1.63zM25.507 4.918a.942.942 0 0 1-1.819.487l-.91-3.397a.942.942 0 0 1 1.818-.487zM18.39 14.63a.942.942 0 0 1 .49 1.817l-3.4.915a.942.942 0 0 1-.49-1.818zm1.55-6.326a.942.942 0 0 1-.942 1.63l-3.051-1.762a.942.942 0 0 1 .941-1.63z" clip-rule="evenodd"/></svg>