<svg xmlns="http://www.w3.org/2000/svg" width="60" height="60" fill="none" viewBox="0 0 60 60"><path fill="#0f62fe" d="M30 45.938a7.5 7.5 0 1 1 7.5-7.5 7.51 7.51 0 0 1-7.5 7.5m0-13.126a5.625 5.625 0 1 0 0 11.25 5.625 5.625 0 0 0 0-11.25m11.25 25.313a.94.94 0 0 1-.937-.937v-5.626c0-.954-3.64-2.812-10.313-2.812-6.672 0-10.312 1.858-10.312 2.813v5.624a.938.938 0 0 1-1.875 0v-5.624c0-3.078 6.13-4.688 12.187-4.688s12.188 1.61 12.188 4.688v5.624a.94.94 0 0 1-.938.938m4.688-16.875a7.5 7.5 0 1 1 7.5-7.5 7.51 7.51 0 0 1-7.5 7.5m0-13.125a5.625 5.625 0 1 0 0 11.25 5.625 5.625 0 0 0 0-11.25"/><path fill="#0f62fe" d="M57.188 53.438a.94.94 0 0 1-.938-.938v-5.625c0-.954-3.64-2.812-10.312-2.812-3.844 0-7.407.67-9.282 1.749a.94.94 0 0 1-1.404-.688.94.94 0 0 1 .467-.936c2.18-1.25 6-2 10.218-2 6.057 0 12.188 1.61 12.188 4.687V52.5a.94.94 0 0 1-.937.938M14.063 41.25a7.5 7.5 0 1 1 7.5-7.5 7.51 7.51 0 0 1-7.5 7.5m0-13.125a5.625 5.625 0 1 0 0 11.25 5.625 5.625 0 0 0 0-11.25M2.813 53.438a.94.94 0 0 1-.938-.938v-5.625c0-3.078 6.131-4.687 12.188-4.687 4.218 0 8.039.75 10.213 2a.938.938 0 1 1-.938 1.624c-1.87-1.08-5.427-1.75-9.276-1.75-6.672 0-10.312 1.859-10.312 2.813V52.5a.937.937 0 0 1-.937.938m12.27-28.125a.94.94 0 0 1-.876-.607 16.88 16.88 0 0 1 31.586-11.912.94.94 0 0 1-.905 1.281.94.94 0 0 1-.849-.62 15.004 15.004 0 1 0-28.078 10.589.936.936 0 0 1-.878 1.268"/><path fill="#0f62fe" d="M30 30a11.25 11.25 0 1 1 11.25-11.25A11.26 11.26 0 0 1 30 30m0-20.625a9.375 9.375 0 1 0 9.375 9.375A9.385 9.385 0 0 0 30 9.375"/><path fill="#0f62fe" d="M30 24.375a5.625 5.625 0 1 1 0-11.25 5.625 5.625 0 0 1 0 11.25M30 15a3.75 3.75 0 1 0 0 7.5 3.75 3.75 0 0 0 0-7.5"/><path fill="#0f62fe" d="M54.375 23.438h-7.789a.94.94 0 0 1-.648-.263l-3.624-3.488H30a.938.938 0 0 1 0-1.875h12.314l3.624-3.487a.94.94 0 0 1 .65-.262h7.787a.937.937 0 0 1 .65 1.612l-3.192 3.075 3.193 3.075a.938.938 0 0 1-.651 1.613m-7.406-1.875h5.081l-1.947-1.875h-5.085zm-1.947-3.75h5.085l1.947-1.875h-5.085z"/></svg>