<svg xmlns="http://www.w3.org/2000/svg" width="60" height="60" fill="none" viewBox="0 0 60 60"><path fill="#615efc" d="m14.278 16.443-3.431 3.431-1.022-1.022a.905.905 0 0 0-1.284 0 .905.905 0 0 0 0 1.285l1.668 1.668a.93.93 0 0 0 1.294 0l4.069-4.078a.905.905 0 0 0 0-1.284.917.917 0 0 0-1.294 0m4.66 3.583h19.321c.507 0 .91-.403.91-.91a.904.904 0 0 0-.91-.909H18.938a.91.91 0 0 0 0 1.819m-4.66 6.674-3.431 3.432-1.022-1.022a.905.905 0 0 0-1.284 0 .905.905 0 0 0 0 1.285l1.668 1.668a.93.93 0 0 0 1.294 0l4.069-4.078a.905.905 0 0 0 0-1.284.917.917 0 0 0-1.294 0m4.66 3.581h13.865c.507 0 .91-.404.91-.91a.904.904 0 0 0-.91-.91H18.938a.91.91 0 0 0 0 1.819m-4.66 6.676-3.431 3.43-1.022-1.021a.905.905 0 0 0-1.284 0 .905.905 0 0 0 0 1.284l1.668 1.67a.93.93 0 0 0 1.294 0l4.069-4.079a.905.905 0 0 0 0-1.284.917.917 0 0 0-1.294 0m4.66 3.581h8.409c.506 0 .91-.404.91-.91a.904.904 0 0 0-.91-.91h-8.41a.91.91 0 0 0 0 1.819m-4.659 6.676-3.431 3.43-1.022-1.021a.905.905 0 0 0-1.284 0 .905.905 0 0 0 0 1.284l1.668 1.669a.93.93 0 0 0 1.294 0l4.069-4.078a.905.905 0 0 0 0-1.285.917.917 0 0 0-1.294 0m15.797 1.763H18.938a.904.904 0 0 0-.91.909c0 .506.403.91.91.91h11.137c.506 0 .91-.404.91-.91a.904.904 0 0 0-.91-.91"/><path fill="#615efc" d="m57.075 43.584-1.247-.534c.225-1.266.244-2.569.056-3.834l1.257-.497a.905.905 0 0 0 .506-1.181l-1.313-3.291a.9.9 0 0 0-.487-.497.93.93 0 0 0-.694-.01l-1.256.497a11.7 11.7 0 0 0-2.681-2.746l.534-1.247a.905.905 0 0 0-.478-1.19l-3.253-1.398a.91.91 0 0 0-1.19.478l-.535 1.247a12 12 0 0 0-1.153-.14V9.384c0-1.5-1.228-2.728-2.728-2.728h-5.85c-.544-1.64-2.072-2.831-3.891-2.831h-4.303A4.75 4.75 0 0 0 23.719 0a4.75 4.75 0 0 0-4.65 3.825h-4.303c-1.82 0-3.347 1.19-3.891 2.831h-5.86a2.737 2.737 0 0 0-2.727 2.728v47.888A2.73 2.73 0 0 0 5.016 60h37.397a2.73 2.73 0 0 0 2.728-2.728v-4.547a9 9 0 0 0 .853-.094l.497 1.257a.91.91 0 0 0 1.18.506l3.291-1.313a.905.905 0 0 0 .507-1.181l-.497-1.256a11.8 11.8 0 0 0 2.747-2.672l1.247.534a.91.91 0 0 0 1.19-.478l1.397-3.253a.905.905 0 0 0-.478-1.19m-42.31-37.94h5.12a.904.904 0 0 0 .909-.91 2.92 2.92 0 0 1 2.915-2.915 2.92 2.92 0 0 1 2.916 2.915c0 .507.403.91.91.91h5.118A2.3 2.3 0 0 1 34.95 7.94v.75h-22.5v-.75a2.33 2.33 0 0 1 2.316-2.297M42.414 58.18H5.016a.916.916 0 0 1-.91-.91V9.385c0-.497.413-.909.91-.909h5.634V9.6c0 .506.403.91.91.91h24.318c.506 0 .91-.404.91-.91V8.475h5.625c.496 0 .909.412.909.91v19.837c-.29.019-.572.047-.853.094l-.497-1.257a.905.905 0 0 0-1.181-.506L37.5 28.866a.9.9 0 0 0-.497.487.94.94 0 0 0-.01.694l.498 1.256a11.7 11.7 0 0 0-2.747 2.681l-1.247-.534a.94.94 0 0 0-.694-.01.9.9 0 0 0-.497.488l-1.397 3.253a.91.91 0 0 0 .479 1.19l1.246.535a11.7 11.7 0 0 0-.047 3.835l-1.256.496a.9.9 0 0 0-.497.488.93.93 0 0 0-.009.694l1.313 3.29a.905.905 0 0 0 1.18.507l1.257-.497a11.8 11.8 0 0 0 2.681 2.747l-.534 1.246a.91.91 0 0 0 .478 1.191l3.253 1.397a.905.905 0 0 0 1.19-.478l.535-1.247c.385.066.769.112 1.163.14v4.547a.94.94 0 0 1-.928.92m11.559-19.34a9.8 9.8 0 0 1-.066 4.518.91.91 0 0 0 .525 1.06l1.097.469-.684 1.584-1.097-.469a.91.91 0 0 0-1.125.347 9.95 9.95 0 0 1-3.244 3.16.904.904 0 0 0-.375 1.115l.44 1.106-1.602.638-.441-1.106a.915.915 0 0 0-1.04-.554 9.85 9.85 0 0 1-4.529-.065.91.91 0 0 0-1.06.525l-.459 1.106-1.584-.684.469-1.097a.91.91 0 0 0-.347-1.125 9.95 9.95 0 0 1-3.16-3.244.9.9 0 0 0-1.115-.375l-1.106.44-.638-1.602 1.106-.441a.92.92 0 0 0 .554-1.04 10 10 0 0 1 .056-4.529.9.9 0 0 0-.525-1.05l-1.097-.469.675-1.584 1.097.469a.904.904 0 0 0 1.125-.347 9.9 9.9 0 0 1 3.234-3.16.904.904 0 0 0 .375-1.115l-.44-1.097 1.603-.638.44 1.097a.92.92 0 0 0 1.041.553 9.86 9.86 0 0 1 4.528.066.91.91 0 0 0 1.06-.525l.468-1.097 1.585.685-.47 1.096a.904.904 0 0 0 .348 1.125 9.8 9.8 0 0 1 3.16 3.235.9.9 0 0 0 1.115.375l1.106-.44.637 1.602-1.106.441a.91.91 0 0 0-.534 1.04"/><path fill="#615efc" d="M47.372 33.674a7.87 7.87 0 0 0-6.084-.084c-4.079 1.622-6.066 6.262-4.444 10.331 1.237 3.112 4.237 5.006 7.397 5.006.975 0 1.978-.178 2.934-.562 4.078-1.622 6.066-6.263 4.444-10.332a7.88 7.88 0 0 0-4.247-4.359M46.5 46.677c-3.14 1.257-6.722-.281-7.969-3.422-1.256-3.14.282-6.722 3.422-7.968.74-.3 1.51-.441 2.269-.441a6.15 6.15 0 0 1 5.71 3.863 6.14 6.14 0 0 1-3.432 7.968"/></svg>