<svg xmlns="http://www.w3.org/2000/svg" width="60" height="60" fill="none" viewBox="0 0 60 60"><g clip-path="url(#a)"><path fill="#615efc" fill-rule="evenodd" d="M22.395 29.975c-5.215 5.039-1.453 14.32 5.894 14.215 4.594 0 8.332-3.738 8.332-8.332.094-7.336-9.187-11.098-14.226-5.883m5.883 12.598c-8.86-.27-8.86-13.137 0-13.407 1.851 0 3.527.75 4.746 1.97 4.195 4.042 1.172 11.519-4.746 11.437m30.199-24.387c-4.594-4.629-11.367 1.055-8.496 6.129l-8.051 6.21a18.05 18.05 0 0 0-5.719-4.405l5.074-11.508c2.766.867 5.989.246 8.028-2.344C53.567 7.264 49.289-.716 42.715.092c-4.09.445-7.078 4.172-6.621 8.262.246 2.578 1.746 4.512 3.715 5.613l-5.086 11.508a18.3 18.3 0 0 0-7.605-1.23l-.833-7.547c6.399-1.875 4.36-11.391-2.437-10.254-6.328 1.511-5.004 10.254.832 10.441l.832 7.512a17.3 17.3 0 0 0-5.074 1.57L12.832 12.01C17.79 8.565 15.106-.388 7.91.82c-8.015 1.945-5.707 13.558 2.45 12.27a7 7 0 0 0 1.043-.329l7.617 13.992a18 18 0 0 0-3.375 2.684c-.164.164-.305.328-.457.492L9.879 25.44c2.027-3.41-.375-8.824-5.59-7.946C-2.437 19.1-.527 28.91 6.317 27.867c1.03-.235 1.863-.657 2.507-1.196l5.31 4.489c-5.52 7.054-4.513 16.546.726 22.664a.8.8 0 0 0 .14.199c.047.058.106.105.153.152a22 22 0 0 0 1.172 1.184 17 17 0 0 0 7.101 3.937c.117.035.246.07.363.106.246.058.492.117.75.164.235.047.47.105.703.14.188.036.387.059.586.083.27.035.54.07.809.093.27.024.527.035.797.047.176.012.34.024.515.024.118 0 .235.011.352.011.234 0 .469-.023.703-.035.13-.012.258-.012.387-.023a17.9 17.9 0 0 0 6.434-1.617c.187-.083.363-.176.55-.27.211-.105.434-.211.645-.34a16.5 16.5 0 0 0 3.902-2.941c.035-.035.07-.082.117-.117.2-.211.399-.41.586-.622.024-.023.035-.058.059-.082 2.789-3.152 4.5-7.289 4.5-11.836 0-3.996-1.219-7.476-3.223-10.289l8.028-6.199c4.898 4.5 11.976-2.203 7.488-7.406M42.937 1.698c7.735-.516 8.872 10.628 1.184 11.672-1.136.07-2.12-.106-2.953-.457h-.011c-4.899-2.087-4.758-10.325 1.78-11.215M24.212 8.026c4.758-.797 6.13 6.129 1.407 7.183-4.77.774-6.118-6.093-1.407-7.183m-14.156 3.48c-6.047.985-7.758-7.722-1.781-9.094 6.023-1.02 7.746 7.747 1.781 9.094M6.047 26.272c-4.758.797-6.117-6.13-1.406-7.184 4.758-.808 6.117 6.13 1.406 7.184m33.809 27.21-.282.282c-.28.281-.562.563-.867.82-.21.176-.433.34-.656.504-.2.153-.387.305-.598.446-.293.199-.597.375-.902.55a9 9 0 0 1-.457.27c-.328.176-.656.328-.996.469-.164.07-.316.152-.469.222-.304.117-.61.223-.926.328-.21.07-.41.153-.62.211-.223.07-.446.106-.669.164-.304.07-.609.165-.926.223-.046.012-.093.012-.128.024a17.6 17.6 0 0 1-6.223-.012h-.024c-.34-.059-.667-.153-1.007-.235-.2-.046-.399-.082-.586-.14-.235-.07-.457-.153-.692-.235-.28-.093-.574-.187-.855-.304-.176-.07-.352-.164-.527-.246a18 18 0 0 1-.95-.446c-.175-.093-.328-.199-.492-.293-.293-.175-.586-.34-.879-.539-.21-.14-.41-.304-.61-.457-.21-.164-.433-.316-.644-.492a15 15 0 0 1-.867-.82c-.094-.094-.199-.188-.293-.282-.058-.058-.117-.128-.176-.187 4.641-9.621 18.856-9.621 23.497 0zm1.312-1.487a14.9 14.9 0 0 0-4.875-5.227c-4.547-3.117-11.472-3.117-16.008 0a14.7 14.7 0 0 0-4.875 5.227c-8.003-10.243-.89-26.168 12.88-26.168 2.413 0 4.605.503 6.562 1.359.012 0 .012.012.023.012 9.211 4.054 12.89 16.347 6.293 24.797m10.77-27.692c-3.27-3.656 2.015-8.52 5.39-4.969 3.07 3.657-1.992 8.32-5.39 4.97" clip-rule="evenodd"/></g><defs><clipPath id="a"><path fill="#fff" d="M0 0h60v60H0z"/></clipPath></defs></svg>