<svg xmlns="http://www.w3.org/2000/svg" fill="none" viewBox="0 0 499 503"><mask id="a" width="569" height="948" x="-70" y="-239" maskUnits="userSpaceOnUse" style="mask-type:luminance"><path fill="#fff" d="M-70 708.145v-947.086h568.998v947.086z"/></mask><g fill-opacity=".2" mask="url(#a)"><path fill="url(#b)" d="M425.749 833.993c-59.935-21.158-121.918-43.017-174.55-81.753-56.729-41.747-94.226-100.921-105.587-166.611-2.902-16.745-4.344-34.076-4.344-52.052 0-49.154 10.849-103.176 32.756-163.713 13.371-36.918 30.555-72.794 47.17-107.476 13.182-27.522 26.837-55.992 38.483-84.802 6.316-15.608 13.523-35.913 13.523-54.969v-.568c-.076-9.509-1.972-18.203-5.652-25.856-4.078-8.486-10.507-16.062-19.137-22.502-17.298-12.919-37.895-21.518-57.829-29.834-3.168-1.325-6.449-2.69-9.635-4.053-26.573-11.29-56.692-24.094-84.97-39.475C35.32-32.686-1.57-79.699-27.346-156.925c-24.201-72.509-20.578-189.967 8.1-261.832 50.81-127.345 86.639-148.882 121.272-169.718 9.862-5.928 19.194-11.535 28.734-19.547 19.782-16.593 41.461-10.911 64.411-4.887 8.971 2.348 18.264 4.792 27.767 6.004l.019-.189c-9.503-1.213-18.777-3.656-27.748-6.005-11.703-3.068-22.76-5.967-33.533-6.061-12.12-.095-21.983 3.39-31.049 10.986-9.521 7.993-18.853 13.6-28.715 19.529-17.013 10.228-34.595 20.798-54.34 44.778-10.659 12.975-20.92 28.545-31.37 47.639-11.798 21.536-23.443 46.861-35.639 77.396-6.941 17.388-12.536 37.788-16.652 60.651-3.983 22.124-6.392 45.555-7.15 69.63-.778 24.151.132 47.695 2.712 69.971 2.674 23.146 7.055 43.907 12.992 61.693C-14.79-118.72-.241-89.53 18.27-65.057 38.394-38.445 63.77-17.003 95.881.461c28.28 15.4 58.418 28.185 84.99 39.493 3.186 1.345 6.467 2.728 9.635 4.054 19.915 8.315 40.512 16.896 57.772 29.814 35.847 26.784 26.572 65.671 11.19 103.687-11.645 28.811-25.282 57.28-38.464 84.802-16.615 34.683-33.817 70.558-47.189 107.495-13.883 38.357-23.12 73.134-28.222 106.301-2.883 18.79-4.419 37.22-4.552 54.76-.152 18.847 1.328 37.278 4.343 54.799 5.766 33.394 18.056 64.894 36.492 93.629 17.923 27.939 41.195 52.544 69.171 73.115 23.443 17.256 50.982 32.712 84.174 47.278 30.005 13.165 60.731 24.019 90.433 34.493z"/><path fill="url(#c)" d="M415.545 833.918c-60.485-27.162-110.329-52.904-156.911-90.2-51.76-41.35-87.967-100.827-101.983-167.502-14.605-69.459-8.858-142.006 17.089-215.652 13.883-38.944 32.584-76.638 50.64-113.082 12.499-25.211 25.435-51.275 36.663-77.547 6.619-15.494 14.301-35.724 14.832-54.704.265-9.357-1.252-17.957-4.476-25.533-3.585-8.41-9.427-15.93-17.393-22.39-15.173-12.293-33.305-20.854-50.849-29.15a1306 1306 0 0 1-11.684-5.57c-7.852-3.826-15.761-7.576-24.106-11.554-19.763-9.395-40.19-19.112-60.143-29.814C45.184-42.213 7.194-88.355-19.853-163.042c-25.529-70.52-23.1-185.118 5.387-255.429 49.939-123.235 85.217-144.488 119.319-165.04 9.616-5.796 18.72-11.27 28.07-18.998 20.124-16.612 42.163-11.592 65.492-6.289 9.009 2.046 18.322 4.167 27.843 5.114l.019-.227c-9.502-.966-18.815-3.068-27.824-5.114-23.367-5.304-45.463-10.323-65.681 6.345-9.332 7.71-18.417 13.184-28.033 18.98-16.785 10.115-34.14 20.571-53.562 43.926-10.488 12.615-20.578 27.75-30.84 46.256-11.588 20.873-23.044 45.403-35.012 74.971-15.306 37.732-23.082 88.193-23.082 137.744 0 42.884 5.823 85.106 17.677 117.856 6.543 18.089 13.485 33.943 21.185 48.491 8.137 15.361 16.976 28.905 26.99 41.425 20.75 25.913 46.582 46.995 78.996 64.459 19.972 10.702 40.399 20.42 60.162 29.814 8.364 3.978 16.254 7.729 24.107 11.555a1293 1293 0 0 0 11.683 5.569c17.525 8.277 35.657 16.839 50.811 29.113 33.116 26.84 22.931 65.065 6.98 102.361-11.228 26.253-24.144 52.317-36.643 77.529-18.075 36.444-36.758 74.138-50.66 113.101-25.946 73.683-31.712 146.287-17.089 215.784 7.037 33.47 19.441 64.932 36.852 93.496 17.373 28.508 39.318 53.435 65.207 74.138 22.59 18.09 47.588 34.664 76.436 50.67 28.563 15.854 58.038 29.473 80.513 39.569z"/><path fill="url(#d)" d="M405.339 833.862c-51.816-29.53-96.085-60.86-139.272-98.649-47.245-41.122-81.252-99.368-98.379-168.411-19.365-78.078-17.469-148.579 5.766-215.557 14.187-40.914 34.481-80.275 54.073-118.329 11.854-22.995 24.088-46.767 34.88-70.634 6.885-15.248 14.927-35.136 16.122-53.851.094-1.629.151-3.239.151-4.811 0-17.313-6.278-31.31-19.118-42.676-13.258-11.744-29.19-20.249-44.591-28.488-4.286-2.292-8.724-4.66-13.03-7.066-14.13-7.88-29.625-15.702-46.051-23.999-12.29-6.194-24.979-12.615-37.497-19.263C55.045-51.494 15.917-96.727-12.4-169.103c-26.838-68.55-25.624-180.269 2.693-249.046C39.36-537.312 74.106-558.28 107.696-578.567c9.37-5.663 18.227-11.005 27.388-18.43 20.484-16.612 42.884-12.293 66.611-7.728 9.047 1.742 18.397 3.542 27.919 4.262l.019-.247c-9.522-.7-18.872-2.5-27.9-4.243-23.784-4.583-46.241-8.921-66.82 7.767-9.122 7.406-17.98 12.747-27.349 18.411-16.577 10.001-33.704 20.343-52.803 43.073-10.318 12.275-20.219 26.954-30.31 44.892-11.36 20.23-22.626 43.964-34.405 72.566-6.941 16.858-12.385 36.482-16.197 58.36-3.68 21.12-5.652 43.433-5.918 66.315-.246 22.881 1.252 45.176 4.458 66.277 3.319 21.859 8.345 41.463 14.945 58.283 6.904 17.616 14.206 33.148 22.362 47.487C18.23-106.539 27.43-93.279 37.86-80.967c21.376 25.249 47.682 45.971 80.419 63.36 12.518 6.648 25.225 13.05 37.497 19.264 16.406 8.277 31.92 16.119 46.032 23.98 4.305 2.405 8.743 4.773 13.03 7.065 15.401 8.22 31.314 16.745 44.533 28.45 30.385 26.898 19.289 64.459 2.769 101.036-10.773 23.847-23.025 47.619-34.86 70.615-19.612 38.072-39.887 77.433-54.093 118.367-6.107 17.596-10.792 35.705-13.94 53.794-3.054 17.54-4.742 35.629-5.027 53.776-.284 17.502.74 35.648 3.016 53.908 2.181 17.521 5.614 35.762 10.185 54.211 8.364 33.697 20.882 65.122 37.194 93.383 16.823 29.132 37.44 54.4 61.262 75.142 43.206 37.788 87.474 69.137 139.31 98.667z"/><path fill="url(#e)" d="M395.135 833.786c-41.196-29.89-77.137-64.383-118.75-104.331l-2.883-2.765c-42.277-40.289-74.159-97.247-94.776-169.301-10.754-37.543-20.313-79.499-20.313-124.201 0-29.379 4.134-59.932 14.775-91.243 14.452-42.543 36.226-83.249 57.298-122.629 11.266-21.082 22.93-42.865 33.305-64.648 7.132-14.983 15.553-34.531 17.411-53.018 1.935-19.226-3.3-34.606-16.045-47.032-11.551-11.251-25.472-19.718-38.958-27.901-4.514-2.747-9.18-5.569-13.732-8.486-17.98-11.536-40.095-22.976-63.519-35.1-6.316-3.276-12.859-6.648-19.308-10.038C65.723-60.453 24.205-106.178-4.947-175.183c-28.127-66.599-28.127-175.457 0-242.644 48.175-115.09 82.391-135.774 115.469-155.777 9.123-5.512 17.753-10.74 26.686-17.862 20.825-16.631 43.604-12.994 67.711-9.149 9.085 1.44 18.454 2.936 27.994 3.391l.019-.284c-9.521-.455-18.909-1.951-27.975-3.391-24.164-3.864-46.981-7.501-67.92 9.206-8.933 7.122-17.544 12.331-26.667 17.843-16.368 9.888-33.267 20.116-52.044 42.221-10.128 11.934-19.858 26.178-29.778 43.547-11.152 19.567-22.21 42.506-33.78 70.142-13.693 32.712-21.242 75.88-21.242 121.587v.265c.02 22.237 1.802 43.926 5.349 64.44 3.641 21.195 8.99 40.232 15.894 56.578 14.547 34.437 31.845 62.603 52.898 86.148 21.963 24.548 48.706 44.91 81.803 62.28 6.448 3.39 12.992 6.762 19.308 10.04 23.423 12.122 45.538 23.563 63.5 35.08 4.552 2.916 9.218 5.757 13.732 8.485 14.092 8.543 27.387 16.63 38.919 27.863 27.634 26.954 15.648 63.853-1.441 99.71-10.375 21.783-22.021 43.566-33.306 64.648-21.072 39.38-42.845 80.104-57.317 122.667-11.721 34.53-16.425 69.913-14.377 108.214 1.707 31.765 8.042 65.898 19.915 107.399 9.787 34.228 22.419 65.615 37.535 93.25 16.312 29.834 35.582 55.462 57.317 76.165l2.883 2.766c41.613 39.948 77.555 74.46 118.769 104.35z"/><path fill="url(#f)" d="M384.951 833.748c-20.56-19.207-38.635-40.554-57.773-63.152-14.395-16.991-29.265-34.549-46.202-52.412-36.72-38.698-66.554-94.386-91.173-170.21-15.761-48.529-28.848-94.197-28.848-141.04 0-24.264 3.509-48.851 11.987-74.309 14.642-43.982 37.914-85.881 60.409-126.379 10.735-19.339 21.849-39.323 31.845-59.231 7.378-14.698 16.159-33.924 18.701-52.165q.74-5.37.739-10.342c0-14.226-4.571-26.14-13.864-36.217-9.996-10.853-21.622-18.904-33.913-27.409-4.552-3.144-9.255-6.42-13.864-9.812-20.105-14.888-48.156-29.416-77.858-44.816l-4.268-2.216C75.492-69.886 32.817-114.684 2.527-181.245c-29.93-65.747-31.105-169.528-2.712-236.26C47.06-528.523 80.783-548.923 113.368-568.66c8.497-5.133 17.26-10.456 25.984-17.294 21.186-16.631 44.325-13.695 68.83-10.607 9.104 1.155 18.53 2.348 28.071 2.557v-.303c-9.541-.209-18.948-1.402-28.052-2.557-24.562-3.107-47.758-6.062-69.057 10.664-8.706 6.838-17.488 12.141-25.966 17.275C80.537-549.169 46.776-528.731-.508-417.657c-13.712 32.201-20.939 74.479-20.37 119.049.285 21.613 2.371 42.657 6.221 62.584 3.964 20.551 9.635 39.001 16.862 54.874 15.192 33.394 33.286 60.954 55.287 84.234 22.514 23.828 49.712 43.83 83.188 61.2l4.267 2.217c29.683 15.38 57.716 29.928 77.801 44.778 4.59 3.41 9.313 6.667 13.865 9.812 12.29 8.505 23.879 16.536 33.855 27.37 11.38 12.35 15.648 27.504 13.03 46.332-2.522 18.203-11.304 37.391-18.663 52.071-9.995 19.908-21.091 39.891-31.826 59.231-22.513 40.516-45.785 82.434-60.427 126.436-6.051 18.203-9.73 36.292-11.229 55.253-1.365 17.218-.872 34.758 1.461 53.605 4.59 36.917 16.159 74.422 26.629 106.699 11.608 35.743 24.012 66.201 37.895 93.098 7.682 14.87 15.913 28.735 24.448 41.218 9.066 13.24 18.796 25.362 28.905 36.008 16.937 17.843 31.807 35.402 46.203 52.393 19.137 22.597 37.231 43.945 57.791 63.17z"/><path fill="url(#g)" d="M374.748 833.692c-13.618-16.745-25.093-34.986-37.251-54.306-14.433-22.92-29.341-46.635-49.085-69.706-38.711-45.233-64.98-108.971-87.588-171.1q-1.935-5.314-3.869-10.57c-17.469-47.752-34.254-93.648-34.254-142.195 0-20.249 2.921-40.972 9.919-62.47 14.756-45.29 39.527-88.193 63.482-129.694 10.242-17.73 20.806-36.065 30.422-54.268 7.625-14.434 16.767-33.319 19.991-51.333.815-4.621 1.233-9.035 1.233-13.22 0-12.71-3.775-23.546-11.418-32.884-8.63-10.55-18.72-18.582-29.398-27.068-4.42-3.504-8.991-7.14-13.448-10.986-19.137-16.441-49.427-32.523-81.404-48.926C85.184-79.357 41.352-123.226 9.982-187.325c-16.634-33.981-25.074-78.532-25.074-122.553 0-38.641 6.505-76.884 19.668-107.305 46.298-106.926 79.527-127.061 111.657-146.533 8.25-5 16.785-10.172 25.282-16.725 21.546-16.631 45.065-14.415 69.949-12.066 9.142.871 18.587 1.761 28.147 1.723v-.341c-9.541.038-18.986-.852-28.109-1.723-24.96-2.368-48.517-4.603-70.176 12.122-8.497 6.554-17.014 11.725-25.245 16.707-32.167 19.491-65.454 39.664-111.79 146.647-13.693 31.614-20.616 72.907-19.478 116.245.55 20.969 2.94 41.407 7.094 60.747 4.286 19.888 10.28 37.788 17.79 53.15 31.409 64.175 75.279 108.1 142.25 142.46 31.959 16.386 62.229 32.467 81.348 48.87 4.476 3.846 9.047 7.483 13.466 10.987 10.678 8.486 20.749 16.498 29.341 27.03 10.091 12.35 13.391 27.352 10.109 45.839-3.205 17.975-12.347 36.822-19.952 51.237-9.598 18.203-20.181 36.52-30.423 54.249-23.955 41.52-48.744 84.442-63.5 129.751-5.747 17.635-8.933 35.061-9.768 53.302-.74 16.347.455 33.035 3.642 51.01 5.936 33.546 17.847 66.107 30.46 100.581 1.29 3.504 2.58 7.046 3.869 10.569 9.673 26.576 22.76 61.163 38.218 92.948 15.572 32.011 31.75 57.62 49.408 78.267 19.725 23.052 34.633 46.748 49.067 69.649 12.157 19.32 23.651 37.58 37.288 54.343z"/><path fill="url(#h)" d="M364.562 833.653c-9.502-15.949-17.013-33.223-24.941-51.502-11.759-27.068-23.917-55.083-43.756-80.957-31.579-41.217-53.486-95.921-76.682-153.826-2.39-5.948-4.855-12.104-7.302-18.184-3.679-9.111-7.492-18.203-11.19-27.011-18.777-44.703-36.814-87.625-36.814-134.108 0-17.426 2.522-35.326 8.497-54.04 14.832-46.464 41.1-90.277 66.497-132.63 9.748-16.252 19.82-33.035 29.037-49.666 7.853-14.168 17.374-32.693 21.262-50.517 4.002-18.279 1.631-33.205-7.226-45.63-7.378-10.343-16.122-18.412-25.359-26.955C252.47 4.82 248.202.88 244.011-3.306c-17.507-17.56-49.124-34.796-80.703-50.82-68.489-34.74-113.478-77.7-145.854-139.317-32.508-61.864-36.074-160.02-8.098-223.456 45.31-102.797 78.066-122.667 109.759-141.874 8.004-4.849 16.274-9.868 24.562-16.157 21.926-16.65 45.786-15.134 71.068-13.524 9.161.587 18.644 1.174 28.203.909l-.019-.379c-9.54.265-19.023-.322-28.165-.909-25.339-1.61-49.275-3.126-71.314 13.6-8.27 6.27-16.52 11.289-24.524 16.138-15.78 9.566-32.092 19.454-49.92 39.702-9.597 10.911-18.815 23.81-28.166 39.475-10.507 17.597-20.92 38.167-31.807 62.867-13.675 31.046-20.294 71.316-18.606 113.442.816 20.325 3.509 40.138 7.985 58.909 4.59 19.245 10.906 36.558 18.739 51.446C49.565-131.58 94.591-88.563 163.156-53.786c31.541 16.006 63.14 33.224 80.608 50.745 4.192 4.205 8.459 8.145 12.575 11.952 9.237 8.524 17.942 16.574 25.301 26.898 8.801 12.33 11.153 27.162 7.17 45.346-3.888 17.767-13.391 36.273-21.224 50.423-9.218 16.612-19.289 33.413-29.038 49.646-25.415 42.373-51.703 86.185-66.535 132.706-21.944 68.758 2.466 126.872 28.317 188.394 3.699 8.79 7.511 17.9 11.191 26.993 2.446 6.08 4.912 12.236 7.302 18.184 23.196 57.923 45.121 112.646 76.739 153.92 19.801 25.856 31.958 53.832 43.718 80.881 7.947 18.298 15.458 35.573 24.979 51.541z"/><path fill="url(#i)" d="M354.377 833.614c-6.468-15.797-10.982-32.845-15.742-50.915-8.08-30.591-16.425-62.224-35.335-90.03-22.362-32.883-39.375-74.384-57.393-118.31-7.321-17.862-14.889-36.311-23.007-54.609-5.614-12.672-11.664-25.193-17.525-37.277-20.787-42.998-40.721-84.215-40.721-129.998 0-15.342 2.238-31.178 7.416-47.771 14.87-47.562 42.656-92.151 69.532-135.263 9.255-14.85 18.833-30.212 27.653-45.365 8.08-13.884 17.942-32.068 22.532-49.703 4.666-17.976 3.262-32.75-4.286-45.157-6.259-10.286-13.789-18.468-21.755-27.125-3.698-4.015-7.511-8.164-11.266-12.615-16.236-19.226-49.56-37.448-80.001-52.715C104.321-98.433 58.194-140.483 24.87-199.562c-33.798-59.932-38.54-155.285-10.792-217.073 44.306-98.686 76.625-118.291 107.882-137.252 7.758-4.697 15.78-9.565 23.822-15.57 22.305-16.63 46.544-15.854 72.187-15.001 9.18.303 18.682.606 28.26.094l-.019-.398c-9.559.512-19.042.19-28.222-.094-25.738-.834-50.034-1.629-72.452 15.096-8.023 5.986-16.046 10.854-23.784 15.551-15.61 9.471-31.732 19.245-49.257 38.869-9.426 10.569-18.473 23.033-27.653 38.111-10.299 16.953-20.484 36.709-31.143 60.443C.024-386.328-6.254-347.043-4.016-306.148c1.081 19.681 4.078 38.869 8.876 57.053 4.913 18.582 11.532 35.326 19.65 49.741 33.343 59.155 79.546 101.243 149.779 136.475 30.404 15.248 63.671 33.432 79.868 52.62 3.756 4.452 7.568 8.6 11.267 12.615 7.947 8.638 15.457 16.82 21.697 27.068 7.492 12.312 8.896 26.973 4.249 44.835-4.571 17.578-14.415 35.743-22.494 49.609-8.82 15.153-18.398 30.496-27.654 45.346-26.894 43.13-54.7 87.738-69.569 135.358-5.197 16.631-7.435 32.523-7.435 47.903 0 45.858 19.953 87.114 40.759 130.149 5.842 12.104 11.892 24.605 17.525 37.277 8.118 18.279 15.686 36.747 23.007 54.609 18.018 43.945 35.05 85.465 57.431 118.386 18.852 27.75 27.198 59.345 35.277 89.898 4.78 18.07 9.275 35.137 15.762 50.953z"/><path fill="url(#j)" d="M344.173 833.578c-3.964-15.949-5.956-33.167-8.042-51.37-3.888-33.811-7.928-68.758-25.377-98.042-16.008-26.859-28.943-59.363-42.637-93.762-10.413-26.196-21.186-53.283-34.159-80.066-7.321-15.116-15.477-29.89-23.367-44.173-23.158-41.918-45.349-82.055-45.349-127.799 0-13.752 1.991-27.996 6.581-42.96 14.87-48.567 44.193-93.838 72.567-137.631 8.781-13.543 17.847-27.541 26.268-41.331 12.348-20.192 19.688-35.288 23.804-48.907 5.348-17.673 4.912-32.277-1.347-44.646-5.254-10.38-11.702-18.81-18.53-27.73-3.13-4.092-6.354-8.316-9.56-12.843-6.467-9.149-17.032-18.468-32.319-28.488-12.063-7.918-26.989-16.215-46.98-26.14-71.902-35.686-119.205-76.809-153.364-133.331-35.07-58.037-40.987-150.568-13.504-210.67 43.263-94.576 75.164-113.934 106.004-132.63 7.511-4.546 15.268-9.262 23.064-14.983 22.684-16.631 47.283-16.574 73.324-16.498 9.218.019 18.739.057 28.318-.701l-.038-.436c-9.56.739-19.081.72-28.28.682-26.117-.057-50.792-.132-73.59 16.593-7.776 5.702-15.534 10.399-23.025 14.964-15.439 9.357-31.39 19.037-48.612 38.035-9.275 10.229-18.132 22.257-27.122 36.766-10.09 16.29-20.048 35.27-30.442 58.019C4.804-386.629-1.17-348.348 1.656-308.665c2.75 38.774 13.523 75.426 30.328 103.232 17.771 29.417 39.014 54.477 64.941 76.62 24.297 20.741 53.278 39.36 88.593 56.882 30.954 15.362 64.563 33.849 79.129 54.476 3.205 4.527 6.43 8.751 9.578 12.843 6.809 8.902 13.258 17.312 18.474 27.655 6.202 12.274 6.638 26.764 1.308 44.323-4.115 13.6-11.437 28.64-23.765 48.813-8.421 13.771-17.487 27.769-26.269 41.312-28.393 43.812-57.734 89.102-72.623 137.744-19.877 64.933 8.63 116.511 38.806 171.101 7.89 14.282 16.046 29.057 23.367 44.153 12.954 26.784 23.727 53.851 34.14 80.029 13.694 34.436 26.629 66.94 42.656 93.837 17.411 29.19 21.432 64.099 25.32 97.872 2.105 18.222 4.078 35.44 8.061 51.427z"/><path fill="url(#k)" d="M333.987 833.558c-1.745-16.29-1.479-33.83-1.195-52.411.114-6.895.209-13.828.209-20.761 0-30.079-2.011-59.893-14.794-84.707-11.399-22.124-21.015-47.979-31.181-75.35-12.101-32.58-24.619-66.277-42.011-99.407-8.858-16.877-19.081-33.204-28.962-49.002-32.756-52.336-63.69-101.793-44.496-165.835 14.832-49.513 45.748-95.409 75.639-139.79 8.288-12.293 16.842-25.022 24.846-37.504 12.67-19.775 20.408-34.626 25.093-48.131 6.031-17.37 6.543-31.803 1.593-44.116-4.324-10.759-9.824-19.623-15.666-29.018-2.447-3.94-4.988-8.032-7.511-12.37-5.652-9.735-15.78-19.49-31.01-29.814-12.082-8.201-27.199-16.687-47.588-26.707-73.761-36.217-122.22-76.43-157.119-130.358C2.906-268.794-4.055-356.608 23.637-415.99c42.22-90.466 73.723-109.559 104.183-128.027 7.245-4.395 14.756-8.941 22.286-14.377 23.063-16.631 48.042-17.294 74.482-18.014 9.236-.246 18.777-.511 28.355-1.477l-.038-.455c-9.559.966-19.099 1.231-28.317 1.478-26.516.719-51.551 1.382-74.729 18.108-7.529 5.417-15.021 9.963-22.247 14.358-15.288 9.262-31.087 18.828-48.005 37.22-9.104 9.888-17.81 21.48-26.591 35.421-9.863 15.646-19.593 33.83-29.74 55.594-6.998 14.983-11.892 31.917-14.566 50.329-2.542 17.577-2.997 35.97-1.347 54.684 3.3 37.372 14.718 72.774 32.13 99.691 18.416 28.45 40.455 52.885 67.388 74.706 24.581 19.927 53.998 38.168 89.921 55.802 20.37 10.001 35.467 18.468 47.53 26.67 15.154 10.305 25.263 20.003 30.859 29.663 2.522 4.357 5.064 8.43 7.51 12.388 5.823 9.376 11.305 18.222 15.629 28.943 4.912 12.217 4.381 26.537-1.612 43.793-4.666 13.487-12.404 28.3-25.036 48.036-8.004 12.483-16.558 25.193-24.846 37.505-29.911 44.399-60.826 90.333-75.696 139.904-4.628 15.456-6.506 30.42-5.747 45.744.683 13.695 3.49 27.409 8.573 41.918 9.464 26.992 25.131 52.033 41.726 78.551 9.882 15.779 20.086 32.107 28.943 48.965 17.374 33.11 29.892 66.788 41.992 99.349 10.186 27.39 19.783 53.264 31.201 75.407 15.685 30.402 15.097 68.456 14.528 105.241-.285 18.6-.55 36.159 1.195 52.468z"/><path fill="url(#l)" d="M334.425 717.257c0-18.071-2.238-35.137-8.782-50.082-7.966-18.203-14.888-38.831-22.229-60.69-12.1-36.046-25.794-76.884-47.378-114.976-10.299-18.184-22.532-35.61-34.368-52.469-35.543-50.65-69.114-98.478-50.413-162.255 14.794-50.404 47.303-96.849 78.731-141.741 7.776-11.118 15.837-22.616 23.385-33.867 16.653-24.814 32.832-52.677 32.832-77.169 0-4.735-.607-9.338-1.935-13.77-3.471-11.612-8.175-21.31-13.144-31.595-1.65-3.41-3.357-6.933-5.083-10.646-4.798-10.323-14.509-20.533-29.683-31.197-12.024-8.448-27.331-17.104-48.213-27.238-76.777-37.315-124.876-75.407-160.874-127.364C9.07-272.961.953-358.028 28.38-415.668c41.1-86.374 70.859-104.388 102.344-123.443 6.979-4.224 14.206-8.599 21.489-13.752 23.461-16.611 48.801-18.032 75.639-19.529 9.255-.511 18.814-1.06 28.374-2.235l-.057-.492c-9.559 1.193-19.119 1.724-28.355 2.235-26.895 1.496-52.31 2.917-75.886 19.624-7.264 5.133-14.471 9.508-21.451 13.732-15.135 9.168-30.783 18.639-47.416 36.406-8.915 9.547-17.45 20.704-26.06 34.077-9.655 14.982-19.138 32.371-29.038 53.169-7 14.718-11.817 31.273-14.32 49.192-2.371 17.066-2.599 34.909-.664 53.037 3.85 35.97 15.894 70.122 33.912 96.148 19.043 27.503 41.897 51.313 69.835 72.793 25.131 19.321 54.112 36.709 91.23 54.742 20.844 10.133 36.15 18.77 48.137 27.2 15.097 10.607 24.77 20.741 29.512 30.989 1.726 3.712 3.433 7.235 5.083 10.645 4.969 10.266 9.673 19.946 13.125 31.519 8.099 27.181-11.039 61.011-30.84 90.522-7.568 11.271-15.609 22.749-23.386 33.868-31.465 44.93-63.993 91.413-78.806 141.893-4.514 15.399-6.164 30.231-5.007 45.346 1.024 13.506 4.286 26.954 9.957 41.123 10.546 26.367 27.54 50.574 45.52 76.184 11.816 16.839 24.05 34.265 34.349 52.43 21.546 38.054 35.259 78.874 47.34 114.901 7.34 21.859 14.263 42.505 22.248 60.727 13.77 31.462 8.402 72.547 3.224 112.287-2.484 19.093-4.855 37.107-5.121 53.851h.494c.284-16.726 2.636-34.739 5.121-53.795 2.731-20.987 5.519-42.334 5.519-62.469"/><path fill="url(#m)" d="M338.388 692.954c0-12.312-1.518-23.885-5.292-34.265-5.367-14.813-10.166-31.178-15.23-48.51-11.797-40.308-25.15-85.977-50.793-128.084-11.683-19.188-25.889-37.391-39.64-55.007-38.464-49.267-74.785-95.788-56.445-159.603 14.719-51.256 48.877-98.175 81.898-143.559 7.264-9.983 14.775-20.306 21.869-30.402 13.106-18.657 21.906-33.47 27.672-46.616 7.378-16.8 9.825-30.874 7.454-43.016-2.617-13.468-6.563-24.378-11.133-37.012-.721-1.97-1.442-3.997-2.182-6.062-3.907-10.948-13.181-21.593-28.336-32.58-11.93-8.637-27.444-17.464-48.858-27.75-78.92-37.958-128.157-75.16-164.63-124.389-39.431-53.246-48.725-135.548-21.565-191.445 39.963-82.264 69.399-100.05 100.561-118.878 6.714-4.053 13.656-8.259 20.655-13.127 23.86-16.592 49.578-18.771 76.796-21.063 9.255-.776 18.833-1.591 28.393-2.993l-.076-.511c-9.559 1.402-19.119 2.216-28.374 2.993-27.293 2.311-53.088 4.47-77.062 21.158-6.979 4.868-13.921 9.054-20.635 13.107-15.003 9.074-30.518 18.45-46.886 35.611-8.8 9.225-17.165 19.946-25.567 32.731-9.426 14.339-18.682 30.932-28.317 50.745-7.018 14.453-11.76 30.61-14.092 48.036-2.22 16.555-2.2 33.83.019 51.37 4.381 34.569 17.07 67.452 35.695 92.588 19.668 26.556 43.32 49.722 72.301 70.861 25.206 18.392 54.605 35.44 92.519 53.68 21.375 10.286 36.871 19.094 48.782 27.712 15.059 10.91 24.277 21.5 28.146 32.334.74 2.064 1.461 4.091 2.181 6.061 4.552 12.615 8.498 23.526 11.115 36.937 2.352 12.046-.076 26.007-7.416 42.713-5.766 13.108-14.547 27.882-27.634 46.521-7.094 10.096-14.605 20.419-21.869 30.383-33.059 45.422-67.237 92.378-81.974 143.711-4.438 15.418-5.841 30.193-4.286 45.176 1.385 13.391 5.102 26.669 11.361 40.573 11.664 25.893 30.024 49.4 49.465 74.308 13.751 17.597 27.957 35.8 39.602 54.969 25.586 42.051 38.939 87.7 50.736 127.97 5.064 17.332 9.862 33.698 15.23 48.529 11.759 32.428 1.498 76.487-8.44 119.087-4.59 19.661-8.914 38.224-11.115 55.48l.513.057c2.2-17.218 6.524-35.781 11.095-55.424 6.847-29.056 13.789-58.795 13.789-85.105"/><path fill="url(#n)" d="M343.585 673.954c0-8.467-.929-16.422-3.054-23.753-3.413-11.82-6.524-24.529-9.824-37.997-10.773-44.078-22.988-94.046-52.595-139.506-12.992-19.946-29.17-38.736-44.818-56.882-34.329-39.834-67.085-77.869-67.085-126.152 0-10.02 1.404-20.476 4.495-31.481 14.643-52.071 50.471-99.425 85.142-145.226 6.733-8.884 13.675-18.07 20.275-27.068 13.428-18.26 22.627-32.826 29-45.877 7.074-14.49 10.545-26.973 10.545-37.94a51 51 0 0 0-.208-4.508c-1.499-16.31-4.685-29.53-8.384-43.907-2.977-11.574-11.797-22.692-26.951-34-11.816-8.809-27.559-17.787-49.541-28.262-60.2-28.659-122.259-63.208-168.385-121.397C26.71-274.781 6.966-352.707 37.919-415.063c38.787-78.135 67.939-95.713 98.797-114.314 6.43-3.883 13.087-7.898 19.802-12.482 24.277-16.593 50.375-19.51 77.99-22.617 9.256-1.041 18.834-2.121 28.412-3.75l-.095-.549c-9.54 1.629-19.118 2.708-28.374 3.731-27.691 3.107-53.846 6.043-78.237 22.711-6.695 4.565-13.352 8.581-19.782 12.464-15.572 9.395-30.29 18.26-46.373 34.815-8.65 8.902-16.843 19.169-25.074 31.405-9.2 13.695-18.227 29.493-27.578 48.321-7.036 14.187-11.702 29.965-13.864 46.88-2.049 16.044-1.802 32.751.72 49.704 4.932 33.167 18.246 64.78 37.478 89.064 20.295 25.609 44.762 48.149 74.767 68.929 25.13 17.407 54.946 34.114 93.809 52.62 21.944 10.456 37.648 19.415 49.445 28.204 15.041 11.232 23.785 22.257 26.743 33.697 3.699 14.358 6.885 27.56 8.384 43.832 1.1 11.933-2.276 25.722-10.299 42.145-6.354 13.013-15.553 27.56-28.943 45.782-6.601 8.978-13.561 18.165-20.276 27.049-34.689 45.839-70.555 93.231-85.217 145.397-4.362 15.494-5.538 30.269-3.603 45.176 1.726 13.316 5.898 26.461 12.783 40.194 12.803 25.515 32.585 48.472 53.524 72.774 15.629 18.146 31.807 36.899 44.78 56.825 29.55 45.385 41.765 95.296 52.519 139.336 3.3 13.467 6.41 26.196 9.824 38.035 9.654 33.337-5.595 80.313-20.351 125.735-6.581 20.287-12.802 39.456-16.842 57.261l.531.114c4.021-17.768 10.242-36.918 16.823-57.205 11.589-35.515 23.443-72.035 23.443-102.266"/><path fill="url(#o)" d="M349.598 657.722c0-5.625-.512-10.986-1.612-16.005-1.992-9.074-3.831-18.601-5.766-28.697-4.381-22.768-9.35-48.567-17.298-74.138-9.122-29.341-20.825-54.06-35.771-75.578-14.262-20.551-32.376-39.721-49.901-58.246-44.533-47.127-86.582-91.621-68.829-156.155 14.547-52.848 52.12-100.6 88.441-146.78 6.164-7.842 12.537-15.93 18.606-23.829 10.223-13.297 22.931-29.852 31.674-45.213 8.175-14.396 12.196-26.576 12.196-37.013 0-1.648-.095-3.239-.304-4.81-.91-7.18-1.176-13.923-1.441-20.439-.304-7.728-.607-15.703-2.03-24.283-2.01-12.199-10.374-23.791-25.529-35.421-11.854-9.092-27.349-17.976-50.242-28.754-71.732-33.811-128.461-66.883-172.16-118.424-36.587-43.13-57.583-118.348-26.97-178.658 37.591-74.024 66.477-91.394 97.071-109.786 6.145-3.694 12.499-7.52 18.909-11.801 24.695-16.574 51.172-20.268 79.205-24.189 9.256-1.288 18.834-2.633 28.393-4.47l-.114-.568c-9.521 1.837-19.099 3.163-28.355 4.47-28.09 3.921-54.643 7.634-79.451 24.283-6.392 4.281-12.746 8.107-18.872 11.801-15.477 9.301-30.081 18.071-45.918 34.038-8.497 8.581-16.539 18.412-24.58 30.08-8.991 13.051-17.754 28.072-26.82 45.915-7.074 13.922-11.645 29.303-13.637 45.725-1.877 15.532-1.384 31.69 1.423 48.036 5.462 31.747 19.403 62.11 39.26 85.522 20.921 24.662 46.184 46.578 77.252 66.978 32.281 21.196 67.767 38.698 95.079 51.579 34.804 16.403 70.992 36.822 75.45 63.739 1.403 8.523 1.726 16.498 2.029 24.207.247 6.535.512 13.278 1.441 20.495 3.282 25.78-21.546 58.094-43.452 86.602-6.069 7.898-12.442 16.005-18.606 23.828-36.359 46.218-73.97 94.008-88.555 146.969-4.287 15.608-5.254 30.421-2.94 45.309 2.067 13.297 6.733 26.348 14.244 39.929 13.959 25.23 35.183 47.695 57.658 71.467 17.506 18.525 35.601 37.675 49.844 58.189 33.476 48.207 43.832 102.039 52.974 149.507 1.935 10.096 3.775 19.643 5.766 28.716 7.492 34.19-12.802 84.063-32.433 132.308-8.535 20.95-16.596 40.744-22.38 59.136l.55.171c5.784-18.355 13.845-38.149 22.361-59.08 16.861-41.293 34.14-83.741 34.14-116.662"/><path fill="url(#p)" d="M356.14 643.216c0-3.467-.228-6.8-.721-10.002-.986-6.497-1.896-13.183-2.864-20.267-3.319-24.132-7.055-51.465-14.623-78.779-8.706-31.424-21.053-57.697-37.744-80.313-15.514-21.025-35.543-40.441-54.889-59.25-47.663-46.255-92.671-89.954-75.146-155.057 14.434-53.605 53.79-101.717 91.856-148.219 5.576-6.8 11.342-13.846 16.842-20.722 20.617-25.666 44.666-58.587 47.796-85.674.436-3.769 1.024-7.463 1.574-11.043 1.859-11.763 3.604-22.881-.133-34.625-4.04-12.672-12.916-24.89-26.401-36.311-12.234-10.362-28.602-20.363-48.65-29.72-62.476-29.151-127.512-62.091-175.915-115.431-37.667-41.501-59.953-113.991-29.664-172.237 36.34-69.914 65.037-87.094 95.402-105.278 5.842-3.505 11.874-7.103 17.962-11.119 25.131-16.555 52.006-21.025 80.437-25.761 9.256-1.534 18.815-3.144 28.336-5.171l-.132-.606c-9.503 2.046-19.062 3.637-28.318 5.171-28.506 4.754-55.439 9.244-80.665 25.855-6.069 3.997-12.1 7.615-17.942 11.1-15.382 9.206-29.91 17.9-45.5 33.281-8.365 8.259-16.255 17.654-24.088 28.753-8.763 12.407-17.298 26.633-26.042 43.491-7.093 13.657-11.607 28.64-13.409 44.57-1.707 15.001-.986 30.609 2.124 46.35 5.994 30.326 20.579 59.458 41.044 81.999 21.527 23.715 47.606 44.986 79.755 65.027 31.332 19.529 66.288 36.519 96.35 50.536 41.935 19.567 67.066 41.672 74.728 65.652 3.699 11.593 1.954 22.636.114 34.342-.569 3.58-1.157 7.292-1.593 11.062-3.092 26.935-27.103 59.76-47.663 85.351-5.519 6.857-11.285 13.903-16.842 20.703-38.104 46.559-77.498 94.709-91.97 148.447-4.248 15.741-4.988 30.629-2.276 45.517 2.409 13.297 7.549 26.291 15.705 39.759 15.154 25.003 37.838 47.051 61.869 70.368 19.346 18.771 39.337 38.187 54.832 59.174 37.421 50.688 45.634 110.639 52.253 158.808.968 7.084 1.897 13.77 2.864 20.286 5.292 35.023-20.104 87.757-44.666 138.786-10.432 21.651-20.275 42.108-27.786 61.087l.569.228c7.511-18.961 17.354-39.399 27.767-61.049 22.4-46.389 45.463-94.292 45.463-129.069"/><path fill="url(#q)" d="M363.102 629.898c0-1.761-.076-3.485-.209-5.152-.341-4.053-.664-8.145-1.005-12.482-4.078-51.143-9.142-114.806-50.622-167.824-16.728-21.385-38.635-40.971-59.821-59.932-50.849-45.498-98.872-88.477-81.537-154.242 14.32-54.363 55.534-102.778 95.364-149.583 4.95-5.816 10.071-11.82 14.984-17.692 21.129-25.173 46.145-57.526 52.006-84.348.854-3.902 1.878-7.728 2.845-11.421 2.295-8.657 4.514-16.972 4.514-25.572 0-3.125-.284-6.288-.967-9.509-1.46-6.932-4.4-13.694-8.706-20.135-4.059-6.08-9.502-12.065-16.14-17.805-12.025-10.361-28.204-20.173-49.503-30.004-69.949-32.333-131.761-63.113-179.67-112.457-37.555-38.66-63.69-107.039-32.358-165.835 35.031-65.822 63.557-82.813 93.752-100.807 5.519-3.296 11.228-6.687 16.956-10.381 25.586-16.517 52.841-21.783 81.708-27.37 9.237-1.781 18.777-3.637 28.261-5.872l-.152-.625c-9.464 2.235-19.005 4.072-28.241 5.872-28.924 5.587-56.236 10.872-81.936 27.465-5.728 3.694-11.418 7.084-16.937 10.38-30.29 18.052-58.892 35.08-94.037 101.054-13.883 26.083-17.468 56.541-10.356 88.098 6.525 28.905 21.736 56.788 42.827 78.495 11.74 12.085 24.448 23.26 38.863 34.171 13.087 9.906 27.293 19.358 43.395 28.886 31.39 18.563 65.416 34.644 97.602 49.514 45.141 20.873 68.66 42.316 73.989 67.508 2.542 11.971-.417 23.052-3.528 34.777-.986 3.713-1.991 7.539-2.864 11.46-5.841 26.689-30.782 58.947-51.873 84.063a2755 2755 0 0 1-14.984 17.673c-19.687 23.128-40.038 47.032-57.165 71.884-19.365 28.052-31.902 53.548-38.332 77.964-4.191 15.911-4.723 30.894-1.631 45.82 2.769 13.316 8.383 26.291 17.184 39.645 16.349 24.833 41.669 47.506 66.155 69.422 21.167 18.941 43.036 38.527 59.745 59.855 41.385 52.867 46.43 116.416 50.489 167.483.342 4.338.664 8.41 1.005 12.483 3.035 35.819-27.482 91.432-57.013 145.207-12.291 22.37-23.879 43.509-33.078 63.114l.588.265c9.18-19.585 20.787-40.705 33.059-63.076 28.26-51.389 57.374-104.406 57.374-140.434"/><path fill="url(#r)" d="M370.346 617.434c0-.397 0-.776-.019-1.174-.038-1.705-.076-3.409-.095-5.152-.531-26.556-1.119-56.636-7.283-87.189-7.131-35.383-20.446-64.478-40.664-88.893-17.924-21.651-41.689-41.35-64.658-60.387-54.073-44.816-105.15-87.151-88.005-153.693 14.206-55.101 57.317-103.782 99.006-150.87 4.287-4.831 8.725-9.85 12.992-14.719 21.698-24.737 47.682-56.54 56.217-83.021 1.271-3.94 2.693-7.785 4.078-11.517 3.85-10.36 7.511-20.23 7.511-30.875 0-1.629-.095-3.277-.266-4.944-1.574-14.338-9.161-27.276-23.196-39.55-11.702-10.228-28.203-20.154-50.451-30.326-68.318-31.272-132.823-60.803-183.445-109.464-38.597-37.126-66.023-102.835-35.07-159.452 33.742-61.693 62.173-78.532 92.254-96.356 5.159-3.069 10.508-6.232 15.875-9.622 26.06-16.499 53.733-22.579 83.017-29 9.199-2.008 18.701-4.111 28.147-6.535l-.171-.644c-9.427 2.424-18.929 4.508-28.109 6.535-29.36 6.44-57.089 12.52-83.244 29.075-5.349 3.391-10.697 6.554-15.856 9.623-30.176 17.881-58.664 34.758-92.5 96.621-13.922 25.458-17.184 54.95-9.427 85.238 7.037 27.485 22.874 54.117 44.59 74.991 12.139 11.668 25.302 22.502 40.21 33.11 13.39 9.509 27.976 18.676 44.553 27.996 31.37 17.615 65.681 33.318 98.854 48.509 22.19 10.153 38.635 20.041 50.28 30.231 13.903 12.142 21.413 24.947 22.969 39.115 1.365 12.426-2.789 23.64-7.189 35.516-1.384 3.731-2.826 7.596-4.097 11.554-8.497 26.367-34.424 58.095-56.084 82.776a3267 3267 0 0 1-12.992 14.718c-20.56 23.222-41.802 47.221-59.669 72.281-20.199 28.337-33.116 54.136-39.488 78.873-4.154 16.101-4.458 31.216-.968 46.18 3.13 13.354 9.237 26.31 18.701 39.608 17.563 24.7 44.477 46.994 70.499 68.569 22.95 19.017 46.677 38.698 64.563 60.291 45.387 54.837 46.714 121.833 47.795 175.666.038 1.743.076 3.447.095 5.152 0 .379.019.777.019 1.155 0 36.653-35.316 94.501-69.474 150.436-14.112 23.109-27.426 44.911-38.275 65.159l.588.322c10.83-20.23 24.144-42.031 38.256-65.121 34.253-56.03 69.626-113.954 69.626-150.796"/><path fill="url(#s)" d="M378.731 571.403c0-17.142-.891-35.496-3.945-53.946-6.088-36.822-19.668-66.883-41.48-91.848-19.099-21.859-44.685-41.577-69.417-60.651-27.54-21.234-56.028-43.188-74.767-67.698-20.939-27.39-27.406-55.386-19.782-85.617 14.073-55.84 59.157-104.767 102.761-152.102a3342 3342 0 0 0 10.868-11.82c15.287-16.706 26.705-30.098 35.904-42.126 11.626-15.21 19.649-28.147 24.524-39.57l1.422-3.352c6.392-14.926 12.423-29.038 14.813-44.778a37 37 0 0 0 .436-5.588c0-12.464-6.562-24.113-19.934-35.44-14.869-12.615-36.359-23.109-53.428-30.837a2155 2155 0 0 0-12.196-5.512c-64.752-29.284-125.938-56.939-175.005-100.979-40.949-36.747-68.507-98.326-37.743-153.03 32.394-57.602 60.769-74.289 90.812-91.981 4.779-2.822 9.749-5.739 14.699-8.808 26.534-16.479 54.643-23.374 84.401-30.648 9.142-2.235 18.587-4.546 27.957-7.16l-.19-.682c-9.35 2.614-18.796 4.925-27.937 7.16-29.816 7.293-57.962 14.207-84.592 30.743-4.95 3.068-9.9 5.985-14.68 8.808-30.138 17.729-58.588 34.474-91.077 92.227-13.979 24.852-16.919 53.34-8.497 82.378 7.548 26.045 24.011 51.445 46.392 71.505 49.161 44.115 110.367 71.789 175.194 101.092a8636 8636 0 0 0 12.196 5.512c17.013 7.709 38.445 18.184 53.258 30.742 15.155 12.843 21.451 26.045 19.27 40.384-2.389 15.646-8.402 29.7-14.775 44.608-.474 1.117-.948 2.216-1.422 3.352-10.982 25.742-36.644 55.651-60.295 81.488a3341 3341 0 0 1-10.868 11.82c-21.451 23.279-43.642 47.354-62.229 72.622-21.072 28.621-34.368 54.704-40.684 79.764-2.086 8.258-3.129 16.441-3.148 24.321v.057a88.8 88.8 0 0 0 2.826 22.237c3.49 13.411 10.09 26.386 20.218 39.626 18.796 24.587 47.322 46.578 74.899 67.831 24.714 19.055 50.281 38.755 69.323 60.557 49.446 56.616 46.469 128.898 44.287 181.67-1.536 37.353-42.428 98.667-81.992 157.974-15.894 23.847-30.916 46.35-43.377 67.243l.607.36c12.461-20.855 27.464-43.377 43.358-67.205 39.602-59.383 80.551-120.792 82.106-158.334.436-11.119.929-23.393.929-36.369"/><path fill="url(#t)" d="M388.517 545.416c0-12.274-.683-24.833-2.466-37.41-2.427-17.161-6.79-33.129-12.954-47.449a157.6 157.6 0 0 0-28.753-44.362c-20.238-22.01-47.625-41.709-74.122-60.746-29.114-20.93-59.214-42.6-79.204-67.016-22.324-27.295-29.512-55.461-21.964-86.09 13.941-56.579 61.092-105.732 106.669-153.257 2.882-3.012 5.765-6.005 8.61-8.979 24.467-25.609 51.267-55.196 64.62-80.37.758-1.42 1.498-2.822 2.257-4.224 7.947-14.888 15.438-28.961 18.928-44.74 1.745-7.88.93-15.589-2.427-22.919-3.073-6.706-8.137-13.07-15.515-19.472-14.87-12.919-36.814-23.564-54.283-31.406-8.174-3.674-16.444-7.33-24.429-10.891-61.129-27.125-118.863-52.734-166.545-92.625-38.958-32.58-72.927-90.542-40.437-146.609 30.991-53.511 59.403-70.085 89.503-87.644 4.363-2.557 8.896-5.19 13.391-7.936 27.084-16.48 55.648-24.208 85.881-32.372 9.066-2.443 18.435-4.981 27.691-7.747l-.209-.701c-9.256 2.766-18.625 5.304-27.672 7.747-30.29 8.183-58.891 15.911-86.052 32.448-4.514 2.746-9.028 5.379-13.39 7.917-30.176 17.616-58.664 34.247-89.769 87.909-7.264 12.558-11.513 25.969-12.613 39.872-1.024 12.937.664 26.272 5.026 39.626 8.042 24.606 25.15 48.775 48.176 68.039 47.757 39.948 105.53 65.595 166.716 92.739a5406 5406 0 0 1 24.429 10.891c17.411 7.823 39.299 18.449 54.093 31.292 15.192 13.183 20.977 26.821 17.696 41.672-3.471 15.665-10.944 29.7-18.853 44.55-.74 1.402-1.499 2.804-2.257 4.225-13.315 25.098-40.077 54.628-64.506 80.199l-8.592 8.978c-22.38 23.337-45.519 47.468-64.903 72.926-21.983 28.886-35.695 55.272-41.954 80.654-2.068 8.372-3.054 16.65-2.94 24.605a86.6 86.6 0 0 0 3.3 22.465c3.85 13.487 10.963 26.462 21.755 39.664 20.028 24.511 50.185 46.18 79.337 67.149 26.458 19.036 53.808 38.698 74.008 60.651 49.218 53.491 46.79 122.269 40.664 182.541-3.869 38.092-49.996 102.267-94.586 164.32-17.677 24.586-34.349 47.809-48.422 69.327l.626.398c14.054-21.518 30.745-44.722 48.403-69.308 44.647-62.129 90.831-126.379 94.719-164.68 1.707-16.593 3.319-34.89 3.319-53.851"/><path fill="url(#u)" d="M398.816 525.358c0-8.902-.436-17.881-1.498-26.821-2.029-17.218-6.202-33.243-12.404-47.62-7.037-16.309-16.975-31.159-29.531-44.134-21.375-22.105-50.546-41.748-78.749-60.727-30.707-20.666-62.457-42.051-83.681-66.41-23.746-27.238-31.636-55.575-24.164-86.621 13.808-57.336 65.302-108.896 110.746-154.394 2.068-2.064 4.116-4.129 6.165-6.175 24.865-24.946 52.727-53.68 68.829-79.044.93-1.458 1.859-2.916 2.77-4.356 9.635-15.097 18.739-29.34 23.328-45.441 2.333-8.164 1.954-16.12-1.156-23.678-2.789-6.819-7.909-13.562-15.212-20.04-14.907-13.24-37.307-24.056-55.136-31.992-11.911-5.304-23.954-10.513-35.619-15.571-57.962-25.116-112.718-48.831-159.111-84.953-39.924-31.159-75.202-86.564-43.092-140.226 29.569-49.438 58.114-65.936 88.347-83.419 3.888-2.254 7.928-4.584 11.93-6.971 27.615-16.46 56.672-25.041 87.436-34.114 8.933-2.633 18.189-5.36 27.312-8.296l-.228-.72c-9.123 2.917-18.36 5.644-27.293 8.277-30.802 9.092-59.897 17.673-87.607 34.19a951 951 0 0 1-11.93 6.971c-30.308 17.521-58.948 34.076-88.612 83.684-7.34 12.256-11.532 25.269-12.442 38.679-.853 12.426 1.081 25.193 5.766 37.941 4.381 11.895 11.077 23.658 19.934 34.909 8.421 10.702 18.53 20.685 30.043 29.663 21.167 16.479 45.178 31.368 75.582 46.805 26.838 13.638 54.453 25.59 83.7 38.262 11.664 5.058 23.708 10.267 35.619 15.57 17.791 7.918 40.114 18.696 54.946 31.86 15.249 13.544 20.522 27.58 16.141 42.941-4.571 15.987-13.637 30.194-23.234 45.233-.93 1.44-1.859 2.898-2.77 4.357-16.064 25.306-43.888 54.003-68.734 78.911-2.049 2.046-4.097 4.11-6.165 6.175-23.329 23.355-47.454 47.525-67.654 73.191-22.93 29.151-37.098 55.821-43.281 81.563-2.049 8.486-2.959 16.858-2.732 24.908a84.6 84.6 0 0 0 3.756 22.655c4.21 13.562 11.835 26.575 23.31 39.74 21.299 24.434 53.087 45.839 83.832 66.542 28.166 18.961 57.298 38.584 78.617 60.632 50.091 51.806 47.416 118.765 37.061 183.394-6.221 38.831-57.583 105.866-107.257 170.665-19.421 25.325-37.743 49.268-53.391 71.43l.626.435c15.629-22.161 33.969-46.085 53.372-71.41 49.731-64.894 101.149-131.986 107.408-171.025 3.13-19.889 6.107-42.392 6.107-65.425"/><path fill="url(#v)" d="M409.456 508.176c0-6.345-.266-12.729-.873-19.093-1.631-17.294-5.614-33.376-11.854-47.79-7.056-16.29-17.26-31.065-30.309-43.945-22.475-22.162-53.391-41.691-83.301-60.595-32.3-20.419-65.7-41.52-88.214-65.841-25.168-27.201-33.798-55.727-26.401-87.208C182.179 125.61 236.006 73.88 283.498 28.23l3.566-3.428c28.393-27.314 55.364-53.832 73.041-77.718.986-1.345 1.991-2.69 2.977-4.016 11.456-15.437 22.286-30.003 28.052-46.615 2.921-8.429 2.978-16.631.133-24.435-2.561-7.027-7.568-13.96-14.908-20.609-14.965-13.6-37.801-24.567-56.008-32.598-15.344-6.763-30.954-13.335-46.051-19.681-55.174-23.222-107.294-45.157-152.454-77.869-42.94-31.122-77.536-82.605-45.804-133.786 28.127-45.384 56.937-61.864 87.436-79.29 3.338-1.913 6.809-3.883 10.223-5.891 28.241-16.479 57.848-25.95 89.181-35.97 8.762-2.804 17.828-5.702 26.762-8.732l-.266-.758c-8.933 3.031-17.999 5.929-26.743 8.732-31.371 10.039-61.015 19.51-89.333 36.027-3.433 2.008-6.884 3.978-10.223 5.891-30.593 17.483-59.479 34.001-87.72 79.574-7.416 11.972-11.55 24.568-12.31 37.448-.701 11.915 1.499 24.094 6.525 36.236 4.647 11.251 11.683 22.389 20.92 33.091 8.668 10.058 19.062 19.491 30.897 28.072 20.313 14.717 44.154 28.677 72.907 42.694 25.7 12.54 53.145 24.075 79.698 35.251 15.098 6.345 30.707 12.918 46.051 19.68 18.151 8.013 40.911 18.923 55.781 32.448 15.306 13.903 20.067 28.355 14.566 44.191-5.728 16.498-16.52 31.026-27.938 46.407-.986 1.345-1.991 2.67-2.977 4.034-17.639 23.848-44.572 50.329-72.946 77.624l-3.566 3.428c-24.315 23.374-49.465 47.544-70.536 73.418-23.936 29.417-38.56 56.39-44.686 82.454-2.029 8.599-2.883 17.104-2.541 25.23a82.6 82.6 0 0 0 4.229 22.844c4.571 13.657 12.727 26.689 24.884 39.853 22.571 24.397 56.028 45.536 88.366 65.974 29.853 18.866 60.731 38.395 83.168 60.481 53.316 52.545 46.829 122.629 33.457 184.246-8.591 39.57-65.226 109.446-119.982 177.03-21.148 26.083-41.101 50.726-58.304 73.532l.645.473c17.184-22.806 37.156-47.43 58.285-73.513 54.832-67.641 111.523-137.592 120.134-177.351 4.552-20.931 9.37-47.165 9.37-74.157"/><path fill="url(#w)" d="M420.306 492.703c0-37.107-10.394-74.252-42.846-104.767-23.575-22.181-56.217-41.596-87.777-60.368-33.913-20.172-69.001-41.027-92.785-65.33-26.61-27.181-35.98-55.916-28.64-87.851 13.524-58.871 69.798-110.753 119.452-156.535l3.49-3.22c26.895-24.795 54.7-50.442 74.482-73.873a237 237 0 0 1 2.864-3.371c13.428-15.854 26.117-30.837 33.115-48.093 2.087-5.152 3.054-10.058 3.054-14.737 0-28.583-36.169-48.68-73.116-64.819-18.569-8.107-37.573-15.854-55.952-23.336-52.651-21.442-102.362-41.672-146.308-71.24-17.715-11.914-41.366-31.557-53.372-57.412-11.171-24.056-9.54-47.601 4.874-69.952 26.648-41.388 55.876-57.886 86.829-75.35 2.675-1.515 5.444-3.069 8.194-4.641 28.962-16.536 59.195-26.935 91.191-37.94 8.498-2.917 17.279-5.948 25.947-9.054l-.285-.777c-8.648 3.107-17.43 6.137-25.927 9.054-32.054 11.024-62.305 21.423-91.343 37.997a5101 5101 0 0 1-8.175 4.641c-31.048 17.521-60.371 34.076-87.151 75.615-7.511 11.669-11.627 23.848-12.196 36.217-.531 11.384 1.916 23.014 7.264 34.55 4.932 10.607 12.31 21.139 21.907 31.273 8.914 9.414 19.611 18.316 31.75 26.499 19.763 13.297 42.788 26.007 70.385 38.887 24.656 11.498 50.792 22.143 76.075 32.429 18.379 7.482 37.383 15.229 55.932 23.317 42.637 18.62 84.231 42.505 69.627 78.495-6.961 17.142-19.593 32.068-32.983 47.865-.948 1.118-1.916 2.254-2.864 3.372-19.744 23.393-47.53 49.021-74.406 73.797l-3.49 3.22c-25.339 23.374-51.551 47.525-73.514 73.589-25.017 29.681-40.115 56.957-46.184 83.362-2.011 8.732-2.788 17.332-2.333 25.572.436 7.841 2.029 15.608 4.704 23.071 4.95 13.751 13.618 26.84 26.496 39.986 23.86 24.378 58.986 45.251 92.955 65.462 31.523 18.753 64.126 38.13 87.626 60.254 56.615 53.245 45.691 126.891 29.835 185.098-10.963 40.29-72.889 113.026-132.786 183.375-22.835 26.822-44.419 52.166-63.139 75.635l.644.511c18.72-23.45 40.285-48.794 63.121-75.615 59.954-70.407 121.937-143.219 132.956-183.697 6.866-25.136 12.803-53.151 12.803-81.165"/><path fill="url(#x)" d="M431.251 478.175c0-2.671-.057-5.342-.19-8.013-.834-17.445-4.438-33.64-10.735-48.112-7.075-16.271-17.791-30.913-31.845-43.528-24.656-22.162-58.986-41.425-92.197-60.045-35.543-19.946-72.319-40.573-97.412-64.838-28.071-27.162-38.199-56.124-30.935-88.534 13.372-59.647 73.515-112.816 121.842-155.55A5109 5109 0 0 1 302.638-1.77c24.107-21.215 49.029-43.15 68.584-63.758.796-.834 1.593-1.667 2.389-2.52 14.851-15.626 30.214-31.784 38.521-49.797 4.609-10.001 5.178-19.738 1.651-28.924-3.908-10.21-12.67-19.832-26.762-29.417-10.982-7.463-25.036-14.812-44.249-23.128-21.622-9.357-43.927-18.108-65.53-26.575-48.08-18.866-97.792-38.376-140.524-65.008-34.576-21.556-56.558-47.165-61.888-72.111-3.546-16.612.057-33.035 10.698-48.851 25.282-37.467 55.192-54.097 86.867-71.694 1.858-1.042 3.736-2.084 5.614-3.126 29.815-16.65 62.286-28.583 93.676-40.118 8.08-2.974 16.425-6.043 24.656-9.168l-.303-.796c-8.213 3.126-16.577 6.194-24.657 9.149-31.427 11.555-63.917 23.507-93.79 40.176-1.877 1.041-3.736 2.083-5.614 3.125-15.989 8.884-31.086 17.275-45.785 28.375-16.653 12.577-29.797 26.423-41.328 43.547-10.792 16.006-14.434 32.674-10.83 49.513 2.864 13.354 10.242 26.746 21.944 39.797 10.451 11.63 24.012 22.692 40.323 32.864 19.213 11.971 41.442 23.526 67.957 35.307 23.671 10.513 48.593 20.306 72.718 29.758 21.584 8.467 43.889 17.218 65.492 26.575 28.241 12.218 61.793 29.189 70.537 52.071 3.433 8.959 2.883 18.468-1.631 28.261-8.251 17.9-23.557 34-38.37 49.57-.796.834-1.593 1.667-2.389 2.52-19.536 20.57-43.339 41.52-68.527 63.7-4.21 3.713-8.573 7.559-12.859 11.328-23.291 20.59-52.272 46.218-75.336 72.869-25.529 29.511-40.835 56.693-46.771 83.135-1.992 8.865-2.712 17.597-2.124 25.912a80 80 0 0 0 5.196 23.299c5.33 13.865 14.529 26.992 28.109 40.118 25.169 24.359 61.983 45.006 97.583 64.971 33.154 18.6 67.445 37.845 92.026 59.95 59.366 53.359 45.198 127.402 26.231 185.951-13.447 41.009-80.703 116.662-145.758 189.853-24.467 27.542-47.588 53.549-67.825 77.624l.664.549c20.218-24.075 43.319-50.063 67.805-77.605 65.113-73.247 132.425-148.976 145.929-190.156 7.151-22.01 16.293-54.268 16.293-87.169"/><path fill="url(#y)" d="M442.382 464.574c0-1.288-.019-2.576-.038-3.864-.436-17.54-3.869-33.773-10.204-48.263-7.093-16.252-18.075-30.837-32.603-43.339-25.719-22.124-61.718-41.217-96.522-59.685-37.193-19.719-75.657-40.119-102.059-64.383-29.569-27.163-40.437-56.371-33.229-89.254 13.2-60.367 76.947-114.408 123.472-153.864a3866 3866 0 0 1 23.481-19.718c22.324-18.638 43.396-36.254 62.153-54.06l1.556-1.477c16.994-16.12 34.576-32.788 44.287-51.673 5.367-10.437 6.335-20.59 2.864-30.174-3.756-10.399-12.499-20.192-26.743-29.909-11.171-7.634-25.377-15.04-44.742-23.318-24.771-10.664-50.641-20.419-75.658-29.833-45.691-17.218-92.918-35.004-134.151-58.776-25.833-14.888-58-39.001-64.657-69.308-3.338-15.229.284-30.439 10.773-45.233 23.822-33.64 56.255-51.332 87.645-68.436l2.143-1.175c30.953-16.877 64.543-30.022 97.014-42.713a3381 3381 0 0 0 22.513-8.865l-.322-.815c-7.511 2.993-15.135 5.967-22.494 8.865-32.509 12.71-66.118 25.856-97.128 42.771l-2.144 1.174c-15.742 8.581-32.015 17.445-46.999 28.204-16.804 12.066-30.214 25.306-40.968 40.479-10.64 15.002-14.32 30.458-10.925 45.952 2.826 12.881 10.527 25.799 22.912 38.395 10.83 11.005 25.017 21.613 42.163 31.5 41.309 23.81 88.574 41.615 134.283 58.834 24.998 9.414 50.85 19.169 75.62 29.814 19.308 8.258 33.476 15.627 44.591 23.222 14.073 9.623 22.722 19.264 26.401 29.493 3.376 9.357 2.428 19.263-2.826 29.473-9.635 18.752-27.16 35.364-44.097 51.427l-1.555 1.477c-18.739 17.768-39.811 35.384-62.116 54.022-7.719 6.44-15.704 13.108-23.5 19.719-27.71 23.487-54.434 46.672-76.739 71.827-25.87 29.17-41.252 56.162-47.018 82.529-1.972 9.016-2.617 17.843-1.915 26.272.663 8.031 2.579 15.949 5.69 23.526 5.727 13.979 15.438 27.162 29.739 40.289 26.497 24.34 64.999 44.778 102.249 64.515 34.766 18.431 70.727 37.505 96.37 59.572 62.95 54.173 43.073 132.554 22.627 186.804-15.837 41.709-88.442 120.261-158.656 196.217-26.136 28.28-50.831 54.988-72.566 79.707l.664.587c21.716-24.719 46.411-51.427 72.547-79.688 70.271-76.013 142.951-154.621 158.826-196.502 6.449-17.104 11.172-32.409 14.434-46.786 3.698-16.195 5.557-31.481 5.557-45.555"/><path fill="url(#z)" d="M453.612 451.638v-.359c-.038-17.616-3.301-33.906-9.654-48.435-7.113-16.252-18.36-30.761-33.382-43.168-26.761-22.067-64.391-40.952-100.769-59.231-38.825-19.51-78.996-39.682-106.725-63.947-31.068-27.181-42.713-56.617-35.657-90.011C179.544 90.079 235.875 40.376 292.528-5.71c11.247-9.149 22.874-18.335 34.121-27.2 18.758-14.794 38.161-30.118 55.724-45.27l.379-.323c19.271-16.63 39.204-33.83 50.395-53.662 6.107-10.834 7.492-21.385 4.096-31.348-3.603-10.589-12.347-20.533-26.742-30.421-11.323-7.766-25.7-15.248-45.255-23.544-27.501-11.706-56.52-22.181-84.591-32.296-43.737-15.76-88.953-32.068-128.973-53.34-17.999-9.566-32.793-19.662-43.926-29.966-12.955-12.009-20.902-24.283-23.614-36.482-3.091-13.903.607-27.92 10.963-41.671 22.627-30.004 56.919-48.283 87.189-64.402 32.718-17.427 68.09-32.069 102.306-46.237 6.032-2.5 12.272-5.076 18.417-7.653l-.361-.852c-6.145 2.557-12.385 5.152-18.416 7.653-34.235 14.168-69.627 28.829-102.382 46.274-17.316 9.225-32.85 17.673-47.549 27.769-16.937 11.611-30.005 23.677-39.944 36.879-10.526 13.979-14.282 28.242-11.133 42.411 2.75 12.388 10.792 24.832 23.879 36.955 11.19 10.361 26.041 20.495 44.116 30.099 40.077 21.309 85.331 37.618 129.106 53.396 28.07 10.115 57.07 20.571 84.553 32.277 19.498 8.278 33.836 15.722 45.084 23.469 14.225 9.755 22.854 19.567 26.382 29.947 3.319 9.717 1.954 20.021-4.021 30.61-11.114 19.699-30.991 36.841-50.204 53.415l-.38.322c-17.544 15.135-36.947 30.44-55.686 45.233-11.247 8.865-22.874 18.052-34.14 27.2-25.567 20.799-54.794 45.12-78.123 70.805-26.193 28.848-41.67 55.632-47.303 81.904-1.934 9.149-2.503 18.127-1.669 26.651.797 8.126 2.883 16.138 6.202 23.772 6.126 14.092 16.387 27.333 31.409 40.478 27.824 24.34 68.033 44.551 106.915 64.08 36.34 18.26 73.913 37.126 100.599 59.117 28.336 23.355 42.466 53.511 42.466 91.091 0 27.977-7.833 60.064-23.462 96.565-18.227 42.429-96.199 123.841-171.61 202.582-27.786 29.019-54.036 56.427-77.251 81.79l.683.625c23.196-25.363 49.446-52.752 77.232-81.771 75.468-78.798 153.497-160.285 171.8-202.866 16.026-37.277 23.803-68.948 23.803-96.717"/><path fill="url(#A)" d="M464.895 439.156c0-16.669-3.073-32.107-9.142-45.915-7.131-16.233-18.625-30.705-34.159-42.979-27.786-21.972-67.047-40.687-104.999-58.757-40.513-19.302-82.429-39.266-111.505-63.55-32.584-27.2-44.988-56.901-37.933-90.787 11.835-56.901 69.096-105.563 126.754-150.511 14.453-11.27 29.569-22.503 44.173-33.338 16.539-12.274 33.628-24.965 49.864-37.808 20.123-15.93 42.959-33.962 55.704-54.817 6.866-11.232 8.668-22.181 5.33-32.542-1.802-5.569-5.121-11.119-9.9-16.46-4.344-4.849-10.015-9.717-16.862-14.453-11.304-7.804-26.269-15.589-45.747-23.791-30.195-12.728-62.495-23.828-93.733-34.549-41.765-14.358-84.952-29.189-123.625-48.093-19.004-9.301-34.5-18.923-46.013-28.602-13.713-11.536-21.982-23.318-24.561-35.024-2.788-12.634 1.024-25.438 11.304-38.091 19.858-24.397 54.074-43.358 84.591-59.212 36.397-18.904 75.658-36.009 113.629-52.564 2.769-1.212 5.538-2.405 8.307-3.617l-.379-.872c-2.769 1.212-5.538 2.406-8.308 3.618-37.99 16.555-77.251 33.66-113.685 52.582-30.594 15.892-64.923 34.91-84.895 59.44-10.47 12.88-14.339 25.969-11.494 38.887 2.618 11.914 11 23.866 24.884 35.535 11.57 9.736 27.123 19.396 46.203 28.734 38.73 18.942 81.955 33.792 123.738 48.15 31.219 10.721 63.5 21.821 93.657 34.531 27.085 11.403 64.013 29.435 71.979 54.116 3.243 10.077 1.498 20.761-5.235 31.766-12.67 20.703-35.411 38.698-55.477 54.57-16.217 12.824-33.306 25.515-49.845 37.79-14.623 10.853-29.739 22.067-44.192 33.356-25.813 20.135-55.382 43.793-79.546 69.781-26.553 28.527-42.087 55.121-47.53 81.298-1.935 9.301-2.428 18.374-1.48 27.011.911 8.221 3.149 16.309 6.677 24.037 6.505 14.206 17.316 27.504 33.058 40.649 29.171 24.359 71.125 44.343 111.695 63.682 37.914 18.071 77.118 36.747 104.828 58.644 51.551 40.762 56.578 102.418 15.42 188.527-20.636 43.149-103.994 127.459-184.621 208.984-29.417 29.758-57.203 57.848-81.879 83.855l.683.644c24.657-25.988 52.443-54.078 81.86-83.836 80.684-81.582 164.099-165.949 184.811-209.23 18.018-37.675 27.046-69.763 27.596-98.1z"/></g><defs><linearGradient id="b" x1="-43.508" x2="425.749" y1="107.51" y2="107.51" gradientUnits="userSpaceOnUse"><stop stop-color="#07122f" stop-opacity=".3"/><stop offset="1" stop-color="#050d20" stop-opacity=".3"/></linearGradient><linearGradient id="c" x1="-37.757" x2="415.545" y1="110.014" y2="110.014" gradientUnits="userSpaceOnUse"><stop stop-color="#07122f" stop-opacity=".3"/><stop offset="1" stop-color="#050d20" stop-opacity=".3"/></linearGradient><linearGradient id="d" x1="-32.095" x2="405.339" y1="112.476" y2="112.476" gradientUnits="userSpaceOnUse"><stop stop-color="#07122f" stop-opacity=".3"/><stop offset="1" stop-color="#050d20" stop-opacity=".3"/></linearGradient><linearGradient id="e" x1="-26.474" x2="395.135" y1="114.918" y2="114.918" gradientUnits="userSpaceOnUse"><stop stop-color="#07122f" stop-opacity=".3"/><stop offset="1" stop-color="#050d20" stop-opacity=".3"/></linearGradient><linearGradient id="f" x1="-20.909" x2="384.951" y1="117.352" y2="117.352" gradientUnits="userSpaceOnUse"><stop stop-color="#07122f" stop-opacity=".3"/><stop offset="1" stop-color="#050d20" stop-opacity=".3"/></linearGradient><linearGradient id="g" x1="-15.308" x2="374.748" y1="119.692" y2="119.692" gradientUnits="userSpaceOnUse"><stop stop-color="#07122f" stop-opacity=".3"/><stop offset="1" stop-color="#050d20" stop-opacity=".3"/></linearGradient><linearGradient id="h" x1="-9.832" x2="364.562" y1="122.038" y2="122.038" gradientUnits="userSpaceOnUse"><stop stop-color="#07122f" stop-opacity=".3"/><stop offset="1" stop-color="#050d20" stop-opacity=".3"/></linearGradient><linearGradient id="i" x1="-4.46" x2="354.377" y1="124.266" y2="124.266" gradientUnits="userSpaceOnUse"><stop stop-color="#07122f" stop-opacity=".3"/><stop offset="1" stop-color="#050d20" stop-opacity=".3"/></linearGradient><linearGradient id="j" x1=".97" x2="344.173" y1="126.048" y2="126.048" gradientUnits="userSpaceOnUse"><stop stop-color="#07122f" stop-opacity=".3"/><stop offset="1" stop-color="#050d20" stop-opacity=".3"/></linearGradient><linearGradient id="k" x1="6.392" x2="333.987" y1="127.628" y2="127.628" gradientUnits="userSpaceOnUse"><stop stop-color="#07122f" stop-opacity=".3"/><stop offset="1" stop-color="#050d20" stop-opacity=".3"/></linearGradient><linearGradient id="l" x1="11.679" x2="334.425" y1="129.201" y2="129.201" gradientUnits="userSpaceOnUse"><stop stop-color="#07122f" stop-opacity=".3"/><stop offset="1" stop-color="#050d20" stop-opacity=".3"/></linearGradient><linearGradient id="m" x1="16.918" x2="338.388" y1="130.783" y2="130.783" gradientUnits="userSpaceOnUse"><stop stop-color="#07122f" stop-opacity=".3"/><stop offset="1" stop-color="#050d20" stop-opacity=".3"/></linearGradient><linearGradient id="n" x1="22.17" x2="343.585" y1="132.325" y2="132.325" gradientUnits="userSpaceOnUse"><stop stop-color="#07122f" stop-opacity=".3"/><stop offset="1" stop-color="#050d20" stop-opacity=".3"/></linearGradient><linearGradient id="o" x1="27.375" x2="349.598" y1="133.964" y2="133.964" gradientUnits="userSpaceOnUse"><stop stop-color="#07122f" stop-opacity=".3"/><stop offset="1" stop-color="#050d20" stop-opacity=".3"/></linearGradient><linearGradient id="p" x1="32.597" x2="356.14" y1="135.482" y2="135.482" gradientUnits="userSpaceOnUse"><stop stop-color="#07122f" stop-opacity=".3"/><stop offset="1" stop-color="#050d20" stop-opacity=".3"/></linearGradient><linearGradient id="q" x1="37.734" x2="363.102" y1="137.129" y2="137.129" gradientUnits="userSpaceOnUse"><stop stop-color="#07122f" stop-opacity=".3"/><stop offset="1" stop-color="#050d20" stop-opacity=".3"/></linearGradient><linearGradient id="r" x1="42.873" x2="370.346" y1="138.701" y2="138.701" gradientUnits="userSpaceOnUse"><stop stop-color="#07122f" stop-opacity=".3"/><stop offset="1" stop-color="#050d20" stop-opacity=".3"/></linearGradient><linearGradient id="s" x1="47.959" x2="378.731" y1="140.271" y2="140.271" gradientUnits="userSpaceOnUse"><stop stop-color="#07122f" stop-opacity=".3"/><stop offset="1" stop-color="#050d20" stop-opacity=".3"/></linearGradient><linearGradient id="t" x1="52.973" x2="388.517" y1="141.853" y2="141.853" gradientUnits="userSpaceOnUse"><stop stop-color="#07122f" stop-opacity=".3"/><stop offset="1" stop-color="#050d20" stop-opacity=".3"/></linearGradient><linearGradient id="u" x1="58.018" x2="398.816" y1="143.427" y2="143.427" gradientUnits="userSpaceOnUse"><stop stop-color="#07122f" stop-opacity=".3"/><stop offset="1" stop-color="#050d20" stop-opacity=".3"/></linearGradient><linearGradient id="v" x1="62.922" x2="409.456" y1="145.016" y2="145.016" gradientUnits="userSpaceOnUse"><stop stop-color="#07122f" stop-opacity=".3"/><stop offset="1" stop-color="#050d20" stop-opacity=".3"/></linearGradient><linearGradient id="w" x1="67.854" x2="420.306" y1="146.609" y2="146.609" gradientUnits="userSpaceOnUse"><stop stop-color="#07122f" stop-opacity=".3"/><stop offset="1" stop-color="#050d20" stop-opacity=".3"/></linearGradient><linearGradient id="x" x1="72.688" x2="431.251" y1="148.172" y2="148.172" gradientUnits="userSpaceOnUse"><stop stop-color="#07122f" stop-opacity=".3"/><stop offset="1" stop-color="#050d20" stop-opacity=".3"/></linearGradient><linearGradient id="y" x1="77.474" x2="442.382" y1="149.772" y2="149.772" gradientUnits="userSpaceOnUse"><stop stop-color="#07122f" stop-opacity=".3"/><stop offset="1" stop-color="#050d20" stop-opacity=".3"/></linearGradient><linearGradient id="z" x1="82.153" x2="453.612" y1="151.308" y2="151.308" gradientUnits="userSpaceOnUse"><stop stop-color="#07122f" stop-opacity=".3"/><stop offset="1" stop-color="#050d20" stop-opacity=".3"/></linearGradient><linearGradient id="A" x1="86.706" x2="464.895" y1="152.918" y2="152.918" gradientUnits="userSpaceOnUse"><stop stop-color="#07122f" stop-opacity=".3"/><stop offset="1" stop-color="#050d20" stop-opacity=".3"/></linearGradient></defs></svg>