<svg xmlns="http://www.w3.org/2000/svg" width="46" height="37" fill="none" viewBox="0 0 46 37"><path fill="#ea4335" d="M29.394 10.757a1.18 1.18 0 0 0 1.106-.197l3.98-3.163a1.444 1.444 0 0 0 .05-2.219 17.66 17.66 0 0 0-16.523-3.537A17.53 17.53 0 0 0 6.17 13.793c-.253.953 1.882-.25 2.854-.409l5.44-.893c.55-.09 1.067-.338 1.442-.748 3.403-3.714 9.138-4.246 13.117-1.186q.169.13.371.2"/><path fill="#4285f4" d="M39.89 13.708a17.4 17.4 0 0 0-2.885-5.874c-1.189-1.577-3.47-1.488-4.87-.096-1.579 1.571-1.359 4.178-.38 6.179l.08.167a9.6 9.6 0 0 1 .894 4.224c0 .53.434.951.955 1.055 2.22.44 3.895 2.388 3.895 4.726 0 2.657-2.172 4.818-4.85 4.818l-9.691-.01c-.55.06-.967.524-.967 1.077v5.592a1.05 1.05 0 0 0 1.052 1.053h9.606a12.6 12.6 0 0 0 12.14-8.814 12.49 12.49 0 0 0-4.98-14.097"/><path fill="#34a853" d="m13.33 36.614.004.001h5.836a3.86 3.86 0 0 0 0-7.718h-5.84c-.404 0-.805-.067-1.194-.18-.533-.153-1.1-.21-1.63-.047a2.3 2.3 0 0 0-.94.56l-3.217 3.18a1.46 1.46 0 0 0-.39.678c-.144.568.06 1.174.553 1.493a12.66 12.66 0 0 0 6.819 2.034"/><path fill="#fbbc05" d="M13.332 11.541A12.6 12.6 0 0 0 1.46 20.075a12.52 12.52 0 0 0 2.134 11.88c1.073 1.324 3.03 1.17 4.238-.033l1.312-1.308c1.062-1.058.677-2.952-.048-4.264a4.81 4.81 0 0 1 3.56-7.094 4.85 4.85 0 0 1 3.014.545c1.326.724 3.225 1.11 4.296.045l1.274-1.265c1.223-1.216 1.377-3.198.03-4.275a12.6 12.6 0 0 0-7.938-2.765"/></svg>