<svg xmlns="http://www.w3.org/2000/svg" width="40" height="41" fill="none" viewBox="0 0 40 41"><path fill="#ff4a00" d="M20.197.783q.151 0 .302.003c1.724.03 2.972 1.535 2.972 3.26 0 3.144 3.803 4.718 6.027 2.494 1.218-1.219 3.166-1.402 4.404-.203a20 20 0 0 1 .447.447c1.2 1.238 1.017 3.186-.202 4.405-2.224 2.223-.65 6.026 2.495 6.026 1.724 0 3.231 1.248 3.258 2.972l.002.3v.027l-.002.302c-.027 1.724-1.534 2.972-3.258 2.972-3.145 0-4.72 3.802-2.496 6.025l.545.544c.905.904 1.037 2.343.184 3.296a20 20 0 0 1-.75.79 20 20 0 0 1-.786.746c-.951.853-2.39.721-3.293-.182l-.548-.548c-2.224-2.224-6.027-.649-6.027 2.496 0 1.725-1.248 3.23-2.971 3.26l-.301.003h-.029q-.15 0-.298-.003c-1.724-.03-2.972-1.536-2.972-3.26 0-3.144-3.803-4.718-6.027-2.494-1.218 1.218-3.166 1.403-4.403.204a20 20 0 0 1-.448-.448c-1.2-1.239-1.016-3.186.203-4.405 2.224-2.223.646-6.024-2.498-6.024-1.723 0-3.23-1.246-3.257-2.968l-.002-.312v-.058c.001-.29.02-.643.047-1.01l.009-.11c.095-1.211 1.13-2.115 2.346-2.115h.949c3.112 0 4.621-3.811 2.42-6.011-1.217-1.218-1.42-3.182-.22-4.418q.11-.113.222-.224l.003-.004.225-.221c1.237-1.2 3.186-1.016 4.405.203 2.223 2.224 6.026.65 6.026-2.495 0-1.724 1.248-3.23 2.972-3.259q.15-.003.302-.003zm-.002 14.789h-.019c-2.703 0-4.918 2.216-4.921 4.92v.017c.003 2.704 2.217 4.92 4.921 4.92h.02c2.703 0 4.919-2.216 4.919-4.92v-.018c0-2.704-2.216-4.92-4.92-4.92"/></svg>