<svg xmlns="http://www.w3.org/2000/svg" width="85" height="29" fill="none" viewBox="0 0 85 29"><path fill="#050d20" d="m4.092 27.982-.274-.029c-1.338-.137-2.412-1.455-3.242-3.935a9.4 9.4 0 0 1-.283-3.526c.39-3.642 2.842-6.24 7.373-7.793l2.686-.586c.556-2.588.927-4.687 1.103-6.318.147-1.445.03-2.188-.371-2.227l-.215-.02c-.8-.087-1.621.606-2.46 2.09-.138.284-.167.782-.098 1.485.078.703-.04 1.113-.342 1.23-.303.127-.489-.507-.567-1.894.147-1.426.996-2.568 2.54-3.447.41-.176.732-.244.956-.225l.264.03c.762.078 1.123.751 1.094 2.02l-.176 1.73c-.166 1.523-.478 3.34-.957 5.468a20 20 0 0 1 1.983-.185c.273.205.292.44.078.693-1.368.117-2.12.225-2.266.342-.85 3.71-1.69 6.69-2.52 8.955-1.61 4.228-3.046 6.28-4.306 6.142m-.088-.712c1.445.146 3.271-3.682 5.469-11.485.43-1.7.654-2.656.683-2.87-3.525.653-5.976 1.864-7.373 3.642-.996 1.2-1.572 2.49-1.709 3.847l-.049.44c-.214 2.05.313 3.906 1.592 5.566.498.527.957.81 1.387.86m8.31-10.743c-.175 0-.302-.127-.36-.37.048-.186.282-.45.673-.782h.264q.204.088.205.469c-.342.449-.606.683-.781.683m-.048 5q-.938-.176-.938-1.2v-.313c0-.81.205-1.787.625-2.92l.264-.05h.098a.53.53 0 0 1 .263.313c-.351 1.143-.518 1.993-.518 2.55 0 .068-.019.107-.058.107.049.517.137.78.264.78.654 0 1.953-1.18 3.906-3.544l.205-.049a.5.5 0 0 1 .313.264c0 .41-.987 1.562-2.97 3.437-.654.41-1.142.625-1.454.625M17.012 21h-.205q-.76 0-1.094-.879c-.04-.195-.049-.45-.049-.781 0-1.006.479-2.1 1.455-3.281.4-.352.752-.528 1.045-.528h.254c.4 0 .723.313.996.938v.107c-.098.176-.234.264-.42.264-.38-.42-.625-.625-.732-.625q-.924 0-1.817 2.549c-.078.43-.107.693-.107.78 0 .518.185.782.576.782.879 0 2.47-1.025 4.785-3.076l.215-.049c.205.069.313.225.313.469-2.364 2.217-4.102 3.33-5.215 3.33m4.033 1.719c-.205-.078-.313-.186-.313-.313C23.008 9.662 24.727 3.295 25.89 3.295q.674 0 .674.937 0 1.614-3.282 8.545c-.869 4.131-1.299 6.309-1.299 6.504h.05c1.113-2.363 2.05-3.535 2.812-3.535.703 0 1.103.479 1.2 1.455q-.002.806-.107 2.549c.372-.176 1.172-.996 2.403-2.441 0-.079.098-.108.312-.108a.44.44 0 0 1 .254.42c-1.494 1.904-2.49 2.861-2.968 2.861h-.098c-.322 0-.518-.263-.576-.78l.156-2.237c0-.664-.176-.996-.518-.996-.566 0-1.465 1.338-2.715 4.013-.527 1.28-.84 2.002-.937 2.188zM24.17 9.28c1.142-2.646 1.719-4.385 1.719-5.205h-.05c-.458.733-1.024 2.451-1.718 5.156v.05zm6.748 12.032c-.38 0-.605-.254-.684-.782 0-.644.108-1.357.313-2.129v-.058h-.049c-.166.263-.586.644-1.25 1.152l-.361.098q-.733 0-.733-1.143c0-1.103.489-2.07 1.455-2.92q.513-.204.733-.205c.762.156 1.142.42 1.142.781q-.102.311-.41.313c-.351-.244-.596-.361-.732-.361-.664 0-1.152.761-1.455 2.285v.468c.156 0 .937-.722 2.343-2.187h.254c.059 0 .127.068.215.215v.098c-.527 1.767-.781 2.91-.781 3.437a.5.5 0 0 1 .049.215h.049c.732-.576 1.386-1.358 1.982-2.344.332-.732.615-1.094.83-1.094.244 0 .371.098.371.313-.459 1.113-1.328 2.324-2.607 3.642q-.483.206-.674.206m3.418-.157c-.537 0-.898-.468-1.094-1.406v-.41c0-1.572.508-2.96 1.514-4.17l.566-.205c.557.098.84.38.84.83 0 .537-.684 1.27-2.031 2.187a7.2 7.2 0 0 0-.156 1.563c0 .459.117.762.36.889h.206c.82 0 2.139-1.045 3.965-3.125a.36.36 0 0 1 .205-.059c.205.078.312.215.312.42-1.162 1.562-2.382 2.656-3.642 3.281-.4.137-.752.205-1.045.205m.205-4.375c.127 0 .42-.293.889-.879v-.107c0-.068-.03-.107-.108-.107-.244.087-.508.449-.781 1.093m5.098 4.434c-.782-.147-1.172-.791-1.172-1.914v-.322c0-2.891 1.133-7.373 3.408-13.458.625-1.376 1.143-2.07 1.543-2.07h.107c.313.166.479.469.479.908 0 1.162-1.299 4.004-3.887 8.506-.713 2.832-1.064 4.873-1.064 6.114.068.996.234 1.494.478 1.494h.108c.615 0 1.748-.977 3.408-2.93l.098-.049c.214.088.322.215.322.371-.4.801-1.338 1.787-2.822 2.979-.44.244-.782.37-1.006.37m1.386-11.22c1.553-2.99 2.334-4.903 2.334-5.743-.722.977-1.523 2.871-2.392 5.684v.058zm8.653 18.642c-.235 0-.342-.137-.342-.4l4.18-14.258h-.059a50 50 0 0 0-4.756 1.035.57.57 0 0 1-.342-.293v-.108c0-.341.538-.576 1.602-.693.459-.147 1.738-.44 3.838-.86q2.52-8.32 2.578-8.7l-7.393 1.6c-.185-.048-.283-.185-.283-.4 0-.283.283-.458.86-.507l7.1-1.553c.439-1.68.741-2.52.917-2.52h.117c.264 0 .4.118.4.342-.038.235-.234.899-.575 2.012h.058c5.322-1.072 8.819-1.6 10.479-1.6q1.142-.002 1.142.625c0 .4-.263.684-.8.86-.274 0-.401-.137-.401-.4 0-.069.04-.167.117-.284-1.953 0-5.586.567-10.879 1.71-.195.722-1.054 3.622-2.578 8.71h.059q2.331-.351 4.004-.351h.742c.732 0 1.094.156 1.094.458a.66.66 0 0 1-.293.352c-.694 0-1.153-.02-1.367-.059-2.96.167-4.463.352-4.532.567-2.783 9.424-4.228 14.287-4.346 14.6a.7.7 0 0 1-.341.117m13.525-7.324c-.38 0-.605-.254-.684-.782 0-.644.108-1.357.313-2.129v-.058h-.049c-.166.263-.586.644-1.25 1.152l-.361.098q-.732 0-.732-1.143c0-1.103.488-2.07 1.455-2.92q.512-.204.732-.205c.762.156 1.142.42 1.142.781q-.101.311-.41.313c-.351-.244-.595-.361-.732-.361-.664 0-1.152.761-1.455 2.285v.468c.156 0 .937-.722 2.344-2.187h.254c.058 0 .127.068.214.215v.098c-.527 1.767-.78 2.91-.78 3.437a.5.5 0 0 1 .048.215h.049c.732-.576 1.386-1.358 1.982-2.344.332-.732.615-1.094.83-1.094.244 0 .371.098.371.313-.459 1.113-1.328 2.324-2.607 3.642q-.483.206-.674.206m2.275.576h-.263c-.049 0-.127-.069-.205-.205.478-3.028.81-4.532.986-4.532h.156c.137 0 .245.069.313.205 0 .254-.049.616-.156 1.094v.049h.048q.6-1.48 1.407-2.344l.156-.097h.156c.42 0 .645.341.684 1.035v1.465c.166-.206.586-.948 1.25-2.247.263-.449.517-.673.781-.673.342 0 .527.273.566.83-.166 1.465-.254 2.45-.254 2.968q.013.264.098.264c.264 0 1.114-.85 2.559-2.549h.254c.175.098.263.225.263.362-1.425 1.943-2.48 2.92-3.174 2.92-.488 0-.732-.42-.732-1.25.04-.635.117-1.456.264-2.452-.791 1.436-1.309 2.315-1.563 2.657-.215.107-.351.156-.42.156-.42 0-.625-.352-.625-1.045l.05-1.406a.5.5 0 0 1-.05-.157c-.722 1.104-1.523 2.715-2.392 4.844zm8.897-.733c-.537 0-.898-.468-1.094-1.406v-.41c0-1.572.508-2.96 1.514-4.17l.566-.205c.557.098.84.38.84.83 0 .537-.683 1.27-2.031 2.187a7.3 7.3 0 0 0-.156 1.563c0 .459.117.762.361.889h.205c.82 0 2.139-1.045 3.965-3.125a.36.36 0 0 1 .205-.059c.205.078.313.215.313.42-1.163 1.562-2.383 2.656-3.643 3.281-.4.137-.752.205-1.045.205m.205-4.375c.127 0 .42-.293.889-.879v-.107c0-.068-.03-.107-.108-.107-.244.087-.508.449-.78 1.093m3.526 9.483h-.108c-.41-.088-.625-.293-.625-.625v-.215c0-.87.752-2.276 2.246-4.21-.869-2.538-1.308-4.16-1.308-4.843 0-1.142.664-1.777 1.982-1.933.938.156 1.406.43 1.406.84-.068.204-.215.312-.42.312-.361-.283-.722-.42-1.093-.42q-1.055 0-1.143 1.201c0 .664.361 2.031 1.094 4.111h.049c1.68-1.894 3.076-3.027 4.17-3.388.244 0 .36.127.36.37 0 .177-.38.45-1.142.83-1.289.929-2.343 1.954-3.174 3.077v.049q.206.952.206 1.816c0 1.592-.83 2.598-2.5 3.028m-.05-.733c1.25-.322 1.876-1.123 1.876-2.392l-.108-1.045h-.049c-1.123 1.67-1.699 2.822-1.718 3.437"/></svg>