<svg xmlns="http://www.w3.org/2000/svg" width="142" height="43" fill="none" viewBox="0 0 142 43"><path fill="#ccc" d="M5.031 42.703q-3.234 0-4.078-5.344l-.172-2.968c0-6.578 1.844-14.813 5.516-24.688C8.937 3.484 11.516.375 14.016.375c2.14 0 3.468 2.031 3.984 6.11 0 3.624-.25 5.421-.766 5.421h-.422c-.078 0-.203-.11-.328-.328.22-1.64.36-2.953.422-3.906-.281-4.078-1.218-6.11-2.797-6.11h-.265c-1.719 0-3.735 2.547-6.016 7.641q-1.617 3.21-3.984 11.953c-1.25 5.5-1.875 9.938-1.875 13.328 0 4.688 1.015 7.032 3.062 7.032q5.25 0 18.14-18.657l.438-.093c.328 0 .5.203.5.593v.172Q11.055 42.586 5.031 42.703m22.047-19.86c-.281 0-.484-.202-.578-.593.078-.297.453-.719 1.078-1.25H28q.328.141.328.75c-.547.719-.969 1.094-1.25 1.094m-.078 8q-1.5-.28-1.5-1.921v-.5c0-1.297.328-2.86 1-4.672l.422-.078h.156c.203.11.344.265.422.5-.562 1.828-.828 3.187-.828 4.078 0 .11-.031.172-.094.172.078.828.219 1.25.422 1.25 1.047 0 3.125-1.89 6.25-5.672l.328-.078a.8.8 0 0 1 .5.422c0 .656-1.578 2.5-4.75 5.5-1.047.656-1.828 1-2.328 1M34.594 30h-.328c-.813 0-1.391-.469-1.75-1.406-.063-.313-.078-.719-.078-1.25 0-1.61.765-3.36 2.328-5.25.64-.563 1.203-.844 1.672-.844h.406c.64 0 1.156.5 1.593 1.5v.172c-.156.281-.374.422-.671.422-.61-.672-1-1-1.172-1q-1.477 0-2.907 4.078c-.124.687-.171 1.11-.171 1.25 0 .828.297 1.25.922 1.25 1.406 0 3.953-1.64 7.656-4.922l.343-.078c.329.11.5.36.5.75C39.158 28.219 36.376 30 34.595 30m6.453 2.75c-.328-.125-.5-.297-.5-.5 3.64-20.39 6.39-30.578 8.25-30.578q1.078 0 1.078 1.5c0 1.719-1.75 6.281-5.25 13.672-1.39 6.61-2.078 10.093-2.078 10.406h.078c1.781-3.781 3.281-5.656 4.5-5.656 1.125 0 1.766.765 1.922 2.328 0 .86-.063 2.219-.172 4.078.594-.281 1.875-1.594 3.844-3.906 0-.125.156-.172.5-.172a.71.71 0 0 1 .406.672c-2.39 3.047-3.984 4.578-4.75 4.578h-.156c-.516 0-.828-.422-.922-1.25l.25-3.578c0-1.063-.281-1.594-.828-1.594-.907 0-2.344 2.14-4.344 6.422-.844 2.047-1.344 3.203-1.5 3.5zm5-21.5c1.828-4.234 2.75-7.016 2.75-8.328h-.078c-.735 1.172-1.64 3.922-2.75 8.25v.078zM56.844 30.5c-.61 0-.969-.406-1.094-1.25 0-1.031.172-2.172.5-3.406v-.094h-.078c-.266.422-.938 1.031-2 1.844l-.578.156q-1.172 0-1.172-1.828c0-1.766.781-3.313 2.328-4.672q.82-.328 1.172-.328c1.219.25 1.828.672 1.828 1.25-.11.328-.328.5-.656.5-.563-.39-.953-.578-1.172-.578-1.063 0-1.844 1.218-2.328 3.656v.75c.25 0 1.5-1.156 3.75-3.5h.406c.094 0 .203.11.344.344v.156c-.844 2.828-1.25 4.656-1.25 5.5a.8.8 0 0 1 .078.344H57c1.172-.922 2.219-2.172 3.172-3.75.531-1.172.984-1.75 1.328-1.75.39 0 .594.156.594.5-.735 1.781-2.125 3.718-4.172 5.828q-.774.328-1.078.328m5.468-.25c-.859 0-1.437-.75-1.75-2.25v-.656c0-2.516.813-4.735 2.422-6.672l.907-.328c.89.156 1.343.61 1.343 1.328 0 .86-1.093 2.031-3.25 3.5a11.6 11.6 0 0 0-.25 2.5c0 .734.188 1.219.578 1.422h.329c1.312 0 3.422-1.672 6.343-5a.6.6 0 0 1 .329-.094c.328.125.5.344.5.672-1.86 2.5-3.813 4.25-5.829 5.25-.64.219-1.203.328-1.672.328m.329-7c.203 0 .672-.469 1.422-1.406v-.172c0-.11-.047-.172-.172-.172-.391.14-.813.719-1.25 1.75m8.156 7.094c-1.25-.235-1.875-1.266-1.875-3.063v-.515c0-4.625 1.812-11.797 5.453-21.532 1-2.203 1.828-3.312 2.469-3.312h.172c.5.266.765.75.765 1.453 0 1.86-2.078 6.406-6.219 13.61-1.14 4.53-1.703 7.796-1.703 9.78.11 1.594.375 2.391.766 2.391h.172c.984 0 2.797-1.562 5.453-4.687l.156-.078c.344.14.516.343.516.593-.64 1.282-2.14 2.86-4.516 4.766-.703.39-1.25.594-1.61.594m2.219-17.953C75.5 7.609 76.75 4.547 76.75 3.203c-1.156 1.563-2.437 4.594-3.828 9.094v.094zm17.5 28.78-.438-.046c-2.14-.219-3.86-2.328-5.187-6.297-.5-1.797-.657-3.672-.454-5.64.626-5.829 4.547-9.985 11.797-12.47l4.297-.937c.891-4.14 1.485-7.5 1.766-10.11.234-2.312.047-3.5-.594-3.562l-.344-.03c-1.281-.142-2.593.968-3.937 3.343-.219.453-.266 1.25-.156 2.375.125 1.125-.063 1.781-.547 1.969-.485.203-.781-.813-.906-3.032.234-2.28 1.593-4.109 4.062-5.515.656-.282 1.172-.39 1.531-.36l.422.047c1.219.125 1.797 1.203 1.75 3.235l-.281 2.765c-.266 2.438-.766 5.344-1.531 8.75a32 32 0 0 1 3.172-.297c.437.329.468.704.124 1.11-2.187.187-3.39.36-3.624.547-1.36 5.937-2.704 10.703-4.032 14.328-2.578 6.765-4.875 10.047-6.89 9.828m-.141-1.14c2.313.235 5.234-5.89 8.75-18.375.688-2.718 1.047-4.25 1.094-4.593-5.64 1.046-9.563 2.984-11.797 5.828-1.594 1.922-2.516 3.984-2.734 6.156l-.079.703c-.343 3.281.5 6.25 2.547 8.906.797.844 1.531 1.297 2.219 1.375m16.594-9.531c-.61 0-.969-.406-1.094-1.25 0-1.031.172-2.172.5-3.406v-.094h-.078c-.266.422-.938 1.031-2 1.844l-.578.156q-1.172 0-1.172-1.828c0-1.766.781-3.313 2.328-4.672q.82-.328 1.172-.328c1.219.25 1.828.672 1.828 1.25-.109.328-.328.5-.656.5-.563-.39-.953-.578-1.172-.578-1.063 0-1.844 1.218-2.328 3.656v.75c.25 0 1.5-1.156 3.75-3.5h.406c.094 0 .203.11.344.344v.156c-.844 2.828-1.25 4.656-1.25 5.5a.8.8 0 0 1 .078.344h.078c1.172-.922 2.219-2.172 3.172-3.75.531-1.172.984-1.75 1.328-1.75.391 0 .594.156.594.5-.735 1.781-2.125 3.718-4.172 5.828q-.774.328-1.078.328m3.64.922h-.421c-.079 0-.204-.11-.329-.328.766-4.844 1.297-7.25 1.579-7.25h.25c.218 0 .39.11.5.328 0 .406-.079.984-.25 1.75V26h.078q.96-2.367 2.25-3.75l.25-.156h.25c.672 0 1.031.547 1.093 1.656v2.344c.266-.328.938-1.516 2-3.594.422-.719.829-1.078 1.25-1.078.547 0 .844.437.907 1.328-.266 2.344-.407 3.922-.407 4.75.016.281.063.422.157.422.422 0 1.781-1.36 4.093-4.078h.407c.281.156.422.36.422.578-2.282 3.11-3.969 4.672-5.079 4.672-.781 0-1.171-.672-1.171-2 .062-1.016.187-2.328.421-3.922-1.265 2.297-2.093 3.703-2.5 4.25-.343.172-.562.25-.671.25-.672 0-1-.563-1-1.672l.078-2.25a.7.7 0 0 1-.078-.25c-1.157 1.766-2.438 4.344-3.829 7.75zm14.235-1.172c-.86 0-1.438-.75-1.75-2.25v-.656c0-2.516.812-4.735 2.422-6.672l.906-.328c.89.156 1.344.61 1.344 1.328 0 .86-1.094 2.031-3.25 3.5-.172.781-.25 1.61-.25 2.5 0 .734.187 1.219.578 1.422h.328c1.312 0 3.422-1.672 6.344-5a.57.57 0 0 1 .328-.094c.328.125.5.344.5.672-1.86 2.5-3.813 4.25-5.828 5.25-.641.219-1.204.328-1.672.328m.328-7c.203 0 .672-.469 1.422-1.406v-.172c0-.11-.047-.172-.172-.172-.391.14-.813.719-1.25 1.75m5.64 15.172h-.171c-.657-.14-1-.469-1-1v-.344c0-1.39 1.203-3.64 3.593-6.734-1.39-4.063-2.093-6.657-2.093-7.75 0-1.828 1.062-2.844 3.171-3.094 1.5.25 2.25.688 2.25 1.344-.109.328-.343.5-.671.5-.579-.453-1.157-.672-1.75-.672q-1.688 0-1.829 1.922c0 1.062.579 3.25 1.75 6.578h.079c2.687-3.031 4.921-4.844 6.671-5.422.391 0 .579.203.579.594 0 .281-.61.718-1.829 1.328-2.062 1.484-3.75 3.125-5.078 4.922v.078q.328 1.523.328 2.906c0 2.547-1.328 4.156-4 4.844m-.078-1.172c2-.516 3-1.797 3-3.828l-.172-1.672h-.078c-1.796 2.672-2.718 4.516-2.75 5.5"/></svg>