<svg xmlns="http://www.w3.org/2000/svg" width="90" height="17" fill="none" viewBox="0 0 90 17"><g clip-path="url(#a)"><path fill="#615efc" d="M16.875 0H0v17h16.875zm18.281 0H18.281v17h16.875zm18.282 0H36.561v17h16.876zm18.281 0H54.844v17h16.875z"/><path fill="#dcdce6" d="M90 0h-8.437v17H90z"/><path fill="#615efc" d="M81.563 0h-8.438v17h8.438z"/><path fill="#fff" d="m8.437 11.458 2.566-.655 1.072 3.329zm5.906-4.303H9.825L8.437 2.869l-1.39 4.286H2.53L6.187 9.81l-1.39 4.285 3.657-2.656 2.25-1.63zm12.375 4.303 2.566-.655 1.072 3.329zm5.906-4.303h-4.518l-1.388-4.286-1.389 4.286h-4.518l3.657 2.656-1.389 4.285 3.656-2.656 2.25-1.63zm12.375 4.303 2.566-.655 1.073 3.329zm5.906-4.303h-4.517l-1.389-4.286-1.389 4.286h-4.517l3.656 2.656-1.389 4.285 3.657-2.656 2.25-1.63zm12.375 4.303 2.567-.655 1.072 3.329zm5.906-4.303H64.67l-1.39-4.286-1.388 4.286h-4.518L61.03 9.81l-1.388 4.285 3.656-2.656 2.25-1.63zm12.376 4.303 2.566-.655 1.072 3.329zm5.906-4.303H82.95l-1.389-4.286-1.388 4.286h-4.518l3.656 2.656-1.388 4.285 3.656-2.656 2.25-1.63z"/></g><defs><clipPath id="a"><path fill="#fff" d="M0 0h90v17H0z"/></clipPath></defs></svg>