<svg xmlns="http://www.w3.org/2000/svg" width="91" height="17" fill="none" viewBox="0 0 91 17"><g clip-path="url(#a)"><path fill="#0f62fe" d="M17.063 0H0v17h17.063zm18.484 0H18.484v17h17.063zm18.484 0H36.97v17h17.06zm18.485 0H55.453v17h17.063z"/><path fill="#dcdce6" d="M91 0h-8.531v17H91z"/><path fill="#0f62fe" d="M82.469 0h-8.531v17h8.53z"/><path fill="#fff" d="m8.53 11.458 2.596-.655 1.084 3.329zm5.973-4.303H9.935L8.53 2.869 7.127 7.155H2.559L6.256 9.81l-1.404 4.285 3.696-2.656 2.275-1.63zm12.512 4.303 2.595-.655 1.084 3.329zm5.972-4.303h-4.568l-1.404-4.286-1.404 4.286h-4.568L24.74 9.81l-1.404 4.285 3.697-2.656 2.275-1.63zM45.5 11.458l2.594-.655 1.085 3.329zm5.971-4.303h-4.567l-1.405-4.286-1.404 4.286h-4.567l3.697 2.656-1.405 4.285 3.697-2.656 2.275-1.63zm12.513 4.303 2.595-.655 1.084 3.329zm5.972-4.303h-4.568l-1.404-4.286-1.404 4.286h-4.568l3.697 2.656-1.404 4.285 3.697-2.656 2.275-1.63zm12.512 4.303 2.595-.655 1.084 3.329zm5.972-4.303h-4.568l-1.404-4.286-1.404 4.286h-4.568l3.697 2.656-1.404 4.285 3.697-2.656 2.275-1.63z"/></g><defs><clipPath id="a"><path fill="#fff" d="M0 0h91v17H0z"/></clipPath></defs></svg>