<svg xmlns="http://www.w3.org/2000/svg" width="104" height="28" fill="none" viewBox="0 0 104 28"><g clip-path="url(#a)"><path fill="#111032" d="M27.332 9.924h10.53v2.154h-4.14v12.108h-2.277V12.078h-4.122V9.924zm10.08 3.935h1.947v1.993h.036q.096-.423.358-.815a3.5 3.5 0 0 1 1.46-1.258c.303-.131.615-.202.927-.202.239 0 .413.01.505.02s.184.03.285.04v2.195a6 6 0 0 0-.45-.07 4 4 0 0 0-.45-.03c-.349 0-.68.08-.991.23a2.3 2.3 0 0 0-.808.675c-.23.302-.413.664-.551 1.107s-.202.946-.202 1.52v4.911h-2.075V13.86zM52.47 24.186h-2.04v-1.44h-.037a3 3 0 0 1-1.139 1.248c-.505.312-1.019.473-1.542.473-1.24 0-2.14-.332-2.69-1.006q-.825-1.011-.826-3.05V13.86h2.075v6.33c0 .907.156 1.55.477 1.923.312.373.762.564 1.331.564.441 0 .799-.07 1.093-.222.294-.15.532-.342.707-.593.183-.242.312-.544.395-.886.082-.342.119-.715.119-1.117V13.87h2.075zm3.534-3.312c.065.665.294 1.128.689 1.4.404.26.881.402 1.441.402.193 0 .413-.02.661-.05s.487-.101.698-.192c.22-.09.395-.231.542-.412.137-.182.202-.413.193-.705a1 1 0 0 0-.294-.715 2 2 0 0 0-.698-.452 6.5 6.5 0 0 0-.973-.292c-.367-.08-.735-.171-1.111-.262a10 10 0 0 1-1.12-.342 3.3 3.3 0 0 1-.964-.544 2.34 2.34 0 0 1-.68-.865c-.174-.352-.257-.785-.257-1.309 0-.563.129-1.026.377-1.409.248-.382.569-.684.946-.916a4.1 4.1 0 0 1 1.276-.493 7 7 0 0 1 1.34-.14c.487 0 .955.06 1.395.17s.845.292 1.203.554c.358.252.652.584.89.986.24.403.386.896.45 1.47h-2.166c-.101-.544-.322-.916-.68-1.097-.358-.191-.77-.282-1.23-.282-.147 0-.321.01-.523.04s-.386.08-.57.151a1.2 1.2 0 0 0-.45.322.82.82 0 0 0-.183.554.9.9 0 0 0 .267.674c.174.171.404.312.688.433.285.11.606.211.973.292s.744.17 1.13.261c.376.091.743.212 1.11.343.368.13.689.312.974.543.284.232.514.513.688.856.175.342.266.775.266 1.278 0 .614-.128 1.127-.385 1.56a3.2 3.2 0 0 1-.992 1.037 4.4 4.4 0 0 1-1.359.583 6.2 6.2 0 0 1-1.478.181 5.8 5.8 0 0 1-1.652-.221 3.9 3.9 0 0 1-1.313-.664 3.2 3.2 0 0 1-.872-1.117c-.211-.443-.322-.977-.34-1.59h2.093zm6.85-7.015h1.57v-3.1h2.074v3.1h1.873v1.701h-1.873v5.516c0 .241.01.442.028.624.018.17.064.322.128.442q.096.182.303.272c.138.06.312.09.55.09.148 0 .295 0 .442-.01.146-.01.293-.03.44-.07v1.762c-.23.03-.459.05-.67.08a5 5 0 0 1-.67.04c-.551 0-.992-.06-1.322-.17s-.597-.283-.78-.504c-.193-.222-.313-.493-.386-.825a7 7 0 0 1-.12-1.138V15.58h-1.57v-1.72zm6.986 0h1.964v1.4h.037c.294-.605.698-1.027 1.221-1.29a3.7 3.7 0 0 1 1.699-.392c.743 0 1.386.141 1.937.433q.826.422 1.377 1.178c.367.503.633 1.087.817 1.75.184.665.275 1.38.275 2.135 0 .694-.082 1.368-.247 2.013a5.6 5.6 0 0 1-.744 1.73 3.8 3.8 0 0 1-1.267 1.198c-.514.302-1.11.453-1.809.453a4.6 4.6 0 0 1-.909-.09 3.8 3.8 0 0 1-.872-.292 3.1 3.1 0 0 1-.77-.513 3.1 3.1 0 0 1-.598-.725h-.036V28H69.84zm7.253 5.173q0-.695-.166-1.358a3.8 3.8 0 0 0-.495-1.168 2.6 2.6 0 0 0-.817-.815 2.13 2.13 0 0 0-1.13-.312c-.872 0-1.533.332-1.974.996q-.66.997-.66 2.657c0 .524.054 1.007.174 1.45.12.442.284.825.523 1.147q.345.483.826.755c.322.191.698.282 1.12.282.478 0 .873-.111 1.203-.322s.597-.494.808-.826c.211-.342.367-.724.459-1.157.083-.433.129-.876.129-1.329m3.663-9.108h2.075v2.154h-2.075zm0 3.935h2.075v10.327h-2.075zm3.93-3.935h2.074v14.262h-2.075zm8.436 14.543c-.753 0-1.423-.14-2.01-.412a4.45 4.45 0 0 1-1.497-1.128 5 5 0 0 1-.927-1.72 7.2 7.2 0 0 1-.321-2.195c0-.785.11-1.51.32-2.174a5 5 0 0 1 .928-1.72 4.24 4.24 0 0 1 1.497-1.128c.587-.272 1.257-.413 2.01-.413s1.423.141 2.01.413a4.45 4.45 0 0 1 1.497 1.127q.608.725.928 1.721c.21.665.32 1.39.32 2.174 0 .795-.11 1.53-.32 2.194a5 5 0 0 1-.928 1.721 4.24 4.24 0 0 1-1.496 1.128c-.588.271-1.258.412-2.01.412m0-1.801c.46 0 .863-.111 1.203-.322s.615-.494.835-.836a4 4 0 0 0 .487-1.167c.101-.433.156-.876.156-1.329 0-.443-.055-.875-.156-1.318a3.6 3.6 0 0 0-.487-1.168 2.6 2.6 0 0 0-.835-.825 2.24 2.24 0 0 0-1.203-.322c-.459 0-.863.11-1.202.322a2.7 2.7 0 0 0-.836.825c-.22.343-.376.725-.486 1.168a6 6 0 0 0-.156 1.318c0 .453.055.896.156 1.329.1.433.266.825.486 1.167s.496.624.836.836c.34.221.743.322 1.202.322m5.362-8.807h1.57v-3.1h2.075v3.1H104v1.701h-1.872v5.516c0 .241.009.442.027.624.019.17.064.322.129.442q.096.182.303.272c.137.06.312.09.55.09.147 0 .294 0 .441-.01s.294-.03.441-.07v1.762c-.23.03-.459.05-.67.08-.221.03-.441.04-.671.04-.55 0-.991-.06-1.322-.17-.33-.111-.596-.283-.78-.504-.193-.222-.312-.493-.386-.825a7 7 0 0 1-.119-1.138V15.58h-1.57v-1.72z"/><path fill="#615efc" d="M24.908 9.924h-9.512L12.458 0 9.511 9.924 0 9.914l7.703 6.14-2.947 9.913 7.702-6.13 7.694 6.13-2.938-9.914z"/><path fill="#005128" d="m17.876 18.297-.661-2.244-4.756 3.784z"/></g><defs><clipPath id="a"><path fill="#fff" d="M0 0h104v28H0z"/></clipPath></defs></svg>