<svg xmlns="http://www.w3.org/2000/svg" width="98" height="98" fill="none" viewBox="0 0 98 98"><path fill="#fff" d="M43.204 17.876c0-.846.686-1.532 1.532-1.532h23.948a1.531 1.531 0 0 1 0 3.063H44.736a1.53 1.53 0 0 1-1.532-1.531M30.581 21.14a1.527 1.527 0 0 0 2.166 0l4.693-4.694a1.53 1.53 0 1 0-2.165-2.165l-3.611 3.611-1.265-1.264a1.531 1.531 0 0 0-2.165 2.165zm14.155 14.6h23.948a1.531 1.531 0 0 0 0-3.062H44.736a1.531 1.531 0 0 0 0 3.062M30.58 37.637a1.526 1.526 0 0 0 2.166 0l4.693-4.693a1.53 1.53 0 1 0-2.165-2.166l-3.611 3.611-1.265-1.264a1.531 1.531 0 1 0-2.165 2.166zm60.733 27.164-6.771 3.91a4.53 4.53 0 0 1-3.469.453 4.54 4.54 0 0 1-2.776-2.127l-.186-.32-3.425 1.749c1.024 1.623.876 3.626-.024 5.173a5.4 5.4 0 0 1-1.874 1.91 4.7 4.7 0 0 1 .685 2.477c-.007 1.861-1.055 3.661-2.67 4.586a4.67 4.67 0 0 1-2.883.598 5.4 5.4 0 0 1-.729 2.376c-.888 1.526-2.524 2.63-4.405 2.58a5.4 5.4 0 0 1-.736 2.573c-.868 1.49-2.447 2.582-4.275 2.582-.832 0-1.716-.227-2.608-.746l-4.044-2.355-.787 1.119c-.985 1.401-2.43 2.18-4.012 2.18q-.219 0-.439-.02c-1.815-.163-3.487-1.316-4.29-2.95-1.706.881-3.69.56-5.155-.47-.946-.665-1.687-1.634-2.025-2.75-1.407.308-2.88-.064-4.033-.875-1.436-1.01-2.399-2.72-2.198-4.578a5.4 5.4 0 0 1-2.517-.956c-2.053-1.444-3.138-4.317-1.24-7.015l.13-.185-5.077-6.339a4.54 4.54 0 0 1-2.555 1.783 4.53 4.53 0 0 1-3.468-.453L6.685 64.8a4.577 4.577 0 0 1-1.674-6.245l11.885-20.584a4.55 4.55 0 0 1 1.431-1.522V6.013c0-.846.686-1.532 1.531-1.532H78.14c.845 0 1.53.686 1.53 1.532V36.45a4.54 4.54 0 0 1 1.432 1.522l11.884 20.584a4.577 4.577 0 0 1-1.673 6.245M21.391 7.544v28.174c.6.07 1.195.26 1.75.58l6.772 3.91a4.54 4.54 0 0 1 2.127 2.777 4.56 4.56 0 0 1 .042 2.213l8.49 3.033c3.58-3.2 6.222-4.338 11.67-3.139 5.109 1.125 9.393 1.135 13.656.014a4.56 4.56 0 0 1 .062-2.121 4.54 4.54 0 0 1 2.127-2.777l6.77-3.91a4.5 4.5 0 0 1 1.752-.58V7.544zm-4.34 57.962 11.883-20.584a1.5 1.5 0 0 0 .148-1.144 1.5 1.5 0 0 0-.7-.917l-6.771-3.91a1.51 1.51 0 0 0-2.062.552L7.665 60.087a1.51 1.51 0 0 0 .552 2.062l6.772 3.91c.346.2.752.252 1.144.147s.717-.354.917-.7m13.134 12.45 3.519-5.003c1.07-1.526-.23-2.555-.501-2.746-.272-.191-1.68-1.066-2.754.46l-3.517 5c-1.074 1.527.226 2.557.498 2.748.271.191 1.68 1.066 2.754-.458m5.014 5.109 4.916-6.99.747-1.062c1.074-1.527-.227-2.557-.498-2.748-.272-.192-1.681-1.067-2.755.46l-1.399 1.988-.001.002-3.52 5.003-1.042 1.483c-1.074 1.527.226 2.557.498 2.748.271.191 1.681 1.067 2.755-.46zm6.872 2.466.003-.004 1.764-2.507 2.034-2.892c1.073-1.527-.227-2.557-.498-2.748-.272-.19-1.68-1.066-2.753.456l-.001.002-4.916 6.989-.001.001c-1.072 1.526.228 2.555.5 2.746.271.192 1.68 1.067 2.755-.46zm7.026-1.209c-.272-.191-1.68-1.067-2.754.459l-1.764 2.508c-.448.637-.534 1.266-.255 1.869.321.692 1.076 1.223 1.835 1.29.662.06 1.225-.233 1.673-.87l1.764-2.508c1.073-1.526-.227-2.557-.499-2.748m22.224-14.927-18.935-10.96c-1.703-.984-3.385-.276-5.99.96l-.38.18c-.19.382-.381.792-.581 1.218-.983 2.102-2.098 4.483-4.026 5.524-2.27 1.225-4.295 1.412-5.703.526-.648-.408-1.72-1.422-1.615-3.63l.405-8.535a1.53 1.53 0 0 1 .465-1.027c.796-.772 1.51-1.476 2.202-2.157l.917-.901-7.365-2.631-9.577 16.588 5.254 6.561 1.552-2.206c1.896-2.697 4.967-2.647 7.02-1.204a5.4 5.4 0 0 1 1.628 1.807c1.784-1.144 3.959-.857 5.534.251 1.322.93 2.242 2.453 2.224 4.139.998.05 1.972.404 2.786.977 1.817 1.278 2.875 3.676 1.78 6.08.696.154 1.36.452 1.943.862 1.749 1.23 2.794 3.496 1.894 5.808l3.956 2.303c1.613.94 2.528-.444 2.695-.73.167-.288.919-1.765-.69-2.705l-.002-.001h-.001l-5.098-2.969a1.531 1.531 0 1 1 1.541-2.646l5.098 2.968h.001l.004.003 1.594.928c1.613.94 2.528-.444 2.695-.731s.918-1.764-.69-2.704l-.003-.001-.002-.002-6.248-3.638a1.531 1.531 0 1 1 1.54-2.647l6.251 3.64.004.002 2 1.165c.674.393 1.308.424 1.885.094.662-.379 1.126-1.176 1.128-1.939.003-.664-.338-1.2-1.011-1.592l-1.616-.941h-.001l-.002-.002-6.19-3.604a1.531 1.531 0 1 1 1.542-2.646l6.189 3.603c1.613.938 2.527-.446 2.694-.733s.917-1.766-.695-2.705m5.258-5.334L67.254 47.91c-6.43 1.815-11.979.986-15.67.173-5.39-1.186-6.712.116-12.272 5.593a417 417 0 0 1-1.785 1.752l-.377 7.93c-.025.52.076.823.187.893.259.163 1.199.137 2.617-.629 1.038-.56 1.925-2.455 2.707-4.127.284-.606.578-1.233.88-1.803a1.53 1.53 0 0 1 .712-.672l.83-.39c2.65-1.259 5.652-2.685 8.835-.847l18.22 10.545zm13.756-3.974L78.451 39.503a1.51 1.51 0 0 0-2.062-.552l-6.771 3.91c-.346.2-.595.525-.7.917s-.052.798.148 1.144L80.95 65.506c.2.346.525.595.917.7s.798.053 1.144-.147l6.772-3.91c.72-.416.968-1.341.552-2.062"/></svg>