<svg xmlns="http://www.w3.org/2000/svg" width="56" height="57" fill="none" viewBox="0 0 56 57"><path fill="#0f62fe" d="M43.75 38.125a6.13 6.13 0 0 0-6.125 6.125 6.13 6.13 0 0 0 6.125 6.125 6.13 6.13 0 0 0 6.125-6.125 6.13 6.13 0 0 0-6.125-6.125m0 10.5a4.38 4.38 0 0 1-4.375-4.375 4.38 4.38 0 0 1 4.375-4.375 4.38 4.38 0 0 1 4.375 4.375 4.38 4.38 0 0 1-4.375 4.375"/><path fill="#0f62fe" d="M43.75 41.625a2.63 2.63 0 0 0-2.625 2.625 2.63 2.63 0 0 0 2.625 2.625 2.63 2.63 0 0 0 2.625-2.625 2.63 2.63 0 0 0-2.625-2.625m0 3.5a.876.876 0 0 1-.875-.875c0-.482.393-.875.875-.875s.875.393.875.875a.876.876 0 0 1-.875.875M3.166 23.25H3.5v13.125h1.75V21.5H3.166a.54.54 0 0 1-.484-.782l2.96-5.919c.184-.368.782-.368.966 0l2.96 5.919a.54.54 0 0 1-.483.782H7v14.875h1.75V23.25h.334a2.293 2.293 0 0 0 2.05-3.315l-2.96-5.918a2.28 2.28 0 0 0-2.049-1.267c-.874 0-1.659.486-2.05 1.266l-2.958 5.919a2.293 2.293 0 0 0 2.05 3.315m13.159 2.233a2.28 2.28 0 0 0 2.049 1.267c.874 0 1.659-.486 2.05-1.266l2.959-5.919a2.293 2.293 0 0 0-2.05-3.315H21V3.125h-1.75V18h2.084a.54.54 0 0 1 .484.782l-2.96 5.919c-.184.368-.782.368-.966 0l-2.96-5.919a.54.54 0 0 1 .483-.782H17.5V3.125h-1.75V16.25h-.334a2.293 2.293 0 0 0-2.05 3.315z"/><path fill="#0f62fe" d="M50.75 1.375h-21a4.38 4.38 0 0 0-4.375 4.375v23.663a11.42 11.42 0 0 0-8.707 5.215l-.043-.003c-3.558 0-6.767 2.197-8.096 5.443A6.132 6.132 0 0 0 .875 46 6.13 6.13 0 0 0 7 52.125h28.539l.476.476a2.685 2.685 0 0 0 3.116.499.9.9 0 0 1 .765-.034q.17.075.34.141a.9.9 0 0 1 .522.567 2.69 2.69 0 0 0 2.556 1.851h.872a2.685 2.685 0 0 0 2.556-1.852.9.9 0 0 1 .52-.565q.173-.066.343-.14a.9.9 0 0 1 .764.033 2.685 2.685 0 0 0 3.116-.5l.617-.615a2.68 2.68 0 0 0 .499-3.116.9.9 0 0 1-.034-.765q.075-.17.141-.341a.9.9 0 0 1 .567-.522 2.69 2.69 0 0 0 1.85-2.556V5.75a4.38 4.38 0 0 0-4.375-4.375m-21 1.75h21a2.63 2.63 0 0 1 2.625 2.625V41.3c-.035-.013-.066-.03-.102-.042a.9.9 0 0 1-.565-.52 8 8 0 0 0-.14-.344.9.9 0 0 1 .033-.764 2.68 2.68 0 0 0-.5-3.116l-.476-.476V6.625c0-.965-.785-1.75-1.75-1.75h-19.25c-.965 0-1.75.785-1.75 1.75v23.062a11 11 0 0 0-1.75-.278V5.75a2.63 2.63 0 0 1 2.625-2.625m6.633 32.47a11.44 11.44 0 0 0-5.758-5.332v-2.638h19.25v7.507a2.7 2.7 0 0 0-1.506.267.9.9 0 0 1-.765.034 10 10 0 0 0-.34-.141.9.9 0 0 1-.522-.567 2.69 2.69 0 0 0-2.556-1.85h-.872a2.685 2.685 0 0 0-2.556 1.852.9.9 0 0 1-.521.565 9 9 0 0 0-.342.14.9.9 0 0 1-.764-.033 2.68 2.68 0 0 0-2.748.195m13.492-23.72h-19.25v-5.25h19.25zm-19.25 1.75h19.25v5.25h-19.25zm0 7h19.25v5.25h-19.25zM2.625 46a4.38 4.38 0 0 1 6.098-4.022l.909.39.277-.95a7.03 7.03 0 0 1 6.716-5.043 7 7 0 0 1 5.821 3.111l1.455-.972a8.74 8.74 0 0 0-5.265-3.648 9.66 9.66 0 0 1 7.614-3.741c3.826 0 7.308 2.31 8.824 5.79a2.68 2.68 0 0 0-.174 2.715.9.9 0 0 1 .034.765q-.075.17-.141.341a.9.9 0 0 1-.567.522 2.69 2.69 0 0 0-1.851 2.556v.872c0 1.164.744 2.192 1.852 2.556.264.086.47.276.565.52q.066.173.14.343a.9.9 0 0 1-.033.764c-.241.478-.322 1-.267 1.506H7A4.38 4.38 0 0 1 2.625 46m50.75-1.314a.94.94 0 0 1-.648.893 2.64 2.64 0 0 0-1.65 1.55 9 9 0 0 1-.114.279 2.64 2.64 0 0 0 .076 2.25.94.94 0 0 1-.174 1.089l-.617.617a.94.94 0 0 1-1.089.174 2.64 2.64 0 0 0-2.25-.076q-.137.06-.28.115a2.64 2.64 0 0 0-1.55 1.651.94.94 0 0 1-.893.647h-.872a.94.94 0 0 1-.893-.648 2.64 2.64 0 0 0-1.55-1.65 9 9 0 0 1-.279-.114 2.6 2.6 0 0 0-1.038-.217c-.413 0-.828.098-1.212.292a.94.94 0 0 1-1.089-.174l-.617-.617a.94.94 0 0 1-.174-1.089 2.64 2.64 0 0 0 .076-2.25 11 11 0 0 1-.115-.28 2.64 2.64 0 0 0-1.651-1.55.94.94 0 0 1-.647-.892v-.872a.94.94 0 0 1 .647-.893 2.64 2.64 0 0 0 1.65-1.55q.057-.142.115-.279a2.64 2.64 0 0 0-.076-2.25.94.94 0 0 1 .174-1.09l.616-.616a.935.935 0 0 1 1.09-.174 2.64 2.64 0 0 0 2.25.076q.139-.06.28-.114a2.65 2.65 0 0 0 1.55-1.651.94.94 0 0 1 .893-.648h.872a.94.94 0 0 1 .893.648 2.64 2.64 0 0 0 1.55 1.65q.14.055.279.114a2.65 2.65 0 0 0 2.25-.076.94.94 0 0 1 1.09.174l.616.616a.94.94 0 0 1 .174 1.09 2.64 2.64 0 0 0-.076 2.25q.06.137.115.28a2.64 2.64 0 0 0 1.651 1.55.94.94 0 0 1 .647.893z"/><path fill="#0f62fe" d="M32.375 8.375h1.75v1.75h-1.75zm3.5 0h1.75v1.75h-1.75zm-3.5 14h1.75v1.75h-1.75zm3.5 0h1.75v1.75h-1.75zm10.5-7h1.75v1.75h-1.75zm-3.5 0h1.75v1.75h-1.75zm3.5 14h1.75v1.75h-1.75zm-3.5 0h1.75v1.75h-1.75zm-16.625 3.5c-.667 0-1.33.083-1.969.248l.437 1.695a6.12 6.12 0 0 1 7.465 4.4l1.694-.436a7.87 7.87 0 0 0-7.627-5.907m-9.625 5.25a5.265 5.265 0 0 0-5.145 4.2l1.715.35a3.51 3.51 0 0 1 3.43-2.8c1.111 0 2.132.51 2.8 1.4l1.4-1.05a5.21 5.21 0 0 0-4.2-2.1"/></svg>