<svg xmlns="http://www.w3.org/2000/svg" width="60" height="60" fill="none" viewBox="0 0 60 60"><path fill="#0f62fe" d="M34.005 27.093a4.035 4.035 0 0 0-4.024-4.036 4.035 4.035 0 0 0-4.025 4.036 4.04 4.04 0 0 0 3.003 3.905l.02 4.278a1.013 1.013 0 0 0 1.026 1.006h.005c.567 0 1.023-.444 1.02-1.01l-.02-4.276a4.04 4.04 0 0 0 2.995-3.903m-4.024 1.986a1.98 1.98 0 0 1-1.973-1.986c0-1.094.885-1.985 1.973-1.985s1.973.89 1.973 1.985a1.98 1.98 0 0 1-1.973 1.986"/><path fill="#0f62fe" d="M56.15 25.898c-1.767 0-3.26 1.153-3.71 2.82h-6.903c.405-1.923.7-3.846.928-5.897h5.01c.566 0 .96-.42.96-.986V12.04a3.84 3.84 0 0 0 2.863-3.707c0-2.12-1.711-3.846-3.834-3.846S47.59 6.212 47.59 8.333c0 1.763 1.256 3.252 2.795 3.704v8.732h-3.708c.15-1.538.268-3.195.379-4.829.044-.654-.546-1.153-1.181-1.055-1.218.233-2.45.409-3.692.409-4.127 0-7.92-1.872-11.532-5.664q-.77-.657-1.515.028c-3.836 4.5-9.158 6.371-15.01 5.227-.637-.125-1.264.4-1.22 1.056.112 1.659.23 3.29.375 4.828h-3.41v-8.732c1.54-.452 2.809-1.94 2.809-3.704a3.857 3.857 0 0 0-3.856-3.846 3.845 3.845 0 0 0-3.841 3.846A3.82 3.82 0 0 0 7.82 12.04v9.795c0 .566.437.985 1.003.985h4.665c.226 2.052.515 3.975.914 5.898H7.56c-.45-1.667-1.943-2.82-3.71-2.82A3.85 3.85 0 0 0 0 29.744a3.85 3.85 0 0 0 3.85 3.845c1.767 0 3.259-1.153 3.71-2.82h7.332c.55 2.056 1.326 3.963 2.191 5.898H8.824c-.566 0-1.003.42-1.003.986v10.309a3.816 3.816 0 0 0-2.835 3.706 3.847 3.847 0 0 0 3.844 3.845c2.123 0 3.858-1.725 3.858-3.845 0-1.766-1.15-3.257-2.816-3.706v-9.244h8.385c2.627 4.103 6.382 6.992 11.38 8.856q.362.108.724.002c4.952-1.895 8.68-4.884 11.299-8.858h8.725v9.244c-1.539.45-2.793 1.94-2.793 3.706 0 2.12 1.744 3.845 3.867 3.845 2.122 0 3.825-1.725 3.825-3.845a3.83 3.83 0 0 0-2.848-3.706v-10.31c0-.566-.395-.985-.962-.985h-8.633c.882-1.93 1.656-3.844 2.204-5.898h7.395c.45 1.667 1.943 2.82 3.71 2.82A3.85 3.85 0 0 0 60 29.744a3.85 3.85 0 0 0-3.85-3.846M49.682 8.333a1.798 1.798 0 0 1 3.597 0 1.798 1.798 0 0 1-3.598 0m-42.662 0a1.798 1.798 0 0 1 3.597 0 1.798 1.798 0 0 1-3.597 0M3.85 31.538a1.8 1.8 0 0 1-1.799-1.794 1.798 1.798 0 0 1 3.597 0c0 .99-.806 1.794-1.798 1.794m6.773 20.13a1.798 1.798 0 0 1-3.597 0 1.798 1.798 0 0 1 3.597 0m42.65 0a1.798 1.798 0 0 1-3.597 0 1.798 1.798 0 0 1 3.597 0M15.043 17.11c5.534.713 11.188-1.01 14.913-5.274 4.032 3.909 9.29 6.213 14.963 5.266-.958 13.18-2.934 23.613-14.928 28.392-12.002-4.667-13.982-15.136-14.948-28.384M56.15 31.538a1.8 1.8 0 0 1-1.798-1.794 1.798 1.798 0 0 1 3.597 0c0 .99-.807 1.794-1.799 1.794"/></svg>