<svg xmlns="http://www.w3.org/2000/svg" width="56" height="56" fill="none" viewBox="0 0 56 56"><path fill="#0f62fe" d="M54.782 19.923c0 3.73-1.134 7.307-3.278 10.344a17.9 17.9 0 0 1-6.437 5.61l.212.037a.875.875 0 1 1-.298 1.725l-3.194-.553a.875.875 0 0 1-.593-1.325l1.552-2.488a.875.875 0 0 1 1.485.926l-.126.203c5.402-2.726 8.927-8.341 8.927-14.48a.875.875 0 1 1 1.75 0m-35.032.875a.875.875 0 0 0 .875-.875c0-6.16 3.519-11.76 8.93-14.483l-.13.206a.875.875 0 0 0 1.485.926l1.553-2.488a.875.875 0 0 0-.593-1.325l-3.194-.553a.875.875 0 1 0-.298 1.725l.212.036c-5.893 3.05-9.715 9.198-9.715 15.955 0 .484.391.875.875.875m17.078-17.08c6.16 0 11.76 3.52 14.483 8.93l-.206-.128a.875.875 0 0 0-.926 1.485l2.487 1.552a.875.875 0 0 0 1.326-.593l.552-3.194a.875.875 0 1 0-1.724-.298l-.037.212c-3.05-5.893-9.2-9.715-15.955-9.715a.875.875 0 1 0 0 1.75m-13.071 23.33a.875.875 0 0 0-.28-1.205l-2.487-1.553a.875.875 0 0 0-1.326.593l-.552 3.194a.875.875 0 1 0 1.724.298l.037-.21a17.99 17.99 0 0 0 15.955 9.713.875.875 0 1 0 0-1.75 16.23 16.23 0 0 1-14.483-8.93l.206.13c.41.255.95.13 1.206-.28M50.844 43.75c.544 1.907-.565 4.122-2.326 4.647L29.455 54.09a7.3 7.3 0 0 1-2.083.31c-1.254 0-2.489-.338-3.648-1.008l-10.703-6.18-1.702.457.47 1.818a2.25 2.25 0 0 1-1.614 2.741l-2.914.754a2.24 2.24 0 0 1-1.704-.24 2.23 2.23 0 0 1-1.037-1.374L.603 36.232a2.253 2.253 0 0 1 1.615-2.741l2.914-.754a2.25 2.25 0 0 1 2.74 1.614l.244.941 7.703-2.077c2.016-.543 4.363-.913 6.487.466.525.34 1.134.764 1.779 1.214 1.854 1.293 4.163 2.902 6.626 4.062q.054.026.103.057c1.634 1.06 2.182 3.157 1.247 4.776q-.26.45-.598.786.699.009 1.416-.188l10.424-2.836c5.954-1.619 7.277 1.273 7.54 2.198m-40.75 6.175L6.179 34.789a.51.51 0 0 0-.608-.358l-2.914.754a.506.506 0 0 0-.358.608L6.214 50.93a.5.5 0 0 0 .231.304c.116.068.25.087.378.054l2.914-.754a.506.506 0 0 0 .358-.608m11.758-7.973a.875.875 0 0 1 .875-1.515c.605.35 4.24 2.52 5.637 3.201.718.24 1.613.262 2.182-.723.468-.81.192-1.834-.64-2.403-2.573-1.22-4.928-2.861-6.822-4.182-.66-.46-1.23-.857-1.73-1.181-1.543-1.002-3.353-.71-5.08-.244l-7.72 2.081 2.326 8.988 2.038-.546a.87.87 0 0 1 .664.087l11.017 6.36c1.39.804 2.856.984 4.355.537l19.063-5.692c.847-.252 1.424-1.51 1.144-2.49-.408-1.428-2.425-1.798-5.398-.99l-10.425 2.837c-1.61.438-3.178.3-4.794-.423a31 31 0 0 1-.855-.398M4.714 35.781a.935.935 0 1 0-.218 1.857.935.935 0 0 0 .218-1.857m27.34-27.93a.875.875 0 0 1 .974-.18l.7.31a6.7 6.7 0 0 1 1.089-.45l.275-.716a.875.875 0 0 1 .816-.56h1.84c.362 0 .686.223.816.56l.276.715q.563.178 1.087.451l.7-.31a.88.88 0 0 1 .975.18l1.3 1.3a.875.875 0 0 1 .181.975l-.31.7q.273.524.45 1.088l.715.275c.338.13.56.455.56.817v1.839a.875.875 0 0 1-.56.817l-.715.275a6.6 6.6 0 0 1-.45 1.087l.31.701a.875.875 0 0 1-.18.974l-1.301 1.3a.87.87 0 0 1-.974.182l-.7-.312q-.525.275-1.088.452l-.276.714a.875.875 0 0 1-.816.56h-1.84a.875.875 0 0 1-.816-.56l-.275-.715a6.7 6.7 0 0 1-1.088-.45l-.7.31a.875.875 0 0 1-.975-.18l-1.3-1.301a.875.875 0 0 1-.181-.974l.311-.7a6.7 6.7 0 0 1-.451-1.088l-.715-.275a.875.875 0 0 1-.56-.817v-1.84c0-.361.223-.686.56-.816l.715-.275a6.7 6.7 0 0 1 .451-1.088l-.311-.7a.875.875 0 0 1 .18-.974zm.362 2.113.246.555a.88.88 0 0 1-.054.814 4.9 4.9 0 0 0-.598 1.442.88.88 0 0 1-.537.614l-.566.218v.637l.566.218c.269.103.47.333.537.614.12.51.322.995.598 1.442a.88.88 0 0 1 .054.814l-.246.554.451.451.555-.246a.88.88 0 0 1 .813.054c.448.276.933.477 1.443.599.28.066.51.267.614.536l.217.566h.638l.217-.565a.88.88 0 0 1 .615-.537 5 5 0 0 0 1.442-.598.88.88 0 0 1 .814-.055l.554.246.451-.45-.246-.555a.88.88 0 0 1 .054-.814 4.9 4.9 0 0 0 .598-1.442.88.88 0 0 1 .537-.614l.566-.218v-.638l-.566-.217a.88.88 0 0 1-.536-.614 4.9 4.9 0 0 0-.599-1.443.88.88 0 0 1-.054-.814l.246-.554-.451-.45-.554.246a.88.88 0 0 1-.814-.055 4.9 4.9 0 0 0-1.443-.598.88.88 0 0 1-.614-.537l-.217-.565h-.638l-.218.565a.88.88 0 0 1-.613.537c-.51.121-.995.322-1.442.598a.88.88 0 0 1-.814.055l-.555-.247zm.33 3.961a4.09 4.09 0 0 1 4.082-4.082 4.087 4.087 0 0 1 4.083 4.082 4.087 4.087 0 0 1-4.083 4.083 4.087 4.087 0 0 1-4.083-4.082m1.75 0a2.335 2.335 0 0 0 2.332 2.333 2.335 2.335 0 0 0 2.333-2.332 2.335 2.335 0 0 0-2.333-2.333 2.335 2.335 0 0 0-2.333 2.332m-7.63 18.217a.875.875 0 0 1-.875-.875v-8.986c0-.484.392-.875.875-.875h4.493c.483 0 .875.391.875.875v8.986a.875.875 0 0 1-.875.875zm.875-1.75h2.743v-7.236h-2.743zm11.392 2.844h-4.492a.875.875 0 0 1-.875-.875v-8.987c0-.483.391-.875.875-.875h4.492c.484 0 .875.392.875.875v8.987a.875.875 0 0 1-.875.875m-.875-8.987h-2.742v7.237h2.742zm8.532-2.843c.483 0 .875.391.875.875v8.986a.875.875 0 0 1-.875.875h-4.493a.875.875 0 0 1-.875-.875v-8.986c0-.484.392-.875.875-.875zm-.875 1.75H43.17v7.236h2.743z"/></svg>