<svg xmlns="http://www.w3.org/2000/svg" width="60" height="60" fill="none" viewBox="0 0 60 60"><path fill="#0f62fe" d="M14.667 43.6a2.335 2.335 0 0 0-2.258-1.766 2.34 2.34 0 0 0-2.337 2.337 2.34 2.34 0 0 0 2.337 2.337c1.09 0 2.002-.755 2.258-1.767h6.46a.57.57 0 0 0 .571-.57v-4.857q.984.142 2.008.248V50.38h-5.89a2.335 2.335 0 0 0-2.258-1.766 2.34 2.34 0 0 0-2.337 2.336 2.34 2.34 0 0 0 2.337 2.337c1.09 0 2.002-.754 2.258-1.767h6.46a.57.57 0 0 0 .57-.57V39.67q1.158.098 2.336.15v16.35h-5.89a2.335 2.335 0 0 0-2.258-1.766 2.34 2.34 0 0 0-2.337 2.337 2.34 2.34 0 0 0 2.337 2.337c1.09 0 2.002-.755 2.258-1.767h6.46a.57.57 0 0 0 .57-.57v-16.88a63 63 0 0 0 3.357 0v16.88c0 .315.256.57.57.57h6.46a2.335 2.335 0 0 0 2.259 1.767 2.34 2.34 0 0 0 2.337-2.338 2.34 2.34 0 0 0-2.337-2.336c-1.09 0-2.002.754-2.258 1.766h-5.89V39.82a61 61 0 0 0 2.335-.15v11.282c0 .315.255.57.57.57h6.461a2.335 2.335 0 0 0 2.258 1.767 2.34 2.34 0 0 0 2.337-2.337 2.34 2.34 0 0 0-2.337-2.337c-1.09 0-2.002.755-2.258 1.767h-5.89V39.56a52 52 0 0 0 2.008-.247v4.857c0 .315.255.57.57.57h6.46a2.336 2.336 0 0 0 2.26 1.767 2.34 2.34 0 0 0 2.336-2.337 2.34 2.34 0 0 0-2.337-2.337c-1.09 0-2.002.754-2.258 1.767h-5.89v-4.467c5.094-.867 8.94-2.474 8.94-4.749v-6.592c0-.757-.434-1.439-1.191-2.045.76-.608 1.191-1.293 1.191-2.052v-6.59c0-.758-.434-1.44-1.191-2.046.76-.608 1.191-1.292 1.191-2.052v-6.59c0-3.572-9.472-5.499-18.384-5.499S11.617 2.845 11.617 6.417v6.591c0 .759.43 1.442 1.188 2.05-.757.607-1.188 1.29-1.188 2.047v6.591c0 .76.43 1.443 1.19 2.05-.758.608-1.19 1.29-1.19 2.047v6.592c0 2.275 3.846 3.882 8.94 4.75V43.6zm-2.258 1.767a1.197 1.197 0 0 1 0-2.393 1.198 1.198 0 0 1 0 2.393m3.149 6.78a1.197 1.197 0 1 1 .001-2.395 1.197 1.197 0 0 1-.001 2.396m3.476 5.791a1.198 1.198 0 0 1 0-2.393 1.198 1.198 0 0 1 0 2.393m21.934-2.393a1.198 1.198 0 0 1 0 2.393c-.66 0-1.197-.537-1.197-1.196 0-.66.537-1.197 1.197-1.197m3.476-5.79a1.197 1.197 0 0 1 0 2.393 1.198 1.198 0 0 1 0-2.393m3.149-6.78a1.197 1.197 0 1 1-.001 2.395 1.197 1.197 0 0 1 .001-2.396M30 2.057c10.162 0 17.244 2.297 17.244 4.359S40.163 10.775 30 10.775 12.757 8.478 12.757 6.417c0-2.062 7.082-4.359 17.244-4.359m-17.244 10.95V8.425c2.774 2.28 10.182 3.49 17.244 3.49s14.47-1.21 17.244-3.49v4.583c0 2.062-7.082 4.358-17.244 4.358s-17.244-2.296-17.244-4.358m1.035 2.699c3.31 1.832 9.898 2.8 16.209 2.8 6.31 0 12.898-.968 16.208-2.8.673.459 1.036.934 1.036 1.398 0 2.062-7.082 4.359-17.244 4.359s-17.244-2.297-17.244-4.359c0-.464.363-.94 1.035-1.398m-1.035 7.99v-4.583c2.774 2.279 10.182 3.49 17.244 3.49s14.47-1.211 17.244-3.49v4.582c0 2.062-7.082 4.359-17.244 4.359s-17.244-2.297-17.244-4.359m1.037 2.7c3.311 1.83 9.897 2.798 16.207 2.798 6.306 0 12.889-.966 16.201-2.796.672.458 1.043.931 1.043 1.395 0 2.061-7.082 4.358-17.244 4.358s-17.244-2.297-17.244-4.358c0-.464.366-.94 1.037-1.398m-1.037 7.988V29.8c2.774 2.28 10.182 3.49 17.244 3.49s14.47-1.21 17.244-3.49v4.583c0 2.062-7.082 4.358-17.244 4.358s-17.244-2.297-17.244-4.358"/><path fill="#0f62fe" d="M38.801 36.146a37 37 0 0 0 2.181-.447.57.57 0 1 0-.264-1.109 36 36 0 0 1-2.113.432.57.57 0 0 0 .196 1.124m4.333-1.034a19 19 0 0 0 1.879-.665.57.57 0 0 0-.443-1.05c-.525.22-1.118.43-1.763.623a.57.57 0 0 0 .327 1.092m-4.333-9.654a36 36 0 0 0 2.182-.447.57.57 0 1 0-.265-1.11c-.662.159-1.373.304-2.113.433a.57.57 0 0 0 .196 1.124m4.333-1.036c.69-.207 1.321-.43 1.879-.666a.57.57 0 1 0-.443-1.05 17 17 0 0 1-1.763.623.57.57 0 0 0 .327 1.093m-4.333-9.652a36 36 0 0 0 2.182-.446.57.57 0 1 0-.265-1.11c-.662.159-1.373.304-2.113.433a.57.57 0 0 0 .196 1.124m4.333-1.037c.688-.206 1.32-.43 1.879-.666a.57.57 0 1 0-.443-1.05c-.522.22-1.115.43-1.763.624a.57.57 0 0 0 .327 1.092"/></svg>