<svg xmlns="http://www.w3.org/2000/svg" width="60" height="60" fill="none" viewBox="0 0 60 60"><path fill="#0f62fe" d="M35.554 50.42h-.722v-.72c0-.2-.076-.375-.182-.527a.92.92 0 0 0-.76-.415.94.94 0 0 0-.937.937c0 .007.004.012.004.018v1.644c0 .518.42.937.937.937h1.66a.937.937 0 1 0 0-1.875zM33.89 38.87a.94.94 0 0 0 .938-.938v-3.928a.94.94 0 0 0-.937-.938.94.94 0 0 0-.938.938v3.928a.94.94 0 0 0 .938.938m-.938 6.91a.94.94 0 0 0 .938.937.94.94 0 0 0 .937-.937v-3.928a.94.94 0 0 0-.937-.938.94.94 0 0 0-.938.938zm2.999-18.194c-.06-.03-.128-.04-.197-.056-.067-.015-.13-.042-.203-.042h-1.658a.94.94 0 0 0-.937.938v1.66a.938.938 0 0 0 1.875 0v-.723h.722a.932.932 0 0 0 .4-1.777zm4.528-.098h-1.658a.938.938 0 0 0 0 1.875h.721v.722a.938.938 0 0 0 1.875 0v-1.66a.94.94 0 0 0-.937-.937m-.001 13.426a.94.94 0 0 0-.937.938v3.928a.94.94 0 0 0 .938.937.94.94 0 0 0 .937-.937v-3.928a.94.94 0 0 0-.937-.938m-.001-7.848a.94.94 0 0 0-.937.938v3.928a.94.94 0 0 0 .938.938.94.94 0 0 0 .937-.938v-3.928a.94.94 0 0 0-.937-.938m.001 15.692a.94.94 0 0 0-.938.937v.725h-.712l-.01-.002a.94.94 0 0 0 .001 1.877h1.659c.517 0 .937-.42.937-.937v-1.663a.94.94 0 0 0-.937-.937M26.106 24.172H19.52a.94.94 0 0 0-.937.937v26.25c0 .519.42.938.938.938h6.586c.518 0 .938-.42.938-.938V25.11a.94.94 0 0 0-.938-.937m-.937 26.25h-4.712V26.047h4.712zM6.803 50.42h-.721v-.712l.003-.013a.94.94 0 0 0-.938-.937.93.93 0 0 0-.858.564.9.9 0 0 0-.082.377v1.659c0 .518.42.937.938.937h1.658a.937.937 0 1 0 0-1.876M5.146 46.68a.94.94 0 0 0 .938-.938v-3.957a.94.94 0 0 0-.938-.937.94.94 0 0 0-.937.937v3.957a.94.94 0 0 0 .937.938m1.657-11.453H5.145a.937.937 0 0 0-.938.937v1.66a.937.937 0 1 0 1.875 0v-.722h.702l.013.002a.93.93 0 0 0 .623-.245.93.93 0 0 0 .32-.694.94.94 0 0 0-.937-.938m4.929 0h-1.66a.937.937 0 1 0 0 1.875h.722v.71l-.003.014a.94.94 0 0 0 .938.938.9.9 0 0 0 .388-.09.93.93 0 0 0 .552-.85v-1.66a.937.937 0 0 0-.937-.937m-.004 13.531a.94.94 0 0 0-.938.937l.003.013v.711h-.715l-.01-.002a.936.936 0 0 0-.661 1.6c.17.171.405.277.665.277h1.66a.937.937 0 0 0 .937-.937v-1.659a.93.93 0 0 0-.277-.665.93.93 0 0 0-.664-.275m.001-2.078a.94.94 0 0 0 .937-.938v-3.957a.94.94 0 0 0-.937-.937.94.94 0 0 0-.938.937v3.957a.94.94 0 0 0 .938.938m43.127-29.145H48.27a.94.94 0 0 0-.937.938v32.884c0 .519.42.938.938.938h6.586a.937.937 0 0 0 .938-.938V18.473a.94.94 0 0 0-.938-.938M53.92 50.42h-4.712V19.41h4.712z"/><path fill="#0f62fe" d="M53.129 13.16a.938.938 0 0 0 1.875 0V8.64a.94.94 0 0 0-.937-.937h-4.45a.938.938 0 0 0 0 1.875h2.223L37.023 24.682l-13.75-7.77a.94.94 0 0 0-1.1.13L7.798 30.457a.938.938 0 1 0 1.279 1.37l13.872-12.944 13.778 7.787a.94.94 0 0 0 1.13-.16L53.13 10.942z"/><path fill="#0f62fe" d="M36.37 20.88a5.884 5.884 0 0 0 5.878-5.878 5.883 5.883 0 0 0-5.879-5.877 5.883 5.883 0 0 0-5.877 5.877 5.884 5.884 0 0 0 5.877 5.878m0-9.88a4.007 4.007 0 0 1 4.003 4.003 4.01 4.01 0 0 1-4.004 4.003 4.007 4.007 0 0 1-4.002-4.003 4.007 4.007 0 0 1 4.002-4.002"/><path fill="#0f62fe" d="M35.663 15.604a.94.94 0 0 0 .731.352h2.02a.938.938 0 0 0 0-1.875h-1.57l-1.028-1.284a.937.937 0 1 0-1.464 1.173z"/></svg>