<svg xmlns="http://www.w3.org/2000/svg" width="48" height="56" fill="none" viewBox="0 0 48 56"><path fill="#0f62fe" d="M30.765 32.474c1.352-.545 1.54-.822 1.547-2.283l.002-.231c.013-1.746-.154-1.993-1.783-2.643-.099-.053-.614-.17-.797-.608-.217-.514.176-1.053.336-1.527.406-.978.31-1.476-.428-2.215l-.357-.356c-1.262-1.264-1.531-1.314-3.198-.615-2.204.924-1.08-2.396-3.382-2.469a25 25 0 0 0-.721-.003c-1.84 0-2.074.156-2.78 1.855-.902 2.167-2.435-.956-4.104.59-.085.08-.494.487-.555.547-1.293 1.262-1.357 1.552-.692 3.111.034.108.358.67.187 1.081-.368.894-2.547.554-2.609 2.396-.004.127-.004.237-.006.738-.02 1.828.14 2.082 1.727 2.715l.227.091c.698.281.865.673.581 1.363-.147.36-.244.603-.36.865-.318.715-.177 1.407.396 1.951q.14.136.277.276l.187.19c1.236 1.261 1.524 1.322 3.097.65l.184-.078c1.485-.64 1.334.914 1.932 1.663.25.313.624.586 1.053.769.385.165.758.078 1.03.081 1.842 0 2.081-.166 2.788-1.88.32-.776.706-.941 1.484-.627 1.341.572 1.78.775 2.867-.177.526-.462 1.416-1.456 1.415-2.25v-.126c-.494-1.123-.663-1.408-.545-2.124.067-.415.482-.492 1-.72m-2.264.514c-.171 1.049.084 1.581.508 2.54-.153.438-1.044 1.406-1.442 1.546-.244-.043-.51-.157-.79-.277-.09-.007-2.374-1.316-3.417 1.213-.435 1.054-.449 1.088-1.525 1.088-.383 0-.526.03-.606.021-.692-.292-.634-.588-.869-1.147-.46-1.107-1.204-1.54-1.994-1.54-.65 0-1.198.294-1.311.334-1.158.496-.91.331-2.178-.867-.178-.17-.203-.287-.107-.504.09-.203.151-.352.373-.894.558-1.352.078-2.491-1.287-3.041-1.247-.475-1.165-.396-1.149-1.945 0-.448-.032-.587.23-.7q.452-.193.913-.379c1.386-.564 1.857-1.712 1.275-3.09-.487-1.14-.536-1.084.314-1.914.06-.06.469-.466.531-.525.194-.177.261-.124.88.14.117.011 2.449 1.44 3.535-1.176.444-1.067.444-1.067 1.596-1.067.8-.002.907-.039 1.018.222.109.253.214.508.345.823.607 1.467 1.742 1.951 3.239 1.327 1.121-.473 1.006-.45 2.153.695.415.415.373.287-.139 1.515-.533 1.28-.017 2.527 1.257 3.039 1.195.477 1.189.417 1.18 1.525-.001.176.007.9-.05 1.004-.077.095-.72.341-.839.39-.62.243-1.47.578-1.644 1.644"/><path fill="#0f62fe" d="m25.672 26.9-3.052-1.76a1.5 1.5 0 0 0-1.501 0l-3.052 1.76c-.463.268-.75.766-.75 1.301v3.524c0 .535.287 1.033.75 1.3l3.052 1.764a1.51 1.51 0 0 0 1.501-.001l3.052-1.763c.464-.268.752-.766.752-1.3V28.2c0-.534-.288-1.032-.752-1.3m-.528 4.825a.22.22 0 0 1-.112.192l-3.05 1.762a.23.23 0 0 1-.223 0l-3.052-1.762a.22.22 0 0 1-.11-.192V28.2c0-.079.042-.153.11-.192l3.052-1.762a.22.22 0 0 1 .221 0l3.052 1.762a.22.22 0 0 1 .112.192z"/><path fill="#0f62fe" d="M21.493 28.2a.5.5 0 0 0-.566 0c-.214.152-.199.306-1.373 2.782-.14.32.046.53.323.53.36 0 .377-.245.59-.713h1.484c.177.382.221.713.613.713.311 0 .438-.245.304-.53-1.208-2.539-1.17-2.633-1.375-2.782m-.29.86h.01l.45 1.074h-.909zm2.11-.973c-.162.138-.167.454 0 .595.162.137.521.142.69 0 .165-.14.16-.457 0-.595-.082-.07-.529-.137-.69 0m.035 1.144c-.175.19-.078.43-.105 1.821 0 .306.153.45.417.45.282 0 .417-.171.417-.45-.03-1.382.074-1.628-.11-1.82-.073-.077-.483-.15-.619 0M7.917 14.705v-1.604a.64.64 0 0 0-1.28 0v1.604c0 .828.674 1.503 1.502 1.503h13.09v1.661a.64.64 0 0 0 1.28 0v-1.661H35.6c.829 0 1.503-.675 1.503-1.503v-1.604a.64.64 0 0 0-1.28 0v1.604c0 .123-.1.223-.223.223H8.14a.223.223 0 0 1-.222-.223M1.716 8.436l5.221 3.277c.208.13.471.13.68 0l5.222-3.277a.64.64 0 0 0 0-1.085l-1.162-.729a.64.64 0 0 0-.68 1.085l.298.187-4.018 2.52-4.017-2.52.462-.29a.641.641 0 0 0-.68-1.085l-1.326.832a.64.64 0 0 0 0 1.085"/><path fill="#0f62fe" d="M6.937 7.79c.208.13.471.13.68 0l5.222-3.277a.64.64 0 0 0 0-1.085L7.617.152a.64.64 0 0 0-.68 0L1.716 3.428a.64.64 0 0 0 0 1.085zm.34-6.34 4.018 2.52-4.018 2.521-4.017-2.52zM33.11 6.722a.64.64 0 0 0-.883-.203l-1.326.832a.64.64 0 0 0 0 1.085l5.222 3.277c.207.13.47.13.68 0l5.222-3.277a.64.64 0 0 0 0-1.085l-1.163-.729a.64.64 0 0 0-.68 1.085l.298.187-4.017 2.52-4.018-2.52.462-.29a.64.64 0 0 0 .203-.882"/><path fill="#0f62fe" d="M36.123.152 30.9 3.428a.64.64 0 0 0 0 1.085l5.222 3.277c.207.13.47.13.68 0l5.222-3.277a.64.64 0 0 0 0-1.085L36.803.152a.64.64 0 0 0-.68 0m.34 6.34L32.445 3.97l4.018-2.52 4.017 2.52zm6.719 35.464H32.84a.22.22 0 0 1-.222-.222v-5.965a.64.64 0 0 0-1.28 0v5.965c0 .828.673 1.502 1.502 1.502h10.342a.22.22 0 0 1 .222.222v5.683a3 3 0 0 0-2.359 2.926 3 3 0 0 0 2.998 2.998 3 3 0 0 0 2.998-2.998 3 3 0 0 0-2.357-2.925v-5.684c0-.828-.674-1.502-1.502-1.502m2.58 10.111a1.72 1.72 0 0 1-1.72 1.718 1.72 1.72 0 0 1-1.717-1.718c0-.943.764-1.71 1.705-1.717l.014.003.013-.003a1.72 1.72 0 0 1 1.704 1.717M18.607 40.523a.64.64 0 0 0-.64.64v5.621a3 3 0 0 0-2.361 2.926 3 3 0 0 0 2.998 2.998A3 3 0 0 0 21.6 49.71a3 3 0 0 0-2.354-2.924v-5.623a.64.64 0 0 0-.64-.64m1.714 9.187a1.72 1.72 0 0 1-1.717 1.718 1.72 1.72 0 0 1-1.718-1.718 1.719 1.719 0 0 1 3.435 0m6.135-8.612a.64.64 0 0 0-.64.64v8.288a3 3 0 0 0-2.358 2.925 3 3 0 0 0 2.997 2.998 3 3 0 0 0 2.999-2.998 3 3 0 0 0-2.358-2.925v-8.288a.64.64 0 0 0-.64-.64m1.718 11.853a1.72 1.72 0 0 1-1.718 1.718 1.72 1.72 0 0 1-1.718-1.718c0-.947.77-1.718 1.718-1.718a1.72 1.72 0 0 1 1.718 1.718M3.955 54.733a3 3 0 0 0 2.997-2.998 3 3 0 0 0-2.358-2.925v-4.702a.22.22 0 0 1 .222-.221h7.62c.829 0 1.502-.675 1.502-1.503V38.98a.64.64 0 0 0-1.28 0v3.404c0 .12-.102.222-.222.222h-7.62c-.828 0-1.502.674-1.502 1.502v4.702a3 3 0 0 0-2.357 2.925 3 3 0 0 0 2.998 2.998M3.94 50.02l.014.003.014-.003a1.72 1.72 0 0 1 1.704 1.716 1.72 1.72 0 0 1-1.717 1.718 1.72 1.72 0 0 1-1.718-1.718A1.72 1.72 0 0 1 3.94 50.02"/></svg>