<svg xmlns="http://www.w3.org/2000/svg" width="58" height="60" fill="none" viewBox="0 0 58 60"><path fill="#0f62fe" d="M51.155 33.664c0-.928.582-1.773 1.437-2.1L56 30.236a.67.67 0 0 0 .345-.936l-3.618-6.664c.21-1.154.31-2.327.3-3.49C52.938 9.681 45.492 1.7 36.083.963 31.037.573 26.228 2.19 22.464 5.5h-8.972a.68.68 0 0 0-.564.31l-5.4 8.435H2.783c-.364 0-.664.3-.664.664s.3.664.664.664H7.9a.68.68 0 0 0 .563-.31l5.4-8.436h16.319l4.336 1.891a2.6 2.6 0 0 0-.127.764 2.65 2.65 0 0 0 2.645 2.645 2.64 2.64 0 0 0 2.646-2.645 2.64 2.64 0 0 0-2.646-2.646 2.6 2.6 0 0 0-1.818.737l-4.627-2.019a.7.7 0 0 0-.264-.054h-5.7a16.9 16.9 0 0 1 11.346-3.21c8.727.683 15.627 8.092 15.718 16.874.009 1.163-.1 2.345-.328 3.509a.64.64 0 0 0 .173.563l3.282 6.028-2.71 1.054a3.57 3.57 0 0 0-2.29 3.346v5.89a.993.993 0 0 1-.99.991h-6.01c-.364 0-.664.3-.664.664v5.527H26.337V34.673a.66.66 0 0 0-.336-.573 16 16 0 0 1-3.11-2.327c-.008-.01-.008-.01-.017-.018a7 7 0 0 1-.491-.5h5.09L31.91 37.9c.127.182.327.3.554.3h3.391a2.63 2.63 0 0 0 2.546 1.973 2.65 2.65 0 0 0 2.645-2.646 2.65 2.65 0 0 0-2.645-2.645 2.64 2.64 0 0 0-2.546 1.973H32.82l-3.746-5.61h5.628a2.63 2.63 0 0 0 2.545 1.973 2.65 2.65 0 0 0 2.646-2.645 2.65 2.65 0 0 0-2.646-2.646 2.64 2.64 0 0 0-2.545 1.973H13.483l-5.864-8.336a.68.68 0 0 0-.545-.282H2.783c-.364 0-.664.3-.664.663s.3.664.664.664h3.945l5.864 8.336a.68.68 0 0 0 .545.282h7.482c.473.573.973 1.146 1.364 1.491a17.7 17.7 0 0 0 3.018 2.3v11.7c-1.4.036-2.518 1.182-2.518 2.646 0 .454.127.881.336 1.254h-7.718l.136-.79a8 8 0 0 0 1.391-.592l1.073.773a.68.68 0 0 0 .872-.073l1.864-1.945a.67.67 0 0 0 .073-.837l-.764-1.145c.255-.49.446-.982.591-1.49l1.291-.237a.66.66 0 0 0 .546-.655v-2.745c0-.318-.228-.6-.546-.655l-1.282-.236a8.3 8.3 0 0 0-.59-1.491l.763-1.145a.67.67 0 0 0-.073-.837l-1.863-1.945a.68.68 0 0 0-.873-.082l-1.073.773a6.7 6.7 0 0 0-1.39-.591L15.01 33.3a.67.67 0 0 0-.655-.555h-2.627c-.327 0-.6.237-.655.555l-.236 1.373a7 7 0 0 0-1.4.6L8.364 34.5a.67.67 0 0 0-.872.082l-1.855 1.945a.66.66 0 0 0-.073.828l.764 1.145a7.8 7.8 0 0 0-.6 1.49l-1.273.237a.66.66 0 0 0-.545.655v2.745c0 .318.227.6.545.655l1.282.236c.146.51.337 1.01.591 1.491l-.764 1.145a.66.66 0 0 0 .073.828l1.855 1.945a.665.665 0 0 0 .872.082l1.073-.773q.667.369 1.4.6l.136.791H1.464c-.363 0-.663.3-.663.664s.3.664.663.664h44.41c.609 0 1.109.5 1.109 1.109s-.5 1.109-1.11 1.109H13.901c-.018 0-.027.009-.037.009a.5.5 0 0 0-.172.036c-.018.01-.046.01-.064.027a.7.7 0 0 0-.19.128.68.68 0 0 0-.2.472c0 .364.3.664.663.664h31.982c1.345 0 2.445-1.1 2.445-2.445 0-1.346-1.1-2.446-2.445-2.446h-.219c.21-.373.337-.8.337-1.254v-.073c0-1.4-1.127-2.536-2.518-2.573v-4.873h5.354a2.33 2.33 0 0 0 2.327-2.327v-5.854zM37.037 8.182c.718 0 1.31.59 1.31 1.309 0 .718-.592 1.309-1.31 1.309a1.315 1.315 0 0 1-1.309-1.31c0-.726.582-1.308 1.31-1.308m1.364 28.045c.718 0 1.309.591 1.309 1.31 0 .718-.591 1.308-1.31 1.308a1.309 1.309 0 0 1 .001-2.618m-1.155-6.945c.718 0 1.31.59 1.31 1.309 0 .718-.592 1.309-1.31 1.309s-1.309-.591-1.309-1.31a1.31 1.31 0 0 1 1.31-1.308M9.756 47.909a.67.67 0 0 0-.755.018l-.955.691-1.082-1.136.691-1.037a.67.67 0 0 0 .019-.709 6.5 6.5 0 0 1-.755-1.9.66.66 0 0 0-.527-.518l-1.155-.209v-1.636l1.155-.21a.65.65 0 0 0 .527-.508c.145-.664.41-1.31.764-1.91a.67.67 0 0 0-.019-.709l-.7-1.045 1.082-1.136.955.69a.66.66 0 0 0 .754.019 5.9 5.9 0 0 1 1.818-.773.67.67 0 0 0 .5-.536l.21-1.237h1.5l.209 1.236a.66.66 0 0 0 .5.537 5.9 5.9 0 0 1 1.809.773.69.69 0 0 0 .754-.019l.955-.69 1.09 1.136-.69 1.036a.67.67 0 0 0-.018.7c.354.61.609 1.255.754 1.918a.65.65 0 0 0 .527.51l1.155.209V43.1l-1.164.218a.66.66 0 0 0-.527.518 6.5 6.5 0 0 1-.745 1.91.67.67 0 0 0 .018.7l.69 1.036-1.09 1.136-.955-.69a.66.66 0 0 0-.754-.019 5.9 5.9 0 0 1-1.81.773.67.67 0 0 0-.5.536l-.208 1.236h-1.51l-.209-1.236a.66.66 0 0 0-.5-.536 5.9 5.9 0 0 1-1.809-.773m34.918 1.418v.073a1.26 1.26 0 0 1-1.264 1.255H25.074c-.7 0-1.264-.564-1.264-1.328 0-.69.564-1.254 1.264-1.254H43.41c.69 0 1.264.563 1.264 1.254"/><path fill="#0f62fe" d="M48.555 19.335c0 .363.3.663.663.663s.664-.3.664-.663c0-5.391-2.89-10.437-7.554-13.182a.657.657 0 0 0-.91.236.657.657 0 0 0 .237.91c4.254 2.508 6.9 7.117 6.9 12.036M36.565 4.173a.666.666 0 0 0-.173 1.318c.282.037.564.082.837.137a.6.6 0 0 0 .127.009.67.67 0 0 0 .655-.537.664.664 0 0 0-.528-.781c-.309-.055-.609-.1-.918-.146m4.517 2.045a.677.677 0 0 0-.346-.882c-.281-.127-.572-.236-.863-.345a.663.663 0 0 0-.855.39.663.663 0 0 0 .391.855c.264.1.528.21.791.319a.7.7 0 0 0 .264.054.65.65 0 0 0 .618-.39m-16.327 6.134a2.63 2.63 0 0 0 2.546 1.973 2.65 2.65 0 0 0 2.645-2.645 2.65 2.65 0 0 0-2.645-2.646 2.64 2.64 0 0 0-2.546 1.973H15.82a.68.68 0 0 0-.545.282l-4.819 6.854a.3.3 0 0 0-.036.082c-.009.027-.027.046-.036.073a.68.68 0 0 0 0 .463c.009.028.018.046.036.073s.018.055.036.082l4.819 6.854a.68.68 0 0 0 .545.282h25.09a2.63 2.63 0 0 0 2.545 1.973 2.65 2.65 0 0 0 2.646-2.645 2.64 2.64 0 0 0-2.646-2.646 2.64 2.64 0 0 0-2.545 1.973H28.665l3.69-5.518h3.81a2.63 2.63 0 0 0 2.518 1.872 2.65 2.65 0 0 0 2.645-2.645 2.65 2.65 0 0 0-2.645-2.646 2.65 2.65 0 0 0-2.582 2.073H32a.66.66 0 0 0-.555.3L27.064 24.7h-10.9l-3.881-5.518h9.536a2.63 2.63 0 0 0 2.546 1.972 2.65 2.65 0 0 0 2.645-2.645 2.65 2.65 0 0 0-2.646-2.646 2.64 2.64 0 0 0-2.545 1.973h-9.536l3.882-5.518h8.59zm2.546-1.972c.718 0 1.309.59 1.309 1.309 0 .718-.59 1.309-1.31 1.309a1.31 1.31 0 0 1 0-2.618m11.373 6.754c.718 0 1.309.591 1.309 1.31 0 .717-.591 1.308-1.31 1.308-.718 0-1.309-.59-1.309-1.309 0-.718.591-1.309 1.31-1.309m4.781 6.955c.719 0 1.31.59 1.31 1.309 0 .718-.591 1.309-1.31 1.309a1.316 1.316 0 0 1-1.309-1.31c0-.717.591-1.308 1.31-1.308m-19.081-6.855c.718 0 1.309.591 1.309 1.31 0 .717-.591 1.308-1.31 1.308-.718 0-1.309-.59-1.309-1.309a1.31 1.31 0 0 1 1.31-1.309M8.673 19.21c.363 0 .663-.3.663-.664 0-.363-.3-.663-.663-.663h-2.51c-.363 0-.663.3-.663.663s.3.664.664.664zm8.181 23.08c0-2.181-1.718-3.954-3.818-3.954-2.109 0-3.827 1.773-3.827 3.955 0 2.181 1.718 3.954 3.827 3.954 2.1 0 3.818-1.773 3.818-3.954m-6.327 0c0-1.445 1.118-2.627 2.5-2.627 1.373 0 2.491 1.182 2.491 2.628 0 1.445-1.118 2.627-2.49 2.627-1.374 0-2.5-1.182-2.5-2.627m-.936-3.356a.617.617 0 0 0-.872-.873.615.615 0 0 0 .009.864.606.606 0 0 0 .863.01m6.864 6.865a.615.615 0 0 0 .01.863.615.615 0 0 0 .863.01.617.617 0 0 0-.873-.873m-8.893-4.048a.61.61 0 1 0 0 1.218.61.61 0 0 0 .619-.6.625.625 0 0 0-.619-.618M18.5 42.972a.61.61 0 0 0 .619-.6.619.619 0 0 0-1.236 0c0 .337.281.6.618.6m-9.773 2.83a.617.617 0 0 0 0 .873.615.615 0 0 0 .863-.01.615.615 0 0 0 .01-.863.617.617 0 0 0-.873 0m8.6-6.875a.615.615 0 0 0 .009-.864.617.617 0 0 0-.873.873.6.6 0 0 0 .864-.009m-4.29 8.292a.619.619 0 0 0 0 1.236.61.61 0 0 0 .6-.618.61.61 0 0 0-.6-.618m0-9.709a.61.61 0 0 0 .6-.618.61.61 0 0 0-.6-.619.619.619 0 0 0 0 1.237m25.736 20.244H19.228a.667.667 0 0 0 0 1.336h19.545a.667.667 0 0 0 0-1.336m17.765-7.098H51.21c-.364 0-.664.3-.664.664s.3.663.664.663h5.327c.363 0 .663-.3.663-.663s-.3-.664-.663-.664m-45.937 3.6a.64.64 0 0 0-.718.146.65.65 0 0 0-.19.472.7.7 0 0 0 .19.473.65.65 0 0 0 .473.191.7.7 0 0 0 .473-.19.65.65 0 0 0 .19-.474.7.7 0 0 0-.19-.472.9.9 0 0 0-.227-.146"/></svg>