<svg xmlns="http://www.w3.org/2000/svg" width="60" height="58" fill="none" viewBox="0 0 60 58"><path fill="#0f62fe" d="M19.818 57.37h-3.645a.66.66 0 0 1-.491-.209.7.7 0 0 1-.191-.509l.7-13.118c.01-.21.118-.4.29-.527a.65.65 0 0 1 .592-.091c.618.19 1.236.2 1.827.009a.683.683 0 0 1 .882.618l.7 13.091v.046a.657.657 0 0 1-.664.69m-2.927-1.363h2.21l-.628-11.591a3.8 3.8 0 0 1-.964-.01zm14.435-38.826h-.064a.696.696 0 0 1-.618-.745c.873-9.219-.772-12.346-2.3-13.355-1.582-1.036-3.445-.018-3.463-.01a.7.7 0 0 1-.519.065C17.79 1.28 12.872 1.69 9.735 4.345 5.126 8.235 5.89 15.835 5.9 15.908a.69.69 0 0 1-.6.755.68.68 0 0 1-.755-.61c-.036-.336-.863-8.372 4.3-12.754C12.308.363 17.562-.155 24.472 1.745c.718-.319 2.745-1.028 4.609.19 2.69 1.755 3.672 6.682 2.918 14.619a.674.674 0 0 1-.673.627"/><path fill="#0f62fe" d="M28.19 23.126h-.164a.676.676 0 0 1-.654-.71c.009-.372.29-.654.709-.654.945.055 1.845-.318 2.51-.963.572-.555.89-1.264.89-1.982a2.945 2.945 0 0 0-2.946-2.946.687.687 0 0 1-.681-.681c0-.373.309-.682.681-.682a4.32 4.32 0 0 1 4.31 4.309c0 1.1-.464 2.154-1.31 2.964a4.86 4.86 0 0 1-3.345 1.345m-20.354.001a4.86 4.86 0 0 1-3.345-1.345c-.846-.818-1.31-1.873-1.31-2.973a4.32 4.32 0 0 1 4.31-4.309c.372 0 .682.31.682.682s-.31.682-.682.682a2.95 2.95 0 0 0-2.946 2.945c0 .727.318 1.427.891 1.982a3.4 3.4 0 0 0 2.51.963c.417 0 .69.282.708.655a.693.693 0 0 1-.654.71q-.095.01-.164.008"/><path fill="#0f62fe" d="M16.072 32.535a.7.7 0 0 1-.273-.055c-2.327-1-4.382-2.6-5.927-4.627a14.8 14.8 0 0 1-2.573-5.237c-.01-.027-.01-.054-.018-.081a14.8 14.8 0 0 1-.482-3.755v-4.409c0-.11.027-.21.073-.31.027-.045 2.445-4.7 8.181-2.6.3.11.628.074.919-.108l4.272-2.491c.6-.346 1.282-.446 1.928-.255 1.681.437 5.745 1.864 6.99 5.546a.6.6 0 0 1 .037.218v4.41c0 1.29-.164 2.554-.482 3.763a.2.2 0 0 1-.018.072 14.89 14.89 0 0 1-8.482 9.864.683.683 0 1 1-.545-1.254 13.53 13.53 0 0 0 7.7-8.91.2.2 0 0 1 .018-.072c.3-1.11.454-2.273.454-3.464v-4.29c-1.072-2.983-4.563-4.183-6.027-4.564a1.14 1.14 0 0 0-.89.118l-4.264 2.49a2.41 2.41 0 0 1-2.082.21c-4.118-1.5-6.028 1.163-6.419 1.809v4.227c0 1.191.155 2.355.455 3.464.01.027.01.054.018.082a13.5 13.5 0 0 0 2.318 4.7 13.6 13.6 0 0 0 5.382 4.2c.346.145.51.545.355.9a.66.66 0 0 1-.618.409m5.836 11.79a.67.67 0 0 1-.473-.191l-1.118-1.091a.68.68 0 0 1-.01-.964.686.686 0 0 1 .965-.009l.636.618c.273-.29.645-.718 1.036-1.236.137-.173.282-.364.419-.564l.063-.1q.164-.242.327-.5c.937-1.527 1.41-2.954 1.41-4.245v-.11c-.01-.063-.019-.18-.028-.29v-.064c-.1-.027-.2-.054-.309-.072l-.109-.01c-.027 0-.045-.009-.073-.009l-1.481-.236a.66.66 0 0 1-.464-.2.686.686 0 0 1 .582-1.164h.045l1.537.246c.018 0 .036.009.054.009l.127.018c.028 0 .082.018.11.018.281.073.563.146.827.228.281.09.545.372.545.663.01.064 0 .191-.027.373 0 .182.009.29.027.41v.19c0 1.545-.545 3.218-1.609 4.964q-.177.283-.355.554l-.072.11a35 35 0 0 1-.455.617c-.845 1.128-1.618 1.837-1.645 1.864a.8.8 0 0 1-.482.173m-7.854.001a.7.7 0 0 1-.464-.182c-.036-.027-.8-.736-1.655-1.873a9 9 0 0 1-.436-.59l-.082-.128c-.118-.182-.245-.363-.363-.563-.81-1.319-1.318-2.591-1.5-3.782-.01-.037-.01-.073-.01-.11-.027-.345-.045-.681-.063-.963l-.018-.3v-.118c0-.037.009-.1.009-.155 0-.145-.01-.309-.018-.409a.675.675 0 0 1 .482-.727l.418-.127c.018-.01.036-.01.054-.019.01 0 .018-.009.037-.009.009 0 .018-.009.027-.009l.282-.09c.036-.01.063-.019.1-.028l1.772-.264a.69.69 0 0 1 .773.573.68.68 0 0 1-.573.773l-1.545.227a.5.5 0 0 1-.11.036s-.063.019-.154.028h-.009l-.109.027c-.018.01-.045.01-.073.018 0 .037 0 .073-.009.11v.108l.01.264c.018.273.036.61.063.973.155.972.6 2.072 1.318 3.245.11.182.218.346.328.51l.072.108c.127.182.264.364.4.537.391.527.764.945 1.046 1.245l.627-.609a.686.686 0 0 1 .964.01c.263.272.254.7-.01.963l-1.109 1.082a.62.62 0 0 1-.472.218"/><path fill="#0f62fe" d="M10.218 37.782a.68.68 0 0 1-.664-.545 6 6 0 0 1-.109-1.191c0-.064 0-.136.01-.21v-.008a.7.7 0 0 1 .208-.51.682.682 0 0 1 1.164.445l.018.31c.018.273.037.61.064.973a.675.675 0 0 1-.591.727c-.036.01-.073.01-.1.01m4.935 5.463a.665.665 0 0 1-.682-.682c0-.182.073-.364.2-.49l2.837-2.737a.68.68 0 0 1 .963.018c.264.273.255.7-.018.964l-2.818 2.736a.7.7 0 0 1-.482.19m7.474 14.116h-2.855a.687.687 0 0 1-.682-.682c0-.372.31-.681.682-.681h2.482c3.09-5.237 3.29-17.691 3.29-20.291a.68.68 0 0 1-.363-.8.67.67 0 0 1 .845-.464c.155.046.3.09.446.146.263.1.436.345.436.627.01.645.164 15.909-3.709 21.845a.7.7 0 0 1-.573.3"/><path fill="#0f62fe" d="m34.373 57.371-11.746-.009a.687.687 0 0 1-.682-.681c0-.373.31-.682.682-.682l11.055.009v-9.955c0-4.536-3.082-8.627-7.682-10.2a.685.685 0 0 1-.427-.863.685.685 0 0 1 .863-.428c5.146 1.755 8.6 6.373 8.6 11.491v10.628a.66.66 0 0 1-.663.69m-18.193.002h-2.409a.67.67 0 0 1-.563-.3c-1.782-2.636-3.018-9.336-3.673-19.918a.69.69 0 0 1 .636-.727c.373-.028.7.263.728.636C11.653 49.237 13.053 54.1 14.153 56h2.027a.687.687 0 0 1 0 1.373"/><path fill="#0f62fe" d="M13.78 57.374H1.59a.687.687 0 0 1-.682-.682V46.055c0-5.3 3.618-9.972 9.01-11.627a.68.68 0 0 1 .854.455.68.68 0 0 1-.455.854c-4.809 1.473-8.045 5.618-8.045 10.318v9.946H13.78c.373 0 .682.309.682.682 0 .372-.31.69-.682.69"/><path fill="#0f62fe" d="M5.38 54.646H4.317a.687.687 0 0 1-.682-.681v-5.428c0-.372.309-.681.682-.681.372 0 .681.309.681.681v4.746h.382c.373 0 .682.309.682.682 0 .372-.31.681-.682.681m3.983-.001H8.145a.687.687 0 0 1-.682-.682c0-.373.309-.682.682-.682h1.209c.373 0 .682.31.682.682s-.3.682-.673.682M17.99 40.5a.6.6 0 0 1-.209-.037c-4.218-1.336-5.518-5.536-5.572-5.718a.7.7 0 0 1 .09-.582.65.65 0 0 1 .51-.29q.42-.03.854-.046l1.682-2.437a.686.686 0 0 1 .864-.227l.4.182c.463.209.909.409 1.372.545.564-.163 1.118-.409 1.691-.663.01-.01.027-.01.037-.018.081-.037.136-.064.2-.091a.69.69 0 0 1 .781.272l1.61 2.428c.309.009.618.027.936.054a.674.674 0 0 1 .573.9l-.646-.227.636.236c-.263.727-1.745 4.446-5.609 5.664a.32.32 0 0 1-.2.054m-4.136-5.319c.536 1.128 1.782 3.082 4.136 3.91 2.328-.819 3.591-2.746 4.173-3.91-.3 0-.627-.054-.8-.309l-1.49-2.236c-.564.245-1.128.472-1.728.627a.74.74 0 0 1-.346 0c-.6-.154-1.145-.39-1.663-.627l-1.555 2.263c-.154.219-.445.282-.727.282m36.354 1.056a.8.8 0 0 1-.246-.046.695.695 0 0 1-.436-.654l.136-5.237H36.48a2.534 2.534 0 0 1-2.527-2.527V16.699a2.534 2.534 0 0 1 2.527-2.527h20.073a2.534 2.534 0 0 1 2.527 2.527v11.073a2.534 2.534 0 0 1-2.527 2.527h-.845l-5 5.7a.63.63 0 0 1-.5.236m-13.728-20.7c-.645 0-1.163.527-1.163 1.163v11.073c0 .645.527 1.164 1.163 1.164h13.882a.67.67 0 0 1 .491.209c.127.136.2.309.191.49l-.1 4.055 3.964-4.518a.7.7 0 0 1 .509-.236h1.154c.646 0 1.164-.528 1.164-1.164V16.699c0-.645-.527-1.164-1.164-1.164z"/><path fill="#0f62fe" d="M42.58 27.401h-3.345a.687.687 0 0 1-.682-.682v-4.127c0-.373.309-.682.682-.682h3.345c.373 0 .682.31.682.682v4.127a.68.68 0 0 1-.682.682m-2.664-1.364h1.982v-2.763h-1.982zm8.284 1.361h-3.346a.687.687 0 0 1-.682-.682v-5.91c0-.372.309-.681.682-.681h3.345c.373 0 .682.31.682.682v5.909a.68.68 0 0 1-.682.682m-2.674-1.364h1.982V21.49h-1.982zm8.284 1.364h-3.346a.687.687 0 0 1-.682-.682v-8.8c0-.372.31-.682.682-.682h3.346c.372 0 .681.31.681.682v8.8c0 .382-.3.682-.681.682m-2.664-1.364h1.982v-7.436h-1.982zM17.999 44.435q-.67-.002-1.328-.209a5.35 5.35 0 0 1-1.99-1.172.68.68 0 0 1 0-.964l2.836-2.755a.69.69 0 0 1 .954 0l2.8 2.737a.7.7 0 0 1 .21.5.7.7 0 0 1-.228.49c-.6.528-1.218.91-1.845 1.119a.6.6 0 0 1-.11.045 4.3 4.3 0 0 1-1.3.21m-1.8-1.927c.236.146.536.3.881.418a2.9 2.9 0 0 0 1.691.037.3.3 0 0 1 .1-.037q.437-.133.873-.418l-1.764-1.727z"/><path fill="#0f62fe" d="M15.153 43.246a.665.665 0 0 1-.682-.682c0-.182.073-.364.2-.49l2.837-2.737a.68.68 0 0 1 .963.018c.264.273.255.7-.018.964l-2.818 2.736a.7.7 0 0 1-.482.19m39.656 14.129h-20.1a.67.67 0 0 1-.518-.246.72.72 0 0 1-.155-.554L36.727 41a.675.675 0 0 1 .673-.563h20.1c.2 0 .39.09.518.245a.72.72 0 0 1 .154.554l-2.69 15.573a.684.684 0 0 1-.673.564M35.518 56.01h18.718l2.455-14.209H37.972z"/><path fill="#0f62fe" d="M46.108 51.68a2.786 2.786 0 0 1-2.782-2.773 2.782 2.782 0 0 1 5.564 0 2.78 2.78 0 0 1-2.782 2.773m0-4.191a1.42 1.42 0 0 0-1.418 1.418 1.418 1.418 0 0 0 2.836-.001 1.43 1.43 0 0 0-1.418-1.417"/></svg>