<svg xmlns="http://www.w3.org/2000/svg" width="60" height="60" fill="none" viewBox="0 0 60 60"><path fill="#0f62fe" d="M51.563 15.938a.94.94 0 0 0 .662-.275l3.75-3.75a.94.94 0 0 0 .275-.663V7.327a2.81 2.81 0 0 0 1.875-2.64 2.816 2.816 0 0 0-2.812-2.812A2.816 2.816 0 0 0 52.5 4.688a2.81 2.81 0 0 0 1.875 2.64v3.534l-3.2 3.2H39.812a19 19 0 0 0-2.1-1.14 1 1 0 0 0-.213-.058V8.826l3.2-3.201h1.66A2.81 2.81 0 0 0 45 7.5a2.816 2.816 0 0 0 2.813-2.812A2.816 2.816 0 0 0 45 1.874a2.81 2.81 0 0 0-2.64 1.875h-2.047a.94.94 0 0 0-.663.275l-3.75 3.75a.94.94 0 0 0-.275.662v5.785l-.62.662a16 16 0 0 0-1.773-.475l-.548-2.345a.94.94 0 0 0-.821-.72c-.315-.031-.618-.031-.925-.046v-3.97a2.81 2.81 0 0 0 1.875-2.64A2.816 2.816 0 0 0 30 1.874a2.816 2.816 0 0 0-2.812 2.813 2.81 2.81 0 0 0 1.875 2.64v3.97c-.308.016-.612.015-.926.046-.4.04-.73.329-.821.72l-.548 2.345q-.902.187-1.772.475l-.621-.663V8.438a.94.94 0 0 0-.275-.663l-3.75-3.75a.94.94 0 0 0-.663-.275H17.64A2.81 2.81 0 0 0 15 1.875a2.816 2.816 0 0 0-2.812 2.813A2.816 2.816 0 0 0 15 7.5a2.81 2.81 0 0 0 2.64-1.875h1.66l3.2 3.2v4.04a1 1 0 0 0-.213.057c-.723.328-1.418.72-2.1 1.14H8.826l-3.201-3.2V7.327A2.81 2.81 0 0 0 7.5 4.688a2.816 2.816 0 0 0-2.812-2.812 2.816 2.816 0 0 0-2.813 2.813 2.81 2.81 0 0 0 1.875 2.64v3.922c0 .248.098.488.275.663l3.75 3.75a.94.94 0 0 0 .662.274h10.31l.656 2.16c-.459.41-.897.847-1.305 1.306l-2.273-.69a.935.935 0 0 0-1.033.348 19 19 0 0 0-1.014 1.564H10.14A2.81 2.81 0 0 0 7.5 18.75a2.816 2.816 0 0 0-2.812 2.813A2.816 2.816 0 0 0 7.5 24.375a2.81 2.81 0 0 0 2.64-1.875h2.724a.93.93 0 0 0 .272.858l1.748 1.637a16 16 0 0 0-.475 1.773l-2.345.548a.94.94 0 0 0-.72.821c-.031.315-.031.616-.047.925h-3.97a2.81 2.81 0 0 0-2.64-1.875A2.816 2.816 0 0 0 1.876 30a2.816 2.816 0 0 0 2.813 2.813 2.81 2.81 0 0 0 2.64-1.876h3.97c.016.31.016.61.047.926.04.4.329.73.72.821l2.345.548q.186.902.475 1.772l-1.748 1.637a.93.93 0 0 0-.272.859h-2.724A2.81 2.81 0 0 0 7.5 35.625a2.816 2.816 0 0 0-2.812 2.813A2.816 2.816 0 0 0 7.5 41.25a2.81 2.81 0 0 0 2.64-1.875h3.64q.466.805 1.012 1.563a.94.94 0 0 0 1.034.349l2.272-.69q.616.691 1.306 1.306l-.658 2.16H8.438a.94.94 0 0 0-.663.274l-3.75 3.75a.94.94 0 0 0-.275.663v3.922a2.81 2.81 0 0 0-1.875 2.64 2.816 2.816 0 0 0 2.813 2.813A2.816 2.816 0 0 0 7.5 55.313a2.81 2.81 0 0 0-1.875-2.64v-3.535l3.2-3.2h11.362c.68.42 1.376.812 2.1 1.14.069.03.14.044.213.059v4.037l-3.2 3.201h-1.66A2.81 2.81 0 0 0 15 52.5a2.816 2.816 0 0 0-2.812 2.813A2.816 2.816 0 0 0 15 58.125a2.81 2.81 0 0 0 2.64-1.875h2.047a.94.94 0 0 0 .663-.275l3.75-3.75a.94.94 0 0 0 .275-.663v-5.784l.62-.662q.87.288 1.773.475l.548 2.345c.09.391.422.68.821.72.315.031.616.031.925.047v3.97a2.81 2.81 0 0 0-1.875 2.64A2.816 2.816 0 0 0 30 58.126a2.816 2.816 0 0 0 2.813-2.813 2.81 2.81 0 0 0-1.876-2.64v-3.97c.31-.016.612-.016.926-.047.4-.04.73-.329.821-.72l.548-2.345q.902-.187 1.772-.475l.621.663v5.783c0 .249.098.488.275.663l3.75 3.75a.94.94 0 0 0 .663.275h2.047A2.81 2.81 0 0 0 45 58.125a2.816 2.816 0 0 0 2.813-2.812A2.816 2.816 0 0 0 45 52.5a2.81 2.81 0 0 0-2.64 1.875H40.7l-3.2-3.2v-4.038c.071-.014.143-.028.213-.059a19 19 0 0 0 2.1-1.14h11.361l3.201 3.2v3.535a2.81 2.81 0 0 0-1.875 2.64 2.816 2.816 0 0 0 2.813 2.812 2.816 2.816 0 0 0 2.812-2.812 2.81 2.81 0 0 0-1.875-2.64V48.75a.94.94 0 0 0-.275-.663l-3.75-3.75a.94.94 0 0 0-.663-.275h-10.31l-.655-2.16q.691-.616 1.306-1.305l2.271.69a.94.94 0 0 0 1.033-.348q.546-.759 1.014-1.564h3.639a2.81 2.81 0 0 0 2.64 1.875 2.816 2.816 0 0 0 2.813-2.812 2.816 2.816 0 0 0-2.813-2.813 2.81 2.81 0 0 0-2.64 1.875h-2.724a.93.93 0 0 0-.272-.858l-1.748-1.637q.288-.87.475-1.773l2.345-.548a.94.94 0 0 0 .72-.821c.031-.315.031-.616.047-.925h3.97a2.81 2.81 0 0 0 2.64 1.875A2.816 2.816 0 0 0 58.126 30a2.816 2.816 0 0 0-2.813-2.812 2.81 2.81 0 0 0-2.64 1.875h-3.97c-.016-.31-.016-.612-.047-.926a.94.94 0 0 0-.72-.821l-2.345-.548q-.187-.902-.475-1.772l1.748-1.637a.93.93 0 0 0 .272-.859h2.724a2.81 2.81 0 0 0 2.64 1.875 2.816 2.816 0 0 0 2.813-2.812A2.816 2.816 0 0 0 52.5 18.75a2.81 2.81 0 0 0-2.64 1.875h-3.64a19 19 0 0 0-1.012-1.563.94.94 0 0 0-1.034-.349l-2.272.69q-.616-.691-1.306-1.305l.656-2.16zm3.75-12.188a.938.938 0 0 1 0 1.875.94.94 0 0 1-.938-.937c0-.517.42-.938.938-.938M45 3.75a.939.939 0 0 1 0 1.875.94.94 0 0 1-.937-.937c0-.517.42-.938.937-.938M15 5.625a.94.94 0 0 1-.937-.937.938.938 0 0 1 1.875 0 .94.94 0 0 1-.938.937M4.688 3.75a.938.938 0 0 1 0 1.875.94.94 0 0 1-.938-.937c0-.517.42-.938.938-.938M7.5 22.5a.94.94 0 0 1-.937-.937.938.938 0 0 1 1.875 0 .94.94 0 0 1-.938.937m0 16.875a.94.94 0 0 1-.937-.937.938.938 0 0 1 1.875 0 .94.94 0 0 1-.938.937M4.688 56.25a.94.94 0 0 1-.938-.937.939.939 0 0 1 1.875 0c0 .516-.42.937-.937.937m10.312 0a.94.94 0 0 1-.937-.937.938.938 0 0 1 1.875 0 .94.94 0 0 1-.938.937m30-1.875a.939.939 0 0 1 0 1.875.94.94 0 0 1-.937-.937c0-.517.42-.938.937-.938m10.313 1.875a.94.94 0 0 1-.938-.937.939.939 0 0 1 1.875 0c0 .516-.42.937-.937.937M52.5 37.5a.939.939 0 0 1 0 1.875.94.94 0 0 1-.937-.937c0-.517.42-.938.937-.938m0-16.875a.939.939 0 0 1 0 1.875.94.94 0 0 1-.937-.937c0-.517.42-.938.937-.938M30 3.75a.939.939 0 0 1 0 1.875.94.94 0 0 1-.937-.937c0-.517.42-.938.937-.938M4.688 30.938A.94.94 0 0 1 3.75 30a.938.938 0 1 1 .938.938M30 56.25a.94.94 0 0 1-.937-.937.938.938 0 0 1 1.875 0 .94.94 0 0 1-.938.937m25.313-27.187a.938.938 0 0 1 0 1.875.94.94 0 0 1-.938-.938c0-.517.42-.937.938-.937m-14.447-7.989c.24.293.632.41.996.301l2.204-.67q.563.851 1.017 1.754l-1.695 1.586a.94.94 0 0 0-.236 1.014c.319.849.556 1.736.705 2.637a.94.94 0 0 0 .712.759l2.275.53a17 17 0 0 1 0 2.03l-2.276.53a.94.94 0 0 0-.712.76 14 14 0 0 1-.705 2.636.94.94 0 0 0 .236 1.014l1.695 1.586a17 17 0 0 1-1.017 1.753l-2.203-.67a.94.94 0 0 0-.996.301 14 14 0 0 1-1.94 1.94.94.94 0 0 0-.301.996l.67 2.204q-.852.563-1.754 1.017l-1.586-1.694a.94.94 0 0 0-1.014-.237 14 14 0 0 1-2.637.705.94.94 0 0 0-.759.712l-.53 2.275c-.69.042-1.34.042-2.03 0l-.53-2.275a.94.94 0 0 0-.76-.712 14 14 0 0 1-2.636-.705.94.94 0 0 0-1.014.236l-1.587 1.695a17 17 0 0 1-1.753-1.017l.67-2.203a.94.94 0 0 0-.3-.996 14 14 0 0 1-1.94-1.94.93.93 0 0 0-.997-.301l-2.204.67a17 17 0 0 1-1.016-1.754l1.694-1.586a.94.94 0 0 0 .236-1.014 14 14 0 0 1-.705-2.637.94.94 0 0 0-.712-.759l-2.275-.53a17 17 0 0 1 0-2.03l2.276-.53a.94.94 0 0 0 .712-.76 14 14 0 0 1 .705-2.636.94.94 0 0 0-.236-1.014l-1.695-1.586q.456-.906 1.017-1.753l2.203.669a.93.93 0 0 0 .996-.3 14.3 14.3 0 0 1 1.94-1.94.94.94 0 0 0 .301-.997l-.67-2.204a17 17 0 0 1 1.754-1.016l1.586 1.694a.94.94 0 0 0 1.014.236 14 14 0 0 1 2.637-.705.94.94 0 0 0 .759-.712l.53-2.275a16 16 0 0 1 2.03 0l.53 2.275c.086.37.386.65.76.712a14 14 0 0 1 2.636.705.94.94 0 0 0 1.014-.236l1.587-1.694q.904.453 1.753 1.016l-.67 2.203a.94.94 0 0 0 .3.996 14.3 14.3 0 0 1 1.94 1.941"/><path fill="#0f62fe" d="M30 19.688c-4.193 0-8.437 1.288-8.437 3.75V37.5c0 2.462 4.244 3.75 8.437 3.75s8.438-1.288 8.438-3.75V23.438c0-2.462-4.245-3.75-8.438-3.75m0 19.687c-4.263 0-6.562-1.33-6.562-1.875v-2.25c1.627.865 4.1 1.313 6.562 1.313s4.935-.448 6.563-1.313v2.25c0 .545-2.3 1.875-6.563 1.875m0-4.687c-4.263 0-6.562-1.33-6.562-1.876v-2.25c1.627.866 4.1 1.313 6.562 1.313s4.935-.447 6.563-1.312v2.25c0 .544-2.3 1.874-6.563 1.874M30 30c-4.263 0-6.562-1.33-6.562-1.875v-2.25c1.627.865 4.1 1.313 6.562 1.313s4.935-.448 6.563-1.313v2.25c0 .545-2.3 1.875-6.563 1.875m0-4.687c-4.263 0-6.562-1.33-6.562-1.875s2.3-1.875 6.562-1.875 6.563 1.33 6.563 1.875-2.3 1.875-6.563 1.875"/></svg>