<svg xmlns="http://www.w3.org/2000/svg" width="58" height="58" fill="none" viewBox="0 0 58 58"><path fill="#0f62fe" d="M.875 42.614c0 .851.53 1.536 1.183 2.027s1.493.865 2.492 1.183c1.998.635 4.649 1.01 7.577 1.01 2.056 0 3.968-.19 5.62-.518v6.588c0 .852.53 1.536 1.183 2.027s1.493.873 2.492 1.19c1.997.636 4.649 1.004 7.577 1.004s5.582-.368 7.58-1.003c.998-.318 1.83-.7 2.484-1.19.653-.492 1.19-1.176 1.19-2.028-.003-2.221.001-4.326 0-6.588 1.652.33 3.564.518 5.62.518 2.928 0 5.58-.375 7.577-1.01.999-.318 1.84-.692 2.492-1.183.653-.491 1.183-1.176 1.183-2.027V12.588c-.003-.851-.532-1.533-1.183-2.023-.653-.491-1.493-.867-2.492-1.185-1.778-.565-4.088-.903-6.636-.974V5.561c0-1.542-1.276-2.81-2.818-2.81h-12.36c-.39-1.085-1.423-1.876-2.637-1.876s-2.247.79-2.637 1.877H13.995a2.82 2.82 0 0 0-2.809 2.809v2.845c-2.548.071-4.858.409-6.636.974-.999.318-1.84.694-2.492 1.185-.651.49-1.18 1.172-1.183 2.023zM28.999 2.752c.529 0 .934.405.934.934a.924.924 0 0 1-.934.94.93.93 0 0 1-.941-.94c0-.53.412-.934.941-.934m-6.808 7.813c-.653-.491-1.493-.867-2.492-1.184-1.78-.567-4.088-.904-6.638-.975V5.561a.91.91 0 0 1 .934-.934h12.37a2.83 2.83 0 0 0 1.693 1.697v12.387c-1.7.05-3.286.22-4.684.498v-6.613c0-.855-.53-1.54-1.183-2.03m21.805-5.938c.535 0 .943.398.943.934v2.845c-2.55.07-4.858.408-6.638.974-.999.318-1.839.694-2.492 1.185s-1.183 1.176-1.183 2.03v6.614c-1.4-.279-2.99-.45-4.693-.498V6.328a2.83 2.83 0 0 0 1.7-1.701zm-32.81 5.656v1.846a.937.937 0 0 0 1.875 0v-1.846c2.387.072 4.536.395 6.07.883.868.276 1.541.607 1.932.9.39.294.436.471.436.526s-.045.239-.436.533c-.39.294-1.064.617-1.932.893-1.735.552-4.237.92-7.004.92s-5.274-.368-7.01-.92c-.867-.276-1.54-.6-1.931-.893-.39-.294-.436-.478-.436-.533s.045-.232.436-.526c.39-.294 1.064-.625 1.932-.9 1.532-.488 3.683-.81 6.068-.883m33.753 0v1.846a.937.937 0 0 0 1.875 0v-1.846c2.385.072 4.536.395 6.068.883.868.276 1.541.607 1.932.9.39.294.436.471.436.526s-.045.239-.436.533c-.39.294-1.064.617-1.932.893-1.735.552-4.242.92-7.01.92-2.766 0-5.268-.368-7.003-.92-.868-.276-1.541-.6-1.932-.893-.39-.294-.436-.478-.436-.533s.045-.232.436-.526c.39-.294 1.064-.625 1.932-.9 1.534-.489 3.683-.811 6.07-.883M2.75 15.057a10 10 0 0 0 1.8.752c1.998.636 4.649 1.005 7.577 1.005s5.574-.37 7.572-1.005a10 10 0 0 0 1.8-.752v4.616l-.077.02c-.999.319-1.84.7-2.492 1.191-.339.255-.64.563-.855.916-1.634.39-3.692.64-5.948.64-2.767 0-5.274-.367-7.01-.919-.867-.276-1.54-.607-1.931-.9-.39-.294-.436-.471-.436-.526zm33.751 0a10 10 0 0 0 1.8.752c1.998.636 4.643 1.005 7.572 1.005 2.928 0 5.58-.37 7.577-1.005a10 10 0 0 0 1.8-.752v5.037c0 .055-.045.232-.436.525-.39.294-1.064.625-1.932.901-1.735.552-4.242.92-7.01.92-2.257 0-4.316-.253-5.95-.643a3.4 3.4 0 0 0-.86-.914c-.652-.491-1.485-.872-2.484-1.19l-.077-.021zM18.686 17.75a.937.937 0 1 0 0 1.875.937.937 0 0 0 0-1.875m20.626 0a.937.937 0 1 0 0 1.875.937.937 0 0 0 0-1.875m-34.66.884a.937.937 0 0 0 .665 1.149c1.954.513 4.344.781 6.81.781.98 0 1.955-.046 2.9-.131a.937.937 0 0 0-.173-1.868c-.887.08-1.802.124-2.727.124-2.328 0-4.589-.261-6.332-.72a1 1 0 0 0-.241-.034.94.94 0 0 0-.901.7m41.22.056c-.924 0-1.84-.044-2.726-.124a.938.938 0 0 0-.174 1.867c.946.086 1.921.132 2.9.132 2.467 0 4.857-.268 6.81-.782a.94.94 0 0 0 .665-1.148.94.94 0 0 0-.9-.7 1 1 0 0 0-.242.036c-1.743.457-4.004.72-6.332.72M28.06 20.598v1.843a.938.938 0 0 0 1.875 0v-1.843c2.388.072 4.543.394 6.077.882.868.276 1.54.605 1.93.9.391.293.438.47.438.525s-.047.24-.438.534c-.39.294-1.062.623-1.93.9-1.735.551-4.244.913-7.01.913-2.768 0-5.276-.362-7.01-.914-.868-.276-1.541-.605-1.932-.899s-.436-.48-.436-.534.045-.232.436-.526c.39-.294 1.064-.623 1.932-.899 1.532-.488 3.683-.81 6.068-.882M2.75 22.556c.523.288 1.122.534 1.8.75 1.998.635 4.649 1.003 7.577 1.003 2.056 0 3.968-.184 5.62-.51.003 1.933-.001 3.641 0 5.58-1.58.345-3.512.562-5.62.562-2.767 0-5.274-.361-7.01-.913-.867-.276-1.54-.605-1.931-.9-.39-.293-.436-.47-.436-.525zm52.5 0v5.047c0 .055-.045.232-.436.526-.39.293-1.064.623-1.932.899-1.735.552-4.242.913-7.01.913-2.107 0-4.039-.217-5.619-.562V23.8c1.652.326 3.564.51 5.62.51 2.928 0 5.58-.368 7.577-1.004a10 10 0 0 0 1.8-.748m-16.872 2.808v5.04c0 .055-.047.234-.438.528-.39.294-1.062.623-1.93.899-1.735.552-4.244.921-7.01.921-2.768 0-5.276-.369-7.01-.921-.868-.276-1.541-.605-1.932-.9-.391-.293-.436-.472-.436-.526v-5.038a10 10 0 0 0 1.8.755c1.997.635 4.649 1.003 7.577 1.003s5.582-.368 7.58-1.003a10 10 0 0 0 1.8-.758m-33.06 1.913c1.953.514 4.343.782 6.81.782.979 0 1.954-.039 2.9-.124a.937.937 0 0 0-.174-1.868c-.887.08-1.802.117-2.727.117-2.328 0-4.589-.261-6.332-.72a.94.94 0 0 0-1.143.672.937.937 0 0 0 .665 1.141m40.555-1.092c-.925 0-1.84-.037-2.727-.117a.937.937 0 0 0-.174 1.867 32 32 0 0 0 2.9.125c2.467 0 4.857-.269 6.81-.782a.938.938 0 0 0-.477-1.813c-1.743.458-4.004.72-6.332.72m-23.437 1.878a.937.937 0 1 0 0 1.874.937.937 0 0 0 0-1.874M29 29a31 31 0 0 1-2.734-.124.937.937 0 1 0-.165 1.87c.946.084 1.92.13 2.899.13 2.467 0 4.85-.27 6.804-.783a.938.938 0 0 0-.229-1.848 1 1 0 0 0-.248.035c-1.743.458-3.999.72-6.327.72M2.75 30.061a10 10 0 0 0 1.8.752c1.998.636 4.649 1.005 7.577 1.005 2.056 0 3.968-.19 5.62-.518v5.589c-1.58.345-3.512.562-5.62.562-2.767 0-5.274-.37-7.01-.921-.867-.276-1.54-.598-1.931-.892-.39-.294-.436-.478-.436-.533zm52.5 0v5.044c0 .055-.045.239-.436.533-.39.294-1.064.616-1.932.892-1.735.552-4.242.92-7.01.92-2.107 0-4.039-.217-5.619-.562V31.3c1.652.329 3.564.518 5.62.518 2.928 0 5.58-.37 7.577-1.005a10 10 0 0 0 1.8-.752m-16.872 2.805v5.042c0 .055-.047.232-.438.526-.39.294-1.062.623-1.93.899-1.735.552-4.244.914-7.01.914-2.768 0-5.276-.362-7.01-.914-.868-.276-1.541-.605-1.932-.899s-.436-.47-.436-.526V32.87a10 10 0 0 0 1.8.747c1.997.636 4.649 1.011 7.577 1.011s5.582-.375 7.58-1.01a10 10 0 0 0 1.8-.751M5.319 34.78c1.953.514 4.343.782 6.81.782.979 0 1.954-.039 2.9-.124a.937.937 0 0 0-.174-1.868c-.887.08-1.802.117-2.727.117-2.328 0-4.589-.261-6.332-.72a.94.94 0 0 0-1.143.672.94.94 0 0 0 .665 1.141m40.555-1.092c-.925 0-1.84-.037-2.727-.117a.938.938 0 0 0-.174 1.867 32 32 0 0 0 2.9.125c2.467 0 4.857-.269 6.81-.782a.94.94 0 0 0 .665-1.14.94.94 0 0 0-1.142-.673c-1.743.458-4.004.72-6.332.72m-23.437 1.876a.937.937 0 1 0 0 1.875.937.937 0 0 0 0-1.875m3.664 2.685c.946.086 1.92.125 2.899.125 2.467 0 4.85-.269 6.804-.782a.937.937 0 1 0-.477-1.815c-1.743.458-3.999.727-6.327.727-.924 0-1.847-.044-2.734-.124a.938.938 0 0 0-.165 1.87m-23.35-.68a10 10 0 0 0 1.8.752c1.998.636 4.649 1.004 7.577 1.004 2.056 0 3.968-.188 5.62-.517v5.583c-1.58.347-3.512.568-5.62.568-2.767 0-5.274-.37-7.01-.921-.867-.276-1.54-.605-1.931-.9-.39-.293-.436-.47-.436-.525zm52.5 0v5.044c0 .055-.045.232-.436.526-.39.294-1.064.623-1.932.899-1.735.552-4.242.921-7.01.921-2.107 0-4.039-.221-5.619-.568V38.81c1.652.329 3.564.517 5.62.517 2.928 0 5.58-.368 7.577-1.004a10 10 0 0 0 1.8-.752m-16.872 2.798v5.042c0 .055-.047.232-.438.526-.39.294-1.062.623-1.93.899-1.735.552-4.244.914-7.01.914-2.768 0-5.276-.362-7.01-.914-.868-.276-1.541-.605-1.932-.9-.391-.293-.436-.47-.436-.525v-5.039c.523.287 1.122.532 1.8.747 1.997.636 4.649 1.004 7.577 1.004s5.582-.368 7.58-1.004a10 10 0 0 0 1.8-.75M5.318 42.28c1.953.514 4.343.782 6.81.782.979 0 1.954-.045 2.9-.13a.937.937 0 0 0 .844-1.018.94.94 0 0 0-1.018-.844c-.887.08-1.802.117-2.727.117-2.328 0-4.589-.262-6.332-.72a1 1 0 0 0-.241-.035.94.94 0 0 0-.901.7.937.937 0 0 0 .664 1.148m40.555-1.092c-.925 0-1.84-.038-2.727-.118a.94.94 0 0 0-1.018.844.94.94 0 0 0 .844 1.019c.946.085 1.921.13 2.9.13 2.467 0 4.857-.269 6.81-.782a.94.94 0 0 0 .665-1.148.94.94 0 0 0-.9-.7 1 1 0 0 0-.242.035c-1.743.458-4.004.72-6.332.72m-23.437 1.874a.937.937 0 1 0 0 1.874.937.937 0 0 0 0-1.874m6.563.935c-.924 0-1.847-.037-2.734-.118a.937.937 0 1 0-.165 1.87c.946.085 1.92.124 2.899.124 2.467 0 4.85-.268 6.804-.782a.937.937 0 1 0-.477-1.814c-1.743.458-3.999.72-6.327.72m9.38 3.866v5.04c0 .056-.048.24-.439.534-.39.293-1.062.623-1.93.899-1.735.552-4.244.913-7.01.913-2.768 0-5.276-.361-7.01-.913-.868-.276-1.541-.605-1.932-.9-.391-.293-.436-.477-.436-.532v-5.037a10 10 0 0 0 1.8.752c1.997.636 4.649 1.004 7.577 1.004s5.582-.368 7.58-1.004a10 10 0 0 0 1.8-.756m-15.943 2.699a.937.937 0 1 0 0 1.874.937.937 0 0 0 0-1.874m2.813 1.663a.937.937 0 0 0 .851 1.018c.946.086 1.92.132 2.899.132 2.467 0 4.85-.268 6.804-.782a.937.937 0 1 0-.477-1.814c-1.743.458-3.999.72-6.327.72-.924 0-1.847-.038-2.734-.118a.937.937 0 0 0-1.016.844"/></svg>