<svg xmlns="http://www.w3.org/2000/svg" width="24" height="24" fill="none" viewBox="0 0 24 24"><path fill="#525252" d="m20.588 11.333-16.5-8.25a.75.75 0 0 0-.81.09.75.75 0 0 0-.248.75l2.22 8.078L3 20.056a.75.75 0 0 0 .75.945.75.75 0 0 0 .338-.083l16.5-8.25a.75.75 0 0 0 0-1.335m-15.675 7.5 1.657-6.082h6.93v-1.5H6.57L4.913 5.168l13.657 6.833z"/><path fill="#0c1018" d="m20.588 11.333-16.5-8.25a.75.75 0 0 0-.81.09.75.75 0 0 0-.248.75l2.22 8.078L3 20.056a.75.75 0 0 0 .75.945.75.75 0 0 0 .338-.083l16.5-8.25a.75.75 0 0 0 0-1.335m-15.675 7.5 1.657-6.082h6.93v-1.5H6.57L4.913 5.168l13.657 6.833z"/></svg>