<svg xmlns="http://www.w3.org/2000/svg" width="30" height="30" fill="none" viewBox="0 0 30 30"><g fill="#0f62fe" clip-path="url(#a)"><path d="M20.294 1.764c-1.23 0-2.267.843-2.563 1.983l-9.933 3.31H2.647A2.65 2.65 0 0 0 0 9.706V15a2.65 2.65 0 0 0 2.647 2.647h.035l.905 8.463c.124 1.158 1.548 2.47 3.231 2.046a2.65 2.65 0 0 0 1.944-3.138l-.193-2.08.056.003h1.08a2.65 2.65 0 0 0 2.648-2.647v-1.129l5.378 1.793a2.65 2.65 0 0 0 2.563 1.983 2.65 2.65 0 0 0 2.647-2.647V4.41a2.65 2.65 0 0 0-2.647-2.647M6.389 26.444a.88.88 0 0 1-1.055-.594l-.877-8.204h1.852c.75 8.124.7 7.63.723 7.726a.884.884 0 0 1-.643 1.072m.67-10.563H2.647A.883.883 0 0 1 1.765 15V9.705c0-.487.395-.883.882-.883h4.412zm3.53 4.412a.883.883 0 0 1-.883.882H8.625a1 1 0 0 0-.216.028l-.32-3.46 2.5.833zm7.058-1.224-8.823-2.941V8.576l8.823-2.941zm3.53 1.224a.883.883 0 0 1-1.765 0V4.411a.883.883 0 0 1 1.764 0zm7.94-9.706h-3.529a.882.882 0 0 0 0 1.765h3.53a.882.882 0 1 0 0-1.765m.789-4.807a.88.88 0 0 0-1.184-.394l-3.53 1.765a.882.882 0 1 0 .79 1.578l3.53-1.764a.88.88 0 0 0 .394-1.184m-.395 10.193-3.53-1.764a.882.882 0 1 0-.789 1.578l3.53 1.765a.882.882 0 1 0 .789-1.579"/></g><defs><clipPath id="a"><path fill="#fff" d="M0 0h30v30H0z"/></clipPath></defs></svg>