<svg xmlns="http://www.w3.org/2000/svg" width="32" height="27" fill="none" viewBox="0 0 32 27"><path fill="#0f62fe" d="M16.797 24.464H7.608a4.1 4.1 0 0 0 .593-2.094V5.276c0-1.511 1.23-2.74 2.743-2.74h12.378c1.51 0 2.74 1.229 2.74 2.74v6.29a.956.956 0 0 0 1.913 0v-6.29A4.66 4.66 0 0 0 23.322.622h-12.38A4.66 4.66 0 0 0 6.29 5.276v9.578H4.832A4.66 4.66 0 0 0 .177 19.51v2.857a4.01 4.01 0 0 0 3.974 4.004c.012 0 .022.006.034.006h12.612a.956.956 0 0 0 0-1.913M2.09 22.367V19.51a2.745 2.745 0 0 1 2.742-2.742H6.29v5.581l-.003.016a2.1 2.1 0 0 1-2.101 2.097 2.1 2.1 0 0 1-2.095-2.095"/><path fill="#0f62fe" d="M22.322 8.267H11.946a.956.956 0 0 0 0 1.912h10.376a.956.956 0 0 0 0-1.912m0 4.276H11.946a.956.956 0 0 0 0 1.913h10.376a.956.956 0 0 0 0-1.913m-5.188 4.275h-5.189a.956.956 0 1 0 0 1.913h5.189a.956.956 0 0 0 0-1.913m13.841-1.979q0-.003 0 0a2.9 2.9 0 0 0-4.093-.002l-6.546 6.546c-.242.243-.4.551-.457.888l-.359 2.123a1.65 1.65 0 0 0 1.626 1.92q.135 0 .273-.022l2.122-.359c.34-.057.648-.215.89-.459l6.544-6.544a2.896 2.896 0 0 0 0-4.091M23.14 24.06l-1.671.283.282-1.67 4.477-4.476 1.388 1.389zm6.482-6.482-.655.655-1.389-1.388.656-.656a.982.982 0 1 1 1.388 1.389"/></svg>