<svg xmlns="http://www.w3.org/2000/svg" width="28" height="28" fill="none" viewBox="0 0 28 28"><path fill="#0f62fe" d="M25.25.875H2.75A1.875 1.875 0 0 0 .875 2.75V21.5a1.875 1.875 0 0 0 1.875 1.875h.938a.938.938 0 0 0 0-1.875H2.75V2.75h7.116l3.468 3.478A.94.94 0 0 0 14 6.5h11.25v15h-.937a.938.938 0 0 0 0 1.875h.937a1.875 1.875 0 0 0 1.875-1.875V2.75A1.875 1.875 0 0 0 25.25.875m-10.866 3.75L12.51 2.75h12.74v1.875z"/><path fill="#0f62fe" d="M6.5 5.563a.937.937 0 1 0-1.875 0 .937.937 0 0 0 1.875 0m3.75 0a.938.938 0 1 0-1.875 0 .938.938 0 0 0 1.875 0m11.09 13.959-.777-.591a3 3 0 0 0 0-.488l.787-.59a1.875 1.875 0 0 0 .516-2.428l-1.041-1.82a1.875 1.875 0 0 0-2.344-.805l-.937.375a6 6 0 0 0-.525-.31l-.122-.937a1.875 1.875 0 0 0-1.875-1.64H12.95a1.875 1.875 0 0 0-1.875 1.64l-.122.937q-.27.142-.525.31l-.937-.375a1.875 1.875 0 0 0-2.354.806l-1.03 1.819a1.875 1.875 0 0 0 .505 2.428l.788.59a3 3 0 0 0 0 .488l-.788.59a1.875 1.875 0 0 0-.506 2.429l1.031 1.818a1.875 1.875 0 0 0 2.344.807l.938-.375q.255.168.525.309l.122.938a1.875 1.875 0 0 0 1.875 1.64h2.1a1.875 1.875 0 0 0 1.875-1.64l.122-.938q.27-.14.524-.31l.938.376a1.875 1.875 0 0 0 2.353-.807l1.04-1.818a1.875 1.875 0 0 0-.552-2.428m-2.652-.835q.015.285 0 .572a.94.94 0 0 0 .365.863l1.21.937-1.041 1.819-1.388-.572a.94.94 0 0 0-.937.122 4.5 4.5 0 0 1-1.06.628.94.94 0 0 0-.562.74l-.225 1.454h-2.1l-.187-1.491a.94.94 0 0 0-.563-.74 4.5 4.5 0 0 1-1.012-.582.94.94 0 0 0-.938-.122l-1.388.572-1.087-1.866 1.21-.937a.94.94 0 0 0 .365-.863c-.05-.38-.05-.764 0-1.143a.94.94 0 0 0-.366-.863l-1.209-.937 1.04-1.819 1.388.572a.94.94 0 0 0 .938-.122 4.5 4.5 0 0 1 1.059-.628.94.94 0 0 0 .563-.74l.187-1.491h2.1l.188 1.49a.94.94 0 0 0 .562.74c.38.16.737.372 1.06.629a.94.94 0 0 0 .937.122l1.387-.572 1.041 1.819-1.21.937a.94.94 0 0 0-.365.863q.036.303.038.61"/><path fill="#0f62fe" d="M14 15.875a2.812 2.812 0 1 0 0 5.624 2.812 2.812 0 0 0 0-5.624m0 3.75a.937.937 0 1 1 0-1.875.937.937 0 0 1 0 1.875"/></svg>