<svg xmlns="http://www.w3.org/2000/svg" width="52" height="52" fill="none" viewBox="0 0 52 52"><rect width="50" height="50" x="1" y="1" fill="#614ce1" rx="25"/><rect width="50" height="50" x="1" y="1" stroke="#f7f5ff" stroke-width="2" rx="25"/><path fill="#f7f5ff" d="M15.958 29.113v-1.47l4.327-6.829h1.217v2.092h-.745l-2.912 4.608v.082h6.036v1.517zM20.811 31v-2.331l.028-.663v-7.192h1.736V31zm5.182.116q-.465 0-.786-.314a1.07 1.07 0 0 1-.314-.78q0-.457.314-.772a1.07 1.07 0 0 1 .786-.321q.465 0 .78.321.32.314.32.773 0 .458-.32.779-.315.315-.78.314m5.968-10.452q.738.007 1.429.26.698.252 1.25.82.555.567.883 1.518.328.95.328 2.351 0 1.305-.28 2.338-.275 1.026-.8 1.743a3.5 3.5 0 0 1-1.258 1.087 3.6 3.6 0 0 1-1.648.37q-.963 0-1.709-.383a3.25 3.25 0 0 1-1.203-1.04 3.3 3.3 0 0 1-.567-1.49h1.818q.137.595.567.957.438.356 1.094.356 1.053 0 1.62-.923.575-.923.581-2.543h-.075a2.6 2.6 0 0 1-.636.752q-.382.315-.868.485-.485.171-1.032.171a3.1 3.1 0 0 1-1.613-.424 3.1 3.1 0 0 1-1.135-1.182q-.417-.752-.417-1.71 0-1.004.458-1.797.465-.8 1.285-1.258.828-.465 1.928-.458m.014 1.504q-.54 0-.971.267a1.86 1.86 0 0 0-.677.704 2 2 0 0 0-.246.998q0 .547.24.99.239.446.662.705.424.253.964.253t.971-.267q.438-.273.69-.717.253-.451.253-.978t-.246-.97a1.86 1.86 0 0 0-.67-.712 1.75 1.75 0 0 0-.97-.273"/></svg>