<svg xmlns="http://www.w3.org/2000/svg" width="45" height="41" fill="none" viewBox="0 0 45 41"><path fill="#615efc" d="M20.625 8.75c0-1.016.781-1.875 1.875-1.875 1.016 0 1.875.86 1.875 1.875 0 1.094-.86 1.875-1.875 1.875-1.094 0-1.875-.781-1.875-1.875m.703 15.625c-2.5-3.125-8.203-10.703-8.203-15A9.35 9.35 0 0 1 22.5 0c5.156 0 9.375 4.219 9.375 9.375 0 4.297-5.781 11.875-8.281 15a1.388 1.388 0 0 1-2.266 0m7.266-12.266c.547-1.25.781-2.109.781-2.734 0-3.75-3.125-6.875-6.875-6.875-3.828 0-6.875 3.125-6.875 6.875 0 .625.156 1.484.703 2.734.469 1.25 1.25 2.579 2.031 3.907 1.328 2.187 2.891 4.297 4.141 5.859 1.172-1.562 2.734-3.672 4.063-5.86.78-1.328 1.562-2.656 2.03-3.906m3.047 5.313c0 .078-.078.078-.157.078.625-1.094 1.25-2.266 1.72-3.36l9.218-3.671C43.594 10 45 10.859 45 12.188v21.171c0 .782-.469 1.485-1.25 1.72l-12.11 4.843c-.234.156-.468.156-.78.078l-17.11-4.922L2.5 39.61c-1.172.47-2.5-.39-2.5-1.718V16.719c0-.782.39-1.485 1.172-1.719l9.61-3.906c.155.86.39 1.64.702 2.422L2.5 17.109v19.844l10-3.984V23.75c0-.625.547-1.25 1.25-1.25.625 0 1.25.625 1.25 1.25v9.063l15 4.296V23.75c0-.625.547-1.25 1.25-1.25.625 0 1.25.625 1.25 1.25v13.203l10-3.984V13.125z"/></svg>