<svg xmlns="http://www.w3.org/2000/svg" width="40" height="40" fill="none" viewBox="0 0 40 40"><path fill="#615efc" d="M37.688 13.945 25.518 2.287A7.76 7.76 0 0 0 20 0a7.74 7.74 0 0 0-5.505 2.273L2.312 13.945A7.53 7.53 0 0 0 0 19.36V32.5C0 36.635 3.365 40 7.5 40h25c4.135 0 7.5-3.365 7.5-7.5V19.36a7.53 7.53 0 0 0-2.312-5.415M3.463 15.148 15.66 3.465A6.1 6.1 0 0 1 20 1.667c1.64 0 3.18.638 4.352 1.81l12.185 11.671q.187.18.356.375L24.125 28.292c-2.203 2.203-6.045 2.203-8.248 0L3.107 15.523a6 6 0 0 1 .356-.375M38.333 32.5a5.84 5.84 0 0 1-5.833 5.833h-25A5.84 5.84 0 0 1 1.667 32.5V19.36c0-.832.181-1.652.52-2.402L14.698 29.47a7.45 7.45 0 0 0 5.304 2.197c2.005 0 3.886-.78 5.303-2.197l12.512-12.512c.338.75.52 1.569.52 2.402V32.5z"/></svg>