<svg xmlns="http://www.w3.org/2000/svg" width="41" height="41" fill="none" viewBox="0 0 41 41"><path fill="#615efc" d="M37.813 26.86c1.562.703 2.421 2.421 2.03 4.062l-1.64 7.344c-.39 1.64-1.797 2.734-3.516 2.734C15.548 41 0 25.453 0 6.313c0-1.72 1.094-3.125 2.734-3.438l7.344-1.719c1.64-.39 3.36.469 4.063 2.032l3.359 7.968c.625 1.406.234 3.125-.937 4.14l-3.204 2.579a25.5 25.5 0 0 0 9.766 9.766l2.656-3.125c.938-1.25 2.657-1.641 4.063-1.094zm-2.11 10.859 1.719-7.344c.156-.547-.156-1.016-.625-1.25l-7.89-3.36c-.47-.156-.938-.078-1.25.313l-3.204 3.906c-.39.47-1.015.625-1.484.313-5.313-2.578-9.688-6.953-12.266-12.188-.312-.547-.156-1.172.313-1.562l3.906-3.203c.39-.313.469-.781.312-1.25l-3.359-7.89c-.234-.391-.625-.704-1.016-.704-.078 0-.156.078-.234.078L3.281 5.297c-.469.078-.781.469-.781 1.016 0 17.734 14.453 32.265 32.188 32.265.546 0 .937-.39 1.015-.86"/></svg>