<svg xmlns="http://www.w3.org/2000/svg" width="201" height="26" fill="none" viewBox="0 0 201 26"><g clip-path="url(#a)"><path fill="#050d20" d="M25.492 9.215h9.822v2h-3.862v11.243h-2.124V11.215h-3.845v-2zm9.402 3.654h1.815v1.85h.035q.089-.391.334-.756a3.26 3.26 0 0 1 1.361-1.169c.283-.121.574-.187.865-.187.222 0 .385.01.47.02.086.008.172.027.266.036v2.038a6 6 0 0 0-.42-.066 3 3 0 0 0-.419-.028c-.325 0-.634.075-.925.215-.29.14-.54.356-.753.627-.214.28-.386.616-.514 1.028q-.19.614-.188 1.41v4.561h-1.936V12.87zm14.043 9.589h-1.9V21.12h-.035a2.8 2.8 0 0 1-1.062 1.16c-.47.289-.95.439-1.438.439q-1.737.002-2.51-.935-.77-.939-.77-2.832V12.87h1.935v5.879c0 .84.146 1.439.445 1.785.292.345.711.523 1.242.523.411 0 .745-.066 1.019-.206s.497-.317.66-.551c.17-.224.29-.505.367-.822a4.4 4.4 0 0 0 .112-1.038v-5.56h1.935zm3.297-3.075c.06.617.274 1.047.642 1.3.377.242.822.373 1.344.373.18 0 .386-.019.617-.047s.454-.093.65-.177a1.25 1.25 0 0 0 .506-.384c.128-.168.188-.383.18-.654a.94.94 0 0 0-.274-.663 1.9 1.9 0 0 0-.651-.42 6 6 0 0 0-.908-.272c-.342-.075-.685-.159-1.036-.243a9 9 0 0 1-1.045-.318 3.1 3.1 0 0 1-.899-.504 2.2 2.2 0 0 1-.633-.804c-.163-.327-.24-.729-.24-1.215 0-.523.12-.953.351-1.308s.53-.636.882-.85c.36-.216.754-.365 1.19-.459a6.7 6.7 0 0 1 1.25-.13q.683.002 1.302.158a3.2 3.2 0 0 1 1.122.514c.334.234.608.542.83.916.223.374.36.832.42 1.365h-2.021c-.094-.505-.3-.85-.634-1.02a2.4 2.4 0 0 0-1.147-.26c-.137 0-.3.009-.488.037s-.36.074-.531.14a1.15 1.15 0 0 0-.42.299.76.76 0 0 0-.17.514c0 .262.085.467.247.626.163.159.377.29.643.402q.396.157.907.271c.343.075.694.159 1.054.243.35.084.693.196 1.036.318q.511.182.907.504c.266.215.48.477.642.795s.249.72.249 1.187c0 .57-.12 1.046-.36 1.448a3 3 0 0 1-.925.963c-.376.243-.804.43-1.267.542a6 6 0 0 1-1.378.168 5.4 5.4 0 0 1-1.542-.205 3.6 3.6 0 0 1-1.224-.617 3 3 0 0 1-.814-1.038c-.197-.41-.3-.906-.317-1.476h1.953zm6.388-6.514h1.464V9.991h1.935v2.878h1.747v1.58H62.02v5.121c0 .224.009.411.026.58.017.158.06.299.12.41q.09.17.282.253c.129.056.291.084.514.084.137 0 .274 0 .411-.01a2 2 0 0 0 .411-.065v1.636c-.214.028-.428.047-.625.075a5 5 0 0 1-.625.037c-.514 0-.925-.056-1.233-.159a1.6 1.6 0 0 1-.728-.467c-.18-.206-.291-.458-.36-.767a6.3 6.3 0 0 1-.111-1.056v-5.654h-1.464V12.87zm6.516 0h1.832v1.3h.035c.274-.562.65-.954 1.139-1.197a3.5 3.5 0 0 1 1.584-.365c.693 0 1.293.131 1.806.402q.77.393 1.285 1.094c.342.467.59 1.009.762 1.626q.257.928.257 1.981 0 .97-.231 1.87a5.2 5.2 0 0 1-.694 1.607 3.5 3.5 0 0 1-1.182 1.112c-.48.28-1.036.42-1.686.42q-.425 0-.848-.084a3.5 3.5 0 0 1-.814-.27 2.9 2.9 0 0 1-.719-.477 2.9 2.9 0 0 1-.557-.673h-.034V26h-1.935zm6.765 4.804q0-.645-.154-1.262a3.6 3.6 0 0 0-.463-1.084 2.44 2.44 0 0 0-.762-.757 2 2 0 0 0-1.053-.29q-1.223 0-1.841.926-.617.925-.617 2.467-.002.729.163 1.346c.111.41.265.766.488 1.065q.321.45.77.7.452.265 1.045.263c.446 0 .814-.103 1.122-.3.308-.196.557-.457.754-.766a3.3 3.3 0 0 0 .428-1.075c.077-.401.12-.813.12-1.233m3.416-8.458h1.935v2H75.32zm0 3.654h1.935v9.589H75.32zm3.665-3.654h1.935v13.243h-1.935zm7.87 13.505c-.703 0-1.328-.131-1.876-.384a4.15 4.15 0 0 1-1.396-1.046 4.7 4.7 0 0 1-.864-1.598c-.197-.617-.3-1.3-.3-2.038 0-.729.103-1.402.3-2.019.197-.616.488-1.15.864-1.598a4 4 0 0 1 1.396-1.046c.548-.253 1.173-.384 1.875-.384.703 0 1.328.131 1.876.384a4.15 4.15 0 0 1 1.395 1.046c.377.449.668.982.865 1.598s.3 1.29.3 2.02c0 .737-.103 1.42-.3 2.037a4.7 4.7 0 0 1-.865 1.598 3.95 3.95 0 0 1-1.395 1.046c-.548.253-1.174.384-1.876.384m0-1.673a2.1 2.1 0 0 0 1.121-.3 2.5 2.5 0 0 0 .78-.775c.205-.318.35-.682.453-1.084.094-.402.146-.813.146-1.234a5.4 5.4 0 0 0-.146-1.224 3.3 3.3 0 0 0-.454-1.084 2.45 2.45 0 0 0-.779-.767 2.1 2.1 0 0 0-1.122-.299c-.428 0-.804.103-1.121.3a2.55 2.55 0 0 0-.78.766 3.5 3.5 0 0 0-.453 1.084 5.4 5.4 0 0 0-.146 1.224q.002.63.146 1.234c.094.402.248.766.453 1.084s.463.58.78.776c.317.205.693.299 1.121.299m5-8.178h1.464V9.991h1.936v2.878H97v1.58h-1.746v5.121c0 .224.008.411.025.58.017.158.06.299.12.41q.09.17.283.253c.128.056.29.084.513.084.138 0 .275 0 .412-.01.136-.009.273-.027.41-.065v1.636c-.214.028-.428.047-.625.075a5 5 0 0 1-.625.037c-.513 0-.924-.056-1.233-.159a1.6 1.6 0 0 1-.728-.467c-.18-.206-.29-.458-.36-.767a6 6 0 0 1-.11-1.056v-5.654H91.87V12.87z"/><path fill="#0f62fe" d="M23.231 9.215H14.36L11.62 0 8.87 9.215 0 9.205l7.184 5.701-2.748 9.206 7.184-5.691 7.176 5.691-2.74-9.205z"/><path fill="#005128" d="m16.672 16.99-.616-2.084-4.436 3.514z"/></g><g clip-path="url(#b)"><path fill="#0f62fe" d="M127.062 5H110v17h17.062zm18.485 0h-17.063v17h17.063zm18.484 0h-17.062v17h17.062zm18.485 0h-17.063v17h17.063z"/><path fill="#dcdce6" d="M201 5h-8.531v17H201z"/><path fill="#0f62fe" d="M192.469 5h-8.531v17h8.531z"/><path fill="#fff" d="m118.531 16.458 2.595-.655 1.084 3.329zm5.972-4.303h-4.568l-1.404-4.286-1.404 4.286h-4.568l3.697 2.656-1.404 4.285 3.696-2.656 2.275-1.63zm12.512 4.303 2.595-.655 1.084 3.329zm5.972-4.303h-4.568l-1.404-4.286-1.404 4.286h-4.568l3.697 2.656-1.404 4.285 3.697-2.656 2.275-1.63zm12.512 4.303 2.595-.655 1.085 3.329zm5.972-4.303h-4.567l-1.405-4.286-1.404 4.286h-4.567l3.696 2.656-1.404 4.285 3.697-2.656 2.275-1.63zm12.513 4.303 2.595-.655 1.084 3.329zm5.972-4.303h-4.568l-1.404-4.286-1.404 4.286h-4.568l3.697 2.656-1.404 4.285 3.697-2.656 2.275-1.63zm12.512 4.303 2.595-.655 1.084 3.329zm5.972-4.303h-4.568l-1.404-4.286-1.404 4.286h-4.568l3.697 2.656-1.404 4.285 3.697-2.656 2.275-1.63z"/></g><defs><clipPath id="a"><path fill="#fff" d="M0 0h97v26H0z"/></clipPath><clipPath id="b"><path fill="#fff" d="M110 5h91v17h-91z"/></clipPath></defs></svg>