<svg xmlns="http://www.w3.org/2000/svg" width="1920" height="930" fill="none" viewBox="0 0 1920 930"><path stroke="#fff" stroke-miterlimit="10" stroke-opacity=".08" d="M0 65.6h1920M0 129.28h1920M0 192.96h1920m-1920 64h1920M0 320.64h1920M0 384.32h1920M0 448h1920M0 512h1920M0 575.68h1920M0 639.36h1920M0 703.04h1920m-1920 64h1920M0 830.72h1920M0 894.4h1920"/><path stroke="#fff" stroke-miterlimit="10" stroke-opacity=".08" stroke-width=".75" d="M74.879 0v960m67.84-960v960m68.16-960v960m68.16-960v960m68.16-960v960m68.16-960v960m67.84-960v960m68.16-960v960M619.52 0v960M687.68 0v960M755.84 0v960M823.68 0v960M891.84 0v960M959.998 0v960M1028.16 0v960m68.16-960v960m67.84-960v960m68.16-960v960m68.16-960v960m68.16-960v960M1436.8 0v960m67.84-960v960M1572.8 0v960m68.16-960v960m68.16-960v960m68.16-960v960m67.84-960v960"/></svg>