<svg xmlns="http://www.w3.org/2000/svg" width="54" height="54" fill="none" viewBox="0 0 54 54"><path fill="#615efc" d="M20.25 36a.75.75 0 0 1-.75-.75v-16.5a.75.75 0 0 1 1.111-.657l15 8.25a.75.75 0 0 1 0 1.314l-15 8.25a.75.75 0 0 1-.361.093M21 20.018v13.964L33.694 27z"/><circle cx="27" cy="27" r="26.5" stroke="#0c1018"/><mask id="a" fill="#fff"><path d="M37.702 51.789A27 27 0 1 1 53.98 28.042l-1.246-.048a25.753 25.753 0 1 0-15.527 22.65z"/></mask><path stroke="#615efc" stroke-width="2" d="M37.702 51.789A27 27 0 1 1 53.98 28.042l-1.246-.048a25.753 25.753 0 1 0-15.527 22.65z" mask="url(#a)"/></svg>