<svg xmlns="http://www.w3.org/2000/svg" width="26" height="40" fill="none" viewBox="0 0 26 40"><path fill="#fff" d="M25.951 20.06c-11.359 1.055-12.222 2.23-12.888 19.893a.06.06 0 0 1-.022.034.064.064 0 0 1-.079 0 .06.06 0 0 1-.022-.034C12.27 22.29 11.408 21.115.05 20.06a.06.06 0 0 1-.035-.022.06.06 0 0 1 0-.076.06.06 0 0 1 .035-.022C11.408 18.885 12.27 17.71 12.94.047a.06.06 0 0 1 .023-.034.065.065 0 0 1 .078 0q.018.013.022.034c.666 17.663 1.53 18.838 12.888 19.893q.022.004.035.022a.06.06 0 0 1 0 .076.06.06 0 0 1-.035.022"/></svg>