<svg xmlns="http://www.w3.org/2000/svg" width="61" height="60" fill="none" viewBox="0 0 61 60"><g fill="#615efc" clip-path="url(#a)"><path d="m59.646 15.757-.002-.002-3.873-.552a.996.996 0 0 1-.457-1.782l3.13-2.348a.996.996 0 0 0 .199-1.394L55.059 4.9a.996.996 0 0 0-1.394-.199L50.536 7.05a.996.996 0 0 1-1.587-.937l.554-3.873a.996.996 0 0 0-.845-1.127l-5.91-.844a.996.996 0 0 0-1.127.844l-.554 3.873a.996.996 0 0 1-1.782.457l-2.347-3.13a.996.996 0 0 0-1.394-.2l-2.991 2.246a19.3 19.3 0 0 0-4.072 0A18.916 18.916 0 0 0 11.8 21.32c-.026.281-.036.561-.05.84h-.299a.996.996 0 0 0-.973.797L9.79 26.23l-2.756-1.9a.996.996 0 0 0-1.27.115L2.78 27.43a.996.996 0 0 0-.116 1.269l1.892 2.75-3.272.689a.996.996 0 0 0-.783.974v3.983c0 .47.33.877.79.974l3.273.688-1.892 2.751a.996.996 0 0 0 .116 1.268l2.987 2.987c.34.34.873.389 1.269.116l2.75-1.897.689 3.273a.996.996 0 0 0 .973.796h3.983c.47 0 .877-.33.974-.79l.688-3.273 2.751 1.892a.996.996 0 0 0 1.268-.116l1.547-1.551v2.837a3.97 3.97 0 0 0 1.99 3.43v5.53c0 2.2 1.784 3.983 3.983 3.983h3.982c2.2 0 3.983-1.783 3.983-3.982v-5.532a3.97 3.97 0 0 0 1.991-3.428V43.11a4.88 4.88 0 0 1 2.303-4.064 19 19 0 0 0 2.343-1.792l-1.328-1.483a17 17 0 0 1-2.097 1.603 6.86 6.86 0 0 0-3.212 5.736v3.94c0 1.1-.892 1.992-1.991 1.992h-7.965c-1.1 0-1.991-.892-1.991-1.992v-4.023a6.7 6.7 0 0 0-3.158-5.619c-7.891-4.958-10.268-15.374-5.31-23.265a16.87 16.87 0 0 1 14.227-7.896 1 1 0 0 0-.039.108 1 1 0 0 0 .19.738l2.347 3.129c.248.32.271.76.06 1.105a.99.99 0 0 1-.996.479l-3.873-.554a.996.996 0 0 0-1.126.844v.002l-.846 5.912a.996.996 0 0 0 .844 1.127h.002l3.872.554a.996.996 0 0 1 .457 1.782L28.18 23.82a.996.996 0 0 0-.199 1.393l3.584 4.78c.33.44.954.528 1.394.198l3.13-2.346a.995.995 0 0 1 1.582.937l-.553 3.872a.996.996 0 0 0 .845 1.127l5.913.846a.995.995 0 0 0 1.127-.845l.553-3.873a.995.995 0 0 1 1.782-.457l2.348 3.129c.33.44.954.529 1.394.199l4.778-3.584a.996.996 0 0 0 .2-1.394l-2.347-3.13a.98.98 0 0 1-.06-1.104.97.97 0 0 1 .996-.478l3.873.552a.996.996 0 0 0 1.127-.844l.844-5.914a.996.996 0 0 0-.844-1.127M26.648 51.033h7.965v1.99h-7.965zm0 3.982h7.965v.996c0 1.1-.892 1.99-1.992 1.99H28.64a1.99 1.99 0 0 1-1.991-1.99zm-7.926-17.169a19 19 0 0 0 1.702 1.24 4.86 4.86 0 0 1 2.006 2.547l-2.136 2.132-2.068-1.426a1.99 1.99 0 0 0-3.078 1.23l-.522 2.486H12.26l-.522-2.482a1.99 1.99 0 0 0-3.078-1.23l-2.07 1.422-1.814-1.81 1.425-2.067a1.99 1.99 0 0 0-1.229-3.08l-2.482-.522v-2.365l2.482-.523a1.99 1.99 0 0 0 1.23-3.073l-1.426-2.073 1.814-1.81 2.07 1.426a1.99 1.99 0 0 0 3.077-1.231l.174-.828c.16 1.147.424 2.277.79 3.376a5.974 5.974 0 1 0 6.02 8.661m-1.546-1.402a3.976 3.976 0 1 1-3.734-5.323h.038a18.9 18.9 0 0 0 3.696 5.323M57.81 21.528l-2.888-.412a2.987 2.987 0 0 0-2.811 4.749l1.75 2.332-3.187 2.39-1.75-2.332a2.987 2.987 0 0 0-5.346 1.369l-.403 2.891-3.942-.564.412-2.887a2.987 2.987 0 0 0-4.749-2.812L32.564 28l-2.39-3.186 2.332-1.75a2.987 2.987 0 0 0-1.369-5.346l-2.887-.413.563-3.941 2.888.412a2.987 2.987 0 0 0 2.812-4.749l-1.755-2.334 3.186-2.39 1.75 2.333a2.987 2.987 0 0 0 5.346-1.37l.412-2.886 3.942.562-.412 2.887a2.987 2.987 0 0 0 4.749 2.812l2.332-1.75 2.39 3.186-2.333 1.75a2.987 2.987 0 0 0 1.369 5.347l2.887.412z"/><path d="M43.31 9.477a7.965 7.965 0 1 0 7.965 7.964 7.974 7.974 0 0 0-7.965-7.964m0 13.938a5.973 5.973 0 1 1 5.973-5.974 5.98 5.98 0 0 1-5.973 5.974M31.626 44.063h-1.991v2.986h1.99zm-5.35-9.78c-6.146-2.401-9.182-9.33-6.781-15.476.93-2.381 2.6-4.401 4.764-5.763l-1.065-1.685c-6.513 4.104-8.466 12.71-4.363 19.223a13.94 13.94 0 0 0 6.722 5.553 6.36 6.36 0 0 1 4.082 5.934h1.991a8.33 8.33 0 0 0-5.35-7.786m30.24 2.811h-6.97v1.99h6.97zm-7.328 5.208-1.274 1.53 5.974 4.977 1.274-1.53zm-3.624 2.753h-1.991v6.969h1.991zM9.48 15.22l-7.963 1.99.482 1.932 7.964-1.991zm-5.153-9.8L3.17 7.04l6.969 4.977 1.157-1.62zM13.63.007 11.7.5l2.037 7.964 1.929-.493z"/></g><defs><clipPath id="a"><path fill="#fff" d="M.5 0h60v60H.5z"/></clipPath></defs></svg>