<svg xmlns="http://www.w3.org/2000/svg" width="16" height="16" fill="none" viewBox="0 0 16 16"><path fill="#000" d="M0 8c0 4.405 3.595 8 8 8s8-3.595 8-8-3.595-8-8-8C3.6 0 0 3.591 0 8m.938 0c0-1.402.41-2.71 1.118-3.81l.89.217a.513.513 0 0 1 .326.75c-.34.617-.135 1.414.464 1.814l2.025 1.35.466.931a.82.82 0 0 1-.154.95l-.28.279a.47.47 0 0 0 0 .663l.56.56c.155.155.24.361.24.58 0 .953.218 1.897.628 2.735C3.69 14.63.938 11.631.938 8m6.128.833-.183-.364h.069c.468 0 .888.26 1.098.678a2.15 2.15 0 0 0 1.936 1.197h.358v.469c0 .378-.149.734-.419 1-.865.854-1.512 1.708-1.958 2.587a5.4 5.4 0 0 1-.436-2.115c0-.47-.183-.912-.515-1.245l-.23-.229a1.76 1.76 0 0 0 .28-1.978m1.639 6.194c.4-.859 1.02-1.697 1.88-2.547a2.33 2.33 0 0 0 .696-1.668v-.937a.47.47 0 0 0-.469-.469h-.826a1.22 1.22 0 0 1-1.098-.678A2.15 2.15 0 0 0 6.952 7.53h-.537l-.143-.285c-.252-.505-.023-1.12.522-1.4.448-.229.737-.732.737-1.28V4.25A.47.47 0 0 1 8 3.781h.566c.964 0 1.64-.95 1.332-1.856l-.266-.797a7.04 7.04 0 0 1 2.824 1.397l-.143.43a.5.5 0 0 1-.113.183l-.507.506a1.4 1.4 0 0 0-.412.994v.55c0 .775.631 1.406 1.406 1.406a.47.47 0 0 1 .47.468v.717a.5.5 0 0 1-.05.21l-.16.32c-.22.439-.197.95.061 1.368.258.417.706.666 1.196.666h.458a7.08 7.08 0 0 1-5.957 4.684M15.063 8c0 .481-.05.952-.141 1.406h-.718a.46.46 0 0 1-.398-.222.46.46 0 0 1-.02-.456l.16-.32c.096-.195.148-.412.148-.63v-.715c0-.776-.631-1.407-1.406-1.407a.47.47 0 0 1-.47-.468v-.55c0-.125.05-.243.138-.331l.507-.507c.153-.153.27-.343.34-.55l.005-.015A7.04 7.04 0 0 1 15.062 8M8 .938q.297 0 .589.024l.42 1.262a.468.468 0 0 1-.443.62H8c-.775 0-1.406.63-1.406 1.406v.316c0 .197-.092.377-.228.447-.732.375-1.148 1.091-1.136 1.827l-.974-.65c-.198-.131-.27-.387-.162-.582.219-.399.24-.866.058-1.282a1.45 1.45 0 0 0-.982-.83l-.503-.122A7.05 7.05 0 0 1 8 .938"/></svg>