<svg xmlns="http://www.w3.org/2000/svg" width="15" height="15" fill="none" viewBox="0 0 15 15"><g clip-path="url(#a)"><path fill="#fff" d="M0 7.5C0 11.63 3.37 15 7.5 15S15 11.63 15 7.5 11.63 0 7.5 0C3.376 0 0 3.367 0 7.5m.879 0c0-1.314.385-2.54 1.048-3.572l.835.204a.48.48 0 0 1 .306.703c-.319.579-.127 1.325.434 1.7l1.9 1.266.436.873a.77.77 0 0 1-.145.89l-.262.262a.44.44 0 0 0 0 .621l.525.525a.77.77 0 0 1 .226.545c0 .893.203 1.778.587 2.564A6.63 6.63 0 0 1 .88 7.5m5.745.78-.17-.34h.063c.439 0 .833.243 1.03.635a2.02 2.02 0 0 0 1.815 1.122h.335v.44c0 .355-.139.688-.392.938-.811.8-1.418 1.601-1.836 2.425a5.1 5.1 0 0 1-.408-1.983c0-.44-.172-.855-.484-1.167l-.214-.214a1.65 1.65 0 0 0 .261-1.855m1.537 5.808c.375-.805.955-1.591 1.762-2.388.421-.416.653-.971.653-1.563v-.88a.44.44 0 0 0-.44-.439h-.774c-.439 0-.833-.243-1.03-.636a2.02 2.02 0 0 0-1.815-1.121h-.503l-.134-.268c-.237-.473-.022-1.05.489-1.312.42-.215.692-.686.692-1.2v-.297a.44.44 0 0 1 .439-.44h.53a1.32 1.32 0 0 0 1.25-1.74l-.25-.746a6.6 6.6 0 0 1 2.647 1.31l-.134.402a.44.44 0 0 1-.106.171l-.475.475a1.3 1.3 0 0 0-.386.932v.515a1.32 1.32 0 0 0 1.319 1.319.44.44 0 0 1 .439.44v.67a.44.44 0 0 1-.046.197l-.15.3a1.31 1.31 0 0 0 .057 1.283 1.31 1.31 0 0 0 1.122.625h.429a6.64 6.64 0 0 1-5.585 4.391M14.12 7.5q-.001.678-.132 1.318h-.672a.43.43 0 0 1-.374-.208.43.43 0 0 1-.02-.428l.15-.3c.092-.182.14-.386.14-.59v-.67a1.32 1.32 0 0 0-1.318-1.32.44.44 0 0 1-.44-.439v-.515c0-.117.046-.227.129-.31l.475-.475a1.3 1.3 0 0 0 .318-.515l.005-.016a6.6 6.6 0 0 1 1.74 4.468M7.5.879q.279 0 .552.023l.394 1.183a.44.44 0 0 1-.416.581H7.5a1.32 1.32 0 0 0-1.318 1.318v.297c0 .185-.086.353-.214.418-.686.352-1.076 1.024-1.065 1.714l-.913-.61c-.186-.123-.252-.363-.152-.545.205-.374.225-.812.055-1.202a1.35 1.35 0 0 0-.92-.778L2.5 3.164a6.6 6.6 0 0 1 5-2.285"/></g><defs><clipPath id="a"><path fill="#fff" d="M0 0h15v15H0z"/></clipPath></defs></svg>